<svg width="1776.65263671875px" height="448.4px" xmlns="http://www.w3.org/2000/svg" viewBox="-638.326318359375 -149.2 1776.65263671875 448.4" style="background: rgba(38, 35, 35, 0);" preserveAspectRatio="xMidYMid"><defs><filter id="editing-hole" x="-100%" y="-100%" width="300%" height="300%"><feFlood flood-color="#ff6b6b" result="black"></feFlood><feMorphology operator="dilate" radius="2" in="SourceGraphic" result="erode"></feMorphology><feGaussianBlur in="erode" stdDeviation="4" result="blur"></feGaussianBlur><feOffset in="blur" dx="2" dy="2" result="offset"></feOffset><feComposite operator="atop" in="offset" in2="black" result="merge"></feComposite><feComposite operator="in" in="merge" in2="SourceGraphic" result="inner-shadow"></feComposite></filter></defs><g filter="url(#editing-hole)"><g transform="translate(-383.4625244140625, 171.0999984741211)"><path d="M36-131.80L36-131.80L36-131.80Q47.20-131 56.20-131L56.20-131L56.20-131Q65.20-131 79.60-133.20L79.60-133.20L79.60-133.20Q80.40-133.20 81.60-131.20L81.60-131.20L81.60-131.20Q82.80-129.20 82.80-128.20L82.80-128.20L82.80-128.20Q79-113.60 71.20-95.20L71.20-95.20L71.20-95.20Q63.40-76.80 61.60-72.20L61.60-72.20L63.20-72.20L63.20-72.20Q81.40-99 101.50-116L101.50-116L101.50-116Q121.60-133 134.60-133L134.60-133L134.60-133Q141.80-133 145.70-129.30L145.70-129.30L145.70-129.30Q149.60-125.60 149.60-119.20L149.60-119.20L149.60-119.20Q149.60-112.80 146.40-107.50L146.40-107.50L146.40-107.50Q143.20-102.20 140.60-102.20L140.60-102.20L140.60-102.20Q140.20-102.20 136.20-104.60L136.20-104.60L136.20-104.60Q132.20-107 129-107L129-107L129-107Q118.60-107 104.50-97.40L104.50-97.40L104.50-97.40Q90.40-87.80 79.20-73.80L79.20-73.80L79.20-73.80Q83.60-46.40 89.70-30.60L89.70-30.60L89.70-30.60Q95.80-14.80 105.80-14.80L105.80-14.80L105.80-14.80Q113.20-14.80 120.20-20.60L120.20-20.60L120.20-20.60Q122.20-19.20 122.20-15.60L122.20-15.60L122.20-15.60Q122.20-9.20 114.50-2.60L114.50-2.60L114.50-2.60Q106.80 4 96 4L96 4L96 4Q85.20 4 78.90-0.40L78.90-0.40L78.90-0.40Q72.60-4.80 69.60-13.60L69.60-13.60L69.60-13.60Q64-29.20 63.60-57.40L63.60-57.40L50-39.60L50-39.60Q41.60-20.60 34.20-9.30L34.20-9.30L34.20-9.30Q26.80 2 20.20 2L20.20 2L20.20 2Q13.60 2 7.30-0.60L7.30-0.60L7.30-0.60Q1-3.20 1-9.20L1-9.20L1-9.20Q1-14.60 11.40-26.80L11.40-26.80L11.40-26.80Q15-31 22.60-39.40L22.60-39.40L22.60-39.40Q50.40-102.40 50.40-115L50.40-115L50.40-115Q50.40-117.40 44.40-119.70L44.40-119.70L44.40-119.70Q38.40-122 34.60-122L34.60-122L34.60-122Q32.80-122 32.80-124.50L32.80-124.50L32.80-124.50Q32.80-127 34.10-129.40L34.10-129.40L34.10-129.40Q35.40-131.80 36-131.80ZM177.60-83.20L177.60-83.20L177.60-83.20Q172.80-79 166.30-69.60L166.30-69.60L166.30-69.60Q159.80-60.20 157-52L157-52L157-52Q168.20-53 176.60-55.80L176.60-55.80L176.60-55.80Q185-58.60 188.80-62L188.80-62L188.80-62Q196.40-68.60 196.40-73.90L196.40-73.90L196.40-73.90Q196.40-79.20 193.40-82.20L193.40-82.20L193.40-82.20Q190.40-85.20 185.90-85.20L185.90-85.20L185.90-85.20Q181.40-85.20 177.60-83.20ZM154.80-42.40L154.80-42.40L154.80-42.40Q154.40-38 154.40-37.20L154.40-37.20L154.40-37.20Q154.40-28.40 158.20-22.50L158.20-22.50L158.20-22.50Q162-16.60 170-16.60L170-16.60L170-16.60Q185.40-16.60 197.40-26.60L197.40-26.60L197.40-26.60Q197.60-26.80 198.60-26.80L198.60-26.80L198.60-26.80Q199.60-26.80 201.20-25.20L201.20-25.20L201.20-25.20Q202.80-23.60 202.80-21.80L202.80-21.80L202.80-21.80Q202.80-20 196.80-14.40L196.80-14.40L196.80-14.40Q190.80-8.80 179.60-3.40L179.60-3.40L179.60-3.40Q168.40 2 157 2L157 2L157 2Q145.60 2 138.10-5.60L138.10-5.60L138.10-5.60Q130.60-13.20 130.60-25.60L130.60-25.60L130.60-25.60Q130.60-38 136.60-51L136.60-51L136.60-51Q142.60-64 152.10-74.80L152.10-74.80L152.10-74.80Q161.60-85.60 174.60-92.80L174.60-92.80L174.60-92.80Q187.60-100 198.40-100L198.40-100L198.40-100Q209.20-100 215.10-95.30L215.10-95.30L215.10-95.30Q221-90.60 221-82.20L221-82.20L221-82.20Q221-71.40 214-62.40L214-62.40L214-62.40Q199.20-44 154.80-42.40ZM272-83.20L272-83.20L272-83.20Q267.20-79 260.70-69.60L260.70-69.60L260.70-69.60Q254.20-60.20 251.40-52L251.40-52L251.40-52Q262.60-53 271-55.80L271-55.80L271-55.80Q279.40-58.60 283.20-62L283.20-62L283.20-62Q290.80-68.60 290.80-73.90L290.80-73.90L290.80-73.90Q290.80-79.20 287.80-82.20L287.80-82.20L287.80-82.20Q284.80-85.20 280.30-85.20L280.30-85.20L280.30-85.20Q275.80-85.20 272-83.20ZM249.20-42.40L249.20-42.40L249.20-42.40Q248.80-38 248.80-37.20L248.80-37.20L248.80-37.20Q248.80-28.40 252.60-22.50L252.60-22.50L252.60-22.50Q256.40-16.60 264.40-16.60L264.40-16.60L264.40-16.60Q279.80-16.60 291.80-26.60L291.80-26.60L291.80-26.60Q292-26.80 293-26.80L293-26.80L293-26.80Q294-26.80 295.60-25.20L295.60-25.20L295.60-25.20Q297.20-23.60 297.20-21.80L297.20-21.80L297.20-21.80Q297.20-20 291.20-14.40L291.20-14.40L291.20-14.40Q285.20-8.80 274-3.40L274-3.40L274-3.40Q262.80 2 251.40 2L251.40 2L251.40 2Q240 2 232.50-5.60L232.50-5.60L232.50-5.60Q225-13.20 225-25.60L225-25.60L225-25.60Q225-38 231-51L231-51L231-51Q237-64 246.50-74.80L246.50-74.80L246.50-74.80Q256-85.60 269-92.80L269-92.80L269-92.80Q282-100 292.80-100L292.80-100L292.80-100Q303.60-100 309.50-95.30L309.50-95.30L309.50-95.30Q315.40-90.60 315.40-82.20L315.40-82.20L315.40-82.20Q315.40-71.40 308.40-62.40L308.40-62.40L308.40-62.40Q293.60-44 249.20-42.40ZM392.80-83L392.80-83L392.80-83Q380-77.60 367.80-63.80L367.80-63.80L367.80-63.80Q361.60-43 351.60-22.40L351.60-22.40L351.60-22.40Q349.40-17.60 349-16.60L349-16.60L349-16.60Q355.20-12.40 360.80-12.40L360.80-12.40L360.80-12.40Q374.20-12.40 386.60-31.40L386.60-31.40L386.60-31.40Q399-50.40 399-70.20L399-70.20L399-70.20Q399-83 392.80-83ZM343.80-5.40L343.80-5.40L343.80-5.40Q341.80-1.40 336.90 9.20L336.90 9.20L336.90 9.20Q332 19.80 329.60 24.70L329.60 24.70L329.60 24.70Q327.20 29.60 323.40 36.40L323.40 36.40L323.40 36.40Q316.40 48.80 311 48.80L311 48.80L311 48.80Q307.40 48.80 301.90 45.50L301.90 45.50L301.90 45.50Q296.40 42.20 296.40 38.60L296.40 38.60L296.40 38.60Q296.40 31 312.20 1L312.20 1L312.20 1Q328-29 340.60-47.40L340.60-47.40L340.60-47.40Q346.40-64.80 346.40-76.80L346.40-76.80L346.40-76.80Q346.40-85.40 340.60-85.40L340.60-85.40L340.60-85.40Q337.60-85.40 333-83.20L333-83.20L333-83.20Q328.40-81 327.80-80.80L327.80-80.80L327.80-80.80Q326.60-81 325.40-83.70L325.40-83.70L325.40-83.70Q324.20-86.40 324.20-88.40L324.20-88.40L324.20-88.40Q345.40-102.80 358.20-102.80L358.20-102.80L358.20-102.80Q364-102.80 367.60-98.80L367.60-98.80L367.60-98.80Q371.20-94.80 371.20-86.40L371.20-86.40L371.20-86.40Q371.20-84.40 370.40-77.60L370.40-77.60L370.40-77.60Q392-101 407.60-101L407.60-101L407.60-101Q426.80-101 426.80-77.20L426.80-77.20L426.80-77.20Q426.80-62.40 418.40-44.60L418.40-44.60L418.40-44.60Q410-26.80 394.40-13.40L394.40-13.40L394.40-13.40Q378.80 0 361.60 0L361.60 0L361.60 0Q351.80 0 343.80-5.40ZM500.80-117.20L500.80-117.20L500.80-117.20Q496.80-115.20 486.60-115.20L486.60-115.20L486.60-115.20Q476.40-115.20 472.40-116.40L472.40-116.40L472.40-116.40Q474.00-122.20 474.00-127.20L474.00-127.20L474.00-127.20Q474.00-132.20 473.80-133.80L473.80-133.80L473.80-133.80Q476.00-137.20 486.40-140.30L486.40-140.30L486.40-140.30Q496.80-143.40 506.60-143.40L506.60-143.40L506.60-143.40Q507.80-143.40 507.80-139L507.80-139L507.80-139Q507.80-134.60 505.60-127L505.60-127L505.60-127Q503.40-119.40 500.80-117.20ZM481.60-16L481.60-16L481.60-16Q482.80-13.60 482.80-12.20L482.80-12.20L482.80-12.20Q482.80-10.80 478.70-7.60L478.70-7.60L478.70-7.60Q474.60-4.40 466.50-1.20L466.50-1.20L466.50-1.20Q458.40 2 449.80 2L449.80 2L449.80 2Q436.80 2 436.80-8.80L436.80-8.80L436.80-8.80Q436.80-18.60 443.00-33.70L443.00-33.70L443.00-33.70Q449.20-48.80 455.50-62.40L455.50-62.40L455.50-62.40Q461.80-76 461.80-82.20L461.80-82.20L461.80-82.20Q461.80-84.20 460.20-84.20L460.20-84.20L460.20-84.20Q458.00-84.20 453.90-82.30L453.90-82.30L453.90-82.30Q449.80-80.40 448.80-80.40L448.80-80.40L448.80-80.40Q447.80-80.40 446.50-83.10L446.50-83.10L446.50-83.10Q445.20-85.80 445.20-87.20L445.20-87.20L445.20-87.20Q445.20-88.20 451.00-91.10L451.00-91.10L451.00-91.10Q456.80-94 465.60-96.70L465.60-96.70L465.60-96.70Q474.40-99.40 479.30-99.40L479.30-99.40L479.30-99.40Q484.20-99.40 488.40-97.10L488.40-97.10L488.40-97.10Q492.60-94.80 492.60-91.50L492.60-91.50L492.60-91.50Q492.60-88.20 485.30-72.80L485.30-72.80L485.30-72.80Q478.00-57.40 470.60-40L470.60-40L470.60-40Q463.20-22.60 463.20-14.40L463.20-14.40L463.20-14.40Q463.20-12 465.20-12L465.20-12L465.20-12Q470.00-12 477.00-16.80L477.00-16.80L479.20-18.40L479.20-18.40Q480.40-18.40 481.60-16ZM542.80-52.20L542.80-52.20L542.80-52.20Q538.40-32.20 529.40-15.30L529.40-15.30L529.40-15.30Q520.40 1.60 515.40 1.60L515.40 1.60L515.40 1.60Q510.40 1.60 504.90-0.30L504.90-0.30L504.90-0.30Q499.40-2.20 499.40-6L499.40-6L499.40-6Q499.40-12.80 504.70-23.20L504.70-23.20L504.70-23.20Q510-33.60 515.40-40.60L515.40-40.60L520.60-47.60L520.60-47.60Q524.60-61.20 524.60-77.40L524.60-77.40L524.60-77.40Q524.60-84.60 521.60-84.60L521.60-84.60L521.60-84.60Q519.40-84.60 516.20-82.90L516.20-82.90L516.20-82.90Q513-81.20 512-81.20L512-81.20L512-81.20Q511-81.20 509.80-83.60L509.80-83.60L509.80-83.60Q508.60-86 508.60-87.30L508.60-87.30L508.60-87.30Q508.60-88.60 513.10-91.70L513.10-91.70L513.10-91.70Q517.60-94.80 525.20-97.80L525.20-97.80L525.20-97.80Q532.80-100.80 539.40-100.80L539.40-100.80L539.40-100.80Q542.40-100.80 544.50-95.40L544.50-95.40L544.50-95.40Q546.60-90 546.60-83.70L546.60-83.70L546.60-83.70Q546.60-77.40 546.20-70.20L546.20-70.20L546.20-70.20Q551.80-79.80 566.10-90.20L566.10-90.20L566.10-90.20Q580.40-100.60 589-100.60L589-100.60L589-100.60Q597.60-100.60 601.60-96L601.60-96L601.60-96Q605.60-91.40 605.60-84.20L605.60-84.20L605.60-84.20Q605.60-73.40 594.30-47.40L594.30-47.40L594.30-47.40Q583-21.40 583-14.40L583-14.40L583-14.40Q583-12 585-12L585-12L585-12Q590-12 597-16.80L597-16.80L599.20-18.40L599.20-18.40Q600.40-18.40 601.60-16L601.60-16L601.60-16Q602.80-13.60 602.80-12.20L602.80-12.20L602.80-12.20Q602.80-10.80 598.70-7.60L598.70-7.60L598.70-7.60Q594.60-4.40 586.50-1.20L586.50-1.20L586.50-1.20Q578.40 2 569.80 2L569.80 2L569.80 2Q556.80 2 556.80-8.80L556.80-8.80L556.80-8.80Q556.80-15.60 567.30-40.30L567.30-40.30L567.30-40.30Q577.80-65 577.80-76.40L577.80-76.40L577.80-76.40Q577.80-79 576.80-80.60L576.80-80.60L576.80-80.60Q575.80-82.20 573.60-82.60L573.60-82.60L573.60-82.60Q571.40-81.20 567.70-78.70L567.70-78.70L567.70-78.70Q564-76.20 555.80-68.30L555.80-68.30L555.80-68.30Q547.60-60.40 542.80-52.20ZM674.20-129.80L674.20-129.80L674.20-129.80Q663.20-120.80 654.70-107.30L654.70-107.30L654.70-107.30Q646.20-93.80 642.80-80.40L642.80-80.40L642.80-80.40Q642-79.60 639.80-79.60L639.80-79.60L639.80-79.60Q635.60-79.60 635.60-88.40L635.60-88.40L635.60-88.40Q635.60-97.20 638.20-108.90L638.20-108.90L638.20-108.90Q640.80-120.60 646-129.80L646-129.80L646-129.80Q651.20-139 657.60-139L657.60-139L657.60-139Q666.60-139 674.20-129.80ZM775.20-117.20L775.20-117.20L775.20-117.20Q771.20-115.20 761-115.20L761-115.20L761-115.20Q750.80-115.20 746.80-116.40L746.80-116.40L746.80-116.40Q748.40-122.20 748.40-127.20L748.40-127.20L748.40-127.20Q748.40-132.20 748.20-133.80L748.20-133.80L748.20-133.80Q750.40-137.20 760.80-140.30L760.80-140.30L760.80-140.30Q771.20-143.40 781-143.40L781-143.40L781-143.40Q782.20-143.40 782.20-139L782.20-139L782.20-139Q782.20-134.60 780-127L780-127L780-127Q777.80-119.40 775.20-117.20ZM756-16L756-16L756-16Q757.20-13.60 757.20-12.20L757.20-12.20L757.20-12.20Q757.20-10.80 753.10-7.60L753.10-7.60L753.10-7.60Q749-4.40 740.90-1.20L740.90-1.20L740.90-1.20Q732.80 2 724.20 2L724.20 2L724.20 2Q711.20 2 711.20-8.80L711.20-8.80L711.20-8.80Q711.20-18.60 717.40-33.70L717.40-33.70L717.40-33.70Q723.60-48.80 729.90-62.40L729.90-62.40L729.90-62.40Q736.20-76 736.20-82.20L736.20-82.20L736.20-82.20Q736.20-84.20 734.60-84.20L734.60-84.20L734.60-84.20Q732.40-84.20 728.30-82.30L728.30-82.30L728.30-82.30Q724.20-80.40 723.20-80.40L723.20-80.40L723.20-80.40Q722.20-80.40 720.90-83.10L720.90-83.10L720.90-83.10Q719.60-85.80 719.60-87.20L719.60-87.20L719.60-87.20Q719.60-88.20 725.40-91.10L725.40-91.10L725.40-91.10Q731.20-94 740-96.70L740-96.70L740-96.70Q748.80-99.40 753.70-99.40L753.70-99.40L753.70-99.40Q758.60-99.40 762.80-97.10L762.80-97.10L762.80-97.10Q767-94.80 767-91.50L767-91.50L767-91.50Q767-88.20 759.70-72.80L759.70-72.80L759.70-72.80Q752.40-57.40 745-40L745-40L745-40Q737.60-22.60 737.60-14.40L737.60-14.40L737.60-14.40Q737.60-12 739.60-12L739.60-12L739.60-12Q744.40-12 751.40-16.80L751.40-16.80L753.60-18.40L753.60-18.40Q754.80-18.40 756-16ZM836.40-11.40L836.40-11.40L836.40-11.40Q830.40-5.20 820.50-1.20L820.50-1.20L820.50-1.20Q810.60 2.80 801.10 2.80L801.10 2.80L801.10 2.80Q791.60 2.80 785.50-2.20L785.50-2.20L785.50-2.20Q779.40-7.20 779.40-16.90L779.40-16.90L779.40-16.90Q779.40-26.60 785.80-43.70L785.80-43.70L785.80-43.70Q792.20-60.80 801.80-79.20L801.80-79.20L801.80-79.20Q797.40-80.20 793.60-80.20L793.60-80.20L793.60-80.20Q786-80.20 782.60-75.60L782.60-75.60L782.60-75.60Q778.20-80.20 778.20-85.20L778.20-85.20L778.20-85.20Q778.20-90.20 783.60-93.60L783.60-93.60L783.60-93.60Q789-97 796.60-97L796.60-97L796.60-97Q804.20-97 809.20-96L809.20-96L809.20-96Q814.40-106.80 815.40-120.60L815.40-120.60L815.40-120.60Q822.40-127.40 836-127.40L836-127.40L836-127.40Q839.60-127.40 841.70-125.30L841.70-125.30L841.70-125.30Q843.80-123.20 843.80-119.60L843.80-119.60L843.80-119.60Q843.80-109.80 830-92.60L830-92.60L830-92.60Q835.80-91.20 843.30-91.20L843.30-91.20L843.30-91.20Q850.80-91.20 858.40-94L858.40-94L858.40-94Q859-91 859-88.20L859-88.20L859-88.20Q859-71.40 837.80-71.40L837.80-71.40L837.80-71.40Q829-71.40 821-74.60L821-74.60L821-74.60Q806.80-36.80 806.80-21.80L806.80-21.80L806.80-21.80Q806.80-13.80 815.80-13.80L815.80-13.80L815.80-13.80Q820.40-13.80 825.50-15.70L825.50-15.70L825.50-15.70Q830.60-17.60 832.80-19.80L832.80-19.80L832.80-19.80Q836.80-18.40 836.80-14.20L836.80-14.20L836.80-14.20Q836.80-13 836.40-11.40ZM971.60-80.20L971.60-80.20L971.60-80.20Q968.80-78.80 960.20-66.90L960.20-66.90L960.20-66.90Q951.60-55 947-46.40L947-46.40L947-46.40Q942.40-26.40 934.30-12.40L934.30-12.40L934.30-12.40Q926.20 1.60 921.10 1.60L921.10 1.60L921.10 1.60Q916 1.60 910.50-0.30L910.50-0.30L910.50-0.30Q905-2.20 905-6L905-6L905-6Q905-12.80 910.30-23.20L910.30-23.20L910.30-23.20Q915.60-33.60 921-40.60L921-40.60L926.20-47.60L926.20-47.60Q930.20-61.20 930.20-77.40L930.20-77.40L930.20-77.40Q930.20-84.60 927.20-84.60L927.20-84.60L927.20-84.60Q925-84.60 921.80-82.90L921.80-82.90L921.80-82.90Q918.60-81.20 917.60-81.20L917.60-81.20L917.60-81.20Q916.60-81.20 915.40-83.60L915.40-83.60L915.40-83.60Q914.20-86 914.20-87.30L914.20-87.30L914.20-87.30Q914.20-88.60 918.70-91.70L918.70-91.70L918.70-91.70Q923.20-94.80 930.80-97.80L930.80-97.80L930.80-97.80Q938.40-100.80 945-100.80L945-100.80L945-100.80Q948-100.80 950.10-95.20L950.10-95.20L950.10-95.20Q952.20-89.60 952.20-83.30L952.20-83.30L952.20-83.30Q952.20-77 952-73.90L952-73.90L952-73.90Q951.80-70.80 951.80-69.60L951.80-69.60L951.80-69.60Q959.20-82.60 968.70-91.60L968.70-91.60L968.70-91.60Q978.20-100.60 986.80-100.60L986.80-100.60L986.80-100.60Q995.40-100.60 999.70-96L999.70-96L999.70-96Q1004-91.40 1004-83.20L1004-83.20L1004-83.20Q1004-72 992.80-61.20L992.80-61.20L992.80-61.20Q981.60-50.40 973.40-50.40L973.40-50.40L973.40-50.40Q969.40-50.40 969.40-53L969.40-53L969.40-53Q969.40-53.60 972.50-60L972.50-60L972.50-60Q975.60-66.40 975.60-73.30L975.60-73.30L975.60-73.30Q975.60-80.20 971.60-80.20ZM1046-83.20L1046-83.20L1046-83.20Q1041.20-79 1034.70-69.60L1034.70-69.60L1034.70-69.60Q1028.20-60.20 1025.40-52L1025.40-52L1025.40-52Q1036.60-53 1045-55.80L1045-55.80L1045-55.80Q1053.40-58.60 1057.20-62L1057.20-62L1057.20-62Q1064.80-68.60 1064.80-73.90L1064.80-73.90L1064.80-73.90Q1064.80-79.20 1061.80-82.20L1061.80-82.20L1061.80-82.20Q1058.80-85.20 1054.30-85.20L1054.30-85.20L1054.30-85.20Q1049.80-85.20 1046-83.20ZM1023.20-42.40L1023.20-42.40L1023.20-42.40Q1022.80-38 1022.80-37.20L1022.80-37.20L1022.80-37.20Q1022.80-28.40 1026.60-22.50L1026.60-22.50L1026.60-22.50Q1030.40-16.60 1038.40-16.60L1038.40-16.60L1038.40-16.60Q1053.80-16.60 1065.80-26.60L1065.80-26.60L1065.80-26.60Q1066-26.80 1067-26.80L1067-26.80L1067-26.80Q1068-26.80 1069.60-25.20L1069.60-25.20L1069.60-25.20Q1071.20-23.60 1071.20-21.80L1071.20-21.80L1071.20-21.80Q1071.20-20 1065.20-14.40L1065.20-14.40L1065.20-14.40Q1059.20-8.80 1048-3.40L1048-3.40L1048-3.40Q1036.80 2 1025.40 2L1025.40 2L1025.40 2Q1014 2 1006.50-5.60L1006.50-5.60L1006.50-5.60Q999-13.20 999-25.60L999-25.60L999-25.60Q999-38 1005-51L1005-51L1005-51Q1011-64 1020.50-74.80L1020.50-74.80L1020.50-74.80Q1030-85.60 1043-92.80L1043-92.80L1043-92.80Q1056-100 1066.80-100L1066.80-100L1066.80-100Q1077.60-100 1083.50-95.30L1083.50-95.30L1083.50-95.30Q1089.40-90.60 1089.40-82.20L1089.40-82.20L1089.40-82.20Q1089.40-71.40 1082.40-62.40L1082.40-62.40L1082.40-62.40Q1067.60-44 1023.20-42.40ZM1169.80-78.40L1169.80-78.40L1169.80-78.40Q1167.80-81.60 1164.40-83.60L1164.40-83.60L1164.40-83.60Q1161-85.60 1158.80-86L1158.80-86L1156.40-86.40L1156.40-86.40Q1142-77.60 1129.90-58.50L1129.90-58.50L1129.90-58.50Q1117.80-39.40 1117.80-23.60L1117.80-23.60L1117.80-23.60Q1117.80-20.20 1119.50-18.30L1119.50-18.30L1119.50-18.30Q1121.20-16.40 1123.40-16.40L1123.40-16.40L1123.40-16.40Q1129.20-16.40 1136.40-21.60L1136.40-21.60L1136.40-21.60Q1143.60-26.80 1148-32L1148-32L1152.40-37.20L1152.40-37.20Q1157.40-55.60 1169.80-78.40ZM1150.60-23.40L1150.60-23.40L1150.60-23.40Q1150.40-23.20 1147.80-20.20L1147.80-20.20L1147.80-20.20Q1145.20-17.20 1141.70-13.70L1141.70-13.70L1141.70-13.70Q1138.20-10.20 1133.60-6.40L1133.60-6.40L1133.60-6.40Q1123 2 1112.80 2L1112.80 2L1112.80 2Q1102.60 2 1097.50-4.20L1097.50-4.20L1097.50-4.20Q1092.40-10.40 1092.40-22.60L1092.40-22.60L1092.40-22.60Q1092.40-34.80 1102.40-53.20L1102.40-53.20L1102.40-53.20Q1112.40-71.60 1127.80-85.20L1127.80-85.20L1127.80-85.20Q1143.20-98.80 1156.60-98.80L1156.60-98.80L1156.60-98.80Q1162.60-98.80 1167.90-95.80L1167.90-95.80L1167.90-95.80Q1173.20-92.80 1175.60-88.80L1175.60-88.80L1175.60-88.80Q1188.20-108.60 1196.40-108.60L1196.40-108.60L1196.40-108.60Q1200.40-108.60 1203.20-104.30L1203.20-104.30L1203.20-104.30Q1206-100 1206-94.30L1206-94.30L1206-94.30Q1206-88.60 1197-73.50L1197-73.50L1197-73.50Q1188-58.40 1174.80-42.40L1174.80-42.40L1174.80-42.40Q1173.20-35.80 1173.20-25.40L1173.20-25.40L1173.20-25.40Q1173.20-11.40 1180.80-11.40L1180.80-11.40L1180.80-11.40Q1185.80-11.40 1193.60-16.20L1193.60-16.20L1196.20-17.80L1196.20-17.80Q1196.80-17.80 1198.30-15.40L1198.30-15.40L1198.30-15.40Q1199.80-13 1199.80-11.70L1199.80-11.70L1199.80-11.70Q1199.80-10.40 1195.80-7.20L1195.80-7.20L1195.80-7.20Q1191.80-4 1184.30-0.90L1184.30-0.90L1184.30-0.90Q1176.80 2.20 1169.20 2.20L1169.20 2.20L1169.20 2.20Q1150.60 2.20 1150.60-23.40ZM1238.20-11L1238.20-11L1238.20-11Q1244.60-11 1255.60-17.40L1255.60-17.40L1255.60-17.40Q1256.80-17.40 1258-15L1258-15L1258-15Q1259.20-12.60 1259.20-11.20L1259.20-11.20L1259.20-11.20Q1259.20-9.80 1254.50-6.50L1254.50-6.50L1254.50-6.50Q1249.80-3.20 1241.10-0.10L1241.10-0.10L1241.10-0.10Q1232.40 3 1223.80 3L1223.80 3L1223.80 3Q1211.20 3 1211.20-10.60L1211.20-10.60L1211.20-10.60Q1211.20-20.80 1222.40-52.10L1222.40-52.10L1222.40-52.10Q1233.60-83.40 1248.60-111.70L1248.60-111.70L1248.60-111.70Q1263.60-140 1272-140L1272-140L1272-140Q1280.80-140 1285.80-136.70L1285.80-136.70L1285.80-136.70Q1290.80-133.40 1290.80-129.20L1290.80-129.20L1290.80-129.20Q1290.80-113.60 1252.60-68.20L1252.60-68.20L1252.60-68.20Q1234.20-29 1234.20-14.40L1234.20-14.40L1234.20-14.40Q1234.20-11 1238.20-11Z" fill="#fefefe"></path></g></g><style>text {
  font-size: 64px;
  font-family: Arial Black;
  dominant-baseline: central;
  text-anchor: middle;
}</style></svg>