<svg id="Layer_1" data-name="Layer 1" xmlns="http://www.w3.org/2000/svg" viewBox="0 0 396.89 435.48"><defs><style>.cls-1{fill:#75634f;}.cls-2{fill:#7e6d58;}.cls-3{fill:#776550;}.cls-4{opacity:0.39;}.cls-5{fill:#111421;}</style></defs><title>asteroid3</title><path class="cls-1" d="M258.63,616.57c-1.94-3.56-6-4.3-9-6.35-6.49-4.43-9.89-11.19-14.37-17.11-5.89-7.79-13.22-13.86-20.83-19.87-11-8.65-22-17.26-32.63-26.34-10-8.5-19.77-17.11-29.25-26.15-9.32-8.9-14.21-20.38-19.43-31.63-5.49-11.84-10.14-24-17-35.23-4.45-7.23-5.07-15.82-6.79-23.95a345.88,345.88,0,0,1-7.14-68.87c-.13-17.23,1.43-34.43,7.25-50.82,3.13-8.8,9.63-15.35,16.55-21.54,14.89-13.31,31.6-24,48.31-34.77,5.86-3.77,11.39-7.73,15.39-13.69s10.19-9.37,17-11.73c16.76-5.83,33.74-5.21,50.94-2.37a311.1,311.1,0,0,1,46.16,11.79,330.07,330.07,0,0,1,47,19.39,261,261,0,0,1,32.94,19.36,120.11,120.11,0,0,1,30.65,31C430,331,445.61,354.31,463.71,375.8c5.94,7.05,12.16,13.8,20.34,18.62,5.25,3.1,7.5,9,9.55,14.62a91.41,91.41,0,0,1,4.65,43.23c-.85,6.82-2.47,13.87-6.18,19.74-11.82,18.66-14.37,39.28-14.2,60.69.07,8.65.47,17.26-.86,26-2.24,14.76-10.45,25.34-21.58,34.09-11.31,8.9-24.31,14.92-37.53,20.3-15.37,6.26-27.47,16.49-37.28,29.57-2.71,3.61-5.62,7.15-8.05,10.88-4.53,6.92-11,6.63-17.19,5.15-10.76-2.6-21.48-5.51-31.71-10.08-7.57-3.38-15.12-6.85-22.76-10-14.59-6.1-27.78-14.72-41.84-21.74" transform="translate(-102.14 -224.05)"/><path class="cls-2" d="M179.12,250.66c-15.71,10.62-28.74,19.57-39.17,26.6a163.84,163.84,0,0,0-18.72,15.45,46,46,0,0,0-7.35,8.64,49.39,49.39,0,0,0-4.73,9.68A93.3,93.3,0,0,0,104.23,329c-1.51,9.19-2.57,22.18-1.87,41.92.14,3.89.74,19.27,3.3,38.32,0,0,1.19,8.91,5.79,32,.13.65.4,2,.9,3.74,1.22,4.21,2.54,6.36,5.93,12.66,4.55,8.44,6.59,12.78,7.51,14.77.13.29,0,.06,1.45,3.21,1.33,3,3.34,7.41,5.79,12.8,4.86,10.71,7.3,16.08,7.77,16.91,5.89,10.63,13,17.46,19.06,23.31,1.21,1.17,1.51,1.41,17.26,14.7L191,555c16.41,13.41,31,24.52,31,24.52a57.78,57.78,0,0,1,11,10.57c2.38,3,2,3.43,5.71,8.67,2.82,3.94,6.28,8.31,9.79,10.65a36.36,36.36,0,0,0,4.5,2.65,11.22,11.22,0,0,1,2.48,1.2c1.31,1,1.52,1.85,3.08,3.06a11.25,11.25,0,0,0,1.66,1.06c23.62,12.79,18,10.41,30.7,16.56,0,0,16.31,7.92,42.59,18.64a45.62,45.62,0,0,0,5.62,1.88c.62.17,1.05.25,1.72.42a47.87,47.87,0,0,1,5.48,1.75c2.18.81,12.09,3.59,18.17,2.56,8.1-1.37,9.69-9.54,20.48-22.05a100.77,100.77,0,0,1,18.22-16.5c-5.15-8.46-10.77-12.67-15-15-5.95-3.22-9.47-2.81-12.93-7-4.54-5.51-1.84-10.3-6.12-13.68s-7.88.55-14.65-2.37c-4.93-2.12-7.61-6.15-12.11-12.94a61,61,0,0,1-5.89-11.17c-4.19-10.75-1.57-14-4.89-18.13-5.22-6.48-13.61-.88-22.5-6.29-10.36-6.31-4.6-17.37-14.42-27.76-8.66-9.16-15.64-3.22-39.13-15.92-8.68-4.69-13.36-8.54-16.59-14-4.22-7.16-4.32-14.26-4.41-17.44-.86-33.87.59-39.6-5.73-50.58-3.55-6.16-4.07-10-5-12.25-2.73-6.28-7-9.77-13.28-15.17-10.2-8.81-19.73-18.36-29.79-27.32-17.76-15.82-18.52-17-19.11-19.14-3.46-12.65,9.15-20.78,15.8-40.88C180.59,284.21,183.07,270.12,179.12,250.66Z" transform="translate(-102.14 -224.05)"/><path class="cls-3" d="M148.44,370.74c-7-3.65-16.51-1.81-21.81,4-1.88,2.07-1.68,4.18-1.06,6.44,2.1,7.69,8.23,13,11.92,19.75.65,1.21,2.47,1.46,4,1.45,2.3,0,4.6.14,6.91.13,10.39,0,13.72-3.75,11-13.83C157.63,381.81,155.44,374.65,148.44,370.74Z" transform="translate(-102.14 -224.05)"/><path class="cls-3" d="M169.77,466.91c-7-3.66-16.51-1.81-21.81,4-1.88,2.07-1.68,4.18-1.06,6.44,2.1,7.69,8.23,13,11.91,19.75.66,1.21,2.48,1.46,4.05,1.45,2.31,0,4.61.14,6.92.13,10.39,0,13.72-3.75,11-13.83C179,478,176.77,470.82,169.77,466.91Z" transform="translate(-102.14 -224.05)"/><path class="cls-3" d="M198.17,393.38a8,8,0,0,0-9.2,1.69,2.61,2.61,0,0,0-.45,2.72c.89,3.25,3.47,5.48,5,8.34.28.5,1,.61,1.71.6,1,0,1.94.06,2.91.06,4.39,0,5.8-1.58,4.66-5.83C202.05,398.05,201.13,395,198.17,393.38Z" transform="translate(-102.14 -224.05)"/><path class="cls-3" d="M338.66,601.85a11.89,11.89,0,0,0-13.77,2.54,3.89,3.89,0,0,0-.68,4.07c1.33,4.85,5.2,8.2,7.53,12.47.41.76,1.56.92,2.56.91,1.45,0,2.9.09,4.36.09,6.56,0,8.66-2.37,7-8.74C344.46,608.84,343.08,604.32,338.66,601.85Z" transform="translate(-102.14 -224.05)"/><g class="cls-4"><path class="cls-5" d="M258.63,616.57c-1.94-3.56-6-4.3-9-6.35-6.49-4.43-9.89-11.19-14.37-17.11-5.89-7.79-13.22-13.86-20.83-19.87-11-8.65-22-17.26-32.63-26.34-10-8.5-19.77-17.11-29.25-26.15-9.32-8.9-14.21-20.38-19.43-31.63-5.49-11.84-10.14-24-17-35.23-4.45-7.23-5.07-15.82-6.79-23.95a345.88,345.88,0,0,1-7.14-68.87c-.13-17.23,1.43-34.43,7.25-50.82,3.13-8.8,9.63-15.35,16.55-21.54,14.89-13.31,31.6-24,48.31-34.77,5.86-3.77,11.39-7.73,15.39-13.69s10.19-9.37,17-11.73c16.76-5.83,33.74-5.21,50.94-2.37a311.1,311.1,0,0,1,46.16,11.79,330.07,330.07,0,0,1,47,19.39,261,261,0,0,1,32.94,19.36,120.11,120.11,0,0,1,30.65,31C430,331,445.61,354.31,463.71,375.8c5.94,7.05,12.16,13.8,20.34,18.62,5.25,3.1,7.5,9,9.55,14.62a91.41,91.41,0,0,1,4.65,43.23c-.85,6.82-2.47,13.87-6.18,19.74-11.82,18.66-14.37,39.28-14.2,60.69.07,8.65.47,17.26-.86,26-2.24,14.76-10.45,25.34-21.58,34.09-11.31,8.9-24.31,14.92-37.53,20.3-15.37,6.26-27.47,16.49-37.28,29.57-2.71,3.61-5.62,7.15-8.05,10.88-4.53,6.92-11,6.63-17.19,5.15-10.76-2.6-21.48-5.51-31.71-10.08-7.57-3.38-15.12-6.85-22.76-10-14.59-6.1-27.78-14.72-41.84-21.74" transform="translate(-102.14 -224.05)"/></g></svg>