<svg id="Layer_1" data-name="Layer 1" xmlns="http://www.w3.org/2000/svg" viewBox="0 0 450.95 344.32"><defs><style>.cls-1{fill:#75634f;}.cls-2{fill:#7e6d58;}.cls-3{fill:#776550;}.cls-4{opacity:0.13;}.cls-5{fill:#111421;}</style></defs><title>asteroid2</title><path class="cls-1" d="M209.32,265.1c3.75,1.57,7.37-.39,11-.67,7.84-.62,14.72,2.52,21.92,4.33,9.47,2.39,19,2.53,28.68,2.44,14-.13,27.95-.31,41.94.1,13.09.38,26.13.95,39.18,2.06,12.84,1.1,23.84,7,35,12.48,11.7,5.79,23,12.39,35.34,16.8,8,2.85,13.86,9.15,20.29,14.42a344.85,344.85,0,0,1,48.71,49.21c10.89,13.35,20.45,27.73,26.18,44.15,3.07,8.82,2.11,18,.59,27.16-3.27,19.7-9.59,38.52-15.88,57.36-2.2,6.61-4,13.17-3.42,20.31S496.72,529,492.92,535c-9.42,15.05-23,25.2-38.22,33.76a311.88,311.88,0,0,1-43.36,19.73,331.13,331.13,0,0,1-48.79,14.32,259.82,259.82,0,0,1-37.8,5.53,119.92,119.92,0,0,1-43.33-5c-26.77-8.37-53.57-16.71-81.14-22.13-9.05-1.78-18.12-3.14-27.53-1.78-6,.88-11.5-2.34-16.6-5.41a91.39,91.39,0,0,1-30.7-30.78c-3.61-5.85-6.76-12.36-7.54-19.26-2.48-21.95-13.41-39.63-26.95-56.2-5.47-6.71-11.18-13.16-15.61-20.8-7.49-12.9-7.72-26.29-4.53-40.09,3.25-14,9.61-26.86,16.54-39.33,8.07-14.51,11.09-30.06,10.54-46.4-.15-4.52-.1-9.1-.54-13.53-.8-8.23,4.44-12.07,10.18-14.77,10-4.72,20.19-9.17,31-12,8-2.1,16.08-4.13,24-6.42,15.19-4.39,30.88-5.93,46.23-9.27" transform="translate(-68.88 -264.29)"/><path class="cls-2" d="M500.5,500.53c5.6-18.11,10.15-33.25,13.88-45.27a164.33,164.33,0,0,0,4.92-23.76,46.35,46.35,0,0,0,.31-11.34,50,50,0,0,0-2.38-10.52,93.07,93.07,0,0,0-7.39-17c-4.58-8.12-11.89-18.9-24.8-33.86-2.54-2.94-12.65-14.55-26.57-27.8,0,0-6.51-6.2-24.57-21.32-.5-.43-1.56-1.31-3-2.35-3.59-2.52-6-3.37-12.55-6.15-8.82-3.74-13.13-5.84-15.1-6.82l-3.14-1.6-12.54-6.34c-10.49-5.3-15.75-8-16.64-8.32-11.25-4.6-21.05-5.48-29.46-6.23-1.67-.15-2.06-.15-22.66-.65l-18.15-.43c-21.2-.18-39.53.3-39.53.3a57.12,57.12,0,0,1-15.23-1.33c-3.76-.86-3.67-1.44-9.88-3.18-4.67-1.3-10.1-2.53-14.3-2.16a36.25,36.25,0,0,0-5.17.76,11.68,11.68,0,0,1-2.69.61c-1.63.06-2.34-.49-4.31-.46a12.45,12.45,0,0,0-2,.22c-26.42,4.83-20.57,3.17-34.3,6.32,0,0-17.67,4-44.88,12.15A44.37,44.37,0,0,0,122.8,286c-.58.26-1,.47-1.6.75a51.67,51.67,0,0,1-5.37,2.08c-2.2.72-11.67,4.77-15.76,9.38-5.46,6.14-1.58,13.5-2.16,30a101.53,101.53,0,0,1-3.86,24.27c9.31,3.37,16.32,3.13,21,2.27,6.66-1.21,9.14-3.74,14.47-2.63,7,1.45,7.89,6.88,13.35,6.83s5.78-5.36,12.9-7.33c5.16-1.43,9.78,0,17.54,2.51a61.31,61.31,0,0,1,11.59,5c10,5.76,10,9.94,15.17,11.07,8.12,1.78,11.15-7.84,21.47-9.19,12-1.57,14.47,10.66,28.64,12.61,12.48,1.71,14.21-7.29,40.47-12.11,9.7-1.78,15.76-1.71,21.72.55,7.77,2.94,12.31,8.41,14.36,10.84,21.89,25.86,24.35,31.23,36.15,35.83,6.63,2.58,9.47,5.28,11.59,6.4,6.07,3.19,11.6,3.22,19.86,3.51,13.47.48,26.88,1.95,40.34,2.63,23.75,1.21,25.06,1.64,26.88,2.95,10.62,7.69,5.88,21.93,13.29,41.76C478.34,475.3,485.24,487.84,500.5,500.53Z" transform="translate(-68.88 -264.29)"/><path class="cls-3" d="M449.2,387.72c7.76-1.55,14-8.94,14.48-16.8.17-2.79-1.3-4.31-3.2-5.69-6.46-4.68-14.55-5-21.66-7.93-1.27-.53-2.85.41-4.06,1.41-1.78,1.46-3.68,2.78-5.48,4.22-8.1,6.52-8.34,11.52.07,17.69C435.11,384.84,441.3,389.05,449.2,387.72Z" transform="translate(-68.88 -264.29)"/><path class="cls-3" d="M372.34,326.11c7.75-1.55,14-8.94,14.48-16.8.17-2.79-1.3-4.31-3.21-5.68-6.45-4.68-14.55-5-21.66-7.94-1.27-.53-2.84.42-4.06,1.41-1.78,1.46-3.68,2.78-5.47,4.23-8.1,6.51-8.35,11.52.07,17.69C358.24,323.23,364.43,327.45,372.34,326.11Z" transform="translate(-68.88 -264.29)"/><path class="cls-3" d="M396.26,401.22a7.94,7.94,0,0,0,6.11-7.09,2.59,2.59,0,0,0-1.36-2.4c-2.72-2-6.13-2.1-9.14-3.35-.53-.22-1.2.18-1.71.6-.75.62-1.55,1.17-2.31,1.78-3.42,2.75-3.52,4.86,0,7.47C390.31,400,392.92,401.78,396.26,401.22Z" transform="translate(-68.88 -264.29)"/><path class="cls-3" d="M156.16,326.71a11.9,11.9,0,0,0,9.15-10.61,3.9,3.9,0,0,0-2-3.59c-4.08-2.95-9.18-3.14-13.67-5-.81-.33-1.8.27-2.57.89-1.12.93-2.32,1.76-3.45,2.67-5.12,4.11-5.27,7.27,0,11.17C147.26,324.89,151.17,327.55,156.16,326.71Z" transform="translate(-68.88 -264.29)"/><g class="cls-4"><path class="cls-5" d="M209.32,265.1c3.75,1.57,7.37-.39,11-.67,7.84-.62,14.72,2.52,21.92,4.33,9.47,2.39,19,2.53,28.68,2.44,14-.13,27.95-.31,41.94.1,13.09.38,26.13.95,39.18,2.06,12.84,1.1,23.84,7,35,12.48,11.7,5.79,23,12.39,35.34,16.8,8,2.85,13.86,9.15,20.29,14.42a344.85,344.85,0,0,1,48.71,49.21c10.89,13.35,20.45,27.73,26.18,44.15,3.07,8.82,2.11,18,.59,27.16-3.27,19.7-9.59,38.52-15.88,57.36-2.2,6.61-4,13.17-3.42,20.31S496.72,529,492.92,535c-9.42,15.05-23,25.2-38.22,33.76a311.88,311.88,0,0,1-43.36,19.73,331.13,331.13,0,0,1-48.79,14.32,259.82,259.82,0,0,1-37.8,5.53,119.92,119.92,0,0,1-43.33-5c-26.77-8.37-53.57-16.71-81.14-22.13-9.05-1.78-18.12-3.14-27.53-1.78-6,.88-11.5-2.34-16.6-5.41a91.39,91.39,0,0,1-30.7-30.78c-3.61-5.85-6.76-12.36-7.54-19.26-2.48-21.95-13.41-39.63-26.95-56.2-5.47-6.71-11.18-13.16-15.61-20.8-7.49-12.9-7.72-26.29-4.53-40.09,3.25-14,9.61-26.86,16.54-39.33,8.07-14.51,11.09-30.06,10.54-46.4-.15-4.52-.1-9.1-.54-13.53-.8-8.23,4.44-12.07,10.18-14.77,10-4.72,20.19-9.17,31-12,8-2.1,16.08-4.13,24-6.42,15.19-4.39,30.88-5.93,46.23-9.27" transform="translate(-68.88 -264.29)"/></g></svg>