<?xml version="1.0" encoding="utf-8"?>
<!-- Generator: Adobe Illustrator 23.0.1, SVG Export Plug-In . SVG Version: 6.00 Build 0)  -->
<svg version="1.1" id="Layer_1" xmlns="http://www.w3.org/2000/svg" xmlns:xlink="http://www.w3.org/1999/xlink" x="0px" y="0px"
	 viewBox="0 0 444.9 360" style="enable-background:new 0 0 444.9 360;" xml:space="preserve">
<style type="text/css">
	.st0{fill:#7E6C57;}
	.st1{opacity:0.32;fill:#62503D;}
	.st2{fill:#76644F;}
</style>
<title>asteroid</title>
<g>
	<g>
		<path class="st0" d="M277.6,0.2c-3.4,2.2-7.3,0.9-10.9,1.3c-7.8,0.8-14,5.1-20.8,8.2c-8.9,4-18.2,5.9-27.8,7.5
			c-13.8,2.4-27.5,4.7-41.2,7.6c-12.8,2.7-25.5,5.6-38.2,9c-12.4,3.4-22.2,11.1-32.2,18.5c-10.5,7.8-20.4,16.3-31.8,22.9
			c-7.4,4.2-12,11.5-17.4,17.8c-15,17.7-27.9,36.9-39.1,57.1C10,165.3,3.1,181.1,0.4,198.3c-1.4,9.2,1.1,18.1,4.3,26.8
			c6.7,18.8,16.3,36.2,25.9,53.6c3.4,6.1,6.3,12.2,7,19.4c0.7,7.2,4.5,13.1,9.3,18.4c12,13.1,27.2,20.7,43.6,26.4
			c15.1,5.2,30.6,8.8,46.2,11.6c16.7,3,33.5,4.9,50.6,5.4c12.8,0.3,25.5,0.2,38.2-1.3c14.6-1.8,28.5-5.7,41.7-12.7
			c24.8-13,49.7-26,75.9-36.3c8.6-3.4,17.3-6.3,26.8-6.7c6.1-0.2,10.9-4.4,15.4-8.3c11.2-9.9,19.3-22,24.7-35.8
			c2.5-6.4,4.4-13.4,4-20.3c-1.5-22,6.1-41.4,16.4-60.1c4.2-7.6,8.6-14.9,11.6-23.2c5.1-14,2.9-27.3-2.7-40.3
			c-5.7-13.2-14.3-24.7-23.3-35.7c-10.5-12.8-16.3-27.6-18.7-43.8c-0.7-4.5-1.5-9-1.9-13.4c-0.7-8.2-6.5-11.1-12.7-12.7
			C372,6.4,361.2,3.9,350.1,3c-8.3-0.6-16.6-1.2-24.8-2c-15.7-1.6-31.4-0.3-47.1-0.8"/>
	</g>
	<path class="st1" d="M33.3,283.9c-8.8-16.8-15.9-30.9-21.8-42.1c0,0-4.6-8.9-9.1-22.5c-0.8-2.4-1.9-6.1-2.3-11.1
		c-0.2-2.3-0.2-5.4,0.5-10.8c1.2-9.3,3.6-16.4,4.2-18.1c3.1-8.8,8.3-20.7,18.3-37.7c2-3.4,9.8-16.6,21.2-32.1c0,0,5.3-7.3,20.4-25.4
		c0.4-0.5,1.3-1.6,2.6-2.9c3.1-3.1,5.3-4.4,11.2-8.3c8-5.3,11.9-8.1,13.6-9.4c0.2-0.2,0,0,2.8-2.1c2.6-2,6.5-4.9,11.2-8.5
		c9.4-7.1,14.1-10.7,14.9-11.2c10.2-6.5,19.7-9.2,27.9-11.4c1.6-0.4,2-0.5,22.2-4.7c17.8-3.7,17.5-3.6,17.8-3.7
		c20.8-4,38.9-6.8,38.9-6.8c3.1-0.5,8.4-1.3,14.7-4c3.5-1.5,3.4-2.1,9.2-4.9c4.4-2.1,9.5-4.3,13.7-4.7c3.3-0.3,5.2-0.2,5.2-0.2
		c1.5,0.1,1.8,0.3,2.8,0.1c1.6-0.2,2.2-0.9,4.2-1.2c0.8-0.1,1.4-0.1,2-0.1c26.9,0,20.8-0.6,34.9,0.1c0,0,18.1,0.8,46.3,3.9
		c1.5,0.2,3.5,0.5,5.8,1c0.6,0.2,1,0.3,1.7,0.5c2.9,0.7,5.2,1,5.7,1.1c2.3,0.3,12.3,2.6,17.2,6.4c6.5,5.1,4,13,7.5,29.1
		c2.1,9.4,5.2,17.2,8.1,23.2c-8.6,5-15.5,6-20.3,6c-6.8,0-9.7-2-14.7,0c-6.6,2.7-6.5,8.2-11.9,9.1c-5.3,0.9-6.7-4.2-14-4.9
		c-5.3-0.5-9.6,1.8-16.8,5.6c-5.8,3.1-9.7,6.3-10.5,7c-8.8,7.5-8.1,11.6-12.9,13.6c-7.7,3.2-12.4-5.7-22.8-5.2
		c-12.1,0.6-12.3,13.1-25.9,17.5c-12,3.9-15.3-4.6-42-4.7c-9.9,0-15.8,1.1-21.3,4.4c-7.1,4.3-10.6,10.5-12.2,13.2
		c-16.9,29.4-18.4,35.1-29.2,41.7c-6.1,3.7-8.4,6.9-10.3,8.4c-5.4,4.2-10.8,5.2-18.9,7c-13.2,2.9-26.1,6.7-39.2,9.8
		c-23.1,5.4-24.4,6.1-25.9,7.7c-9.1,9.5-1.9,22.6-5.6,43.5C50.6,255.1,46.1,268.7,33.3,283.9z"/>
	<path class="st2" d="M83.8,300c-7.9-0.1-15.4-6.3-17.3-13.9c-0.7-2.7,0.5-4.5,2.1-6.2c5.5-5.8,13.4-7.5,19.9-11.7
		c1.2-0.7,2.9-0.1,4.2,0.7c2,1.1,4.1,2.1,6.1,3.2c9.1,5,10.3,9.8,3.1,17.4C97.1,294.6,91.8,299.9,83.8,300z"/>
	<path class="st2" d="M225.6,174.1c-7.9-0.1-15.4-6.3-17.3-13.9c-0.7-2.7,0.5-4.5,2.1-6.2c5.5-5.8,13.4-7.5,19.9-11.7
		c1.2-0.7,2.9-0.1,4.2,0.7c2,1.1,4.1,2.1,6.1,3.2c9.1,5,10.3,9.8,3.1,17.4C238.9,168.7,233.6,174,225.6,174.1z"/>
	<path class="st2" d="M193.7,350.4c-3.3-0.1-6.5-2.7-7.3-5.9c-0.3-1.1,0.2-1.9,0.9-2.6c2.3-2.4,5.7-3.2,8.4-4.9
		c0.5-0.3,1.2,0,1.8,0.3c0.8,0.5,1.7,0.9,2.6,1.3c3.9,2.1,4.3,4.2,1.3,7.3C199.3,348.1,197.1,350.3,193.7,350.4z"/>
	<path class="st2" d="M347.3,174.1c-5-0.1-9.7-4-10.9-8.8c-0.4-1.7,0.3-2.8,1.3-3.9c3.5-3.6,8.5-4.7,12.6-7.4
		c0.7-0.5,1.8-0.1,2.7,0.4c1.3,0.7,2.6,1.3,3.9,2c5.8,3.1,6.5,6.2,2,11C355.7,170.7,352.4,174,347.3,174.1z"/>
</g>
</svg>
