<svg id="Layer_1" data-name="Layer 1" xmlns="http://www.w3.org/2000/svg" viewBox="0 0 454.68 356.14"><defs><style>.cls-1{fill:#75634f;}.cls-2{fill:#7e6d58;}.cls-3{fill:#776550;}.cls-4{opacity:0.21;}.cls-5{fill:#111421;}</style></defs><title>asteroid4</title><path class="cls-1" d="M152.52,310.29c4.06,0,6.67-3.16,9.91-4.79,7-3.53,14.58-3.24,21.94-4.28,9.66-1.38,18.52-4.86,27.46-8.61,12.89-5.4,25.75-10.86,38.86-15.78,12.26-4.61,24.54-9,37-12.92,12.3-3.85,24.71-2.57,37.09-1.69,13,.94,25.94,2.78,39.06,2.17,8.48-.39,16.3,3.23,24.24,5.67a345.29,345.29,0,0,1,63.72,27.1c15.13,8.24,29.43,17.93,40.94,31,6.19,7,8.77,15.85,10.83,24.91,4.44,19.47,5.71,39.28,7,59.1.46,7,1.25,13.71,4.52,20.09s3.26,13.46,2,20.53c-3,17.5-11.78,32-22.59,45.72a313.44,313.44,0,0,1-32.67,34.67,330,330,0,0,1-39.73,31.72,262.33,262.33,0,0,1-32.9,19.44,120.12,120.12,0,0,1-42,11.78c-27.94,2.39-55.91,4.82-83.48,10.24-9,1.78-18,3.95-26.15,8.77-5.25,3.1-11.54,2.19-17.41,1.28a91.26,91.26,0,0,1-40.07-16.87c-5.56-4-10.95-8.88-14.28-15-10.6-19.38-27.41-31.61-46.21-41.82-7.61-4.13-15.33-8-22.32-13.34C85.57,520.27,80.29,508,78,494c-2.31-14.2-1.28-28.5.42-42.66,2-16.49-1.12-32-7.81-46.95-1.85-4.12-3.54-8.38-5.62-12.31-3.86-7.32-.47-12.85,3.82-17.53,7.48-8.16,15.22-16.13,24.18-22.86,6.62-5,13.32-9.91,19.81-15.05,12.39-9.81,26.33-17.18,39.28-26.08" transform="translate(-63.28 -261.1)"/><path class="cls-2" d="M511.15,418c-1.68-18.89-3.19-34.62-4.29-47.16A162.93,162.93,0,0,0,502.41,347a45.79,45.79,0,0,0-4-10.61,49,49,0,0,0-6.18-8.83,93.74,93.74,0,0,0-13.29-13c-7.31-5.78-18.16-13-35.77-21.95-3.47-1.76-17.22-8.68-35.12-15.67,0,0-8.37-3.27-30.81-10.44-.63-.2-1.94-.62-3.71-1-4.28-1-6.79-.86-13.95-.94-9.58-.12-14.37-.43-16.56-.6l-3.51-.28-14-1.13c-11.72-.93-17.6-1.4-18.56-1.4-12.15,0-21.56,2.9-29.63,5.39-1.6.49-2,.63-21.21,8l-17,6.47c-19.68,7.86-36.47,15.25-36.47,15.25a57.92,57.92,0,0,1-14.59,4.54c-3.81.62-4,0-10.36.79-4.81.56-10.3,1.48-14.05,3.41a35.66,35.66,0,0,0-4.5,2.66,11.26,11.26,0,0,1-2.25,1.59c-1.49.67-2.36.42-4.17,1.2a11.26,11.26,0,0,0-1.73.95c-22.63,14.47-17.84,10.72-29.36,18.83,0,0-14.83,10.43-36.94,28.24a43.7,43.7,0,0,0-4.37,4c-.44.46-.72.8-1.2,1.3A47.23,47.23,0,0,1,75,367.64c-1.77,1.51-9,8.84-11,14.65-2.73,7.76,3.65,13.1,9.37,28.61a101.19,101.19,0,0,1,5.61,23.92c9.89-.4,16.3-3.28,20.34-5.86,5.7-3.64,7-6.92,12.4-7.91,7-1.31,9.9,3.38,14.93,1.27s3.33-7.16,9.17-11.67c4.24-3.28,9.07-3.67,17.18-4.32a61.74,61.74,0,0,1,12.63.25c11.44,1.54,13,5.42,18.24,4.51,8.19-1.43,7.35-11.48,16.39-16.64,10.55-6,17.43,4.39,31.27.83,12.21-3.14,10.4-12.13,32.88-26.53,8.31-5.32,14-7.54,20.32-7.71,8.3-.22,14.57,3.13,17.39,4.59,30,15.65,34.36,19.7,47,19.48,7.11-.12,10.76,1.31,13.15,1.54,6.83.66,12-1.41,19.71-4.27,12.65-4.66,25.62-8.37,38.34-12.83,22.43-7.88,23.82-8,26-7.45,12.74,3.1,13.75,18.07,28.11,33.62C481.09,403,492.22,412,511.15,418Z" transform="translate(-63.28 -261.1)"/><path class="cls-3" d="M421,333c6.6-4.37,9.58-13.58,7.05-21-.9-2.65-2.84-3.5-5.12-4.06-7.75-1.88-15.35.91-23.05.86-1.38,0-2.48,1.47-3.23,2.85-1.09,2-2.35,4-3.47,6-5,9.1-3.36,13.82,6.77,16.34C406.83,335.64,414.15,337.19,421,333Z" transform="translate(-63.28 -261.1)"/><path class="cls-3" d="M326.5,305c6.59-4.37,9.58-13.57,7-21-.9-2.64-2.83-3.49-5.12-4.05-7.74-1.88-15.35.91-23.05.86-1.37,0-2.47,1.46-3.22,2.84-1.1,2-2.36,4-3.47,6-5,9.1-3.37,13.83,6.76,16.35C312.36,307.71,319.69,309.27,326.5,305Z" transform="translate(-63.28 -261.1)"/><path class="cls-3" d="M377.07,365.51a8,8,0,0,0,3-8.88,2.62,2.62,0,0,0-2.16-1.71c-3.27-.79-6.47.39-9.72.37-.58,0-1.05.61-1.36,1.2-.47.85-1,1.67-1.47,2.52-2.12,3.84-1.42,5.83,2.86,6.9C371.11,366.63,374.2,367.29,377.07,365.51Z" transform="translate(-63.28 -261.1)"/><path class="cls-3" d="M126.64,387.43a11.89,11.89,0,0,0,4.45-13.28,3.9,3.9,0,0,0-3.24-2.56c-4.89-1.19-9.69.58-14.55.55-.87,0-1.56.92-2,1.79-.69,1.28-1.48,2.5-2.19,3.78-3.17,5.74-2.12,8.73,4.27,10.32C117.71,389.12,122.34,390.1,126.64,387.43Z" transform="translate(-63.28 -261.1)"/><g class="cls-4"><path class="cls-5" d="M152.52,310.29c4.06,0,6.67-3.16,9.91-4.79,7-3.53,14.58-3.24,21.94-4.28,9.66-1.38,18.52-4.86,27.46-8.61,12.89-5.4,25.75-10.86,38.86-15.78,12.26-4.61,24.54-9,37-12.92,12.3-3.85,24.71-2.57,37.09-1.69,13,.94,25.94,2.78,39.06,2.17,8.48-.39,16.3,3.23,24.24,5.67a345.29,345.29,0,0,1,63.72,27.1c15.13,8.24,29.43,17.93,40.94,31,6.19,7,8.77,15.85,10.83,24.91,4.44,19.47,5.71,39.28,7,59.1.46,7,1.25,13.71,4.52,20.09s3.26,13.46,2,20.53c-3,17.5-11.78,32-22.59,45.72a313.44,313.44,0,0,1-32.67,34.67,330,330,0,0,1-39.73,31.72,262.33,262.33,0,0,1-32.9,19.44,120.12,120.12,0,0,1-42,11.78c-27.94,2.39-55.91,4.82-83.48,10.24-9,1.78-18,3.95-26.15,8.77-5.25,3.1-11.54,2.19-17.41,1.28a91.26,91.26,0,0,1-40.07-16.87c-5.56-4-10.95-8.88-14.28-15-10.6-19.38-27.41-31.61-46.21-41.82-7.61-4.13-15.33-8-22.32-13.34C85.57,520.27,80.29,508,78,494c-2.31-14.2-1.28-28.5.42-42.66,2-16.49-1.12-32-7.81-46.95-1.85-4.12-3.54-8.38-5.62-12.31-3.86-7.32-.47-12.85,3.82-17.53,7.48-8.16,15.22-16.13,24.18-22.86,6.62-5,13.32-9.91,19.81-15.05,12.39-9.81,26.33-17.18,39.28-26.08" transform="translate(-63.28 -261.1)"/></g></svg>