<?xml version="1.0" encoding="utf-8"?>
<!-- Generator: Adobe Illustrator 23.0.1, SVG Export Plug-In . SVG Version: 6.00 Build 0)  -->
<svg version="1.1" id="Layer_1" xmlns="http://www.w3.org/2000/svg" xmlns:xlink="http://www.w3.org/1999/xlink" x="0px" y="0px"
	 viewBox="0 0 466.8 482.5" style="enable-background:new 0 0 466.8 482.5;" xml:space="preserve">
<style type="text/css">
	.st0{fill:#FFFFFF;}
	.st1{fill:#344047;}
	.st2{fill:#D9E7EA;}
	.st3{fill:#FEFEFE;}
	.st4{fill:#6E8287;}
	.st5{fill:#ACC4C8;}
	.st6{fill:#B72D2D;}
	.st7{fill:#D9E7EA;stroke:#FFFFFF;stroke-miterlimit:10;}
	.st8{fill:#FFFFFF;stroke:#344047;stroke-width:9;stroke-miterlimit:10;}
	.st9{opacity:0.31;fill:#231F20;enable-background:new    ;}
</style>
<title>astronaut</title>
<path class="st0" d="M200.8,451.5c-6,4.1-11.9,8.3-17.9,12.4c-7.6,5.2-15.2,10.7-23.1,15.3c-3.6,2-7.6,3.2-11.8,3.3
	c-8.2,0.2-12.8-8.5-7.6-15.2c6.7-8.7,14.4-16.6,22.3-25.4c3.4,7.9,9.4,6.4,15.7,5.4c3-0.5,6.3,0.5,9.4,0.9c4.1,0.5,8.3,0.9,12.4,1.4
	L200.8,451.5z"/>
<path class="st0" d="M66.1,361.7c-7.3,0.4-14.5,0.8-21.7,1.1c-9.2,0.4-18.5,1.1-27.7,0.8c-4.1-0.2-8.2-1.3-11.8-3.4
	c-7.1-4.1-6.3-14,1.6-17c10.3-3.8,21-6.5,32.3-9.9c-1.3,8.5,4.6,10.4,10.4,12.9c2.8,1.2,5,3.8,7.5,5.7l9.8,7.7
	C66.3,360.4,66.2,361,66.1,361.7z"/>
<path class="st1" d="M255.5,66c0.7-2.3,1.6-4.5,2.5-6.6c0.7-1.6,1.5-3.2,2.5-4.9c4.3-7.5,10-14,16.7-19.3c1.2-0.9,0.7-1,1.1-1.5
	c7-8.6,19-9.5,23.7-9.8c7.9-0.5,8.8,1.4,37.4,9.2c10.2,2.7,20.3,6.1,30.1,10.1c6.9,2.9,9.8,4.4,12.7,7c6,5.4,8.9,12.6,10.8,22.6
	c2.4,12,6.4,30.2-1.4,52.2c-4.7,13.1-12.6,24.9-22.9,34.2c-31.9,3.2-55.6-2.5-69.9-7.4c-20.7-7.1-52.8-23.2-50.6-33.6
	c0.4-2.1,2.2-3.6,3.6-4.5C252.1,88.7,254.1,70.4,255.5,66z M325.8,136.9c1.3,3.3,3.5,4.9,6.4,4.4c2.7-0.6,4.6-2.9,4.7-5.7
	c0.1-2.2-1.7-3.1-2.7-4.6c-2.4-1.7-5.8-1.2-7.5,1.2C325.7,133.7,325.4,135.3,325.8,136.9z M344.6,127.5L344.6,127.5
	c0.4,3.1,2.5,5.8,5.3,7l0.5,0.3l1.2,0.6c7.3,2.2,13.2-1.4,14.8-8.9c0.9-3.1-0.1-5.7-1.8-8.2c-2.6-4.7-9.3-5.7-12.8-4.4
	c-5.7,2.2-8.4,6.8-7.5,12.7L344.6,127.5z M268.7,60.9c-0.6,0.4-0.9,1.1-0.8,1.8l-0.4,1.2c-1.5,3.9-2,7.9-0.3,11.8
	c1.5,4.6,6.3,7.3,11.1,3.9c3.6-2.5,6.4-5.6,9.7-8.5c4.2-3.7,8.3-7.7,13.9-9.3c3.8-1.1,7.5-2.6,11.2-4c7.1-2.7,8.4-8.8,3.1-14.6
	c-1.6-1.5-2.3-3.9-4.6-4.8c-3.3-2.6-7.3-2.4-11.1-2.4C285.5,36.3,273.7,48.4,268.7,60.9z M253.3,112.4c0.6,0.1,1.3,1.2,1.6-0.1
	c0.1-0.6,0.1-1.7-0.7-1.8c-1.7-0.1-3.3,0.5-4.5,1.6s0.1,2,0.7,2.9c9.5,13.4,23,21.3,37.8,27.5c13.4,5.6,27.4,9.4,41.7,11.5
	c12.3,1.8,24.6,2.4,37,0.8c1.3-0.1,2.5-0.8,3.4-1.8c4.6-5,8.7-10.4,12.2-16.2c6.3-10.8,10.2-22.9,11.5-35.4
	c1.3-13.5-0.9-26.6-3.9-39.6c-0.2-1.1-0.8-2.1-1.7-2.8c-3.6-2.5-7.1-5.3-10.8-7.6c-25.2-15.8-46-20.9-46-20.9
	c-20.2-4.6-38.4-2.1-50.8,0.9c0.8-0.5,1.6-1,2.5-1.5c5.7-2.9,12.1-4.2,18.5-3.7c1.7,0.3,4.2,0.7,7.1,1.3c7.6,1.6,17,3.9,37.9,11.6
	c4.2,1.6,19.6,7.2,31.1,14.5c6.5,4.1,11,9.4,11.9,17.3c0.3,2.6,0.9,5.3,1.2,7.9c1,10.4,2.1,20.9-0.2,31.2
	c-2.9,12.8-8.7,24.2-16.6,34.7c-2.1,2.9-4.3,5.9-8.1,6.6c-4.1,0.9-8.3,1.3-12.5,1.1c-17.8-0.9-35.5-4.1-52.5-9.3
	c-19.4-6-31-10.5-41.2-22.1C257.3,118.4,255.1,115.4,253.3,112.4L253.3,112.4z M386.8,53.9c0.6,1.2,1.8,1.7,2.8,2.3
	c1.1,1.2,1.9,2.7,2.3,4.3c2.8,8.1,4.4,16.6,5,25.2c1.5,22.5-3.5,43.1-17.7,60.7c-10.1,12.5-7.7,11.6-24.5,12
	c-21.5,0.5-42.2-3.7-62.2-11.6c-17.5-6.9-33.9-15.1-45-31.3c-1.2,3.6-1.1,4.3,0.9,6.8c6.7,8.4,15.1,15.5,24.5,20.7
	c14.5,8.1,30.4,12.3,46.5,15.5c14.1,3,28.5,4.2,42.8,3.5c0.4,0.3,0.9,0.3,1.3,0.1l1.2-0.1c10.5,0.3,21.1-0.7,31.4-2.9
	c1.2-0.3,1.6-1.2,2.1-2c2.7-4.2,5.2-8.6,7.4-13.1c7.5-15.4,12.3-32,14.4-49.1c2.1-12,2-24.4-0.4-36.3c-2.5-12-7.4-22.7-16.7-31.1
	c-1.2-1.1-2.3-2.4-3.5-3.4c-12.1-9.8-26-16.1-40.7-20.4c-28.1-8.2-53.5-3.2-76,15.9c-0.2,0.2-0.5,0.5-0.4,0.6
	c0.2,0.4,0.6,0.3,0.9,0.1c7.5-0.7,15-0.5,22.4,0.8c29.3,5,56.5,15.4,80.9,32.5C386.5,53.8,386.7,53.9,386.8,53.9z M255.2,113.8
	l-0.1-0.2c-0.1,0-0.2,0.1-0.2,0.1s0,0.1,0.1,0.2L255.2,113.8z"/>
<path class="st2" d="M364.8,162.1l-1.2,0.1c-0.1,0-0.2,0.1-0.3,0.1c-0.3,0.1-0.7,0-1-0.2c-14.4,0.6-28.8-0.6-42.8-3.5
	c-16.1-3.3-32-7.4-46.5-15.5c-9.4-5.2-17.8-12.3-24.5-20.7c-2-2.5-2.1-3.2-0.9-6.8c11.1,16.2,27.5,24.4,45,31.3
	c20,7.9,40.7,12.2,62.2,11.6c16.8-0.4,14.4,0.5,24.5-12c14.3-17.6,19.3-38.3,17.7-60.7c-0.6-8.6-2.2-17.1-5-25.2
	c-0.4-1.6-1.2-3.1-2.3-4.3c0.5-2.5-0.9-2.7-2.8-2.3c-0.1,0-0.3-0.1-0.3-0.2c1.7-0.8,3.4-2,4-3.6c1.1-2.9,2.4-5.9,3.4-8.8
	c0.7-2,1.6-3.2,3.7-3.5c0.7-0.1,1.5-0.2,1.7-1.1s-0.5-1.3-1.2-1.5c-1-0.4-1.6-1-1.4-2.1c0.2-1.6,0.6-3.2,1.3-4.7
	c0.7-1.5,2.2,0,3.4-0.3c0.6-0.2,1.1-0.4,1.7-0.6c9.3,8.4,14.1,19.1,16.7,31.1c2.4,12,2.6,24.3,0.4,36.3c-0.9,0-1.1,0.7-1.4,1.4
	c-1.7,4.3-3.2,8.6-5.1,12.7c-6.8,14.7-14.3,29-26.4,40.1c-6.1,5.5-12,12-21.5,11.5C364.7,160.6,364.5,161.3,364.8,162.1z"/>
<path class="st3" d="M403,27.6c-0.6,0.2-1.1,0.4-1.7,0.6c-1.1,0.3-2.6-1.2-3.4,0.3c-0.6,1.5-1.1,3.1-1.3,4.7
	c-0.2,1.1,0.5,1.7,1.4,2.1c0.7,0.3,1.4,0.6,1.2,1.5c-0.2,0.9-1,1-1.7,1.1c-2.1,0.3-3,1.5-3.7,3.5c-1,3-2.3,5.9-3.4,8.8
	c-0.6,1.6-2.3,2.8-4,3.6c-40.2-18.2-70.7-29.4-79.8-30c-3.7-0.2-7.1,0.2-7.1,0.2c-7.2,0.8-13,3.5-17,5.8c0-3.3-0.1-6.5-0.1-9.8
	c5.7-5.1,17.5-14.2,34.8-18.1c17.4-3.9,31.2-1,41.5,2c14.8,4.3,28.7,10.6,40.7,20.4C400.7,25.2,401.8,26.4,403,27.6z"/>
<path class="st4" d="M252.9,112.5c1,3.8,3.9,6.3,6.7,8.5c12.5,9.7,26,17.3,41.2,22.1c17.1,5.2,34.7,8.4,52.5,9.3
	c4.2,0.2,8.4-0.2,12.5-1.1c3.8-0.8,6-3.8,8.1-6.6c7.8-10.5,13.7-21.9,16.6-34.7c2.3-10.4,1.2-20.8,0.2-31.2
	c-0.3-2.6-0.9-5.3-1.2-7.9c-0.9-7.9-5.4-13.1-11.9-17.3c-9.7-6.3-20.3-10.7-31.1-14.5c-7.1-2.5-6-1.8-40.8-10.2
	c-4.9-1.2-14.1-3.4-22.7,0.9c-0.8,0.4-1.7,0.9-2.5,1.5c5.1-3.6,10.9-6.1,17-7.3c8.8-1.7,17.3,1,33.9,6.3c0,0,27.2,9.1,46,20.9
	c3.7,2.3,7.2,5.1,10.8,7.6c0.9,0.7,1.5,1.7,1.7,2.8c3,13,5.2,26.1,3.9,39.6c-1.2,12.5-5.1,24.6-11.5,35.4
	c-3.5,5.8-7.6,11.2-12.2,16.2c-0.9,1-2.1,1.7-3.4,1.8c-12.4,1.6-24.7,1-37-0.8c-14.3-2-28.3-5.9-41.7-11.5
	c-14.7-6.2-28.3-14.1-37.8-27.5c-0.6-0.9-1.9-1.8-0.7-2.9s2.9-1.7,4.5-1.6c0.8,0.1,0.9,1.2,0.7,1.8c-0.3,1.3-1.1,0.2-1.6,0.1
	c-0.1-0.2-0.3-0.5-0.3-0.4C252.5,112,252.7,112.3,252.9,112.5z"/>
<path class="st5" d="M364.8,162.1c-0.2-0.9,0-1.5,1-1.5c9.5,0.5,15.4-6,21.5-11.5c12.2-11,19.6-25.4,26.4-40.1
	c1.9-4.1,3.5-8.5,5.1-12.7c0.3-0.7,0.5-1.4,1.4-1.4c-2,17-6.9,33.6-14.4,49.1c-2.2,4.5-4.7,8.9-7.4,13.1c-0.5,0.8-0.9,1.8-2.1,2
	C385.8,161.4,375.3,162.4,364.8,162.1z"/>
<path class="st1" d="M316.1,43.3c5.3,5.9,4,11.9-3.1,14.6c-3.7,1.4-7.4,2.9-11.2,4c-5.6,1.5-9.7,5.6-13.9,9.3
	c-3.2,2.8-6.1,6-9.7,8.5c-4.8,3.3-9.5,0.7-11.1-3.9c1.3-0.3-0.3-1.7,1-2.3c8.7-4.2,16.3-10.2,24.7-14.9c2.6-1.4,4.9-3.3,7.5-4.7
	c5.1-2.7,9.4-6.6,14.9-8.6C316,45,315.9,44,316.1,43.3z"/>
<path class="st5" d="M316.1,43.3c-0.2,0.7-0.1,1.6-0.8,1.9c-5.5,2-9.9,5.9-14.9,8.6c-2.6,1.4-4.9,3.3-7.5,4.7
	c-8.4,4.7-16,10.7-24.7,14.9c-1.3,0.6,0.3,2-1,2.3c-1.7-4-1.2-7.9,0.3-11.8c1.1,0.4,2.3,0.2,3.1-0.7c4-3.8,9.4-5.3,13.8-8.4
	c2.4-1.8,5-3.5,7.7-4.9c6.8-3.3,12.3-8.8,19.5-11.3C313.8,39.4,314.5,41.8,316.1,43.3z"/>
<path class="st5" d="M311.5,38.6c-7.2,2.5-12.7,7.9-19.5,11.3c-2.7,1.4-5.3,3.1-7.7,4.9c-4.4,3.1-9.8,4.6-13.8,8.4
	c-0.8,0.9-2,1.2-3.1,0.7l0.4-1.2c0.8-0.4,0.8-1.1,0.8-1.8c5-12.5,16.8-24.6,31.8-24.7C304.3,36.1,308.3,36,311.5,38.6z"/>
<path class="st1" d="M337.1,123.2c2,2.9,5.5,4.8,5.3,9.1c-0.1,5.5-4,10.1-9.3,11.2c-5.7,0.9-10.1-2.2-12.6-8.8
	c0.5-1.8,2-3.2,3.9-3.5C330,130.6,333.1,126.3,337.1,123.2z"/>
<path class="st1" d="M334.2,131.1c-2,1.6-3.6,3.8-6.4,4c-0.9,0.2-1.7,0.8-1.9,1.8c-0.8-2.9,0.9-5.9,3.8-6.6
	C331.2,129.9,332.9,130.2,334.2,131.1L334.2,131.1z"/>
<path class="st3" d="M386.8,53.9c1.9-0.4,3.3-0.1,2.8,2.3C388.6,55.6,387.4,55.1,386.8,53.9z"/>
<path class="st1" d="M344.2,126.7l0.5-0.5c-0.1,0.4-0.1,0.9-0.2,1.3L344.2,126.7z"/>
<path class="st5" d="M268.7,60.9c0,0.7-0.1,1.4-0.8,1.8C267.8,62,268.1,61.3,268.7,60.9z"/>
<path class="st1" d="M349.9,134.5c0.5-0.5,0.5,0,0.5,0.3L349.9,134.5z"/>
<path class="st4" d="M255.2,113.8l-0.2,0.1c0-0.1-0.1-0.2-0.1-0.2s0.1-0.1,0.2-0.1L255.2,113.8z"/>
<path class="st5" d="M298.1,160.2l0.5,0.2L298.1,160.2z"/>
<path class="st3" d="M283.3,20.4c-0.3,0.2-0.7,0.3-0.9-0.1c0-0.1,0.3-0.4,0.4-0.6L283.3,20.4z"/>
<path class="st1" d="M375,189.9"/>
<path class="st1" d="M252.9,112.5c-0.2-0.2-0.4-0.5,0.1-0.7c0,0,0.2,0.3,0.3,0.4L252.9,112.5z"/>
<path class="st6" d="M238.7,155.9"/>
<path class="st4" d="M233,153.8l0.3-0.2c0,0.1,0,0.1-0.1,0.2C233.2,153.8,233.1,153.8,233,153.8L233,153.8z"/>
<path class="st4" d="M232.3,154.3c0.1-0.3,0.4-0.5,0.7-0.5c0,0,0,0,0.1,0l0,0c0,0.3-0.3,0.5-0.6,0.5
	C232.3,154.3,232.3,154.3,232.3,154.3L232.3,154.3z"/>
<path class="st7" d="M199.6,194.5c-0.4-0.3-0.9-0.9-1.3-0.8c-6,0.5-12.1,1.3-18.1,1.7c-1.4,0.1-2.1-1.3-2.7-1.8
	c-3.4-3.2-3.6-7.9-3.6-20.6c0-4.3,0-6.5,0-9c0.1-6.2,0.1-13.2,0-20.8c0,1.9,0,5.2,0,9.3c-0.2,16.6-0.9,21.3,0.4,29.3
	c0.7,4.1,1.8,8.1,3.2,12c-5.9-1.5-11.7-3.7-17.1-6.6c-16.3-8.5-18.8-14.3-27.6-21.1c-2.1-1.6-4.1-3.5-5.9-5.5
	c-0.4-0.5-0.1-2.3,0.5-3c7.8-8.7,15.7-17.3,23.5-26c2.8-3.1,3.2-4.7,3.5-5.7c2.3-7.2-1.9-14.6-4.5-18.5c-5,18.9-17,35.2-33.5,45.7
	c1.3,2.1,3.3,3.6,5.6,4.4c1.6,0.5,3.3,0.6,5,0.2c10-10.9,18-19.8,23.9-26.1c1.6-1.6,2.8-3.6,3.5-5.7c2.1-7-2.2-14.2-4.9-17.8
	c-1,3.8-2.2,7.5-3.7,11.1c-2.7,6.3-5.2,12.1-10.5,17.4c-3.4,3.4-9.4,9.4-13.2,11.9c-0.5,0.4-0.9,0.8-1.3,1.2
	c-4.3,4.6-4.3,4.5-9.8,1.3c-3.2-1.9-6.4-3.6-9.6-5.5c-1.5-0.8-2.9-1.6-4.3-2.6c-2.8-2-5.3-4.5-7.2-7.4c-2.2-3.2-5.1-7.6-3.5-9.9
	c1.6-2.3,7-1.1,7.7-0.9c-5.6-2.7-8.3-6.8-7.4-8.6s5-2.4,9.8-1.1c-0.6-0.7-1.4-1.7-2.4-2.9c-3.6-4.4-5.3-6.7-4.9-8.1
	c0.6-2,4.9-3,10.1-2.8c-3.6-4.9-3.3-7.1-2.7-8.1c2.3-4.3,16.6-2.7,18.5,2.2c0.3,0.8,0,1,0.4,3.4c0.5,3.3,0.9,5.9,2.6,6.8
	c1.7,0.9,4.4,0,4.8-0.7c2.4-3.9,4.1-8.2,6.4-13c-0.6,1.2-1.5,3-2.5,5.4c-1.8,4.4-2.1,6.4-3.9,7.6c-1.5,0.9-3.2,1.1-4.8,0.7
	c-1-1.8-1.8-3.7-2.3-5.7c-0.5-1.9-0.6-3.4-0.6-4.5c-0.4-12.9-0.8-22.4,5.2-27.5c4.3-3.7,10.9-4.3,12.2-2.4c1.9,2.6-6.5,9.7-3.8,15.8
	c0.5,1.1,1.4,1.6,1.7,2.3c2.9,7.7,8.7,12.6,15.2,17c10,6.9,19.9,14.1,29.9,21.1c3,2.1,6.2,4,9,6.3c1.3,1,0.5,2.9,0.4,3.6
	c-1.1,9.9-1.6,14.9-3.7,23.8c-1.7,7.3-1.9,14.8-0.6,22.1c-0.6-5.2-0.6-10.4,0-15.5c0.1-0.5,0.8-4.9,2.2-13.7
	c0.5-3.1,0.8-6.2,1.4-9.2c0.6-2.9,1.1-4.7,0.8-7.4c-0.2-2.4-0.8-2.9-0.4-3.6c1.3-2.4,7.9,0.9,16.3,0.4c5.2-0.4,6.1-2.1,20.5-7.2
	c3.5-1.3,7.1-2.5,11.5-4l1,15.5l-1-15.5l11-0.2c-1.8,6.6-3.7,13.1-5.5,19.7l1.3,0.4l3.2-16.5l4,0.2c6.7,8,14.4,15,23,20.8
	c23.5,15.9,47.3,18.6,65,20.7c18.9,2.2,31.5,0.7,34.2,0.4c10.5-1.3,20.7-3.9,30.6-7.8c-0.7,4.2-1.9,8.3-3.6,12.1
	c-3.5,7.9-8.8,14.8-15.5,20.2c13.2-13.7,22.6-30.5,27.5-48.8c1.4,3.7,2.1,7.7,2.1,11.7c-0.1,3.4-0.7,6.7-1.8,9.9
	c2.5-7,2.4-14.7-0.2-21.6c6.4,2.7,12.3,6.5,17.5,11.2c6.7,6.1,6,6.9,15.3,18.4c2.6,3.1,5,6.3,7.3,9.7c4.6,7.3,4.2,8.9-0.4,14.9
	c-7,9.2-16.3,16.3-27,20.5c-2.9,1.1-5.6,2.5-8.6,3.8c7.4-2.5,14.5-6,21-10.4c5.1-3.5,10.3-7.1,14.6-13.9c1.4-2.3,2.6-4.8,3.5-7.4
	c1.4,1.2,4,3.7,3.9,6.9c-0.2,1.8-0.9,3.4-2.2,4.6c-8.3,9.1-35.1,27.4-35.1,27.4c6.2-4.4,12.2-9,18.5-13.3c8.8-6,13.1-8.2,16.6-14.2
	c0.9-1.5,1.6-3,2.2-4.6c2,3.5,3.7,7.1,5.2,10.9c3.3,8.8,3.8,15.9,4.9,22c2.8,14.8,0.3,29.3-3,43.7c-0.1,0.6-0.4,1.1-0.5,1.7
	c-2.2,10.6-3.5,11.7-14.1,13.1c-12.6,1.6-25,1.7-37.4-1.5c-3.3-0.8-6.7-0.8-10.1-1.2c3.6,0.5,22.9,3,37.2,3.6
	c8.1,0.5,16.1-1.9,22.5-6.8c-0.8,3-2.1,8.1-3.8,14.4c-6.5,24.5-9.3,32.9-9.6,32.8c-0.4-0.1-1.7,3.7-2.2,4.8c-0.5,1.4-2.4,6.4-5,9.5
	c-3.5,4.1-9.8,6.8-11.7,5.1c-1.6-1.5,0-6.7,3.6-12.4l-1-0.7c-1.8,3.3-4.2,6.3-7.1,8.8c-0.5,0.4-8.1,6.7-10.5,4.8
	c-1.7-1.3-0.6-6.3,2.3-12l-1-0.5c-0.8,1.1-1.6,2.3-2.3,3.5c-0.4,0.8-5.3,8.6-13.8,10.2c-2.8,0.5-6.9,0.5-7.4-0.8s2.8-2.8,5.2-6.6
	c1.6-2.6,2.5-5.6,2.6-8.7c-1.4,1.5-2.5,2.4-3.4,3.5c-4.3,5.6-10.6,9.4-17.6,10.6c-3.1,0.6-7.5-4.5-7-7.7c0.3-1,0.9-1.9,1.8-2.4
	c2-1.4,3.6-3.1,4.8-5.2c0.8-1.4,1.4-3.9,2.4-8.9c0.5-2.5,1.1-5.9,0.7-6c-0.6-0.2-2.4,9.2-5.5,9.3c-2,0.1-3.9-3.7-4.6-5.9
	c-0.4-1.3-0.6-2.6-0.5-4c0.2-3.3,2.6-5.4,5.7-7.2c2.1-1.7,4.5-3.9,6.8-6.9c4.1-5.4,6.1-10.7,7-14.3c36.7,5.7,54.9,9.5,54.7,11.4
	c-0.1,0.5-1.4,0.9-4,1.1c0,0-2.1,0.5-4.4,0.8c-5.7,0.8-11.5,0.8-17.3,0c-6.4-1-15.7-2.4-23.1-9.1c-2.3-2-5.9-6-6.7-5.3
	c-0.4,0.3-0.4,1.4,0,1.5c0.7,0.3,2.7-3.1,4.5-6.2c8.5-14.5,11.5-32.8,9.9-39.8c-0.6-2.5-1.3-5.8-3.2-7c-0.3-0.2-0.8-1.4-2-2.1
	c-0.4-0.2-0.5-1.1-0.4-1.6c0.1-1,0-2-0.4-2.9c-0.9-2.3-4.4-4.6-4.9-4.9c-4-2.1-14.4-8.3-28.5-16.8l16.8,10.1l3.8,2.2
	c-0.8,1.7-2,4.4-3.3,7.7c-7.5,18.9-6,28.9-12,42.7c-3.4,8.1-7.6,15.8-12.3,23.2c-7.9,12-16.5,23.5-24.8,35.3c-1.7,2.4-2.8,2.3-5,0.4
	c-7.5-6.4-14.9-13.1-23.1-18.6c-10.3-7-21.3-12.7-34.4-13.4c6.2,0.5,12.3,2,18.1,4.2c5.8,2.4,11.2,5.4,16.3,9.1
	c5.3,3.7,6.6,5.2,15.2,11.9c4.6,3.5,8.4,6.3,10.9,8.1c-1.1,1.2-2.7,2.9-4.9,4.8c-9.4,8.7-18.5,13.6-24.1,15.6
	c-16.8,6.1-33.8,11.9-50.7,17.8c-7,2.4-14,4.9-21,7.3c-8.3,2.9-16.9,3-25.4,1.6c-2-0.3-2.7-0.4-7.4-1.3c-9.5-1.8-17.7-3.2-24.2-4.2
	c6.6,1.2,13.3,2.3,20.1,3.4c6,1,12,1.9,18,2.9c0,1.2,0.1,3.1,0.2,5.3c0.5,7.1,2,12.3,2,13.8c0.5,12.7,0.8,25.4,0.8,38
	c0,8.3-2.5,16.3-8.2,22.4c-3.6,3.8-8,7.4-14.4,4.8c-6.7-2.6-13.7-4.3-20.5-6.6c-9-3-14.4-9.6-16.8-18.6c-2.3-8.7-4.9-17.5-6-26.4
	c-1.4-11-1.4-22.2-2-33.3c-0.2-4-0.2-7.9-0.3-11.8c0-1.1,0.1-2.2,0.3-3.3c2.9,2.6,5.7,5.1,8.5,7.6c4.6,4.1,8.3,7.7,14.3,12.8
	c0.3,0.3,0.6,0.5,0.8,0.7l20.8,4.3l0.2-0.7l-0.2,0.7c-2.7-0.5-5.4-1-8.1-1.7c-4.7-1-9.2-2.1-13.5-3.3l-22.8-20.4
	c0.4-5.1,1.9-10,4.4-14.5l5.8,10.5l0.7-0.3l-6.5-10.2c0.6-2.1,1.6-4.1,2.8-5.8c1.3-1.9,3-3.5,4.8-4.8c17.7-12.2,35.3-18.1,37.3-26
	c0.2-0.9,1.6-6.9,1.6-6.9c-0.1-0.9-0.2-1.8-0.4-2.7c-0.4-1.4-1.3-1.9-2.1-2.9c-1.3-1.7-1.4-3.7-1.6-5.7c-0.2-3.2,0.8-5.3,1.7-8
	c1.1-3.3,1.3-6,1.8-11.3c0,0,1.3-13.7-3.5-22.3c-0.2-0.3-0.4-0.5-0.6-0.8c-0.6-0.6-1.3-0.9-2.1-1.1c0.4,1,0.8,2,1.3,3
	c4.3,8.2,5.1,17,4.9,26c-0.2,2.3-0.8,4.4-1.8,6.5c-2.6,6-2.6,11.5,1.9,16.7c0.5,0.6,0.8,2.3,0.4,2.7c-4.8,4.5-9.6,9.1-16.7,9.2
	c-10.6,0.1-21.3,0-31.9,0c-8.7,0-17.5,0.1-26.2-0.2c-4.6-0.1-6.6-0.5-8.3-1.9c-0.9-0.8-1.6-1.9-2.1-3c-2.1-4.8-1.5-8.5-1.9-12.1
	c-0.8-7.6-6.1-13.1-10.5-18.1c-4.6-5.3-9-7.7-17.3-9c5.8,1.5,11.2,4.1,16,7.6c13.8,10.9,14.6,31.2,13.7,31.5
	c-1,0.3-3-15.4-16.1-24.1c-3.5-2.3-7.4-3.9-11.5-4.8c4.1,0.9,8,2.5,11.5,4.8c11.9,7.7,15.3,20.5,16.1,24.1c-1.7,0.8-3.2,2-4.3,3.5
	c-2,2.8-1.5,6-2,6.8c-3.6,6.6-7.1,13.3-10.6,19.9c-4.1,7.8-10.3,13.7-17.2,18.9c-3.5,2.6-7.2,5-11,7.2c-1.2,0.6-2.5,0.7-3.8,0.4
	c-7.8-2.5-15.6-5.2-21.4-11.6c-6.8-7.6-8.1-15.9-5.4-25.6c3.6-12.9,7.7-25.6,14.2-37.3c0,0,1.7-3.6,11.2-17.4
	c2.2-3.1,4.4-6.3,6.3-5.9c2.3,0.5,3.2,5.8,2.9,5.9c-0.3,0.1-0.8-1.2-2.9-5.9c4.8-4.8,9.8-8.4,16.3-9.4c12.5-1.9,25-4,37.5-5.4
	c6.3-0.5,12.6-0.4,18.9,0.3c10.2,0.8,20.5,0,30.5-2.5c0.8-0.2,1.4-1,2-1.6c0.8,0.2,1.6,0.3,2.4,0.4c5,0.2,7.2-3.4,9.6-2.7
	c0.5,0.1,1.3,0.6,3.6,8.7c1.2,3.9,2.1,8,2.6,12.1c0.2,1.9,0.3,3.9,0.3,5.8c0-9.4-1.8-18.2-6.4-26.7c5-2.5,9.8-5,14.6-7.5
	s9.6-4.6,14.2-7.4c6.8-4.2,10.9-11,14.5-17.9c7.1-13.7,10.7-28.5,12.7-43.7c0.4-3.3,0.4-6.7,0.6-10c0,4.3-0.4,7.9-0.6,10.5
	c-0.5,4.7-1.4,9.4-2.4,14c-0.7,3-1.3,5.4-1.8,7.1c-4.4,1.2-8.9,2.2-13.4,2.9l-1.1,0.2L199.6,194.5z"/>
<path class="st0" d="M289.8,252.3c2.6,1.6,4.7,2.8,4.8,2.8c4.3,2.3,4.7,2.2,8.8,5.7c5.8,4.9,9.4,2.9,12.9-4c1.6-3.1,3.3-6.1,4.9-9.1
	c4.2-8.2,6.8-17,9.4-25.7c1.4-4.7,0.9-8.4-2.6-11c-7.1-5.3-14.3-10.5-22-14.7c-8.2-4.5-17.1-7.7-25.6-11.6s-14.9-1.5-17.8,7.4
	c-3.6,11-6.9,22-10.2,33.1c-1.4,4.6-0.8,6,3.7,8.1c1.9,0.9,4.1,1.2,6,2.2c5.8,3.2,11.6,6.6,17.4,9.9c1.9,1.1,4.8,1.5,5.7,3.1
	c0.5,0.6,1.1,1.2,1.7,1.7C287.8,251,288.8,251.7,289.8,252.3z"/>
<path class="st8" d="M294.5,255.1c-0.7,0-1-0.3-3-1.6c-1.6-1-3.2-2.1-4.7-3.3c-1-0.9-1.2-0.8-1.7-1.7c-0.9-1.6-3.8-2-5.7-3.1
	c-5.8-3.3-11.5-6.7-17.4-9.9c-1.8-1-4-1.3-6-2.2c-4.5-2.1-5.1-3.5-3.7-8.1c3.3-11,6.6-22.1,10.2-33.1c2.9-8.9,9.3-11.3,17.8-7.4
	s17.4,7.1,25.6,11.6c7.7,4.2,14.9,9.4,22,14.7c3.5,2.6,4.1,6.3,2.6,11c-2.7,8.8-5.2,17.5-9.4,25.7c-1.6,3.1-3.3,6.1-4.9,9.1
	c-2,3.9-4,6.3-6.5,6.7c-0.1,0-0.3,0-0.4,0c-1.1,0-2.1-0.2-3.1-0.6c-1.1-0.5-2.1-1.2-3-2c-2.9-2.6-5.9-5-9.1-7.2
	c1.1-0.1,2.2-0.1,3.3,0.2c3,0.7,4.3,2.4,8.5,4.6c2.5,1.3,4.2,0.1,5.7-2c6.2-8.7,9.3-18.6,11.9-28.8c0.7-2.7,0-5.6-2.2-6.9
	c-7.9-4.9-15.9-9.8-24.2-14c-10.2-5-20.7-9.5-32.7-10.6c-2.9,8.6-7,16.9-8.6,26.3c-1,5.9,2.1,8,5.9,10.4c4.4,2.7,8.8,5.3,13.1,7.9
	c1.6,1,3.2,1.9,4.8,2.8l1.6,1c1.7,1,5.9,3.5,16.1,9.3C296.8,254.5,295.7,255,294.5,255.1z M266.8,191.5
	c21.2,5.8,40.3,15.2,58.8,26.9c0.3-5.4-2.8-8.1-6.1-10.1c-8.5-5.1-17-10.1-25.9-14.4c-5.9-2.9-12.3-4.7-18.5-6.7
	C271.3,185.9,266.7,188.7,266.8,191.5z"/>
<path class="st0" d="M294.3,252.1c-0.6-0.7-1.4-1.2-2.2-1.6c-0.9-0.5-1.8-0.8-2.7-0.9c-2.6-1.7-5.3-3.4-8-5.1
	c-2.1-1.3-4.3-2.5-6.4-3.8c-4.4-2.6-8.8-5.2-13.1-7.9c-3.9-2.3-6.9-4.5-5.9-10.4c1.6-9.4,5.7-17.7,8.6-26.3
	c12,1.1,22.5,5.6,32.7,10.6c8.3,4.1,16.3,9,24.2,14c2.1,1.3,2.9,4.2,2.2,6.9c-2.7,10.1-5.7,20.1-11.9,28.8c-1.5,2.1-3.2,3.3-5.7,2
	c-3.4-1.8-6-3.2-8.5-4.6C296.8,253.3,295.7,252.7,294.3,252.1z"/>
<path class="st0" d="M266.8,191.5c-0.1-2.8,4.5-5.6,8.3-4.4c6.3,2,12.7,3.8,18.5,6.7c8.9,4.3,17.4,9.3,25.9,14.4
	c3.3,2,6.4,4.8,6.1,10.1C307,206.7,287.9,197.3,266.8,191.5z"/>
<path class="st1" d="M278.6,20.2"/>
<path class="st1" d="M281,24.4"/>
<path class="st1" d="M360.4,98.4c3.4,6.5,9.4,10.5,9.1,20.1c-0.2,12.1-6.8,22.4-16,24.9c-9.7,2.1-17.3-4.9-21.6-19.5
	c0.9-4,3.4-7,6.6-7.7C348.2,114.9,353.6,105.3,360.4,98.4z"/>
<path class="st9" d="M162.1,448.2c-2.3-3.7-5.3-9-8.1-15.7c-2.3-5.5-7.4-19.1-8.4-41.8c-1.2-26.2-1.8-39.4,6.5-52.2
	c8-12.4,19.6-17.7,39.3-26.3c11.2-4.9,22.3-8.4,42.6-12.9c52.2-11.3,58-2.9,69.2-12.7c14.2-12.5,4.3-25.2,20.2-74.8
	c9-28,13.8-29.1,13.2-41.9c-1.5-29.5-27.4-33.4-30.6-60.7c-3.9-33.5,31.2-62.2,40.8-70.1c13.4-11,30-24.6,45.8-19.8
	c26.6,7.9,28.5,60.6,28.7,64.5c0.7,23.9-7.1,42.6-12.2,52.7c6,4.3,14.6,11.2,23.5,21.2c6.6,7.5,35.2,39.8,34.1,79.5
	c-0.4,14.3-4.8,33.6-5.3,36c-1.4,6.3-1.4,4.7-5.1,18.8c-6.8,25.9-6.8,30.2-11.8,37.6c-6.4,9.6-15.3,15.7-16.7,14.6
	c-1.6-1.3,5.8-11.8,4.1-13.2c-2.1-1.7-15.8,14.7-18.9,12.7c-1.4-0.9-0.7-5.9,5.3-19.2c-1.3,3.6-4.3,10.1-10.9,15
	c-7.1,5.2-15.5,6.3-16,5.3c-0.4-0.9,4.5-2.6,6.6-8.1c1-2.5,1.6-6.2,0.3-6.9c-2.7-1.5-9.8,13.5-19,12.7c-3.9-0.3-7.8-3.5-7.9-6.4
	c-0.2-2.6,2.8-3.5,5.6-7.6c4.8-7,3.9-15.6,3.2-15.7c-0.7-0.1-1.7,9.5-4.6,9.7c-2.3,0.2-5.9-5.5-5.2-10.6c0.9-6.5,8.2-7.6,15-15.5
	c2.8-3.2,4.8-8.4,8.6-18.7c7-18.7,10.5-28.3,8.4-38.7c-0.4-1.9-1.7-7.7-6-13.6c-1-1.4-7.9-10.8-12.8-9.4c-4.7,1.3-5.5,11.9-5.8,14.7
	c-2.4,23.6-23.6,82.9-61.1,107c-7.1,4.6-25.3,11.4-61.5,25.1c-6.3,2.4-3.2,1-15.2,5.3c-7.2,2.6-11,4-16.8,4.8
	c-4.6,0.6-4.5,0.1-5.8,0.7c-3.4,1.7-5.8,6.5-5.6,32.6c0,5.9,0.2,10.9,0.1,21.4c-0.1,8.9-0.2,17-5.6,24.3c-0.6,0.7-1,1.2-1.8,2.1
	c-6.5,7.2-13.5,10.9-21.7,15.2c-12.4,6.5-18.7,9.7-20.9,10.4c-5.3,1.5-17.5,4.9-22-0.7c-2.6-3.3-1.3-8.3-1.2-8.8
	c1.1-4,4.3-6.1,7.6-8.7C150.4,458.5,155.7,454.2,162.1,448.2z"/>
</svg>
