<svg id="Layer_1" data-name="Layer 1" xmlns="http://www.w3.org/2000/svg" viewBox="0 0 512.34 218.05"><defs><style>.cls-1{fill:#e01f26;}.cls-2{fill:#1c1c1a;}.cls-3{fill:#e1f1e8;}.cls-4{fill:#cacaca;}.cls-5{fill:#9e0f13;}</style></defs><title>car</title><path class="cls-1" d="M398.81,497.92H200.4c-1-18.21-8-33.46-22.46-44.77a55.76,55.76,0,0,0-35.88-12c-30.42.35-48.93,18.55-57.37,56.7H43v-25.1H59.68c.65-8.23.54-16,2-23.39A120.85,120.85,0,0,1,69,425.91c2.65-6.24,8.21-10,15.08-11.34,13.18-2.58,26.33-5.28,39.55-7.64,3.91-.7,6.38-2.25,8.4-5.82,11.62-20.6,24-40.72,40-58.3,3.6-3.95,7.4-8.12,11.95-10.72,4.78-2.74,10.56-5.2,15.92-5.24,49-.39,98-.16,147.06-.31,6.25,0,11.75,1.53,15.25,6.49,9.49,13.45,18.82,27,27.58,41,5.19,8.26,9.28,17.23,13.62,26,1.54,3.11,3.44,4.35,7,4.61q51.42,3.72,102.81,7.86c17.09,1.36,25.57,12.8,30.29,27.53,2.32,7.23,2.85,15,4.29,23.19l7.54.62v33.92H514.1c-.78-17.67-7.58-32.43-21.21-43.67-10.78-8.89-23.28-12.91-37.28-13C432,441,401.24,458.89,398.81,497.92ZM289.15,399.79l103.25,4c-6.16-11.66-11.2-22.2-17.14-32.2C369,361.09,362,351,355.11,340.88c-2.87-4.18-7.1-5.8-12.46-5.63-12.08.37-24.19.11-36.28.11H289.15Zm-16.79-64.41c-13.29,0-25.79.55-38.21-.19-9.05-.53-15.39,3-21.05,9.38-13.74,15.49-22.86,33.51-29.42,53a5.89,5.89,0,0,0,0,1.87h88.45c.1-2.17.24-3.87.24-5.57C272.37,374.64,272.36,355.46,272.36,335.38Z" transform="translate(-43.04 -326.54)"/><path class="cls-2" d="M392.4,494.55c5.29-30.7,28.22-54.46,55.77-59,34.55-5.73,71.44,19.5,79.4,59.44" transform="translate(-43.04 -326.54)"/><path class="cls-2" d="M77.92,494.55c5.3-30.7,28.23-54.46,55.78-59,34.55-5.73,71.44,19.5,79.39,59.44" transform="translate(-43.04 -326.54)"/><path d="M142.77,544.58a46.34,46.34,0,1,1,.2-92.67c25.55,0,46.65,21.31,46.41,46.79A46.45,46.45,0,0,1,142.77,544.58Zm25-46.23a25,25,0,1,0-24.92,24.94A24.95,24.95,0,0,0,167.73,498.35Z" transform="translate(-43.04 -326.54)"/><path d="M455.68,544.56a46.34,46.34,0,1,1,2-92.65c25.17.44,46,22,45.5,47.13A46.49,46.49,0,0,1,455.68,544.56Zm25.83-46.1a25,25,0,1,0-24.86,24.82A24.94,24.94,0,0,0,481.51,498.46Z" transform="translate(-43.04 -326.54)"/><path class="cls-3" d="M289.15,399.79V335.36h17.22c12.09,0,24.2.26,36.28-.11,5.36-.17,9.59,1.45,12.46,5.63C362,351,369,361.09,375.26,371.61c5.94,10,11,20.54,17.14,32.2Z" transform="translate(-43.04 -326.54)"/><path class="cls-3" d="M272.36,335.38c0,20.08,0,39.26,0,58.45,0,1.7-.14,3.4-.24,5.57H183.66a5.89,5.89,0,0,1,0-1.87c6.56-19.45,15.68-37.47,29.42-53,5.66-6.39,12-9.91,21.05-9.38C246.57,335.93,259.07,335.38,272.36,335.38Z" transform="translate(-43.04 -326.54)"/><path class="cls-4" d="M167.73,498.35A25,25,0,1,1,143,473.26,25,25,0,0,1,167.73,498.35Z" transform="translate(-43.04 -326.54)"/><path class="cls-4" d="M481.51,498.46a24.87,24.87,0,0,1-24.86,24.82,25,25,0,1,1,24.86-24.82Z" transform="translate(-43.04 -326.54)"/><path class="cls-5" d="M59.68,472.74H43v25.1H84.69a64.28,64.28,0,0,1,7.68-23.7c9.06-16.12,28.13-33.06,50.7-33,26.4.07,52.29,23.41,57.33,56.78H398.81c.95-32.29,28.14-57.71,59.39-56.77,29.93.9,54.92,25.7,55.9,56.58h41.28V463.81l-7.54-.62-2.34-15.08c-10.75-8.3-32.09-22.72-59.24-27.58a168.21,168.21,0,0,0-33-2.11,158.53,158.53,0,0,0-24.83,2.71c-22.59,4.69-40.67,17.23-52.93,28.23l-158-3.66c-7.38-8.13-22.41-22.12-45.33-27.82-22.21-5.53-41.31-.65-47.77,1.08-10.58,2.84-14.23,5.77-47.64,18.45-5.72,2.17-10.44,3.92-13.52,5a125.87,125.87,0,0,0-3.63,30.28Z" transform="translate(-43.04 -326.54)"/></svg>