<svg id="Layer_1" data-name="Layer 1" xmlns="http://www.w3.org/2000/svg" viewBox="0 0 512.34 218.05"><defs><style>.cls-1{fill:#457cbf;}.cls-2{fill:#1c1c1a;}.cls-3{fill:#e1f1e8;}.cls-4{fill:#cacaca;}.cls-5{fill:#2e5586;}</style></defs><title>car2</title><path class="cls-1" d="M199.62,497.92H398c1-18.21,8-33.46,22.47-44.77a55.73,55.73,0,0,1,35.87-12c30.42.35,48.93,18.55,57.37,56.7h41.65v-25.1H538.74c-.64-8.23-.54-16-2-23.39a120.82,120.82,0,0,0-7.29-23.44c-2.66-6.24-8.22-10-15.09-11.34-13.17-2.58-26.33-5.28-39.55-7.64-3.91-.7-6.38-2.25-8.4-5.82-11.62-20.6-24-40.72-40-58.3-3.6-3.95-7.4-8.12-11.95-10.72-4.78-2.74-10.56-5.2-15.92-5.24-49-.39-98-.16-147.06-.31-6.25,0-11.75,1.53-15.25,6.49-9.49,13.45-18.82,27-27.57,41-5.19,8.26-9.29,17.23-13.63,26-1.54,3.11-3.43,4.35-7,4.61q-51.42,3.72-102.81,7.86c-17.09,1.36-25.57,12.8-30.3,27.53-2.32,7.23-2.84,15-4.29,23.19l-7.54.62v33.92H84.32c.78-17.67,7.59-32.43,21.22-43.67,10.77-8.89,23.27-12.91,37.27-13C166.43,441,197.18,458.89,199.62,497.92Zm109.65-98.13-103.24,4c6.15-11.66,11.19-22.2,17.13-32.2,6.25-10.52,13.23-20.63,20.16-30.73,2.87-4.18,7.09-5.8,12.45-5.63,12.09.37,24.19.11,36.29.11h17.21Zm16.79-64.41c13.29,0,25.79.55,38.21-.19,9.05-.53,15.4,3,21.06,9.38,13.73,15.49,22.85,33.51,29.41,53a5.63,5.63,0,0,1,0,1.87H326.32c-.1-2.17-.25-3.87-.25-5.57C326.06,374.64,326.06,355.46,326.06,335.38Z" transform="translate(-43.04 -326.54)"/><path class="cls-2" d="M206,494.55c-5.3-30.7-28.23-54.46-55.78-59C115.71,429.79,78.81,455,70.86,495" transform="translate(-43.04 -326.54)"/><path class="cls-2" d="M520.5,494.55c-5.3-30.7-28.23-54.46-55.78-59-34.54-5.73-71.44,19.5-79.39,59.44" transform="translate(-43.04 -326.54)"/><path d="M455.65,544.58a46.34,46.34,0,1,0-.19-92.67c-25.55,0-46.66,21.31-46.42,46.79A46.46,46.46,0,0,0,455.65,544.58Zm-25-46.23a25,25,0,1,1,24.93,24.94A25,25,0,0,1,430.69,498.35Z" transform="translate(-43.04 -326.54)"/><path d="M142.75,544.56a46.34,46.34,0,1,0-2-92.65c-25.16.44-46,22-45.49,47.13A46.47,46.47,0,0,0,142.75,544.56Zm-25.84-46.1a25,25,0,1,1,24.86,24.82A24.94,24.94,0,0,1,116.91,498.46Z" transform="translate(-43.04 -326.54)"/><path class="cls-3" d="M309.27,399.79V335.36H292.06c-12.1,0-24.2.26-36.29-.11-5.36-.17-9.58,1.45-12.45,5.63-6.93,10.1-13.91,20.21-20.16,30.73-5.94,10-11,20.54-17.13,32.2Z" transform="translate(-43.04 -326.54)"/><path class="cls-3" d="M326.06,335.38c0,20.08,0,39.26,0,58.45,0,1.7.15,3.4.25,5.57h88.45a5.63,5.63,0,0,0,0-1.87c-6.56-19.45-15.68-37.47-29.41-53-5.66-6.39-12-9.91-21.06-9.38C351.85,335.93,339.35,335.38,326.06,335.38Z" transform="translate(-43.04 -326.54)"/><path class="cls-4" d="M430.69,498.35a25,25,0,1,0,24.74-25.09A25,25,0,0,0,430.69,498.35Z" transform="translate(-43.04 -326.54)"/><path class="cls-4" d="M116.91,498.46a24.88,24.88,0,0,0,24.86,24.82,25,25,0,1,0-24.86-24.82Z" transform="translate(-43.04 -326.54)"/><path class="cls-5" d="M538.74,472.74h16.64v25.1H513.73a64.09,64.09,0,0,0-7.68-23.7c-9.06-16.12-28.12-33.06-50.69-33-26.4.07-52.29,23.41-57.34,56.78H199.62c-1-32.29-28.14-57.71-59.4-56.77-29.93.9-54.92,25.7-55.9,56.58H43V463.81l7.54-.62,2.34-15.08c10.75-8.3,32.09-22.72,59.24-27.58a168.24,168.24,0,0,1,33-2.11A158.62,158.62,0,0,1,170,421.13c22.58,4.69,40.66,17.23,52.93,28.23l158-3.66c7.38-8.13,22.41-22.12,45.33-27.82,22.21-5.53,41.31-.65,47.77,1.08,10.58,2.84,14.23,5.77,47.65,18.45,5.72,2.17,10.43,3.92,13.51,5a125.87,125.87,0,0,1,3.63,30.28Z" transform="translate(-43.04 -326.54)"/></svg>