<svg id="Layer_1" data-name="Layer 1" xmlns="http://www.w3.org/2000/svg" viewBox="0 0 246.52 273.44"><defs><style>.cls-1{fill:#f7a425;}.cls-2{fill:#f2f2f2;}.cls-3{fill:#df1e41;}.cls-4{fill:#f7f7f8;}.cls-5{fill:#271716;}.cls-6{fill:#fff;}.cls-7{fill:#fed401;}</style></defs><title>chicken</title><path class="cls-1" d="M265.56,511.88c9.33-1.16,16.3-5.79,21.59-13.51.39,3.49.67,6.66,1.09,9.82,1,7.57,2.54,15,5.59,22.06,1.86,4.31,4.24,8.28,8,11.28a15.68,15.68,0,0,0,11,3.55c2.21-.1,4.05-1.35,6.05-2.08a64.37,64.37,0,0,1,14.59-4,13.49,13.49,0,0,1,6.67.49c.31.12.77.16.81.59s-.44.5-.73.66l-33.48,19.09a2.26,2.26,0,0,1-1.44.36,26.61,26.61,0,0,0-9.73.79c-1.33.33-1.42-.19-1.46-1.2a17.59,17.59,0,0,1,1-6.95,7.34,7.34,0,0,0-.57-6.19c-2.63-5.26-6.35-9.76-10.1-14.22-5.82-6.92-12-13.51-18.38-19.92A4.41,4.41,0,0,1,265.56,511.88Z" transform="translate(-128.56 -305.09)"/><path class="cls-1" d="M225.42,578.53l-20.89-14.2c-6.95-4.71-13.88-9.45-20.87-14.11-1.2-.79-1-1.41-.26-2.29a12.1,12.1,0,0,1,8.33-4.75c5.52-.48,7.94-4.23,10.15-8.44,5.93-11.32,10-23.36,14.14-35.4.33-1,.57-1.34,1.48-.51,5.89,5.34,12.8,8.93,20.16,11.74l1,.4a4.28,4.28,0,0,1,.54.34l-3.69,2.22c-7.58,4.61-14.8,9.68-20.85,16.24-3.65,3.94-6.72,8.25-7.95,13.62a16.56,16.56,0,0,0,1.19,10.77c1,2.24,2.93,3.49,4.59,5a67,67,0,0,1,10.34,11.47,18.19,18.19,0,0,1,2.29,4.5A5.9,5.9,0,0,1,225.42,578.53Z" transform="translate(-128.56 -305.09)"/><path class="cls-2" d="M157.37,368.66a5.72,5.72,0,0,0,1.3,2.13,61.6,61.6,0,0,0,8.1,7.72c.8.68,1.37,1.44.82,2.52s-1.46,1.15-2.6.89a80.23,80.23,0,0,0-24.52-2c-1.6.13-1.47.78-1.05,1.82a13.4,13.4,0,0,0,4.25,5.16,50.18,50.18,0,0,0,8.73,5.66c.93.5,1.65,1.11,1.41,2.26s-1.08,1.42-2.17,1.52c-5.14.46-10.29.9-15.38,1.81a25.65,25.65,0,0,0-6.61,1.83c-1.38.66-1.41.95-.29,2a18.34,18.34,0,0,0,3.23,2.32,108.09,108.09,0,0,1,9.76,6.36c.91.7,1.74,1.5,1.47,2.82s-1.33,1.42-2.33,1.65l-.59.17a27.3,27.3,0,0,0-7.56,3.26c-2.38,1.61-2.39,2.66-.08,4.4a19.5,19.5,0,0,0,4.14,2.31l15.79,6.63c.94.4,2,.72,2,2s-.92,1.68-1.84,2.16c-4.27,2.22-8.53,4.5-11.92,8-2.77,2.85-2.87,4.18,1.66,5.83a3.7,3.7,0,0,0,1.21.1l12,.25c1,0,2,.05,2.39,1.22s-.27,1.82-1,2.46a35.88,35.88,0,0,0-4.33,4.12,14.53,14.53,0,0,0-2.85,4.33,2.06,2.06,0,0,0,1.14,2.91,12.45,12.45,0,0,0,4.29,1c3.79.31,4.18,1,2.36,4.29-.07.13-.15.26-.22.4-1.25,2.45-.78,3.28,2,3.62a28,28,0,0,0,7-.32c2.34-.32,3.14.76,2.37,2.95a17.74,17.74,0,0,0-.87,3.25c-.29,1.84.45,2.78,2.27,3.15a6.08,6.08,0,0,0,2.29,0c1.35-.25,2.7-.51,4.05-.82a1.93,1.93,0,0,1,2.09.53,2,2,0,0,1,.21,2.17,24.2,24.2,0,0,0-1,3.05,6.41,6.41,0,0,0,1.17,5.79c1.31,1.49,2.67,1.56,4.14.26a1.83,1.83,0,0,1,2-.42,1.72,1.72,0,0,1,1.18,1.78,11.12,11.12,0,0,0,.2,2.44c.63,3,2,4.15,5.11,4.13a13.73,13.73,0,0,0,4.48-.89c1.68-.59,2.34-.34,3.06,1.22a26.51,26.51,0,0,0,7.53,9.55c8.4,6.83,18.25,8.26,28.62,7.47a87.54,87.54,0,0,0,24.6-6,3.56,3.56,0,0,1,3.19.21,25.13,25.13,0,0,0,22.73.74c8-3.54,14.11-9.46,19.54-16.17,1.93-2.39,3.45-5.06,5.46-7.4,21.23-24.53,35-52.4,38.07-85.08a117.07,117.07,0,0,0-1-28.3,1.35,1.35,0,0,0-.85-1.14c-4.77-2.33-6.64-6.43-6.8-11.47-.2-6.49,2.08-12.39,4.3-18.35a8.45,8.45,0,0,1,2.59-3.84,8.27,8.27,0,0,1,4.39-1.64,10.26,10.26,0,0,1,5.65,1,10.88,10.88,0,0,0,1.47-5.26c0-5.92-5.44-10.08-10.18-13.67-2.84-2.17-6.22-4.65-11.26-5.39a20,20,0,0,0-5.88,0,26.07,26.07,0,0,0-12.23,5.66c-6.23,4.84-10.88,11.06-15.11,17.62-5.23,8.12-9.72,16.67-14.73,24.93-5.75,9.47-12,18.56-20.47,25.88a55.76,55.76,0,0,1-30.77,13.54,86.88,86.88,0,0,1-22.32-.71,10.09,10.09,0,0,1-5.74-2.82,206,206,0,0,0-19.69-16.16c-8.87-6.42-18.08-12.27-28.24-16.49A13.26,13.26,0,0,0,157.37,368.66Z" transform="translate(-128.56 -305.09)"/><path class="cls-2" d="M157.37,368.66a13.26,13.26,0,0,1,5.18,1c10.16,4.22,19.37,10.07,28.24,16.49a206,206,0,0,1,19.69,16.16,10.09,10.09,0,0,0,5.74,2.82,86.88,86.88,0,0,0,22.32.71,55.76,55.76,0,0,0,30.77-13.54c8.47-7.32,14.72-16.41,20.47-25.88,5-8.26,9.5-16.81,14.73-24.93,4.23-6.56,8.88-12.78,15.11-17.62a26.07,26.07,0,0,1,12.23-5.66,20,20,0,0,1,5.88,0c5.08.74,8.48,3.26,11.26,5.39,4.56,3.48,10.36,7.91,10.18,14a10.66,10.66,0,0,1-1.47,4.93c-.49,10.59-2.86,13.59-5,14.33-2.41.84-4.43-1.24-6.8.13s-2.43,4.44-3.18,8.59c-.49,2.7-1.11,6.12.68,8a29.06,29.06,0,0,0,4.15,3.26,1.35,1.35,0,0,1,.85,1.14,117.07,117.07,0,0,1,1,28.3c-3,32.68-16.84,60.55-38.07,85.08-2,2.34-3.53,5-5.46,7.4-5.43,6.71-11.5,12.63-19.54,16.17a25.13,25.13,0,0,1-22.73-.74,3.56,3.56,0,0,0-3.19-.21,87.54,87.54,0,0,1-24.6,6c-10.37.79-20.22-.64-28.62-7.47a26.51,26.51,0,0,1-7.53-9.55c-.72-1.56-1.38-1.81-3.06-1.22a13.73,13.73,0,0,1-4.48.89c-3.1,0-4.48-1.11-5.11-4.13a11.12,11.12,0,0,1-.2-2.44,1.72,1.72,0,0,0-1.18-1.78,1.83,1.83,0,0,0-2,.42c-1.47,1.3-2.83,1.23-4.14-.26a6.41,6.41,0,0,1-1.17-5.79,24.2,24.2,0,0,1,1-3.05,2,2,0,0,0-.21-2.17,1.93,1.93,0,0,0-2.09-.53c-1.35.31-2.7.57-4.05.82a6.08,6.08,0,0,1-2.29,0c-1.82-.37-2.56-1.31-2.27-3.15a17.74,17.74,0,0,1,.87-3.25c.77-2.19,0-3.27-2.37-2.95a28,28,0,0,1-7,.32c-2.73-.34-3.2-1.17-2-3.62.07-.14.15-.27.22-.4,1.82-3.26,1.43-4-2.36-4.29a12.45,12.45,0,0,1-4.29-1,2.06,2.06,0,0,1-1.14-2.91,14.53,14.53,0,0,1,2.85-4.33,35.88,35.88,0,0,1,4.33-4.12c.78-.64,1.48-1.29,1-2.46s-1.39-1.2-2.39-1.22l-12-.25a3.7,3.7,0,0,1-1.21-.1c-4.53-1.65-4.43-3-1.66-5.83,3.39-3.48,7.65-5.76,11.92-8,.92-.48,1.9-.86,1.84-2.16s-1.07-1.61-2-2l-15.79-6.63a19.5,19.5,0,0,1-4.14-2.31c-2.31-1.74-2.3-2.79.08-4.4a27.3,27.3,0,0,1,7.56-3.26l.59-.17c1-.23,2.07-.41,2.33-1.65s-.56-2.12-1.47-2.82a108.09,108.09,0,0,0-9.76-6.36,18.34,18.34,0,0,1-3.23-2.32c-1.12-1.08-1.09-1.37.29-2a25.65,25.65,0,0,1,6.61-1.83c5.09-.91,10.24-1.35,15.38-1.81,1.09-.1,1.93-.39,2.17-1.52s-.48-1.76-1.41-2.26a50.18,50.18,0,0,1-8.73-5.66,13.4,13.4,0,0,1-4.25-5.16c-.42-1-.55-1.69,1.05-1.82a80.23,80.23,0,0,1,24.52,2c1.14.26,2,.21,2.6-.89s0-1.84-.82-2.52a61.6,61.6,0,0,1-8.1-7.72A5.72,5.72,0,0,1,157.37,368.66Zm76.88,122.41c12.32,0,22.63-2.26,32.41-6.78,19.08-8.83,33.57-22.85,45.11-40.17a4.16,4.16,0,0,0,.44-.8,1.83,1.83,0,0,0-3.08-1.9,9,9,0,0,0-.68,1c-9.23,13.85-20.63,25.5-35,34.11s-29.62,12.31-46.21,10.31c-13.57-1.64-25.85-6.86-37.39-14a1.32,1.32,0,0,1-.68-1.5,21.82,21.82,0,0,1,3.77-9.44,59.56,59.56,0,0,1,11.35-12.42c9.89-8.52,20.92-15.33,32.32-21.6q6.71-3.69,13.62-7a1.83,1.83,0,0,0,1.24-2.17,1.67,1.67,0,0,0-1.75-1.43,3.83,3.83,0,0,0-1.58.49,254,254,0,0,0-33.49,19.1c-8,5.51-15.72,11.47-22,19.06-3.8,4.65-6.79,9.7-7.33,15.88-.15,1.64.16,2.85,1.75,3.69,2.43,1.3,4.73,2.83,7.15,4.15C207.25,486.69,220.93,491,234.25,491.07Zm105-165.83a5.11,5.11,0,1,0,5.15,5.15A5.12,5.12,0,0,0,339.28,325.24Z" transform="translate(-128.56 -305.09)"/><path class="cls-3" d="M321.64,305.09a25.29,25.29,0,0,1,8.44,2.66c1.89.9,3.71,1.94,5.55,2.94,1.51.82,2.34.59,3.13-.89,2.64-4.94,5.26-5.27,9-1.14a30.45,30.45,0,0,1,4.24,6.19,2.42,2.42,0,0,0,2.86,1.41,21.31,21.31,0,0,1,6.43-.13c2.84.45,3.75,1.72,2.93,4.47-1.07,3.6-3.12,5-5.89,9.8-.39.67-.69,1.23-.87,1.58-.32-.25-.81-.63-1.38-1.12a32.12,32.12,0,0,1-4.78-5.16c-2-2.7-9.07-7.38-17-7.35,0,0-9.25,0-18.43,8.79a67.84,67.84,0,0,0-5,5.48c-.21.25-.37.46-.48.6a16,16,0,0,1-1.55-1.22,16.22,16.22,0,0,1-4.55-7.07c-1.37-3.62-.45-5.87,3.1-7.43a22.92,22.92,0,0,1,7.44-1.67c2.17-.17,2.73-.78,2.42-2.92a21.33,21.33,0,0,1-.31-3.82C317,306.22,318.27,305,321.64,305.09Z" transform="translate(-128.56 -305.09)"/><path class="cls-3" d="M363.47,379.94a23.39,23.39,0,0,1-.43,4.8c-1.35,7.22-5.64,10.14-12.83,8.64-7.69-1.61-11.66-6.28-11.82-14.16-.2-10.38,3.41-19.8,7.6-29.06a1.65,1.65,0,0,1,.81-.91,2,2,0,0,1,1.55.14,23.61,23.61,0,0,1,5.48,4c1.57,1.44,1.95,1.66,2.57,2.24C362.89,361.72,363.37,377,363.47,379.94Z" transform="translate(-128.56 -305.09)"/><path class="cls-4" d="M234.25,491.07c-13.32,0-27-4.38-39.95-11.38-2.42-1.32-4.72-2.85-7.15-4.15-1.59-.84-1.9-2.05-1.75-3.69.54-6.18,3.53-11.23,7.33-15.88,6.23-7.59,13.91-13.55,22-19.06a254,254,0,0,1,33.49-19.1,3.83,3.83,0,0,1,1.58-.49,1.67,1.67,0,0,1,1.75,1.43,1.83,1.83,0,0,1-1.24,2.17q-6.91,3.29-13.62,7c-11.4,6.27-22.43,13.08-32.32,21.6A59.56,59.56,0,0,0,193,461.91a21.82,21.82,0,0,0-3.77,9.44,1.32,1.32,0,0,0,.68,1.5c11.54,7.15,23.82,12.37,37.39,14,16.59,2,32-1.76,46.21-10.31s25.74-20.26,35-34.11a9,9,0,0,1,.68-1,1.83,1.83,0,0,1,3.08,1.9,4.16,4.16,0,0,1-.44.8c-11.54,17.32-26,31.34-45.11,40.17C256.88,488.81,246.57,491.07,234.25,491.07Z" transform="translate(-128.56 -305.09)"/><path class="cls-5" d="M339.28,325.24a5.11,5.11,0,1,1-.09,10.22,5.11,5.11,0,1,1,.09-10.22Zm0,3.71a1.4,1.4,0,0,0,.06,2.79,1.32,1.32,0,0,0,1.38-1.35A1.33,1.33,0,0,0,339.24,329Z" transform="translate(-128.56 -305.09)"/><path class="cls-6" d="M339.24,329a1.33,1.33,0,0,1,1.44,1.44,1.32,1.32,0,0,1-1.38,1.35,1.4,1.4,0,0,1-.06-2.79Z" transform="translate(-128.56 -305.09)"/><path class="cls-7" d="M359,337c8.68,8.19,17.65,17.58,15.8,20.28-.33.47-1.31.56-3.26.72-4,.34-10.76.9-16.17-3.23a16.67,16.67,0,0,1-1.58-1.39Q356.44,345.19,359,337Z" transform="translate(-128.56 -305.09)"/></svg>