<?xml version="1.0" encoding="utf-8"?>
<!-- Generator: Adobe Illustrator 23.0.1, SVG Export Plug-In . SVG Version: 6.00 Build 0)  -->
<svg version="1.1" id="Layer_1" xmlns="http://www.w3.org/2000/svg" xmlns:xlink="http://www.w3.org/1999/xlink" x="0px" y="0px"
	 viewBox="0 0 298.6 185.7" style="enable-background:new 0 0 298.6 185.7;" xml:space="preserve">
<style type="text/css">
	.st0{fill:#FFFFFF;}
	.st1{fill:#D1D3D4;}
</style>
<title>cloud4</title>
<path class="st0" d="M294.3,149.1c13.6-33.1-6.5-64.4-34.5-70.9c-2.9-0.7-3.7-2-4-4.8c-3.6-32.1-35.1-48.8-63.5-33.5
	c-5.4,2.9-5.8-0.9-7.4-3.6c-31.5-50.3-105-48-133.1,4.4c-5.4,9.8-8.4,20.7-8.7,31.9c0,3.4-1.1,4.8-4.5,5.8
	C16.1,85,3.4,100.2,0.3,123.4c-1.2,9.4,1.3,18.2,4.8,26.8c3.2,13.8,12.8,21.9,25,27.3c7,3,14.7,4.6,22.3,4.4
	c64.7,0,129.4,0,194.1-0.1c18.7,0,33.9-7.1,44.4-23.1C292.9,155.8,294.8,152.9,294.3,149.1z"/>
<path class="st1" d="M294.3,149.1c-9.2,19-24.8,29.6-45.4,29.8c-66.3,0.6-132.5,0.5-198.8,0.1c-20.5-0.1-35.3-10.9-45-28.8
	c-2,1.9-1.3,3.9-0.4,6c6.3,16.3,25.4,29.5,43.1,29.5c67.9,0,135.7,0,203.6,0c17.4,0,36.6-13.4,43-29.7
	C295.2,153.6,295.8,151.4,294.3,149.1z"/>
</svg>
