<svg id="Layer_1" data-name="Layer 1" xmlns="http://www.w3.org/2000/svg" viewBox="0 0 298.65 185.67"><defs><style>.cls-1{opacity:0.65;}.cls-2{fill:#fff;}.cls-3{fill:#d2d3d4;}</style></defs><title>cloud</title><g class="cls-1"><path class="cls-2" d="M432.64,399.68c13.62-33.14-6.5-64.38-34.48-70.85-2.92-.68-3.68-2-4-4.83-3.62-32.08-35.13-48.81-63.52-33.47-5.37,2.9-5.79-.93-7.44-3.57-31.49-50.34-105-48-133.09,4.35a69.14,69.14,0,0,0-8.71,31.9c0,3.4-1.14,4.82-4.53,5.82-22.45,6.61-35.15,21.78-38.2,44.93-1.23,9.38,1.3,18.18,4.78,26.77,3.18,13.8,12.8,21.9,25,27.34a54.42,54.42,0,0,0,22.33,4.44q97.08,0,194.12-.07c18.68,0,33.93-7.15,44.44-23.11C431.24,406.41,433.14,403.45,432.64,399.68Z" transform="translate(-138.36 -250.58)"/><path class="cls-3" d="M432.64,399.68c-9.17,19-24.75,29.58-45.43,29.77-66.25.61-132.5.48-198.75.07-20.5-.13-35.3-10.92-45-28.79-2,1.88-1.26,3.9-.44,6,6.33,16.29,25.44,29.49,43.07,29.5q101.79.06,203.58,0c17.38,0,36.64-13.43,43-29.69C433.57,404.24,434.13,402,432.64,399.68Z" transform="translate(-138.36 -250.58)"/></g></svg>