<?xml version="1.0" encoding="utf-8"?>
<!-- Generator: Adobe Illustrator 23.0.1, SVG Export Plug-In . SVG Version: 6.00 Build 0)  -->
<svg version="1.1" id="Layer_1" xmlns="http://www.w3.org/2000/svg" xmlns:xlink="http://www.w3.org/1999/xlink" x="0px" y="0px"
	 viewBox="0 0 298.6 185.7" style="enable-background:new 0 0 298.6 185.7;" xml:space="preserve">
<style type="text/css">
	.st0{opacity:0.83;fill:#FFFFFF;}
	.st1{opacity:0.83;fill:#D1D3D4;}
</style>
<title>cloud3</title>
<path class="st0" d="M4.4,149.1c-13.6-33.1,6.5-64.4,34.5-70.9c2.9-0.7,3.7-2,4-4.8C46.5,41.3,78,24.6,106.4,40
	c5.4,2.9,5.8-0.9,7.4-3.6c31.5-50.3,105-48,133.1,4.4c5.4,9.8,8.4,20.7,8.7,31.9c0,3.4,1.1,4.8,4.5,5.8
	c22.5,6.6,35.1,21.8,38.2,44.9c1.2,9.4-1.3,18.2-4.8,26.8c-3.2,13.8-12.8,21.9-25,27.3c-7,3-14.7,4.6-22.3,4.4
	c-64.7,0-129.4,0-194.1-0.1c-18.7,0-33.9-7.1-44.4-23.1C5.8,155.8,3.9,152.9,4.4,149.1z"/>
<path class="st1" d="M4.4,149.1c9.2,19,24.8,29.6,45.4,29.8c66.3,0.6,132.5,0.5,198.8,0.1c20.5-0.1,35.3-10.9,45-28.8
	c2,1.9,1.3,3.9,0.4,6c-6.3,16.3-25.4,29.5-43.1,29.5c-67.9,0-135.7,0-203.6,0c-17.4,0-36.6-13.4-43-29.7
	C3.5,153.6,2.9,151.4,4.4,149.1z"/>
</svg>
