<svg id="Layer_1" data-name="Layer 1" xmlns="http://www.w3.org/2000/svg" viewBox="0 0 271.5 737.2"><defs><style>.cls-1,.cls-5{fill:#fbdb32;}.cls-1{opacity:0.53;isolation:isolate;}.cls-2{opacity:0.31;}.cls-3{fill:#fff;}.cls-3,.cls-4{stroke:#fff;stroke-miterlimit:10;}.cls-4{fill:#231f20;}.cls-5{fill-opacity:0;}</style></defs><title>constellation4</title><circle class="cls-1" cx="191.2" cy="730.9" r="6.3"/><circle class="cls-1" cx="167.8" cy="548.5" r="7"/><circle class="cls-1" cx="47.8" cy="649.2" r="7.3"/><circle class="cls-1" cx="229.1" cy="409.6" r="7.9"/><g class="cls-2"><path class="cls-3" d="M52.1,651l2.1,1.2-.9,1.6-2.1-1.2Z" transform="translate(0.1 0)"/><path class="cls-3" d="M184.3,730.1l-1.1-.6.9-1.6,1.1.6Z" transform="translate(0.1 0)"/><path class="cls-3" d="M141.4,703l3.1,1.8-.9,1.6-3.1-1.8Z" transform="translate(0.1 0)"/><path class="cls-3" d="M116.7,690.7l.9-1.5,3.1,1.8-.9,1.6Z" transform="translate(0.1 0)"/><path class="cls-3" d="M173.7,723.9l.9-1.5,3.2,1.8-.9,1.5Z" transform="translate(0.1 0)"/><path class="cls-3" d="M169.9,719.6l3.1,1.8-.9,1.5-3.1-1.8Z" transform="translate(0.1 0)"/><path class="cls-3" d="M168.3,718.7l-.9,1.6-3.1-1.8.9-1.6Z" transform="translate(0.1 0)"/><path class="cls-3" d="M163.5,715.9l-.9,1.5-3.1-1.8.9-1.5Z" transform="translate(0.1 0)"/><path class="cls-3" d="M150.9,708.5l3.1,1.8-.9,1.6-3.1-1.8Z" transform="translate(0.1 0)"/><path class="cls-3" d="M149.3,707.6l-.9,1.6-3.1-1.8.9-1.6Z" transform="translate(0.1 0)"/><path class="cls-3" d="M138.8,703.6l-3.1-1.8.9-1.6,3.1,1.8Z" transform="translate(0.1 0)"/><path class="cls-3" d="M121.4,693.5l.9-1.5,3.1,1.8-.9,1.5Z" transform="translate(0.1 0)"/><path class="cls-3" d="M112.8,686.4l3.1,1.8-.9,1.5-3.1-1.8Z" transform="translate(0.1 0)"/><path class="cls-3" d="M108.1,683.6l3.1,1.8-.9,1.6-3.1-1.9Z" transform="translate(0.1 0)"/><path class="cls-3" d="M97.6,679.6l.9-1.5,3.1,1.8-.9,1.5Z" transform="translate(0.1 0)"/><path class="cls-3" d="M89,672.5l3.1,1.8-.9,1.6-3.1-1.8Z" transform="translate(0.1 0)"/><path class="cls-3" d="M84.3,669.8l3.1,1.8-.9,1.6-3.1-1.8Z" transform="translate(0.1 0)"/><path class="cls-3" d="M74.8,664.2l3.1,1.8-.9,1.6-3.1-1.8Z" transform="translate(0.1 0)"/><path class="cls-3" d="M65.3,658.7l3.1,1.8-.9,1.6-3.1-1.8Z" transform="translate(0.1 0)"/><path class="cls-3" d="M59.6,657.5l.9-1.6,3.1,1.8-.9,1.5Z" transform="translate(0.1 0)"/><path class="cls-3" d="M182.6,727l-.9,1.6-3.1-1.8.9-1.5Z" transform="translate(0.1 0)"/><path class="cls-3" d="M154.7,712.9l.9-1.6,3.2,1.8-.9,1.6Z" transform="translate(0.1 0)"/><path class="cls-3" d="M135,699.3l-.9,1.5L131,699l.9-1.6Z" transform="translate(0.1 0)"/><path class="cls-3" d="M129.3,698.1l-3.1-1.8.9-1.6,3.1,1.8Z" transform="translate(0.1 0)"/><path class="cls-3" d="M106.4,682.7l-.9,1.5-3.1-1.8.9-1.5Z" transform="translate(0.1 0)"/><path class="cls-3" d="M79.6,667l3.1,1.8-.9,1.6-3.1-1.8Z" transform="translate(0.1 0)"/><path class="cls-3" d="M69.1,663l.9-1.6,3.1,1.8-.9,1.6Z" transform="translate(0.1 0)"/><path class="cls-3" d="M58,656.5l-3.1-1.8.9-1.6,3.1,1.8Z" transform="translate(0.1 0)"/><path class="cls-3" d="M97,677.1l-.9,1.6L93,676.9l.9-1.6Z" transform="translate(0.1 0)"/></g><g class="cls-2"><path class="cls-3" d="M167.7,550l-1.9,1.5-1.2-1.5,1.8-1.5Z" transform="translate(0.1 0)"/><path class="cls-3" d="M46.6,645.1l1-.8,1.2,1.5-1,.8Z" transform="translate(0.1 0)"/><path class="cls-3" d="M87.3,614.8l-2.8,2.3-1.1-1.4,2.8-2.3Z" transform="translate(0.1 0)"/><path class="cls-3" d="M107.6,596.1l1.1,1.4-2.8,2.3-1.1-1.4Z" transform="translate(0.1 0)"/><path class="cls-3" d="M56.2,637.5l1.1,1.4-2.9,2.3-1.1-1.4Z" transform="translate(0.1 0)"/><path class="cls-3" d="M61.6,635.5l-2.8,2.3-1.1-1.4,2.8-2.3Z" transform="translate(0.1 0)"/><path class="cls-3" d="M63,634.3l-1.1-1.4,2.8-2.3,1.1,1.4Z" transform="translate(0.1 0)"/><path class="cls-3" d="M67.3,630.8l-1.1-1.4,2.8-2.3,1.1,1.4Z" transform="translate(0.1 0)"/><path class="cls-3" d="M78.7,621.7,75.9,624l-1.1-1.4,2.8-2.3Z" transform="translate(0.1 0)"/><path class="cls-3" d="M80.1,620.5,79,619.1l2.8-2.3,1.1,1.4Z" transform="translate(0.1 0)"/><path class="cls-3" d="M87.6,612.1l2.8-2.3,1.2,1.4-2.8,2.3Z" transform="translate(0.1 0)"/><path class="cls-3" d="M103.3,599.6l1.1,1.4-2.8,2.3-1.1-1.4Z" transform="translate(0.1 0)"/><path class="cls-3" d="M113,594l-2.8,2.3-1.1-1.4,2.8-2.3Z" transform="translate(0.1 0)"/><path class="cls-3" d="M117.3,590.6l-2.8,2.3-1.1-1.4,2.8-2.3Z" transform="translate(0.1 0)"/><path class="cls-3" d="M124.7,582.3l1.1,1.4L123,586l-1.1-1.4Z" transform="translate(0.1 0)"/><path class="cls-3" d="M134.4,576.8l-2.8,2.3-1.1-1.4,2.8-2.3Z" transform="translate(0.1 0)"/><path class="cls-3" d="M138.7,573.4l-2.8,2.3-1.1-1.4,2.8-2.3Z" transform="translate(0.1 0)"/><path class="cls-3" d="M147.3,566.5l-2.8,2.3-1.1-1.4,2.8-2.3Z" transform="translate(0.1 0)"/><path class="cls-3" d="M155.8,559.6l-2.8,2.3-1.1-1.4,2.8-2.3Z" transform="translate(0.1 0)"/><path class="cls-3" d="M159,554.7l1.1,1.4-2.8,2.3-1.1-1.4Z" transform="translate(0.1 0)"/><path class="cls-3" d="M50.2,644.7l-1.1-1.4,2.8-2.3,1.1,1.4Z" transform="translate(0.1 0)"/><path class="cls-3" d="M73.3,623.7l1.1,1.4-2.8,2.3L70.5,626Z" transform="translate(0.1 0)"/><path class="cls-3" d="M93,610.1l-1.1-1.4,2.8-2.3,1.1,1.4Z" transform="translate(0.1 0)"/><path class="cls-3" d="M96.2,605.3,99,603l1.1,1.4-2.8,2.3Z" transform="translate(0.1 0)"/><path class="cls-3" d="M118.7,589.4l-1.2-1.4,2.8-2.3,1.2,1.4Z" transform="translate(0.1 0)"/><path class="cls-3" d="M143,569.9l-2.8,2.3-1.1-1.4,2.8-2.3Z" transform="translate(0.1 0)"/><path class="cls-3" d="M150.4,561.6l1.1,1.4-2.8,2.3-1.1-1.4Z" transform="translate(0.1 0)"/><path class="cls-3" d="M160.5,553.5l2.8-2.3,1.1,1.4-2.8,2.3Z" transform="translate(0.1 0)"/><path class="cls-3" d="M127.3,582.5l-1.1-1.4,2.8-2.3,1.1,1.4Z" transform="translate(0.1 0)"/></g><g class="cls-2"><path class="cls-3" d="M230,407.4l-1,2.2-1.7-.8,1-2.2Z" transform="translate(0.1 0)"/><path class="cls-3" d="M165.7,547.4l.5-1.1,1.7.8-.5,1.1Z" transform="translate(0.1 0)"/><path class="cls-3" d="M188,501.8l-1.5,3.4-1.7-.7,1.5-3.3Z" transform="translate(0.1 0)"/><path class="cls-3" d="M197.6,475.9l1.6.7-1.5,3.3-1.6-.7Z" transform="translate(0.1 0)"/><path class="cls-3" d="M170.7,536.2l1.6.7-1.5,3.4-1.6-.7Z" transform="translate(0.1 0)"/><path class="cls-3" d="M174.6,532l-1.5,3.3-1.6-.7,1.5-3.3Z" transform="translate(0.1 0)"/><path class="cls-3" d="M175.3,530.2l-1.6-.7,1.5-3.4,1.6.7Z" transform="translate(0.1 0)"/><path class="cls-3" d="M177.6,525.2l-1.6-.7,1.5-3.3,1.6.7Z" transform="translate(0.1 0)"/><path class="cls-3" d="M183.6,511.8l-1.5,3.3-1.6-.7,1.4-3.3Z" transform="translate(0.1 0)"/><path class="cls-3" d="M184.3,510.1l-1.6-.7,1.5-3.3,1.6.7Z" transform="translate(0.1 0)"/><path class="cls-3" d="M187.1,499.3l1.5-3.3,1.6.7-1.5,3.3Z" transform="translate(0.1 0)"/><path class="cls-3" d="M195.3,480.9l1.6.7-1.5,3.3-1.6-.7Z" transform="translate(0.1 0)"/><path class="cls-3" d="M201.4,471.6l-1.5,3.3-1.6-.7,1.5-3.3Z" transform="translate(0.1 0)"/><path class="cls-3" d="M203.7,466.6l-1.5,3.3-1.6-.8,1.5-3.3Z" transform="translate(0.1 0)"/><path class="cls-3" d="M206.5,455.8l1.6.7-1.5,3.3-1.6-.7Z" transform="translate(0.1 0)"/><path class="cls-3" d="M212.6,446.5l-1.5,3.3-1.6-.7,1.5-3.3Z" transform="translate(0.1 0)"/><path class="cls-3" d="M214.8,441.5l-1.5,3.3-1.6-.7,1.5-3.3Z" transform="translate(0.1 0)"/><path class="cls-3" d="M219.3,431.4l-1.5,3.3-1.6-.7,1.5-3.3Z" transform="translate(0.1 0)"/><path class="cls-3" d="M223.8,421.4l-1.5,3.3-1.6-.7,1.5-3.3Z" transform="translate(0.1 0)"/><path class="cls-3" d="M224.4,415.6l1.6.7-1.5,3.3-1.6-.7Z" transform="translate(0.1 0)"/><path class="cls-3" d="M168.6,545.3l-1.6-.7,1.5-3.3,1.6.7Z" transform="translate(0.1 0)"/><path class="cls-3" d="M179.6,516.1l1.6.7-1.5,3.3-1.6-.7Z" transform="translate(0.1 0)"/><path class="cls-3" d="M191,495l-1.6-.7,1.5-3.3,1.6.7Z" transform="translate(0.1 0)"/><path class="cls-3" d="M191.6,489.3l1.5-3.3,1.7.7-1.5,3.3Z" transform="translate(0.1 0)"/><path class="cls-3" d="M204.4,464.9l-1.6-.7,1.5-3.3,1.6.7Z" transform="translate(0.1 0)"/><path class="cls-3" d="M217.1,436.4l-1.5,3.3L214,439l1.5-3.3Z" transform="translate(0.1 0)"/><path class="cls-3" d="M219.9,425.6l1.6.7-1.5,3.3-1.6-.7Z" transform="translate(0.1 0)"/><path class="cls-3" d="M225.1,413.9l1.4-3.3,1.7.7-1.5,3.3Z" transform="translate(0.1 0)"/><path class="cls-3" d="M208.9,454.8l-1.6-.7,1.5-3.3,1.7.7Z" transform="translate(0.1 0)"/></g><g class="cls-2"><path class="cls-3" d="M114.3,307.7l1.8,1.6-1.2,1.4-1.8-1.6Z" transform="translate(0.1 0)"/><path class="cls-3" d="M228.6,411.1l-.9-.8,1.2-1.4.9.8Z" transform="translate(0.1 0)"/><path class="cls-3" d="M191.8,376.1l2.8,2.4-1.2,1.4-2.7-2.4Z" transform="translate(0.1 0)"/><path class="cls-3" d="M169.9,359.2l1.2-1.4,2.7,2.4-1.2,1.4Z" transform="translate(0.1 0)"/><path class="cls-3" d="M219.4,402.9l1.1-1.3,2.8,2.4-1.2,1.3Z" transform="translate(0.1 0)"/><path class="cls-3" d="M216.6,398l2.7,2.4-1.2,1.3-2.7-2.4Z" transform="translate(0.1 0)"/><path class="cls-3" d="M215.1,396.7l-1.2,1.4-2.7-2.4,1.2-1.4Z" transform="translate(0.1 0)"/><path class="cls-3" d="M211,393.1l-1.2,1.3-2.7-2.4,1.2-1.3Z" transform="translate(0.1 0)"/><path class="cls-3" d="M200,383.4l2.7,2.4-1.2,1.4-2.7-2.4Z" transform="translate(0.1 0)"/><path class="cls-3" d="M198.6,382.1l-1.2,1.3-2.7-2.4,1.2-1.4Z" transform="translate(0.1 0)"/><path class="cls-3" d="M189.2,376.2l-2.7-2.4,1.2-1.4,2.7,2.4Z" transform="translate(0.1 0)"/><path class="cls-3" d="M174.1,362.9l1.2-1.3L178,364l-1.2,1.3Z" transform="translate(0.1 0)"/><path class="cls-3" d="M167,354.2l2.7,2.4-1.2,1.4-2.7-2.4Z" transform="translate(0.1 0)"/><path class="cls-3" d="M162.9,350.6l2.7,2.4-1.2,1.4-2.7-2.4Z" transform="translate(0.1 0)"/><path class="cls-3" d="M153.5,344.7l1.2-1.3,2.7,2.4-1.2,1.3Z" transform="translate(0.1 0)"/><path class="cls-3" d="M146.4,336l2.7,2.4-1.2,1.3-2.7-2.4Z" transform="translate(0.1 0)"/><path class="cls-3" d="M142.3,332.4l2.7,2.4-1.2,1.3-2.7-2.4Z" transform="translate(0.1 0)"/><path class="cls-3" d="M134,325.1l2.7,2.4-1.2,1.4-2.7-2.4Z" transform="translate(0.1 0)"/><path class="cls-3" d="M125.8,317.8l2.7,2.4-1.2,1.4-2.7-2.4Z" transform="translate(0.1 0)"/><path class="cls-3" d="M120.5,315.5l1.2-1.4,2.7,2.4-1.2,1.3Z" transform="translate(0.1 0)"/><path class="cls-3" d="M227.5,407.7l-1.2,1.3-2.7-2.4,1.2-1.4Z" transform="translate(0.1 0)"/><path class="cls-3" d="M202.9,388.4l1.2-1.4,2.7,2.4-1.2,1.4Z" transform="translate(0.1 0)"/><path class="cls-3" d="M186.2,371.2l-1.2,1.3-2.7-2.4,1.2-1.3Z" transform="translate(0.1 0)"/><path class="cls-3" d="M180.9,368.9l-2.7-2.4,1.2-1.4,2.7,2.4Z" transform="translate(0.1 0)"/><path class="cls-3" d="M161.5,349.4l-1.2,1.3-2.7-2.4,1.2-1.3Z" transform="translate(0.1 0)"/><path class="cls-3" d="M138.1,328.7l2.7,2.4-1.2,1.4-2.7-2.4Z" transform="translate(0.1 0)"/><path class="cls-3" d="M128.7,322.8l1.2-1.4,2.7,2.4-1.2,1.4Z" transform="translate(0.1 0)"/><path class="cls-3" d="M119,314.3l-2.7-2.4,1.2-1.4,2.7,2.4Z" transform="translate(0.1 0)"/><path class="cls-3" d="M153.3,342.1l-1.2,1.4-2.7-2.4,1.2-1.4Z" transform="translate(0.1 0)"/></g><circle class="cls-1" cx="113.2" cy="307.7" r="6.4"/><g class="cls-2"><path class="cls-3" d="M178.8,171.5l-1,2.2-1.7-.8,1-2.2Z" transform="translate(0.1 0)"/><path class="cls-3" d="M111.3,310l.5-1.1,1.7.8-.5,1.1Z" transform="translate(0.1 0)"/><path class="cls-3" d="M134.6,264.9l-1.6,3.3-1.6-.8,1.5-3.3Z" transform="translate(0.1 0)"/><path class="cls-3" d="M144.7,239.2l1.6.8-1.5,3.3-1.6-.8Z" transform="translate(0.1 0)"/><path class="cls-3" d="M116.6,298.9l1.6.8-1.6,3.3-1.6-.8Z" transform="translate(0.1 0)"/><path class="cls-3" d="M120.6,294.7l-1.5,3.3-1.6-.8,1.5-3.3Z" transform="translate(0.1 0)"/><path class="cls-3" d="M121.3,293l-1.6-.8,1.6-3.3,1.6.8Z" transform="translate(0.1 0)"/><path class="cls-3" d="M123.6,288.1l-1.6-.8,1.5-3.3,1.6.8Z" transform="translate(0.1 0)"/><path class="cls-3" d="M129.9,274.8l-1.5,3.3-1.6-.8,1.5-3.3Z" transform="translate(0.1 0)"/><path class="cls-3" d="M130.7,273.1l-1.6-.8,1.6-3.3,1.6.8Z" transform="translate(0.1 0)"/><path class="cls-3" d="M133.8,262.4l1.5-3.3,1.6.8-1.5,3.3Z" transform="translate(0.1 0)"/><path class="cls-3" d="M142.4,244.2l1.6.8-1.6,3.3-1.6-.8Z" transform="translate(0.1 0)"/><path class="cls-3" d="M148.7,235l-1.5,3.3-1.6-.8,1.5-3.3Z" transform="translate(0.1 0)"/><path class="cls-3" d="M151.1,230.1l-1.5,3.3-1.6-.8,1.5-3.3Z" transform="translate(0.1 0)"/><path class="cls-3" d="M154.2,219.3l1.6.8-1.6,3.3-1.6-.8Z" transform="translate(0.1 0)"/><path class="cls-3" d="M160.5,210.1l-1.5,3.3-1.6-.8,1.5-3.3Z" transform="translate(0.1 0)"/><path class="cls-3" d="M162.8,205.1l-1.6,3.3-1.6-.8,1.6-3.3Z" transform="translate(0.1 0)"/><path class="cls-3" d="M167.6,195.2l-1.5,3.3-1.6-.8,1.5-3.3Z" transform="translate(0.1 0)"/><path class="cls-3" d="M172.2,185.3l-1.5,3.3-1.6-.8,1.5-3.3Z" transform="translate(0.1 0)"/><path class="cls-3" d="M173,179.5l1.6.8-1.5,3.3-1.6-.8Z" transform="translate(0.1 0)"/><path class="cls-3" d="M114.2,308l-1.6-.8,1.5-3.3,1.6.8Z" transform="translate(0.1 0)"/><path class="cls-3" d="M125.9,279l1.6.8-1.6,3.3-1.6-.8Z" transform="translate(0.1 0)"/><path class="cls-3" d="M137.7,258.2l-1.6-.8,1.6-3.3,1.6.8Z" transform="translate(0.1 0)"/><path class="cls-3" d="M138.5,252.4l1.6-3.3,1.6.8-1.5,3.3Z" transform="translate(0.1 0)"/><path class="cls-3" d="M151.9,228.4l-1.6-.8,1.5-3.3,1.6.8Z" transform="translate(0.1 0)"/><path class="cls-3" d="M165.2,200.2l-1.5,3.3-1.6-.8,1.5-3.3Z" transform="translate(0.1 0)"/><path class="cls-3" d="M168.2,189.5l1.6.8-1.6,3.3-1.6-.8Z" transform="translate(0.1 0)"/><path class="cls-3" d="M173.7,177.8l1.5-3.3,1.6.8-1.5,3.3Z" transform="translate(0.1 0)"/><path class="cls-3" d="M156.6,218.4l-1.6-.8,1.5-3.3,1.6.8Z" transform="translate(0.1 0)"/></g><circle class="cls-1" cx="177.5" cy="170.7" r="6.3"/><g class="cls-2"><path class="cls-3" d="M137.4,662.5a.5.5,0,1,0,.5.5c0-.2-.2-.4-.5-.5Z" transform="translate(0.1 0)"/><path class="cls-3" d="M111.6,704.5a.32.32,0,0,0-.3.3.3.3,0,0,0,.6,0l-.3-.3Z" transform="translate(0.1 0)"/><path class="cls-3" d="M110.6,727.5a.32.32,0,0,0-.3.3.3.3,0,0,0,.6,0l-.3-.3Z" transform="translate(0.1 0)"/><path class="cls-3" d="M127.6,726.5a.32.32,0,0,0-.3.3.3.3,0,0,0,.6,0l-.3-.3Z" transform="translate(0.1 0)"/><path class="cls-3" d="M107.6,688.5a.32.32,0,0,0-.3.3.3.3,0,0,0,.6,0l-.3-.3Z" transform="translate(0.1 0)"/><path class="cls-3" d="M136.4,706.5a.5.5,0,1,0,.5.5c0-.2-.2-.4-.5-.5Z" transform="translate(0.1 0)"/><path class="cls-3" d="M157.1,728a.5.5,0,1,0-.5-.5.47.47,0,0,0,.5.5Z" transform="translate(0.1 0)"/><path class="cls-3" d="M182.9,686a.32.32,0,0,0,.3-.3.3.3,0,1,0-.3.3Z" transform="translate(0.1 0)"/><path class="cls-3" d="M183.9,663a.32.32,0,0,0,.3-.3.3.3,0,1,0-.3.3Z" transform="translate(0.1 0)"/><path class="cls-3" d="M166.9,664a.32.32,0,0,0,.3-.3.3.3,0,1,0-.3.3Z" transform="translate(0.1 0)"/><path class="cls-3" d="M186.9,702a.32.32,0,0,0,.3-.3.3.3,0,1,0-.3.3Z" transform="translate(0.1 0)"/><path class="cls-3" d="M158.1,684a.5.5,0,1,0-.5-.5.47.47,0,0,0,.5.5Z" transform="translate(0.1 0)"/></g><g class="cls-2"><path class="cls-4" d="M165.6,506a.5.5,0,1,0,.5.5c.1-.2-.1-.4-.5-.5Z" transform="translate(0.1 0)"/><path class="cls-4" d="M139.9,548a.32.32,0,0,0-.3.3q0,.15.3.3a.32.32,0,0,0,.3-.3q0-.15-.3-.3Z" transform="translate(0.1 0)"/><path class="cls-4" d="M138.9,571a.32.32,0,0,0-.3.3q0,.15.3.3a.32.32,0,0,0,.3-.3q0-.15-.3-.3Z" transform="translate(0.1 0)"/><path class="cls-4" d="M155.9,570a.32.32,0,0,0-.3.3q0,.15.3.3a.32.32,0,0,0,.3-.3q0-.15-.3-.3Z" transform="translate(0.1 0)"/><path class="cls-4" d="M135.9,532a.32.32,0,0,0-.3.3q0,.15.3.3a.32.32,0,0,0,.3-.3q0-.15-.3-.3Z" transform="translate(0.1 0)"/><path class="cls-4" d="M164.6,550a.5.5,0,1,0,.5.5c.1-.2-.1-.4-.5-.5Z" transform="translate(0.1 0)"/><path class="cls-4" d="M185.4,571.5a.5.5,0,1,0-.5-.5.47.47,0,0,0,.5.5Z" transform="translate(0.1 0)"/><path class="cls-4" d="M211.2,529.5a.3.3,0,1,0,0-.6.3.3,0,1,0,0,.6Z" transform="translate(0.1 0)"/><path class="cls-4" d="M212.2,506.5a.32.32,0,0,0,.3-.3.3.3,0,1,0-.3.3Z" transform="translate(0.1 0)"/><path class="cls-4" d="M195.2,507.5a.32.32,0,0,0,.3-.3.3.3,0,1,0-.3.3Z" transform="translate(0.1 0)"/><path class="cls-4" d="M215.2,545.5a.3.3,0,1,0,0-.6.3.3,0,1,0,0,.6Z" transform="translate(0.1 0)"/><path class="cls-4" d="M186.4,527.5a.5.5,0,1,0-.5-.5.47.47,0,0,0,.5.5Z" transform="translate(0.1 0)"/></g><g class="cls-2"><path class="cls-3" d="M50.2,605a.5.5,0,1,1-.5.5.47.47,0,0,1,.5-.5Z" transform="translate(0.1 0)"/><path class="cls-3" d="M76,647a.32.32,0,0,1,.3.3.3.3,0,1,1-.3-.3Z" transform="translate(0.1 0)"/><path class="cls-3" d="M77,670a.32.32,0,0,1,.3.3.3.3,0,1,1-.3-.3Z" transform="translate(0.1 0)"/><path class="cls-3" d="M60,669a.32.32,0,0,1,.3.3.3.3,0,1,1-.3-.3Z" transform="translate(0.1 0)"/><path class="cls-3" d="M80,631a.32.32,0,0,1,.3.3.3.3,0,1,1-.3-.3Z" transform="translate(0.1 0)"/><path class="cls-3" d="M51.2,649a.5.5,0,1,1-.5.5.47.47,0,0,1,.5-.5Z" transform="translate(0.1 0)"/></g><g class="cls-2"><path class="cls-4" d="M30.5,670.5a.5.5,0,1,1,.5-.5.47.47,0,0,1-.5.5Z" transform="translate(0.1 0)"/><path class="cls-4" d="M4.7,628.5a.32.32,0,0,1-.3-.3.27.27,0,0,1,.3-.3.3.3,0,1,1,0,.6Z" transform="translate(0.1 0)"/><path class="cls-4" d="M3.7,605.5a.32.32,0,0,1-.3-.3.27.27,0,0,1,.3-.3.3.3,0,1,1,0,.6Z" transform="translate(0.1 0)"/><path class="cls-4" d="M20.7,606.5a.32.32,0,0,1-.3-.3.3.3,0,1,1,.3.3Z" transform="translate(0.1 0)"/><path class="cls-4" d="M.7,644.5a.32.32,0,0,1-.3-.3.27.27,0,0,1,.3-.3.3.3,0,0,1,0,.6Z" transform="translate(0.1 0)"/><path class="cls-4" d="M29.5,626.5a.5.5,0,1,1,.5-.5.47.47,0,0,1-.5.5Z" transform="translate(0.1 0)"/></g><g class="cls-2"><path class="cls-4" d="M221,368.5a.5.5,0,1,0,.5.5c0-.2-.2-.4-.5-.5Z" transform="translate(0.1 0)"/><path class="cls-4" d="M195.3,410.5a.32.32,0,0,0-.3.3c0,.2.1.2.3.2a.27.27,0,0,0,.3-.3c-.1-.1-.2-.2-.3-.2Z" transform="translate(0.1 0)"/><path class="cls-4" d="M194.3,433.5a.32.32,0,0,0-.3.3c0,.2.1.2.3.2a.27.27,0,0,0,.3-.3c-.1-.1-.2-.2-.3-.2Z" transform="translate(0.1 0)"/><path class="cls-4" d="M211.3,432.5a.32.32,0,0,0-.3.3c0,.2.1.2.3.2a.27.27,0,0,0,.3-.3c-.1-.1-.2-.2-.3-.2Z" transform="translate(0.1 0)"/><path class="cls-4" d="M191.3,394.5a.32.32,0,0,0-.3.3c0,.2.1.2.3.2a.27.27,0,0,0,.3-.3c-.1-.1-.2-.2-.3-.2Z" transform="translate(0.1 0)"/><path class="cls-4" d="M220,412.5a.5.5,0,1,0,.5.5c0-.2-.2-.4-.5-.5Z" transform="translate(0.1 0)"/></g><g class="cls-2"><path class="cls-3" d="M240.8,434a.5.5,0,1,0-.5-.5c-.1.3.1.5.5.5Z" transform="translate(0.1 0)"/><path class="cls-3" d="M266.6,392a.32.32,0,0,0,.3-.3.3.3,0,1,0-.3.3Z" transform="translate(0.1 0)"/><path class="cls-3" d="M267.6,369a.32.32,0,0,0,.3-.3.3.3,0,1,0-.3.3Z" transform="translate(0.1 0)"/><path class="cls-3" d="M250.6,370a.32.32,0,0,0,.3-.3.3.3,0,1,0-.3.3Z" transform="translate(0.1 0)"/><path class="cls-3" d="M270.6,408a.32.32,0,0,0,.3-.3.3.3,0,1,0-.3.3Z" transform="translate(0.1 0)"/><path class="cls-3" d="M241.8,390a.5.5,0,1,0-.5-.5c-.1.3.1.5.5.5Z" transform="translate(0.1 0)"/></g><g class="cls-2"><path class="cls-3" d="M103.7,274.5a.5.5,0,1,0,.5.5.47.47,0,0,0-.5-.5Z" transform="translate(0.1 0)"/><path class="cls-3" d="M77.9,316.5a.32.32,0,0,0-.3.3.3.3,0,1,0,.3-.3Z" transform="translate(0.1 0)"/><path class="cls-3" d="M76.9,339.5a.32.32,0,0,0-.3.3.3.3,0,1,0,.3-.3Z" transform="translate(0.1 0)"/><path class="cls-3" d="M93.9,338.5a.32.32,0,0,0-.3.3.3.3,0,1,0,.3-.3Z" transform="translate(0.1 0)"/><path class="cls-3" d="M73.9,300.5a.32.32,0,0,0-.3.3.3.3,0,1,0,.3-.3Z" transform="translate(0.1 0)"/><path class="cls-3" d="M102.7,318.5a.5.5,0,1,0,.5.5.47.47,0,0,0-.5-.5Z" transform="translate(0.1 0)"/></g><g class="cls-2"><path class="cls-4" d="M123.4,340a.5.5,0,1,0-.5-.5.54.54,0,0,0,.5.5Z" transform="translate(0.1 0)"/><path class="cls-4" d="M149.2,298a.32.32,0,0,0,.3-.3.3.3,0,1,0-.3.3Z" transform="translate(0.1 0)"/><path class="cls-4" d="M150.2,275a.32.32,0,0,0,.3-.3.3.3,0,1,0-.3.3Z" transform="translate(0.1 0)"/><path class="cls-4" d="M133.2,276a.32.32,0,0,0,.3-.3.3.3,0,1,0-.3.3Z" transform="translate(0.1 0)"/><path class="cls-4" d="M153.2,314a.32.32,0,0,0,.3-.3.3.3,0,1,0-.3.3Z" transform="translate(0.1 0)"/><path class="cls-4" d="M124.4,296a.5.5,0,1,0-.5-.5.54.54,0,0,0,.5.5Z" transform="translate(0.1 0)"/></g><g class="cls-2"><path class="cls-3" d="M168.9,135.9a.5.5,0,1,0,.5.5c0-.2-.2-.4-.5-.5Z" transform="translate(0.1 0)"/><path class="cls-3" d="M143.1,177.9a.32.32,0,0,0-.3.3.3.3,0,1,0,.6,0q0-.15-.3-.3Z" transform="translate(0.1 0)"/><path class="cls-3" d="M142.1,200.9a.32.32,0,0,0-.3.3.3.3,0,1,0,.6,0q0-.15-.3-.3Z" transform="translate(0.1 0)"/><path class="cls-3" d="M159.1,199.9a.32.32,0,0,0-.3.3.3.3,0,1,0,.6,0q0-.15-.3-.3Z" transform="translate(0.1 0)"/><path class="cls-3" d="M139.1,161.9a.32.32,0,0,0-.3.3.3.3,0,1,0,.6,0q0-.15-.3-.3Z" transform="translate(0.1 0)"/><path class="cls-3" d="M167.9,179.9a.5.5,0,1,0,.5.5c0-.2-.2-.4-.5-.5Z" transform="translate(0.1 0)"/></g><g class="cls-2"><path class="cls-3" d="M188.6,201.4a.5.5,0,1,0-.5-.5.47.47,0,0,0,.5.5Z" transform="translate(0.1 0)"/><path class="cls-3" d="M214.4,159.4a.32.32,0,0,0,.3-.3.3.3,0,1,0-.3.3Z" transform="translate(0.1 0)"/><path class="cls-3" d="M215.4,136.4a.32.32,0,0,0,.3-.3.3.3,0,1,0-.3.3Z" transform="translate(0.1 0)"/><path class="cls-3" d="M198.4,137.4a.32.32,0,0,0,.3-.3.3.3,0,1,0-.3.3Z" transform="translate(0.1 0)"/><path class="cls-3" d="M218.4,175.4a.32.32,0,0,0,.3-.3.3.3,0,1,0-.3.3Z" transform="translate(0.1 0)"/><path class="cls-3" d="M189.6,157.4a.5.5,0,1,0-.5-.5.47.47,0,0,0,.5.5Z" transform="translate(0.1 0)"/></g><g class="cls-2"><path class="cls-3" d="M109.1,33.2l1.1,2.2-1.7.8-1.1-2.1Z" transform="translate(0.1 0)"/><path class="cls-3" d="M175.7,172.1l-.5-1.1,1.7-.8.5,1.1Z" transform="translate(0.1 0)"/><path class="cls-3" d="M154.9,125.8l1.6,3.3-1.6.8-1.6-3.3Z" transform="translate(0.1 0)"/><path class="cls-3" d="M141,102l1.6-.8,1.6,3.3-1.6.8Z" transform="translate(0.1 0)"/><path class="cls-3" d="M170.3,161.1l1.6-.8,1.7,3.3-1.6.8Z" transform="translate(0.1 0)"/><path class="cls-3" d="M169.5,155.4l1.6,3.3-1.6.8-1.6-3.3Z" transform="translate(0.1 0)"/><path class="cls-3" d="M168.7,153.8l-1.6.8-1.6-3.3,1.6-.8Z" transform="translate(0.1 0)"/><path class="cls-3" d="M166.2,148.9l-1.6.8-1.6-3.3,1.6-.8Z" transform="translate(0.1 0)"/><path class="cls-3" d="M159.7,135.7l1.6,3.3-1.6.8-1.6-3.3Z" transform="translate(0.1 0)"/><path class="cls-3" d="M158.9,134.1l-1.6.8-1.6-3.3,1.6-.8Z" transform="translate(0.1 0)"/><path class="cls-3" d="M152.4,125l-1.6-3.3,1.6-.8,1.6,3.3Z" transform="translate(0.1 0)"/><path class="cls-3" d="M143.5,106.9l1.6-.8,1.6,3.3-1.6.8Z" transform="translate(0.1 0)"/><path class="cls-3" d="M140.2,96.2l1.6,3.3-1.6.8L138.6,97Z" transform="translate(0.1 0)"/><path class="cls-3" d="M137.8,91.3l1.6,3.3-1.6.8-1.6-3.3Z" transform="translate(0.1 0)"/><path class="cls-3" d="M131.3,82.3l1.6-.8,1.6,3.3-1.6.8Z" transform="translate(0.1 0)"/><path class="cls-3" d="M128,71.6l1.6,3.3-1.6.8-1.6-3.3Z" transform="translate(0.1 0)"/><path class="cls-3" d="M125.6,66.7l1.6,3.3-1.6.8L124,67.5Z" transform="translate(0.1 0)"/><path class="cls-3" d="M120.7,56.8l1.6,3.3-1.6.8-1.6-3.3Z" transform="translate(0.1 0)"/><path class="cls-3" d="M115.8,46.9l1.6,3.2-1.6.8-1.6-3.2Z" transform="translate(0.1 0)"/><path class="cls-3" d="M111.8,42.8l1.6-.8,1.6,3.3-1.6.8Z" transform="translate(0.1 0)"/><path class="cls-3" d="M176,168.6l-1.6.8-1.6-3.3,1.6-.8Z" transform="translate(0.1 0)"/><path class="cls-3" d="M160.6,141.4l1.6-.8,1.6,3.3-1.6.8Z" transform="translate(0.1 0)"/><path class="cls-3" d="M151.6,119.3l-1.6.8-1.6-3.3,1.6-.8Z" transform="translate(0.1 0)"/><path class="cls-3" d="M147.6,115.1l-1.6-3.3,1.6-.8,1.6,3.3Z" transform="translate(0.1 0)"/><path class="cls-3" d="M136.9,89.7l-1.6.8-1.6-3.3,1.6-.8Z" transform="translate(0.1 0)"/><path class="cls-3" d="M123.1,61.7l1.6,3.3-1.6.8-1.6-3.3Z" transform="translate(0.1 0)"/><path class="cls-3" d="M116.7,52.7l1.6-.8,1.6,3.3-1.6.8Z" transform="translate(0.1 0)"/><path class="cls-3" d="M110.9,41.1l-1.6-3.3,1.6-.8,1.6,3.2Z" transform="translate(0.1 0)"/><path class="cls-3" d="M132.1,79.8l-1.6.8-1.6-3.3,1.6-.8Z" transform="translate(0.1 0)"/></g><circle class="cls-5" cx="108" cy="32.7" r="6.3"/><g class="cls-2"><path class="cls-3" d="M140.1.5a.47.47,0,0,0-.5.5.5.5,0,0,0,1,0c.1-.3-.1-.5-.5-.5Z" transform="translate(0.1 0)"/><path class="cls-3" d="M114.4,42.5a.32.32,0,0,0-.3.3c0,.2.2.2.3.2a.32.32,0,0,0,.3-.3c-.1-.1-.2-.2-.3-.2Z" transform="translate(0.1 0)"/><path class="cls-3" d="M113.4,65.5a.32.32,0,0,0-.3.3c0,.2.2.2.3.2a.32.32,0,0,0,.3-.3c-.1-.1-.2-.2-.3-.2Z" transform="translate(0.1 0)"/><path class="cls-3" d="M130.4,64.5a.32.32,0,0,0-.3.3c0,.2.2.2.3.2a.32.32,0,0,0,.3-.3c-.1-.1-.2-.2-.3-.2Z" transform="translate(0.1 0)"/><path class="cls-3" d="M110.4,26.5a.32.32,0,0,0-.3.3c0,.2.2.2.3.2a.32.32,0,0,0,.3-.3c-.1-.1-.2-.2-.3-.2Z" transform="translate(0.1 0)"/><path class="cls-3" d="M139.1,44.5a.5.5,0,1,0,.5.5c.1-.3-.1-.5-.5-.5Z" transform="translate(0.1 0)"/><path class="cls-3" d="M105.1.5a.47.47,0,0,0-.5.5.5.5,0,0,0,1,0,.47.47,0,0,0-.5-.5Z" transform="translate(0.1 0)"/><path class="cls-3" d="M79.3,42.5q-.15,0-.3.3a.32.32,0,0,0,.3.3.3.3,0,0,0,0-.6Z" transform="translate(0.1 0)"/><path class="cls-3" d="M78.3,65.5q-.15,0-.3.3a.32.32,0,0,0,.3.3.3.3,0,0,0,0-.6Z" transform="translate(0.1 0)"/><path class="cls-3" d="M95.3,64.5q-.15,0-.3.3a.32.32,0,0,0,.3.3.3.3,0,0,0,0-.6Z" transform="translate(0.1 0)"/><path class="cls-3" d="M75.3,26.5q-.15,0-.3.3a.32.32,0,0,0,.3.3.3.3,0,1,0,0-.6Z" transform="translate(0.1 0)"/><path class="cls-3" d="M104.1,44.5a.5.5,0,1,0,.5.5.47.47,0,0,0-.5-.5Z" transform="translate(0.1 0)"/></g></svg>