<svg id="Layer_1" data-name="Layer 1" xmlns="http://www.w3.org/2000/svg" viewBox="0 0 271.5 738.05"><defs><style>.cls-1,.cls-5{fill:#fbdb32;}.cls-1{opacity:0.53;isolation:isolate;}.cls-2{opacity:0.31;}.cls-3{fill:#fff;}.cls-3,.cls-4{stroke:#fff;stroke-miterlimit:10;}.cls-4{fill:#231f20;}.cls-5{fill-opacity:0;}</style></defs><title>constellation3</title><circle class="cls-1" cx="80.3" cy="731.75" r="6.3"/><circle class="cls-1" cx="103.7" cy="549.35" r="7"/><circle class="cls-1" cx="223.7" cy="650.05" r="7.3"/><circle class="cls-1" cx="42.4" cy="410.45" r="7.9"/><g class="cls-2"><path class="cls-3" d="M219.2,651l-2.1,1.2.9,1.6,2.1-1.2Z" transform="translate(0.1 0.85)"/><path class="cls-3" d="M87,730.1l1.1-.6-.9-1.6-1.1.6Z" transform="translate(0.1 0.85)"/><path class="cls-3" d="M129.9,703l-3.1,1.8.9,1.6,3.1-1.8Z" transform="translate(0.1 0.85)"/><path class="cls-3" d="M154.6,690.7l-.9-1.5-3.1,1.8.9,1.6Z" transform="translate(0.1 0.85)"/><path class="cls-3" d="M97.6,723.9l-.9-1.5-3.2,1.8.9,1.5Z" transform="translate(0.1 0.85)"/><path class="cls-3" d="M101.4,719.6l-3.1,1.8.9,1.5,3.1-1.8Z" transform="translate(0.1 0.85)"/><path class="cls-3" d="M103,718.7l.9,1.6,3.1-1.8-.9-1.6Z" transform="translate(0.1 0.85)"/><path class="cls-3" d="M107.8,715.9l.9,1.5,3.1-1.8-.9-1.5Z" transform="translate(0.1 0.85)"/><path class="cls-3" d="M120.4,708.5l-3.1,1.8.9,1.6,3.1-1.8Z" transform="translate(0.1 0.85)"/><path class="cls-3" d="M122,707.6l.9,1.6,3.1-1.8-.9-1.6Z" transform="translate(0.1 0.85)"/><path class="cls-3" d="M132.5,703.6l3.1-1.8-.9-1.6-3.1,1.8Z" transform="translate(0.1 0.85)"/><path class="cls-3" d="M149.9,693.5,149,692l-3.1,1.8.9,1.5Z" transform="translate(0.1 0.85)"/><path class="cls-3" d="M158.5,686.4l-3.1,1.8.9,1.5,3.1-1.8Z" transform="translate(0.1 0.85)"/><path class="cls-3" d="M163.2,683.6l-3.1,1.8.9,1.6,3.1-1.9Z" transform="translate(0.1 0.85)"/><path class="cls-3" d="M173.7,679.6l-.9-1.5-3.1,1.8.9,1.5Z" transform="translate(0.1 0.85)"/><path class="cls-3" d="M182.3,672.5l-3.1,1.8.9,1.6,3.1-1.8Z" transform="translate(0.1 0.85)"/><path class="cls-3" d="M187,669.8l-3.1,1.8.9,1.6,3.1-1.8Z" transform="translate(0.1 0.85)"/><path class="cls-3" d="M196.5,664.2l-3.1,1.8.9,1.6,3.1-1.8Z" transform="translate(0.1 0.85)"/><path class="cls-3" d="M206,658.7l-3.1,1.8.9,1.6,3.1-1.8Z" transform="translate(0.1 0.85)"/><path class="cls-3" d="M211.7,657.5l-.9-1.6-3.1,1.8.9,1.5Z" transform="translate(0.1 0.85)"/><path class="cls-3" d="M88.7,727l.9,1.6,3.1-1.8-.9-1.5Z" transform="translate(0.1 0.85)"/><path class="cls-3" d="M116.6,712.9l-.9-1.6-3.2,1.8.9,1.6Z" transform="translate(0.1 0.85)"/><path class="cls-3" d="M136.3,699.3l.9,1.5,3.1-1.8-.9-1.6Z" transform="translate(0.1 0.85)"/><path class="cls-3" d="M142,698.1l3.1-1.8-.9-1.6-3.1,1.8Z" transform="translate(0.1 0.85)"/><path class="cls-3" d="M164.9,682.7l.9,1.5,3.1-1.8-.9-1.5Z" transform="translate(0.1 0.85)"/><path class="cls-3" d="M191.7,667l-3.1,1.8.9,1.6,3.1-1.8Z" transform="translate(0.1 0.85)"/><path class="cls-3" d="M202.2,663l-.9-1.6-3.1,1.8.9,1.6Z" transform="translate(0.1 0.85)"/><path class="cls-3" d="M213.3,656.5l3.1-1.8-.9-1.6-3.1,1.8Z" transform="translate(0.1 0.85)"/><path class="cls-3" d="M174.3,677.1l.9,1.6,3.1-1.8-.9-1.6Z" transform="translate(0.1 0.85)"/></g><g class="cls-2"><path class="cls-3" d="M103.6,550l1.9,1.5,1.2-1.5-1.8-1.5Z" transform="translate(0.1 0.85)"/><path class="cls-3" d="M224.7,645.1l-1-.8-1.2,1.5,1,.8Z" transform="translate(0.1 0.85)"/><path class="cls-3" d="M184,614.8l2.8,2.3,1.1-1.4-2.8-2.3Z" transform="translate(0.1 0.85)"/><path class="cls-3" d="M163.7,596.1l-1.1,1.4,2.8,2.3,1.1-1.4Z" transform="translate(0.1 0.85)"/><path class="cls-3" d="M215.1,637.5l-1.1,1.4,2.9,2.3,1.1-1.4Z" transform="translate(0.1 0.85)"/><path class="cls-3" d="M209.7,635.5l2.8,2.3,1.1-1.4-2.8-2.3Z" transform="translate(0.1 0.85)"/><path class="cls-3" d="M208.3,634.3l1.1-1.4-2.8-2.3-1.1,1.4Z" transform="translate(0.1 0.85)"/><path class="cls-3" d="M204,630.8l1.1-1.4-2.8-2.3-1.1,1.4Z" transform="translate(0.1 0.85)"/><path class="cls-3" d="M192.6,621.7l2.8,2.3,1.1-1.4-2.8-2.3Z" transform="translate(0.1 0.85)"/><path class="cls-3" d="M191.2,620.5l1.1-1.4-2.8-2.3-1.1,1.4Z" transform="translate(0.1 0.85)"/><path class="cls-3" d="M183.7,612.1l-2.8-2.3-1.2,1.4,2.8,2.3Z" transform="translate(0.1 0.85)"/><path class="cls-3" d="M168,599.6l-1.1,1.4,2.8,2.3,1.1-1.4Z" transform="translate(0.1 0.85)"/><path class="cls-3" d="M158.3,594l2.8,2.3,1.1-1.4-2.8-2.3Z" transform="translate(0.1 0.85)"/><path class="cls-3" d="M154,590.6l2.8,2.3,1.1-1.4-2.8-2.3Z" transform="translate(0.1 0.85)"/><path class="cls-3" d="M146.6,582.3l-1.1,1.4,2.8,2.3,1.1-1.4Z" transform="translate(0.1 0.85)"/><path class="cls-3" d="M136.9,576.8l2.8,2.3,1.1-1.4-2.8-2.3Z" transform="translate(0.1 0.85)"/><path class="cls-3" d="M132.6,573.4l2.8,2.3,1.1-1.4-2.8-2.3Z" transform="translate(0.1 0.85)"/><path class="cls-3" d="M124,566.5l2.8,2.3,1.1-1.4-2.8-2.3Z" transform="translate(0.1 0.85)"/><path class="cls-3" d="M115.5,559.6l2.8,2.3,1.1-1.4-2.8-2.3Z" transform="translate(0.1 0.85)"/><path class="cls-3" d="M112.3,554.7l-1.1,1.4,2.8,2.3,1.1-1.4Z" transform="translate(0.1 0.85)"/><path class="cls-3" d="M221.1,644.7l1.1-1.4-2.8-2.3-1.1,1.4Z" transform="translate(0.1 0.85)"/><path class="cls-3" d="M198,623.7l-1.1,1.4,2.8,2.3,1.1-1.4Z" transform="translate(0.1 0.85)"/><path class="cls-3" d="M178.3,610.1l1.1-1.4-2.8-2.3-1.1,1.4Z" transform="translate(0.1 0.85)"/><path class="cls-3" d="M175.1,605.3l-2.8-2.3-1.1,1.4,2.8,2.3Z" transform="translate(0.1 0.85)"/><path class="cls-3" d="M152.6,589.4l1.2-1.4-2.8-2.3-1.2,1.4Z" transform="translate(0.1 0.85)"/><path class="cls-3" d="M128.3,569.9l2.8,2.3,1.1-1.4-2.8-2.3Z" transform="translate(0.1 0.85)"/><path class="cls-3" d="M120.9,561.6l-1.1,1.4,2.8,2.3,1.1-1.4Z" transform="translate(0.1 0.85)"/><path class="cls-3" d="M110.8,553.5l-2.8-2.3-1.1,1.4,2.8,2.3Z" transform="translate(0.1 0.85)"/><path class="cls-3" d="M144,582.5l1.1-1.4-2.8-2.3-1.1,1.4Z" transform="translate(0.1 0.85)"/></g><g class="cls-2"><path class="cls-3" d="M41.3,407.4l1,2.2,1.7-.8-1-2.2Z" transform="translate(0.1 0.85)"/><path class="cls-3" d="M105.6,547.4l-.5-1.1-1.7.8.5,1.1Z" transform="translate(0.1 0.85)"/><path class="cls-3" d="M83.3,501.8l1.5,3.4,1.7-.7L85,501.2Z" transform="translate(0.1 0.85)"/><path class="cls-3" d="M73.7,475.9l-1.6.7,1.5,3.3,1.6-.7Z" transform="translate(0.1 0.85)"/><path class="cls-3" d="M100.6,536.2l-1.6.7,1.5,3.4,1.6-.7Z" transform="translate(0.1 0.85)"/><path class="cls-3" d="M96.7,532l1.5,3.3,1.6-.7-1.5-3.3Z" transform="translate(0.1 0.85)"/><path class="cls-3" d="M96,530.2l1.6-.7-1.5-3.4-1.6.7Z" transform="translate(0.1 0.85)"/><path class="cls-3" d="M93.7,525.2l1.6-.7-1.5-3.3-1.6.7Z" transform="translate(0.1 0.85)"/><path class="cls-3" d="M87.7,511.8l1.5,3.3,1.6-.7-1.4-3.3Z" transform="translate(0.1 0.85)"/><path class="cls-3" d="M87,510.1l1.6-.7-1.5-3.3-1.6.7Z" transform="translate(0.1 0.85)"/><path class="cls-3" d="M84.2,499.3,82.7,496l-1.6.7,1.5,3.3Z" transform="translate(0.1 0.85)"/><path class="cls-3" d="M76,480.9l-1.6.7,1.5,3.3,1.6-.7Z" transform="translate(0.1 0.85)"/><path class="cls-3" d="M69.9,471.6l1.5,3.3,1.6-.7-1.5-3.3Z" transform="translate(0.1 0.85)"/><path class="cls-3" d="M67.6,466.6l1.5,3.3,1.6-.8-1.5-3.3Z" transform="translate(0.1 0.85)"/><path class="cls-3" d="M64.8,455.8l-1.6.7,1.5,3.3,1.6-.7Z" transform="translate(0.1 0.85)"/><path class="cls-3" d="M58.7,446.5l1.5,3.3,1.6-.7-1.5-3.3Z" transform="translate(0.1 0.85)"/><path class="cls-3" d="M56.5,441.5l1.5,3.3,1.6-.7-1.5-3.3Z" transform="translate(0.1 0.85)"/><path class="cls-3" d="M52,431.4l1.5,3.3,1.6-.7-1.5-3.3Z" transform="translate(0.1 0.85)"/><path class="cls-3" d="M47.5,421.4l1.5,3.3,1.6-.7-1.5-3.3Z" transform="translate(0.1 0.85)"/><path class="cls-3" d="M46.9,415.6l-1.6.7,1.5,3.3,1.6-.7Z" transform="translate(0.1 0.85)"/><path class="cls-3" d="M102.7,545.3l1.6-.7-1.5-3.3-1.6.7Z" transform="translate(0.1 0.85)"/><path class="cls-3" d="M91.7,516.1l-1.6.7,1.5,3.3,1.6-.7Z" transform="translate(0.1 0.85)"/><path class="cls-3" d="M80.3,495l1.6-.7L80.4,491l-1.6.7Z" transform="translate(0.1 0.85)"/><path class="cls-3" d="M79.7,489.3,78.2,486l-1.7.7L78,490Z" transform="translate(0.1 0.85)"/><path class="cls-3" d="M66.9,464.9l1.6-.7L67,460.9l-1.6.7Z" transform="translate(0.1 0.85)"/><path class="cls-3" d="M54.2,436.4l1.5,3.3,1.6-.7-1.5-3.3Z" transform="translate(0.1 0.85)"/><path class="cls-3" d="M51.4,425.6l-1.6.7,1.5,3.3,1.6-.7Z" transform="translate(0.1 0.85)"/><path class="cls-3" d="M46.2,413.9l-1.4-3.3-1.7.7,1.5,3.3Z" transform="translate(0.1 0.85)"/><path class="cls-3" d="M62.4,454.8l1.6-.7-1.5-3.3-1.7.7Z" transform="translate(0.1 0.85)"/></g><g class="cls-2"><path class="cls-3" d="M135.11,307.7l-1.46,1.6,1,1.4,1.46-1.6Z" transform="translate(0.1 0.85)"/><path class="cls-3" d="M42.47,411.1l.73-.8-1-1.4-.73.8Z" transform="translate(0.1 0.85)"/><path class="cls-3" d="M72.3,376.1,70,378.5l1,1.4,2.19-2.4Z" transform="translate(0.1 0.85)"/><path class="cls-3" d="M90.05,359.2l-1-1.4-2.19,2.4,1,1.4Z" transform="translate(0.1 0.85)"/><path class="cls-3" d="M49.93,402.9,49,401.6,46.77,404l1,1.3Z" transform="translate(0.1 0.85)"/><path class="cls-3" d="M52.2,398,50,400.4l1,1.3,2.19-2.4Z" transform="translate(0.1 0.85)"/><path class="cls-3" d="M53.41,396.7l1,1.4,2.19-2.4-1-1.4Z" transform="translate(0.1 0.85)"/><path class="cls-3" d="M56.74,393.1l1,1.3L59.9,392l-1-1.3Z" transform="translate(0.1 0.85)"/><path class="cls-3" d="M65.65,383.4l-2.19,2.4,1,1.4,2.19-2.4Z" transform="translate(0.1 0.85)"/><path class="cls-3" d="M66.79,382.1l1,1.3L70,381l-1-1.4Z" transform="translate(0.1 0.85)"/><path class="cls-3" d="M74.41,376.2l2.18-2.4-1-1.4-2.19,2.4Z" transform="translate(0.1 0.85)"/><path class="cls-3" d="M86.64,362.9l-1-1.3L83.48,364l1,1.3Z" transform="translate(0.1 0.85)"/><path class="cls-3" d="M92.4,354.2l-2.19,2.4,1,1.4,2.19-2.4Z" transform="translate(0.1 0.85)"/><path class="cls-3" d="M95.72,350.6,93.53,353l1,1.4L96.7,352Z" transform="translate(0.1 0.85)"/><path class="cls-3" d="M103.34,344.7l-1-1.3-2.19,2.4,1,1.3Z" transform="translate(0.1 0.85)"/><path class="cls-3" d="M109.1,336l-2.19,2.4,1,1.3,2.19-2.4Z" transform="translate(0.1 0.85)"/><path class="cls-3" d="M112.42,332.4l-2.19,2.4,1,1.3,2.19-2.4Z" transform="translate(0.1 0.85)"/><path class="cls-3" d="M119.15,325.1,117,327.5l1,1.4,2.19-2.4Z" transform="translate(0.1 0.85)"/><path class="cls-3" d="M125.79,317.8l-2.19,2.4,1,1.4,2.18-2.4Z" transform="translate(0.1 0.85)"/><path class="cls-3" d="M130.09,315.5l-1-1.4-2.18,2.4,1,1.3Z" transform="translate(0.1 0.85)"/><path class="cls-3" d="M43.36,407.7l1,1.3,2.19-2.4-1-1.4Z" transform="translate(0.1 0.85)"/><path class="cls-3" d="M63.3,388.4l-1-1.4-2.19,2.4,1,1.4Z" transform="translate(0.1 0.85)"/><path class="cls-3" d="M76.84,371.2l1,1.3L80,370.1l-1-1.3Z" transform="translate(0.1 0.85)"/><path class="cls-3" d="M81.13,368.9l2.19-2.4-1-1.4-2.19,2.4Z" transform="translate(0.1 0.85)"/><path class="cls-3" d="M96.86,349.4l1,1.3,2.19-2.4-1-1.3Z" transform="translate(0.1 0.85)"/><path class="cls-3" d="M115.82,328.7l-2.19,2.4,1,1.4,2.19-2.4Z" transform="translate(0.1 0.85)"/><path class="cls-3" d="M123.44,322.8l-1-1.4-2.19,2.4,1,1.4Z" transform="translate(0.1 0.85)"/><path class="cls-3" d="M131.3,314.3l2.19-2.4-1-1.4-2.19,2.4Z" transform="translate(0.1 0.85)"/><path class="cls-3" d="M103.5,342.1l1,1.4,2.18-2.4-1-1.4Z" transform="translate(0.1 0.85)"/></g><ellipse class="cls-1" cx="136.19" cy="308.55" rx="5.19" ry="6.4"/><g class="cls-2"><path class="cls-3" d="M91.73,169.08l.63,2.18,1.59-.57-.62-2.18Z" transform="translate(0.1 0.85)"/><path class="cls-3" d="M135.21,307l-.32-1.09-1.59.56.31,1.09Z" transform="translate(0.1 0.85)"/><path class="cls-3" d="M119.88,261.91l1,3.28,1.51-.58-.94-3.27Z" transform="translate(0.1 0.85)"/><path class="cls-3" d="M114,236.59l-1.51.58.94,3.27,1.51-.58Z" transform="translate(0.1 0.85)"/><path class="cls-3" d="M131.82,295.91l-1.51.58,1,3.28,1.51-.58Z" transform="translate(0.1 0.85)"/><path class="cls-3" d="M128.77,291.51l.94,3.28,1.51-.58-.94-3.27Z" transform="translate(0.1 0.85)"/><path class="cls-3" d="M128.35,289.84l1.51-.58-1-3.29-1.51.58Z" transform="translate(0.1 0.85)"/><path class="cls-3" d="M126.89,285l1.51-.58-.94-3.27-1.51.57Z" transform="translate(0.1 0.85)"/><path class="cls-3" d="M122.88,271.75l.94,3.27,1.51-.58-.94-3.27Z" transform="translate(0.1 0.85)"/><path class="cls-3" d="M122.37,270.06l1.51-.58-1-3.28-1.51.57Z" transform="translate(0.1 0.85)"/><path class="cls-3" d="M120.88,259.64l-.94-3.27-1.51.57.94,3.28Z" transform="translate(0.1 0.85)"/><path class="cls-3" d="M115.41,241.55l-1.51.58,1,3.28,1.51-.57Z" transform="translate(0.1 0.85)"/><path class="cls-3" d="M110.91,232.2l.94,3.27,1.51-.58-.94-3.27Z" transform="translate(0.1 0.85)"/><path class="cls-3" d="M109.36,227.32l.94,3.27,1.51-.58-.94-3.27Z" transform="translate(0.1 0.85)"/><path class="cls-3" d="M107.89,216.8l-1.51.58,1,3.28,1.51-.57Z" transform="translate(0.1 0.85)"/><path class="cls-3" d="M103.39,207.45l.94,3.27,1.51-.58-.94-3.27Z" transform="translate(0.1 0.85)"/><path class="cls-3" d="M102,202.48l1,3.29,1.51-.58-1-3.28Z" transform="translate(0.1 0.85)"/><path class="cls-3" d="M98.86,192.63l.94,3.27,1.51-.57-.94-3.28Z" transform="translate(0.1 0.85)"/><path class="cls-3" d="M96,182.8l.94,3.27,1.51-.57-.94-3.28Z" transform="translate(0.1 0.85)"/><path class="cls-3" d="M95.92,177.25l-1.51.58.94,3.27,1.51-.58Z" transform="translate(0.1 0.85)"/><path class="cls-3" d="M132.88,304.74l1.5-.57-.94-3.28-1.5.58Z" transform="translate(0.1 0.85)"/><path class="cls-3" d="M125.92,276.14l-1.5.58,1,3.29,1.51-.58Z" transform="translate(0.1 0.85)"/><path class="cls-3" d="M117.92,255.26l1.51-.58-1-3.29-1.5.58Z" transform="translate(0.1 0.85)"/><path class="cls-3" d="M117.9,249.7l-1-3.28-1.51.58.94,3.27Z" transform="translate(0.1 0.85)"/><path class="cls-3" d="M108.86,225.63l1.51-.58-1-3.27-1.5.57Z" transform="translate(0.1 0.85)"/><path class="cls-3" d="M100.4,197.6l.94,3.28,1.51-.58-.94-3.27Z" transform="translate(0.1 0.85)"/><path class="cls-3" d="M99,187.2l-1.51.57,1,3.29,1.5-.58Z" transform="translate(0.1 0.85)"/><path class="cls-3" d="M95.5,175.57l-.94-3.27-1.51.58.94,3.27Z" transform="translate(0.1 0.85)"/><path class="cls-3" d="M105.87,215.69l1.51-.58-.94-3.27-1.51.58Z" transform="translate(0.1 0.85)"/></g><circle class="cls-1" cx="94" cy="171.55" r="6.3"/><g class="cls-2"><path class="cls-3" d="M133.9,662.5a.5.5,0,1,1-.5.5c0-.2.2-.4.5-.5Z" transform="translate(0.1 0.85)"/><path class="cls-3" d="M159.7,704.5a.32.32,0,0,1,.3.3.3.3,0,0,1-.6,0l.3-.3Z" transform="translate(0.1 0.85)"/><path class="cls-3" d="M160.7,727.5a.32.32,0,0,1,.3.3.3.3,0,1,1-.6,0l.3-.3Z" transform="translate(0.1 0.85)"/><path class="cls-3" d="M143.7,726.5a.32.32,0,0,1,.3.3.3.3,0,0,1-.6,0l.3-.3Z" transform="translate(0.1 0.85)"/><path class="cls-3" d="M163.7,688.5a.32.32,0,0,1,.3.3.3.3,0,0,1-.6,0l.3-.3Z" transform="translate(0.1 0.85)"/><path class="cls-3" d="M134.9,706.5a.5.5,0,1,1-.5.5c0-.2.2-.4.5-.5Z" transform="translate(0.1 0.85)"/><path class="cls-3" d="M114.2,728a.5.5,0,1,1,.5-.5.47.47,0,0,1-.5.5Z" transform="translate(0.1 0.85)"/><path class="cls-3" d="M88.4,686a.32.32,0,0,1-.3-.3.3.3,0,1,1,.3.3Z" transform="translate(0.1 0.85)"/><path class="cls-3" d="M87.4,663a.32.32,0,0,1-.3-.3.3.3,0,1,1,.3.3Z" transform="translate(0.1 0.85)"/><path class="cls-3" d="M104.4,664a.32.32,0,0,1-.3-.3.3.3,0,1,1,.3.3Z" transform="translate(0.1 0.85)"/><path class="cls-3" d="M84.4,702a.32.32,0,0,1-.3-.3.3.3,0,1,1,.3.3Z" transform="translate(0.1 0.85)"/><path class="cls-3" d="M113.2,684a.5.5,0,1,1,.5-.5.47.47,0,0,1-.5.5Z" transform="translate(0.1 0.85)"/></g><g class="cls-2"><path class="cls-4" d="M105.7,506a.5.5,0,1,1-.5.5c-.1-.2.1-.4.5-.5Z" transform="translate(0.1 0.85)"/><path class="cls-4" d="M131.4,548a.32.32,0,0,1,.3.3q0,.15-.3.3a.32.32,0,0,1-.3-.3q0-.15.3-.3Z" transform="translate(0.1 0.85)"/><path class="cls-4" d="M132.4,571a.32.32,0,0,1,.3.3q0,.15-.3.3a.32.32,0,0,1-.3-.3q0-.15.3-.3Z" transform="translate(0.1 0.85)"/><path class="cls-4" d="M115.4,570a.32.32,0,0,1,.3.3q0,.15-.3.3a.32.32,0,0,1-.3-.3q0-.15.3-.3Z" transform="translate(0.1 0.85)"/><path class="cls-4" d="M135.4,532a.32.32,0,0,1,.3.3q0,.15-.3.3a.32.32,0,0,1-.3-.3q0-.15.3-.3Z" transform="translate(0.1 0.85)"/><path class="cls-4" d="M106.7,550a.5.5,0,1,1-.5.5c-.1-.2.1-.4.5-.5Z" transform="translate(0.1 0.85)"/><path class="cls-4" d="M85.9,571.5a.5.5,0,1,1,.5-.5.47.47,0,0,1-.5.5Z" transform="translate(0.1 0.85)"/><path class="cls-4" d="M60.1,529.5a.3.3,0,0,1,0-.6.3.3,0,0,1,0,.6Z" transform="translate(0.1 0.85)"/><path class="cls-4" d="M59.1,506.5a.32.32,0,0,1-.3-.3.3.3,0,1,1,.3.3Z" transform="translate(0.1 0.85)"/><path class="cls-4" d="M76.1,507.5a.32.32,0,0,1-.3-.3.3.3,0,1,1,.3.3Z" transform="translate(0.1 0.85)"/><path class="cls-4" d="M56.1,545.5a.3.3,0,0,1,0-.6.3.3,0,0,1,0,.6Z" transform="translate(0.1 0.85)"/><path class="cls-4" d="M84.9,527.5a.5.5,0,1,1,.5-.5.47.47,0,0,1-.5.5Z" transform="translate(0.1 0.85)"/></g><g class="cls-2"><path class="cls-3" d="M221.1,605a.5.5,0,1,0,.5.5.47.47,0,0,0-.5-.5Z" transform="translate(0.1 0.85)"/><path class="cls-3" d="M195.3,647a.32.32,0,0,0-.3.3.3.3,0,1,0,.3-.3Z" transform="translate(0.1 0.85)"/><path class="cls-3" d="M194.3,670a.32.32,0,0,0-.3.3.3.3,0,1,0,.3-.3Z" transform="translate(0.1 0.85)"/><path class="cls-3" d="M211.3,669a.32.32,0,0,0-.3.3.3.3,0,1,0,.3-.3Z" transform="translate(0.1 0.85)"/><path class="cls-3" d="M191.3,631a.32.32,0,0,0-.3.3.3.3,0,1,0,.3-.3Z" transform="translate(0.1 0.85)"/><path class="cls-3" d="M220.1,649a.5.5,0,1,0,.5.5.47.47,0,0,0-.5-.5Z" transform="translate(0.1 0.85)"/></g><g class="cls-2"><path class="cls-4" d="M240.8,670.5a.5.5,0,1,0-.5-.5.47.47,0,0,0,.5.5Z" transform="translate(0.1 0.85)"/><path class="cls-4" d="M266.6,628.5a.32.32,0,0,0,.3-.3.3.3,0,1,0-.3.3Z" transform="translate(0.1 0.85)"/><path class="cls-4" d="M267.6,605.5a.32.32,0,0,0,.3-.3.3.3,0,1,0-.3.3Z" transform="translate(0.1 0.85)"/><path class="cls-4" d="M250.6,606.5a.32.32,0,0,0,.3-.3.3.3,0,1,0-.3.3Z" transform="translate(0.1 0.85)"/><path class="cls-4" d="M270.6,644.5a.32.32,0,0,0,.3-.3.3.3,0,1,0-.3.3Z" transform="translate(0.1 0.85)"/><path class="cls-4" d="M241.8,626.5a.5.5,0,1,0-.5-.5.47.47,0,0,0,.5.5Z" transform="translate(0.1 0.85)"/></g><g class="cls-2"><path class="cls-4" d="M50.3,368.5a.5.5,0,1,1-.5.5c0-.2.2-.4.5-.5Z" transform="translate(0.1 0.85)"/><path class="cls-4" d="M76,410.5a.32.32,0,0,1,.3.3c0,.2-.1.2-.3.2a.27.27,0,0,1-.3-.3c.1-.1.2-.2.3-.2Z" transform="translate(0.1 0.85)"/><path class="cls-4" d="M77,433.5a.32.32,0,0,1,.3.3c0,.2-.1.2-.3.2a.27.27,0,0,1-.3-.3c.1-.1.2-.2.3-.2Z" transform="translate(0.1 0.85)"/><path class="cls-4" d="M60,432.5a.32.32,0,0,1,.3.3c0,.2-.1.2-.3.2a.27.27,0,0,1-.3-.3c.1-.1.2-.2.3-.2Z" transform="translate(0.1 0.85)"/><path class="cls-4" d="M80,394.5a.32.32,0,0,1,.3.3c0,.2-.1.2-.3.2a.27.27,0,0,1-.3-.3c.1-.1.2-.2.3-.2Z" transform="translate(0.1 0.85)"/><path class="cls-4" d="M51.3,412.5a.5.5,0,1,1-.5.5c0-.2.2-.4.5-.5Z" transform="translate(0.1 0.85)"/></g><g class="cls-2"><path class="cls-3" d="M30.5,434a.5.5,0,1,1,.5-.5c.1.3-.1.5-.5.5Z" transform="translate(0.1 0.85)"/><path class="cls-3" d="M4.7,392a.32.32,0,0,1-.3-.3.27.27,0,0,1,.3-.3.3.3,0,1,1,0,.6Z" transform="translate(0.1 0.85)"/><path class="cls-3" d="M3.7,369a.32.32,0,0,1-.3-.3.27.27,0,0,1,.3-.3.3.3,0,1,1,0,.6Z" transform="translate(0.1 0.85)"/><path class="cls-3" d="M20.7,370a.32.32,0,0,1-.3-.3.3.3,0,1,1,.3.3Z" transform="translate(0.1 0.85)"/><path class="cls-3" d="M.7,408a.32.32,0,0,1-.3-.3.27.27,0,0,1,.3-.3.3.3,0,0,1,0,.6Z" transform="translate(0.1 0.85)"/><path class="cls-3" d="M29.5,390a.5.5,0,1,1,.5-.5c.1.3-.1.5-.5.5Z" transform="translate(0.1 0.85)"/></g><g class="cls-2"><path class="cls-3" d="M143.7,274.5c.25,0,.41.2.41.5s-.16.5-.41.5-.4-.2-.4-.5.16-.5.4-.5Z" transform="translate(0.1 0.85)"/><path class="cls-3" d="M164.61,316.5a.29.29,0,0,1,.25.3c0,.2-.08.3-.25.3s-.24-.1-.24-.3.08-.3.24-.3Z" transform="translate(0.1 0.85)"/><path class="cls-3" d="M165.43,339.5a.29.29,0,0,1,.24.3q0,.3-.24.3c-.17,0-.25-.1-.25-.3s.08-.3.25-.3Z" transform="translate(0.1 0.85)"/><path class="cls-3" d="M151.65,338.5a.29.29,0,0,1,.24.3q0,.3-.24.3c-.17,0-.25-.1-.25-.3s.08-.3.25-.3Z" transform="translate(0.1 0.85)"/><path class="cls-3" d="M167.86,300.5a.29.29,0,0,1,.24.3q0,.3-.24.3c-.17,0-.25-.1-.25-.3s.08-.3.25-.3Z" transform="translate(0.1 0.85)"/><path class="cls-3" d="M144.51,318.5c.25,0,.41.2.41.5s-.16.5-.41.5-.4-.2-.4-.5.16-.5.4-.5Z" transform="translate(0.1 0.85)"/></g><g class="cls-2"><path class="cls-4" d="M127.74,340c-.25,0-.41-.2-.41-.5s.16-.5.41-.5.4.2.4.5-.16.5-.4.5Z" transform="translate(0.1 0.85)"/><path class="cls-4" d="M106.83,298a.3.3,0,0,1-.25-.3c0-.2.08-.3.25-.3s.24.1.24.3-.08.3-.24.3Z" transform="translate(0.1 0.85)"/><path class="cls-4" d="M106,275a.29.29,0,0,1-.25-.3c0-.2.08-.3.25-.3s.24.1.24.3-.08.3-.24.3Z" transform="translate(0.1 0.85)"/><path class="cls-4" d="M119.79,276a.29.29,0,0,1-.24-.3q0-.3.24-.3c.17,0,.25.1.25.3s-.08.3-.25.3Z" transform="translate(0.1 0.85)"/><path class="cls-4" d="M103.58,314a.29.29,0,0,1-.24-.3q0-.3.24-.3c.17,0,.25.1.25.3s-.08.3-.25.3Z" transform="translate(0.1 0.85)"/><path class="cls-4" d="M126.93,296c-.25,0-.41-.2-.41-.5s.16-.5.41-.5.4.2.4.5-.16.5-.4.5Z" transform="translate(0.1 0.85)"/></g><g class="cls-2"><path class="cls-3" d="M102.4,135.9a.5.5,0,1,1-.5.5c0-.2.2-.4.5-.5Z" transform="translate(0.1 0.85)"/><path class="cls-3" d="M128.2,177.9a.32.32,0,0,1,.3.3.3.3,0,1,1-.6,0q0-.15.3-.3Z" transform="translate(0.1 0.85)"/><path class="cls-3" d="M129.2,200.9a.32.32,0,0,1,.3.3.3.3,0,1,1-.6,0q0-.15.3-.3Z" transform="translate(0.1 0.85)"/><path class="cls-3" d="M112.2,199.9a.32.32,0,0,1,.3.3.3.3,0,1,1-.6,0q0-.15.3-.3Z" transform="translate(0.1 0.85)"/><path class="cls-3" d="M132.2,161.9a.32.32,0,0,1,.3.3.3.3,0,1,1-.6,0q0-.15.3-.3Z" transform="translate(0.1 0.85)"/><path class="cls-3" d="M103.4,179.9a.5.5,0,1,1-.5.5c0-.2.2-.4.5-.5Z" transform="translate(0.1 0.85)"/></g><g class="cls-2"><path class="cls-3" d="M82.7,201.4a.5.5,0,1,1,.5-.5.47.47,0,0,1-.5.5Z" transform="translate(0.1 0.85)"/><path class="cls-3" d="M56.9,159.4a.32.32,0,0,1-.3-.3.3.3,0,1,1,.3.3Z" transform="translate(0.1 0.85)"/><path class="cls-3" d="M55.9,136.4a.32.32,0,0,1-.3-.3.3.3,0,1,1,.3.3Z" transform="translate(0.1 0.85)"/><path class="cls-3" d="M72.9,137.4a.32.32,0,0,1-.3-.3.3.3,0,1,1,.3.3Z" transform="translate(0.1 0.85)"/><path class="cls-3" d="M52.9,175.4a.32.32,0,0,1-.3-.3.3.3,0,1,1,.3.3Z" transform="translate(0.1 0.85)"/><path class="cls-3" d="M81.7,157.4a.5.5,0,1,1,.5-.5.47.47,0,0,1-.5.5Z" transform="translate(0.1 0.85)"/></g><g class="cls-2"><path class="cls-3" d="M115.59,19.48l-.36,2.43,1.86.24.4-2.34Z" transform="translate(0.1 0.85)"/><path class="cls-3" d="M95.38,172.19l.13-1.2-1.86-.23-.14,1.2Z" transform="translate(0.1 0.85)"/><path class="cls-3" d="M100.78,121.72l-.49,3.64,1.77.26.49-3.63Z" transform="translate(0.1 0.85)"/><path class="cls-3" d="M106.61,94.78l-1.77-.26-.49,3.63,1.77.27Z" transform="translate(0.1 0.85)"/><path class="cls-3" d="M97.1,160.06l-1.77-.27-.6,3.67,1.77.26Z" transform="translate(0.1 0.85)"/><path class="cls-3" d="M96.09,154.39l-.5,3.63,1.77.27.5-3.64Z" transform="translate(0.1 0.85)"/><path class="cls-3" d="M96.35,152.62l1.77.27.5-3.64L96.85,149Z" transform="translate(0.1 0.85)"/><path class="cls-3" d="M97.21,147.19l1.77.26.49-3.63-1.76-.27Z" transform="translate(0.1 0.85)"/><path class="cls-3" d="M99.29,132.62l-.49,3.64,1.76.26.5-3.63Z" transform="translate(0.1 0.85)"/><path class="cls-3" d="M99.56,130.85l1.77.27.49-3.64-1.77-.26Z" transform="translate(0.1 0.85)"/><path class="cls-3" d="M102.91,120.19l.5-3.64-1.77-.26-.5,3.63Z" transform="translate(0.1 0.85)"/><path class="cls-3" d="M105.76,100.22,104,100l-.5,3.64,1.77.26Z" transform="translate(0.1 0.85)"/><path class="cls-3" d="M105.57,89l-.49,3.63,1.77.27.49-3.63Z" transform="translate(0.1 0.85)"/><path class="cls-3" d="M106.34,83.62l-.5,3.63,1.77.27.5-3.64Z" transform="translate(0.1 0.85)"/><path class="cls-3" d="M109.72,73.05,108,72.78l-.49,3.64,1.77.26Z" transform="translate(0.1 0.85)"/><path class="cls-3" d="M109.54,61.85l-.5,3.63,1.77.27.5-3.64Z" transform="translate(0.1 0.85)"/><path class="cls-3" d="M110.3,56.45l-.5,3.63,1.77.27.5-3.64Z" transform="translate(0.1 0.85)"/><path class="cls-3" d="M111.89,45.52l-.5,3.63,1.77.26.5-3.63Z" transform="translate(0.1 0.85)"/><path class="cls-3" d="M113.47,34.58,113,38.12l1.77.27.52-3.54Z" transform="translate(0.1 0.85)"/><path class="cls-3" d="M116,29.45l-1.77-.27-.5,3.63,1.77.27Z" transform="translate(0.1 0.85)"/><path class="cls-3" d="M94,169l1.77.26.5-3.63-1.77-.27Z" transform="translate(0.1 0.85)"/><path class="cls-3" d="M100.21,138.32l-1.77-.26-.5,3.63,1.77.26Z" transform="translate(0.1 0.85)"/><path class="cls-3" d="M101.9,114.52l1.77.26.5-3.63-1.77-.27Z" transform="translate(0.1 0.85)"/><path class="cls-3" d="M104.4,109.28l.5-3.63-1.77-.26-.5,3.63Z" transform="translate(0.1 0.85)"/><path class="cls-3" d="M106.7,81.82l1.76.26.5-3.63-1.77-.27Z" transform="translate(0.1 0.85)"/><path class="cls-3" d="M111.13,50.92l-.5,3.63,1.77.27.5-3.64Z" transform="translate(0.1 0.85)"/><path class="cls-3" d="M114.42,40.38l-1.77-.27-.5,3.64,1.77.26Z" transform="translate(0.1 0.85)"/><path class="cls-3" d="M116.33,27.55l.5-3.63-1.77-.27-.53,3.54Z" transform="translate(0.1 0.85)"/><path class="cls-3" d="M108.19,70.92l1.77.26.49-3.63-1.77-.27Z" transform="translate(0.1 0.85)"/></g><circle class="cls-5" cx="116.93" cy="27.1" r="6.3"/><g class="cls-2"><path class="cls-3" d="M81.81-.35a.47.47,0,0,1,.5.5.5.5,0,1,1-1,0c-.1-.3.1-.5.5-.5Z" transform="translate(0.1 0.85)"/><path class="cls-3" d="M107.51,41.65a.32.32,0,0,1,.3.3c0,.2-.2.2-.3.2a.32.32,0,0,1-.3-.3c.1-.1.2-.2.3-.2Z" transform="translate(0.1 0.85)"/><path class="cls-3" d="M108.51,64.65a.32.32,0,0,1,.3.3c0,.2-.2.2-.3.2a.32.32,0,0,1-.3-.3c.1-.1.2-.2.3-.2Z" transform="translate(0.1 0.85)"/><path class="cls-3" d="M91.51,63.65a.32.32,0,0,1,.3.3c0,.2-.2.2-.3.2a.32.32,0,0,1-.3-.3c.1-.1.2-.2.3-.2Z" transform="translate(0.1 0.85)"/><path class="cls-3" d="M111.51,25.65a.32.32,0,0,1,.3.3c0,.2-.2.2-.3.2a.32.32,0,0,1-.3-.3c.1-.1.2-.2.3-.2Z" transform="translate(0.1 0.85)"/><path class="cls-3" d="M82.81,43.65a.5.5,0,1,1-.5.5c-.1-.3.1-.5.5-.5Z" transform="translate(0.1 0.85)"/><path class="cls-3" d="M116.81-.35a.47.47,0,0,1,.5.5.5.5,0,1,1-1,0,.47.47,0,0,1,.5-.5Z" transform="translate(0.1 0.85)"/><path class="cls-3" d="M142.61,41.65q.15,0,.3.3a.32.32,0,0,1-.3.3.3.3,0,1,1,0-.6Z" transform="translate(0.1 0.85)"/><path class="cls-3" d="M143.61,64.65q.15,0,.3.3a.32.32,0,0,1-.3.3.3.3,0,1,1,0-.6Z" transform="translate(0.1 0.85)"/><path class="cls-3" d="M126.61,63.65q.15,0,.3.3a.32.32,0,0,1-.3.3.3.3,0,1,1,0-.6Z" transform="translate(0.1 0.85)"/><path class="cls-3" d="M146.61,25.65q.15,0,.3.3a.32.32,0,0,1-.3.3.3.3,0,0,1,0-.6Z" transform="translate(0.1 0.85)"/><path class="cls-3" d="M117.81,43.65a.5.5,0,1,1-.5.5.47.47,0,0,1,.5-.5Z" transform="translate(0.1 0.85)"/></g></svg>