<?xml version="1.0" encoding="utf-8"?>
<!-- Generator: Adobe Illustrator 23.0.1, SVG Export Plug-In . SVG Version: 6.00 Build 0)  -->
<svg version="1.1" id="Layer_1" xmlns="http://www.w3.org/2000/svg" xmlns:xlink="http://www.w3.org/1999/xlink" x="0px" y="0px"
	 viewBox="0 0 271.3 737.8" style="enable-background:new 0 0 271.3 737.8;" xml:space="preserve">
<style type="text/css">
	.st0{opacity:0.53;fill:#FBDB32;}
	.st1{opacity:0.31;}
	.st2{fill:#FFFFFF;stroke:#FFFFFF;stroke-miterlimit:10;}
	.st3{fill:#231F20;stroke:#FFFFFF;stroke-miterlimit:10;}
</style>
<title>constellation</title>
<circle class="st0" cx="80.2" cy="6.8" r="6.3"/>
<circle class="st0" cx="103.5" cy="189.2" r="7"/>
<circle class="st0" cx="223.6" cy="88.6" r="7.3"/>
<circle class="st0" cx="42.2" cy="328.2" r="7.9"/>
<g class="st1">
	<path class="st2" d="M219.2,86.8l-2.1-1.2L218,84l2.1,1.2L219.2,86.8z"/>
	<path class="st2" d="M87,7.6l1.1,0.6l-0.9,1.6L86,9.2L87,7.6z"/>
	<path class="st2" d="M129.9,34.8l-3.1-1.8l0.9-1.6l3.1,1.8L129.9,34.8z"/>
	<path class="st2" d="M154.6,47.1l-0.9,1.6l-3.1-1.8l0.9-1.6L154.6,47.1z"/>
	<path class="st2" d="M97.6,13.9l-0.9,1.5l-3.2-1.8l0.9-1.5L97.6,13.9z"/>
	<path class="st2" d="M101.4,18.2l-3.1-1.8l0.9-1.5l3.1,1.8L101.4,18.2z"/>
	<path class="st2" d="M103,19.1l0.9-1.6l3.1,1.8l-0.9,1.6L103,19.1z"/>
	<path class="st2" d="M107.8,21.9l0.9-1.5l3.1,1.8l-0.9,1.5L107.8,21.9z"/>
	<path class="st2" d="M120.4,29.3l-3.1-1.8l0.9-1.6l3.1,1.8L120.4,29.3z"/>
	<path class="st2" d="M122,30.2l0.9-1.6l3.1,1.8l-0.9,1.6L122,30.2z"/>
	<path class="st2" d="M132.4,34.2l3.1,1.8l-0.9,1.6l-3.1-1.8L132.4,34.2z"/>
	<path class="st2" d="M149.9,44.3l-0.9,1.5l-3.1-1.8l0.9-1.5L149.9,44.3z"/>
	<path class="st2" d="M158.4,51.4l-3.1-1.8l0.9-1.6l3.1,1.8L158.4,51.4z"/>
	<path class="st2" d="M163.2,54.2l-3.1-1.8l0.9-1.6l3.1,1.9L163.2,54.2z"/>
	<path class="st2" d="M173.6,58.2l-0.9,1.5l-3.1-1.8l0.9-1.5L173.6,58.2z"/>
	<path class="st2" d="M182.2,65.3l-3.1-1.8l0.9-1.6l3.1,1.8L182.2,65.3z"/>
	<path class="st2" d="M187,68l-3.1-1.8l0.9-1.5l3.1,1.8L187,68z"/>
	<path class="st2" d="M196.5,73.6l-3.1-1.8l0.9-1.6l3.1,1.8L196.5,73.6z"/>
	<path class="st2" d="M206,79.1l-3.1-1.8l0.9-1.6l3.1,1.8L206,79.1z"/>
	<path class="st2" d="M211.7,80.3l-0.9,1.6l-3.1-1.8l0.9-1.5L211.7,80.3z"/>
	<path class="st2" d="M88.7,10.8l0.9-1.6l3.1,1.8l-0.9,1.6L88.7,10.8z"/>
	<path class="st2" d="M116.6,24.9l-0.9,1.6l-3.2-1.8l0.9-1.6L116.6,24.9z"/>
	<path class="st2" d="M136.3,38.5l0.9-1.6l3.1,1.8l-0.9,1.6L136.3,38.5z"/>
	<path class="st2" d="M142,39.7l3.1,1.8l-0.9,1.6l-3.1-1.8L142,39.7z"/>
	<path class="st2" d="M164.8,55.1l0.9-1.5l3.1,1.8l-0.9,1.5L164.8,55.1z"/>
	<path class="st2" d="M191.7,70.8l-3.1-1.8l0.9-1.6l3.1,1.8L191.7,70.8z"/>
	<path class="st2" d="M202.1,74.8l-0.9,1.6l-3.1-1.8l0.9-1.6L202.1,74.8z"/>
	<path class="st2" d="M213.3,81.2l3.1,1.8l-0.9,1.6l-3.1-1.8L213.3,81.2z"/>
	<path class="st2" d="M174.3,60.6l0.9-1.6l3.1,1.8l-0.9,1.6L174.3,60.6z"/>
</g>
<g class="st1">
	<path class="st2" d="M103.5,187.8l1.9-1.5l1.2,1.4l-1.8,1.5L103.5,187.8z"/>
	<path class="st2" d="M224.7,92.6l-1,0.8l-1.2-1.4l1-0.8L224.7,92.6z"/>
	<path class="st2" d="M184,123l2.8-2.3l1.1,1.4l-2.8,2.3L184,123z"/>
	<path class="st2" d="M163.7,141.6l-1.1-1.4l2.8-2.3l1.1,1.4L163.7,141.6z"/>
	<path class="st2" d="M215.1,100.3l-1.1-1.4l2.9-2.3l1.1,1.4L215.1,100.3z"/>
	<path class="st2" d="M209.7,102.3l2.8-2.3l1.1,1.4l-2.8,2.3L209.7,102.3z"/>
	<path class="st2" d="M208.3,103.5l1.1,1.4l-2.8,2.3l-1.1-1.4L208.3,103.5z"/>
	<path class="st2" d="M204,106.9l1.1,1.4l-2.8,2.3l-1.1-1.4L204,106.9z"/>
	<path class="st2" d="M192.6,116.1l2.8-2.3l1.1,1.4l-2.8,2.3L192.6,116.1z"/>
	<path class="st2" d="M191.1,117.3l1.1,1.4l-2.8,2.3l-1.1-1.4L191.1,117.3z"/>
	<path class="st2" d="M183.7,125.6l-2.8,2.3l-1.2-1.4l2.8-2.3L183.7,125.6z"/>
	<path class="st2" d="M168,138.2l-1.1-1.4l2.8-2.3l1.1,1.4L168,138.2z"/>
	<path class="st2" d="M158.3,143.7l2.8-2.3l1.1,1.4l-2.8,2.3L158.3,143.7z"/>
	<path class="st2" d="M154,147.2l2.8-2.3l1.1,1.4l-2.8,2.3L154,147.2z"/>
	<path class="st2" d="M146.5,155.5l-1.1-1.4l2.8-2.3l1.1,1.4L146.5,155.5z"/>
	<path class="st2" d="M136.8,161l2.8-2.3l1.1,1.4l-2.8,2.3L136.8,161z"/>
	<path class="st2" d="M132.6,164.4l2.8-2.3l1.1,1.4l-2.8,2.3L132.6,164.4z"/>
	<path class="st2" d="M124,171.3l2.8-2.3l1.1,1.4l-2.8,2.3L124,171.3z"/>
	<path class="st2" d="M115.4,178.2l2.8-2.3l1.1,1.4l-2.8,2.3L115.4,178.2z"/>
	<path class="st2" d="M112.3,183.1l-1.1-1.4l2.8-2.3l1.1,1.4L112.3,183.1z"/>
	<path class="st2" d="M221.1,93.1l1.1,1.4l-2.8,2.3l-1.1-1.4L221.1,93.1z"/>
	<path class="st2" d="M198,114.1l-1.1-1.4l2.8-2.3l1.1,1.4L198,114.1z"/>
	<path class="st2" d="M178.3,127.6l1.1,1.4l-2.8,2.3l-1.1-1.4L178.3,127.6z"/>
	<path class="st2" d="M175.1,132.5l-2.8,2.3l-1.1-1.4l2.8-2.3L175.1,132.5z"/>
	<path class="st2" d="M152.5,148.4l1.2,1.4l-2.8,2.3l-1.2-1.4L152.5,148.4z"/>
	<path class="st2" d="M128.3,167.9l2.8-2.3l1.1,1.4l-2.8,2.3L128.3,167.9z"/>
	<path class="st2" d="M120.9,176.2l-1.1-1.4l2.8-2.3l1.1,1.4L120.9,176.2z"/>
	<path class="st2" d="M110.8,184.3l-2.8,2.3l-1.1-1.4l2.8-2.3L110.8,184.3z"/>
	<path class="st2" d="M144,155.2l1.1,1.4l-2.8,2.3l-1.1-1.4L144,155.2z"/>
</g>
<g class="st1">
	<path class="st2" d="M41.3,330.4l1-2.2l1.7,0.8l-1,2.2L41.3,330.4z"/>
	<path class="st2" d="M105.6,190.4l-0.5,1.1l-1.7-0.8l0.5-1.1L105.6,190.4z"/>
	<path class="st2" d="M83.3,236l1.5-3.4l1.7,0.7l-1.5,3.3L83.3,236z"/>
	<path class="st2" d="M73.7,261.9l-1.6-0.7l1.5-3.3l1.6,0.7L73.7,261.9z"/>
	<path class="st2" d="M100.5,201.6l-1.6-0.7l1.5-3.4l1.6,0.7L100.5,201.6z"/>
	<path class="st2" d="M96.7,205.8l1.5-3.3l1.6,0.7l-1.5,3.3L96.7,205.8z"/>
	<path class="st2" d="M95.9,207.5l1.6,0.7l-1.5,3.4l-1.6-0.7L95.9,207.5z"/>
	<path class="st2" d="M93.7,212.6l1.6,0.7l-1.5,3.4l-1.6-0.7L93.7,212.6z"/>
	<path class="st2" d="M87.7,225.9l1.5-3.3l1.6,0.7l-1.4,3.3L87.7,225.9z"/>
	<path class="st2" d="M87,227.6l1.6,0.7l-1.5,3.3l-1.6-0.7L87,227.6z"/>
	<path class="st2" d="M84.2,238.4l-1.5,3.3l-1.6-0.7l1.5-3.3L84.2,238.4z"/>
	<path class="st2" d="M76,256.8l-1.6-0.7l1.5-3.3l1.6,0.7L76,256.8z"/>
	<path class="st2" d="M69.8,266.2l1.5-3.3l1.6,0.7l-1.5,3.3L69.8,266.2z"/>
	<path class="st2" d="M67.6,271.2l1.5-3.3l1.6,0.8l-1.5,3.3L67.6,271.2z"/>
	<path class="st2" d="M64.8,282l-1.6-0.7l1.5-3.3l1.6,0.7L64.8,282z"/>
	<path class="st2" d="M58.7,291.3l1.5-3.3l1.6,0.7l-1.5,3.3L58.7,291.3z"/>
	<path class="st2" d="M56.4,296.3l1.5-3.3l1.6,0.7l-1.5,3.3L56.4,296.3z"/>
	<path class="st2" d="M52,306.4l1.5-3.3l1.6,0.7l-1.5,3.3L52,306.4z"/>
	<path class="st2" d="M47.5,316.4l1.5-3.3l1.6,0.7l-1.5,3.3L47.5,316.4z"/>
	<path class="st2" d="M46.9,322.2l-1.6-0.7l1.5-3.3l1.6,0.7L46.9,322.2z"/>
	<path class="st2" d="M102.6,192.4l1.6,0.7l-1.5,3.3l-1.6-0.7L102.6,192.4z"/>
	<path class="st2" d="M91.6,221.6l-1.6-0.7l1.5-3.3l1.6,0.7L91.6,221.6z"/>
	<path class="st2" d="M80.3,242.7l1.6,0.7l-1.5,3.3l-1.6-0.7L80.3,242.7z"/>
	<path class="st2" d="M79.7,248.5l-1.5,3.3l-1.7-0.7l1.5-3.3L79.7,248.5z"/>
	<path class="st2" d="M66.9,272.9l1.6,0.7l-1.5,3.3l-1.6-0.7L66.9,272.9z"/>
	<path class="st2" d="M54.2,301.4l1.5-3.3l1.6,0.7l-1.5,3.3L54.2,301.4z"/>
	<path class="st2" d="M51.4,312.1l-1.6-0.7l1.5-3.3l1.6,0.7L51.4,312.1z"/>
	<path class="st2" d="M46.1,323.9l-1.4,3.3l-1.7-0.7l1.5-3.3L46.1,323.9z"/>
	<path class="st2" d="M62.4,282.9l1.6,0.7l-1.5,3.3l-1.7-0.7L62.4,282.9z"/>
</g>
<g class="st1">
	<path class="st2" d="M156.9,430.1l-1.8-1.6l1.2-1.4l1.8,1.6L156.9,430.1z"/>
	<path class="st2" d="M42.7,326.7l0.9,0.8l-1.2,1.4l-0.9-0.8L42.7,326.7z"/>
	<path class="st2" d="M79.5,361.7l-2.8-2.4l1.2-1.4l2.7,2.4L79.5,361.7z"/>
	<path class="st2" d="M101.3,378.5l-1.2,1.4l-2.7-2.4l1.2-1.4L101.3,378.5z"/>
	<path class="st2" d="M51.9,334.9l-1.1,1.3l-2.7-2.4l1.2-1.3L51.9,334.9z"/>
	<path class="st2" d="M54.7,339.8l-2.7-2.4l1.2-1.3l2.7,2.4L54.7,339.8z"/>
	<path class="st2" d="M56.1,341.1l1.2-1.4l2.7,2.4l-1.2,1.4L56.1,341.1z"/>
	<path class="st2" d="M60.3,344.6l1.2-1.3l2.7,2.4L63,347L60.3,344.6z"/>
	<path class="st2" d="M71.3,354.4l-2.7-2.4l1.2-1.4l2.7,2.4L71.3,354.4z"/>
	<path class="st2" d="M72.6,355.6l1.2-1.3l2.7,2.4l-1.2,1.4L72.6,355.6z"/>
	<path class="st2" d="M82.1,361.5l2.7,2.4l-1.2,1.4l-2.7-2.4L82.1,361.5z"/>
	<path class="st2" d="M97.2,374.9l-1.2,1.3l-2.7-2.4l1.2-1.3L97.2,374.9z"/>
	<path class="st2" d="M104.3,383.5l-2.7-2.4l1.2-1.4l2.7,2.4L104.3,383.5z"/>
	<path class="st2" d="M108.4,387.2l-2.7-2.4l1.2-1.4l2.7,2.4L108.4,387.2z"/>
	<path class="st2" d="M117.8,393.1l-1.2,1.3l-2.7-2.4l1.2-1.3L117.8,393.1z"/>
	<path class="st2" d="M124.9,401.7l-2.7-2.4l1.2-1.3l2.7,2.4L124.9,401.7z"/>
	<path class="st2" d="M129,405.4l-2.7-2.4l1.2-1.3l2.7,2.4L129,405.4z"/>
	<path class="st2" d="M137.2,412.6l-2.7-2.4l1.2-1.4l2.7,2.4L137.2,412.6z"/>
	<path class="st2" d="M145.5,419.9l-2.7-2.4l1.2-1.4l2.7,2.4L145.5,419.9z"/>
	<path class="st2" d="M150.8,422.2l-1.2,1.4l-2.7-2.4l1.2-1.3L150.8,422.2z"/>
	<path class="st2" d="M43.8,330.1l1.2-1.3l2.7,2.4l-1.2,1.4L43.8,330.1z"/>
	<path class="st2" d="M68.3,349.4l-1.2,1.4l-2.7-2.4l1.2-1.4L68.3,349.4z"/>
	<path class="st2" d="M85,366.5l1.2-1.3l2.7,2.4l-1.2,1.3L85,366.5z"/>
	<path class="st2" d="M90.4,368.8l2.7,2.4l-1.2,1.4l-2.7-2.4L90.4,368.8z"/>
	<path class="st2" d="M109.8,388.4l1.2-1.3l2.7,2.4l-1.2,1.3L109.8,388.4z"/>
	<path class="st2" d="M133.1,409l-2.7-2.4l1.2-1.4l2.7,2.4L133.1,409z"/>
	<path class="st2" d="M142.6,414.9l-1.2,1.4l-2.7-2.4l1.2-1.4L142.6,414.9z"/>
	<path class="st2" d="M152.2,423.5l2.7,2.4l-1.2,1.4l-2.7-2.4L152.2,423.5z"/>
	<path class="st2" d="M118,395.7l1.2-1.4l2.7,2.4l-1.2,1.4L118,395.7z"/>
</g>
<circle class="st0" cx="158.1" cy="430.1" r="6.4"/>
<g class="st1">
	<path class="st2" d="M92.5,566.3l1-2.2l1.7,0.8l-1,2.2L92.5,566.3z"/>
	<path class="st2" d="M160,427.8l-0.5,1.1l-1.7-0.8l0.5-1.1L160,427.8z"/>
	<path class="st2" d="M136.6,472.9l1.6-3.3l1.6,0.8l-1.5,3.3L136.6,472.9z"/>
	<path class="st2" d="M126.5,498.6l-1.6-0.8l1.5-3.3l1.6,0.8L126.5,498.6z"/>
	<path class="st2" d="M154.7,438.9l-1.6-0.8l1.6-3.3l1.6,0.8L154.7,438.9z"/>
	<path class="st2" d="M150.7,443.1l1.5-3.3l1.6,0.8l-1.5,3.3L150.7,443.1z"/>
	<path class="st2" d="M150,444.7l1.6,0.8l-1.6,3.3l-1.6-0.8L150,444.7z"/>
	<path class="st2" d="M147.6,449.7l1.6,0.8l-1.5,3.3l-1.6-0.8L147.6,449.7z"/>
	<path class="st2" d="M141.3,463l1.5-3.3l1.6,0.8l-1.5,3.3L141.3,463z"/>
	<path class="st2" d="M140.6,464.6l1.6,0.8l-1.6,3.3l-1.6-0.8L140.6,464.6z"/>
	<path class="st2" d="M137.5,475.4l-1.5,3.3l-1.6-0.8l1.5-3.3L137.5,475.4z"/>
	<path class="st2" d="M128.9,493.6l-1.6-0.8l1.6-3.3l1.6,0.8L128.9,493.6z"/>
	<path class="st2" d="M122.5,502.8l1.5-3.3l1.6,0.8l-1.5,3.3L122.5,502.8z"/>
	<path class="st2" d="M120.2,507.7l1.5-3.3l1.6,0.8l-1.5,3.3L120.2,507.7z"/>
	<path class="st2" d="M117.1,518.5l-1.6-0.8l1.6-3.3l1.6,0.8L117.1,518.5z"/>
	<path class="st2" d="M110.8,527.6l1.5-3.3l1.6,0.8l-1.5,3.3L110.8,527.6z"/>
	<path class="st2" d="M108.4,532.6l1.6-3.3l1.6,0.8l-1.6,3.3L108.4,532.6z"/>
	<path class="st2" d="M103.7,542.5l1.5-3.3l1.6,0.8l-1.5,3.3L103.7,542.5z"/>
	<path class="st2" d="M99,552.5l1.5-3.3l1.6,0.8l-1.5,3.3L99,552.5z"/>
	<path class="st2" d="M98.3,558.3l-1.6-0.8l1.5-3.3l1.6,0.8L98.3,558.3z"/>
	<path class="st2" d="M157,429.8l1.6,0.8l-1.5,3.3l-1.6-0.8L157,429.8z"/>
	<path class="st2" d="M145.3,458.8l-1.6-0.8l1.6-3.3l1.6,0.8L145.3,458.8z"/>
	<path class="st2" d="M133.5,479.6l1.6,0.8l-1.6,3.3l-1.6-0.8L133.5,479.6z"/>
	<path class="st2" d="M132.8,485.3l-1.6,3.3l-1.6-0.8l1.5-3.3L132.8,485.3z"/>
	<path class="st2" d="M119.4,509.4l1.6,0.8l-1.5,3.3l-1.6-0.8L119.4,509.4z"/>
	<path class="st2" d="M106.1,537.6l1.5-3.3l1.6,0.8l-1.5,3.3L106.1,537.6z"/>
	<path class="st2" d="M103,548.3l-1.6-0.8l1.6-3.3l1.6,0.8L103,548.3z"/>
	<path class="st2" d="M97.5,560l-1.5,3.3l-1.6-0.8l1.5-3.3L97.5,560z"/>
	<path class="st2" d="M114.7,519.4l1.6,0.8l-1.5,3.3l-1.6-0.8L114.7,519.4z"/>
</g>
<circle class="st0" cx="93.8" cy="567.1" r="6.3"/>
<g class="st1">
	<path class="st2" d="M133.9,75.2c0.3,0,0.5-0.2,0.5-0.5s-0.2-0.5-0.5-0.5s-0.5,0.2-0.5,0.5C133.4,75,133.6,75.2,133.9,75.2
		L133.9,75.2z"/>
	<path class="st2" d="M159.7,33.2c0.1,0,0.3-0.1,0.3-0.3s-0.1-0.3-0.3-0.3s-0.3,0.1-0.3,0.3C159.5,33.1,159.6,33.2,159.7,33.2
		L159.7,33.2z"/>
	<path class="st2" d="M160.7,10.2c0.1,0,0.3-0.1,0.3-0.3s-0.1-0.3-0.3-0.3s-0.3,0.1-0.3,0.3C160.5,10.1,160.6,10.2,160.7,10.2
		L160.7,10.2z"/>
	<path class="st2" d="M143.7,11.2c0.1,0,0.3-0.1,0.3-0.3s-0.1-0.3-0.3-0.3s-0.3,0.1-0.3,0.3C143.5,11.1,143.6,11.2,143.7,11.2
		L143.7,11.2z"/>
	<path class="st2" d="M163.7,49.2c0.1,0,0.3-0.1,0.3-0.3s-0.1-0.3-0.3-0.3s-0.3,0.1-0.3,0.3C163.5,49.1,163.6,49.2,163.7,49.2
		L163.7,49.2z"/>
	<path class="st2" d="M134.9,31.2c0.3,0,0.5-0.2,0.5-0.5s-0.2-0.5-0.5-0.5s-0.5,0.2-0.5,0.5C134.4,31,134.6,31.2,134.9,31.2
		L134.9,31.2z"/>
	<path class="st2" d="M114.2,9.7c-0.3,0-0.5,0.2-0.5,0.5s0.2,0.5,0.5,0.5s0.5-0.2,0.5-0.5C114.7,10,114.5,9.8,114.2,9.7
		C114.2,9.7,114.2,9.7,114.2,9.7L114.2,9.7z"/>
	<path class="st2" d="M88.4,51.7c-0.1,0-0.3,0.1-0.3,0.3s0.1,0.3,0.3,0.3s0.3-0.1,0.3-0.3C88.7,51.9,88.6,51.7,88.4,51.7
		C88.4,51.7,88.4,51.7,88.4,51.7L88.4,51.7z"/>
	<path class="st2" d="M87.4,74.7c-0.1,0-0.3,0.1-0.3,0.3s0.1,0.3,0.3,0.3s0.3-0.1,0.3-0.3C87.7,74.9,87.6,74.7,87.4,74.7
		C87.4,74.7,87.4,74.7,87.4,74.7L87.4,74.7z"/>
	<path class="st2" d="M104.4,73.7c-0.1,0-0.3,0.1-0.3,0.3s0.1,0.3,0.3,0.3s0.3-0.1,0.3-0.3C104.7,73.9,104.6,73.7,104.4,73.7
		C104.4,73.7,104.4,73.7,104.4,73.7L104.4,73.7z"/>
	<path class="st2" d="M84.4,35.7c-0.1,0-0.3,0.1-0.3,0.3s0.1,0.3,0.3,0.3s0.3-0.1,0.3-0.3C84.7,35.9,84.6,35.7,84.4,35.7
		C84.4,35.7,84.4,35.7,84.4,35.7L84.4,35.7z"/>
	<path class="st2" d="M113.2,53.7c-0.3,0-0.5,0.2-0.5,0.5s0.2,0.5,0.5,0.5s0.5-0.2,0.5-0.5C113.7,54,113.5,53.8,113.2,53.7
		C113.2,53.7,113.2,53.7,113.2,53.7L113.2,53.7z"/>
</g>
<g class="st1">
	<path class="st3" d="M105.6,231.7c0.3,0,0.5-0.2,0.5-0.5c0-0.3-0.2-0.5-0.5-0.5c-0.3,0-0.5,0.2-0.5,0.5
		C105.1,231.5,105.3,231.7,105.6,231.7C105.5,231.7,105.5,231.7,105.6,231.7L105.6,231.7z"/>
	<path class="st3" d="M131.4,189.7c0.1,0,0.3-0.1,0.3-0.3c0-0.1-0.1-0.2-0.3-0.3c-0.1,0-0.3,0.1-0.3,0.3
		C131.1,189.6,131.2,189.7,131.4,189.7C131.3,189.7,131.3,189.7,131.4,189.7L131.4,189.7z"/>
	<path class="st3" d="M132.4,166.7c0.1,0,0.3-0.1,0.3-0.3c0-0.1-0.1-0.2-0.3-0.3c-0.1,0-0.3,0.1-0.3,0.3
		C132.1,166.6,132.2,166.7,132.4,166.7C132.3,166.7,132.3,166.7,132.4,166.7L132.4,166.7z"/>
	<path class="st3" d="M115.4,167.7c0.1,0,0.3-0.1,0.3-0.3c0-0.1-0.1-0.2-0.3-0.3c-0.1,0-0.3,0.1-0.3,0.3
		C115.1,167.6,115.2,167.7,115.4,167.7C115.3,167.7,115.3,167.7,115.4,167.7L115.4,167.7z"/>
	<path class="st3" d="M135.4,205.7c0.1,0,0.3-0.1,0.3-0.3c0-0.1-0.1-0.2-0.3-0.3c-0.1,0-0.3,0.1-0.3,0.3
		C135.1,205.6,135.2,205.7,135.4,205.7C135.3,205.7,135.3,205.7,135.4,205.7L135.4,205.7z"/>
	<path class="st3" d="M106.6,187.7c0.3,0,0.5-0.2,0.5-0.5c0-0.3-0.2-0.5-0.5-0.5c-0.3,0-0.5,0.2-0.5,0.5
		C106.1,187.5,106.3,187.7,106.6,187.7C106.5,187.7,106.5,187.7,106.6,187.7C106.6,187.8,106.6,187.8,106.6,187.7z"/>
	<path class="st3" d="M85.9,166.3c-0.3,0-0.5,0.2-0.5,0.5c0,0.3,0.2,0.5,0.5,0.5c0.3,0,0.5-0.2,0.5-0.5
		C86.4,166.5,86.2,166.3,85.9,166.3C85.9,166.3,85.9,166.3,85.9,166.3C85.9,166.2,85.9,166.2,85.9,166.3z"/>
	<path class="st3" d="M60.1,208.3c-0.1,0-0.3,0.1-0.3,0.3s0.1,0.3,0.3,0.3s0.3-0.1,0.3-0.3C60.4,208.4,60.3,208.3,60.1,208.3
		C60.1,208.3,60.1,208.2,60.1,208.3L60.1,208.3z"/>
	<path class="st3" d="M59.1,231.2c-0.1,0-0.3,0.1-0.3,0.3s0.1,0.3,0.3,0.3s0.3-0.1,0.3-0.3C59.4,231.4,59.3,231.3,59.1,231.2
		C59.1,231.3,59.1,231.2,59.1,231.2L59.1,231.2z"/>
	<path class="st3" d="M76.1,230.2c-0.1,0-0.3,0.1-0.3,0.3s0.1,0.3,0.3,0.3s0.3-0.1,0.3-0.3C76.4,230.4,76.3,230.3,76.1,230.2
		C76.1,230.3,76.1,230.2,76.1,230.2L76.1,230.2z"/>
	<path class="st3" d="M56.1,192.3c-0.1,0-0.3,0.1-0.3,0.3s0.1,0.3,0.3,0.3s0.3-0.1,0.3-0.3C56.4,192.4,56.3,192.3,56.1,192.3
		C56.1,192.3,56.1,192.2,56.1,192.3L56.1,192.3z"/>
	<path class="st3" d="M84.9,210.2c-0.3,0-0.5,0.2-0.5,0.5c0,0.3,0.2,0.5,0.5,0.5c0.3,0,0.5-0.2,0.5-0.5
		C85.4,210.5,85.2,210.3,84.9,210.2C84.9,210.3,84.9,210.3,84.9,210.2L84.9,210.2z"/>
</g>
<g class="st1">
	<path class="st2" d="M221.1,132.8c-0.3,0-0.5-0.2-0.5-0.5s0.2-0.5,0.5-0.5s0.5,0.2,0.5,0.5C221.6,132.5,221.4,132.8,221.1,132.8
		L221.1,132.8z"/>
	<path class="st2" d="M195.3,90.8c-0.1,0-0.3-0.1-0.3-0.3s0.1-0.3,0.3-0.3s0.3,0.1,0.3,0.3C195.6,90.7,195.5,90.8,195.3,90.8
		C195.3,90.8,195.3,90.8,195.3,90.8L195.3,90.8z"/>
	<path class="st2" d="M194.3,67.8c-0.1,0-0.3-0.1-0.3-0.3s0.1-0.3,0.3-0.3s0.3,0.1,0.3,0.3C194.6,67.7,194.5,67.8,194.3,67.8
		C194.3,67.8,194.3,67.8,194.3,67.8L194.3,67.8z"/>
	<path class="st2" d="M211.3,68.8c-0.1,0-0.3-0.1-0.3-0.3s0.1-0.3,0.3-0.3s0.3,0.1,0.3,0.3C211.6,68.7,211.5,68.8,211.3,68.8
		C211.3,68.8,211.3,68.8,211.3,68.8L211.3,68.8z"/>
	<path class="st2" d="M191.3,106.8c-0.1,0-0.3-0.1-0.3-0.3s0.1-0.3,0.3-0.3s0.3,0.1,0.3,0.3C191.6,106.7,191.5,106.8,191.3,106.8
		C191.3,106.8,191.3,106.8,191.3,106.8L191.3,106.8z"/>
	<path class="st2" d="M220.1,88.8c-0.3,0-0.5-0.2-0.5-0.5s0.2-0.5,0.5-0.5s0.5,0.2,0.5,0.5C220.6,88.5,220.4,88.8,220.1,88.8
		L220.1,88.8z"/>
</g>
<g class="st1">
	<path class="st3" d="M240.8,67.3c0.3,0,0.5,0.2,0.5,0.5s-0.2,0.5-0.5,0.5s-0.5-0.2-0.5-0.5C240.3,67.5,240.5,67.3,240.8,67.3
		C240.7,67.3,240.7,67.3,240.8,67.3L240.8,67.3z"/>
	<path class="st3" d="M266.6,109.3c0.1,0,0.3,0.1,0.3,0.3s-0.1,0.3-0.3,0.3s-0.3-0.1-0.3-0.3C266.3,109.4,266.4,109.3,266.6,109.3
		C266.5,109.3,266.5,109.3,266.6,109.3L266.6,109.3z"/>
	<path class="st3" d="M267.6,132.3c0.1,0,0.3,0.1,0.3,0.3s-0.1,0.3-0.3,0.3s-0.3-0.1-0.3-0.3C267.3,132.4,267.4,132.3,267.6,132.3
		C267.5,132.3,267.5,132.3,267.6,132.3L267.6,132.3z"/>
	<path class="st3" d="M250.6,131.3c0.1,0,0.3,0.1,0.3,0.3s-0.1,0.3-0.3,0.3s-0.3-0.1-0.3-0.3C250.3,131.4,250.4,131.3,250.6,131.3
		C250.5,131.3,250.5,131.3,250.6,131.3L250.6,131.3z"/>
	<path class="st3" d="M270.6,93.3c0.1,0,0.3,0.1,0.3,0.3s-0.1,0.3-0.3,0.3s-0.3-0.1-0.3-0.3C270.3,93.4,270.4,93.3,270.6,93.3
		C270.5,93.3,270.5,93.3,270.6,93.3L270.6,93.3z"/>
	<path class="st3" d="M241.8,111.3c0.3,0,0.5,0.2,0.5,0.5s-0.2,0.5-0.5,0.5s-0.5-0.2-0.5-0.5C241.3,111.5,241.5,111.3,241.8,111.3
		C241.7,111.3,241.7,111.3,241.8,111.3L241.8,111.3z"/>
</g>
<g class="st1">
	<path class="st3" d="M50.3,369.2c0.3,0,0.5-0.2,0.5-0.5s-0.2-0.5-0.5-0.5c-0.3,0-0.5,0.2-0.5,0.5C49.7,369,49.9,369.2,50.3,369.2
		C50.2,369.2,50.2,369.2,50.3,369.2L50.3,369.2z"/>
	<path class="st3" d="M76,327.2c0.1,0,0.3-0.1,0.3-0.3s-0.1-0.3-0.3-0.3s-0.3,0.1-0.3,0.3C75.7,327.1,75.8,327.2,76,327.2
		C76,327.2,76,327.2,76,327.2L76,327.2z"/>
	<path class="st3" d="M77,304.2c0.1,0,0.3-0.1,0.3-0.3s-0.1-0.3-0.3-0.3s-0.3,0.1-0.3,0.3C76.7,304.1,76.8,304.2,77,304.2
		C77,304.2,77,304.2,77,304.2L77,304.2z"/>
	<path class="st3" d="M60,305.2c0.1,0,0.3-0.1,0.3-0.3s-0.1-0.3-0.3-0.3s-0.3,0.1-0.3,0.3C59.7,305.1,59.8,305.2,60,305.2
		C60,305.2,60,305.2,60,305.2L60,305.2z"/>
	<path class="st3" d="M80,343.2c0.1,0,0.3-0.1,0.3-0.3s-0.1-0.3-0.3-0.3s-0.3,0.1-0.3,0.3C79.7,343.1,79.8,343.2,80,343.2
		C80,343.2,80,343.2,80,343.2L80,343.2z"/>
	<path class="st3" d="M51.3,325.2c0.3,0,0.5-0.2,0.5-0.5s-0.2-0.5-0.5-0.5c-0.3,0-0.5,0.2-0.5,0.5C50.7,325,50.9,325.2,51.3,325.2
		C51.2,325.2,51.2,325.2,51.3,325.2L51.3,325.2z"/>
</g>
<g class="st1">
	<path class="st2" d="M30.5,303.7c-0.3,0-0.5,0.2-0.5,0.5s0.2,0.5,0.5,0.5s0.5-0.2,0.5-0.5C31,304,30.8,303.8,30.5,303.7L30.5,303.7
		z"/>
	<path class="st2" d="M4.7,345.7c-0.1,0-0.3,0.1-0.3,0.3s0.1,0.3,0.3,0.3S5,346.1,5,346C5,345.9,4.9,345.8,4.7,345.7L4.7,345.7z"/>
	<path class="st2" d="M3.7,368.7c-0.1,0-0.3,0.1-0.3,0.3s0.1,0.3,0.3,0.3S4,369.1,4,369C4,368.9,3.9,368.8,3.7,368.7L3.7,368.7z"/>
	<path class="st2" d="M20.7,367.7c-0.1,0-0.3,0.1-0.3,0.3s0.1,0.3,0.3,0.3s0.3-0.1,0.3-0.3C21,367.9,20.9,367.8,20.7,367.7
		L20.7,367.7z"/>
	<path class="st2" d="M0.7,329.7c-0.1,0-0.3,0.1-0.3,0.3s0.1,0.3,0.3,0.3S1,330.1,1,330C1,329.9,0.9,329.8,0.7,329.7L0.7,329.7z"/>
	<path class="st2" d="M29.5,347.7c-0.3,0-0.5,0.2-0.5,0.5s0.2,0.5,0.5,0.5s0.5-0.2,0.5-0.5C30,348,29.8,347.8,29.5,347.7L29.5,347.7
		z"/>
</g>
<g class="st1">
	<path class="st2" d="M167.6,463.3c0.3,0,0.5-0.2,0.5-0.5s-0.2-0.5-0.5-0.5s-0.5,0.2-0.5,0.5C167.1,463.1,167.2,463.3,167.6,463.3
		C167.5,463.3,167.5,463.3,167.6,463.3L167.6,463.3z"/>
	<path class="st2" d="M193.3,421.3c0.1,0,0.3-0.1,0.3-0.3s-0.1-0.3-0.3-0.3s-0.3,0.1-0.3,0.3C193.1,421.2,193.2,421.3,193.3,421.3
		L193.3,421.3z"/>
	<path class="st2" d="M194.3,398.3c0.1,0,0.3-0.1,0.3-0.3s-0.1-0.3-0.3-0.3s-0.3,0.1-0.3,0.3C194.1,398.2,194.2,398.3,194.3,398.3
		L194.3,398.3z"/>
	<path class="st2" d="M177.3,399.3c0.1,0,0.3-0.1,0.3-0.3s-0.1-0.3-0.3-0.3s-0.3,0.1-0.3,0.3C177.1,399.2,177.2,399.3,177.3,399.3
		L177.3,399.3z"/>
	<path class="st2" d="M197.3,437.3c0.1,0,0.3-0.1,0.3-0.3s-0.1-0.3-0.3-0.3s-0.3,0.1-0.3,0.3C197.1,437.2,197.2,437.3,197.3,437.3
		L197.3,437.3z"/>
	<path class="st2" d="M168.6,419.3c0.3,0,0.5-0.2,0.5-0.5s-0.2-0.5-0.5-0.5s-0.5,0.2-0.5,0.5C168.1,419.1,168.2,419.3,168.6,419.3
		C168.5,419.3,168.5,419.3,168.6,419.3L168.6,419.3z"/>
</g>
<g class="st1">
	<path class="st3" d="M147.8,397.8c-0.3,0-0.5,0.2-0.5,0.5s0.2,0.5,0.5,0.5s0.5-0.2,0.5-0.5C148.3,398,148.1,397.8,147.8,397.8
		L147.8,397.8z"/>
	<path class="st3" d="M122.1,439.8c-0.1,0-0.3,0.1-0.3,0.3s0.1,0.3,0.3,0.3s0.3-0.1,0.3-0.3C122.3,439.9,122.2,439.8,122.1,439.8
		L122.1,439.8z"/>
	<path class="st3" d="M121.1,462.8c-0.1,0-0.3,0.1-0.3,0.3s0.1,0.3,0.3,0.3s0.3-0.1,0.3-0.3C121.3,462.9,121.2,462.8,121.1,462.8
		L121.1,462.8z"/>
	<path class="st3" d="M138.1,461.8c-0.1,0-0.3,0.1-0.3,0.3s0.1,0.3,0.3,0.3s0.3-0.1,0.3-0.3C138.3,461.9,138.2,461.8,138.1,461.8
		L138.1,461.8z"/>
	<path class="st3" d="M118.1,423.8c-0.1,0-0.3,0.1-0.3,0.3s0.1,0.3,0.3,0.3s0.3-0.1,0.3-0.3C118.3,423.9,118.2,423.8,118.1,423.8
		L118.1,423.8z"/>
	<path class="st3" d="M146.8,441.8c-0.3,0-0.5,0.2-0.5,0.5s0.2,0.5,0.5,0.5s0.5-0.2,0.5-0.5C147.3,442,147.1,441.8,146.8,441.8
		L146.8,441.8z"/>
</g>
<g class="st1">
	<path class="st2" d="M102.4,601.8c0.3,0,0.5-0.2,0.5-0.5s-0.2-0.5-0.5-0.5s-0.5,0.2-0.5,0.5C101.9,601.6,102,601.8,102.4,601.8
		C102.3,601.8,102.3,601.8,102.4,601.8L102.4,601.8z"/>
	<path class="st2" d="M128.1,559.8c0.1,0,0.3-0.1,0.3-0.3s-0.1-0.3-0.3-0.3s-0.3,0.1-0.3,0.3C127.9,559.7,128,559.8,128.1,559.8
		L128.1,559.8z"/>
	<path class="st2" d="M129.1,536.8c0.1,0,0.3-0.1,0.3-0.3s-0.1-0.3-0.3-0.3s-0.3,0.1-0.3,0.3C128.9,536.7,129,536.8,129.1,536.8
		L129.1,536.8z"/>
	<path class="st2" d="M112.1,537.8c0.1,0,0.3-0.1,0.3-0.3s-0.1-0.3-0.3-0.3s-0.3,0.1-0.3,0.3C111.9,537.7,112,537.8,112.1,537.8
		L112.1,537.8z"/>
	<path class="st2" d="M132.1,575.8c0.1,0,0.3-0.1,0.3-0.3s-0.1-0.3-0.3-0.3s-0.3,0.1-0.3,0.3C131.9,575.7,132,575.8,132.1,575.8
		L132.1,575.8z"/>
	<path class="st2" d="M103.4,557.8c0.3,0,0.5-0.2,0.5-0.5s-0.2-0.5-0.5-0.5s-0.5,0.2-0.5,0.5C102.9,557.6,103,557.8,103.4,557.8
		C103.3,557.8,103.3,557.8,103.4,557.8L103.4,557.8z"/>
</g>
<g class="st1">
	<path class="st2" d="M82.6,536.3c-0.3,0-0.5,0.2-0.5,0.5s0.2,0.5,0.5,0.5s0.5-0.2,0.5-0.5C83.1,536.6,82.9,536.4,82.6,536.3
		L82.6,536.3z"/>
	<path class="st2" d="M56.9,578.3c-0.1,0-0.3,0.1-0.3,0.3s0.1,0.3,0.3,0.3s0.3-0.1,0.3-0.3C57.1,578.4,57,578.3,56.9,578.3
		L56.9,578.3z"/>
	<path class="st2" d="M55.9,601.3c-0.1,0-0.3,0.1-0.3,0.3s0.1,0.3,0.3,0.3s0.3-0.1,0.3-0.3C56.1,601.4,56,601.3,55.9,601.3
		L55.9,601.3z"/>
	<path class="st2" d="M72.9,600.3c-0.1,0-0.3,0.1-0.3,0.3s0.1,0.3,0.3,0.3s0.3-0.1,0.3-0.3C73.1,600.4,73,600.3,72.9,600.3
		L72.9,600.3z"/>
	<path class="st2" d="M52.9,562.3c-0.1,0-0.3,0.1-0.3,0.3s0.1,0.3,0.3,0.3s0.3-0.1,0.3-0.3C53.1,562.4,53,562.3,52.9,562.3
		L52.9,562.3z"/>
	<path class="st2" d="M81.6,580.3c-0.3,0-0.5,0.2-0.5,0.5s0.2,0.5,0.5,0.5s0.5-0.2,0.5-0.5C82.1,580.6,81.9,580.4,81.6,580.3
		L81.6,580.3z"/>
</g>
<g class="st1">
	<path class="st2" d="M162.2,704.5l-1.1-2.2l1.7-0.8l1.1,2.1L162.2,704.5z"/>
	<path class="st2" d="M95.6,565.6l0.5,1.1l-1.7,0.8l-0.5-1.1L95.6,565.6z"/>
	<path class="st2" d="M116.4,611.9l-1.6-3.3l1.6-0.8l1.6,3.3L116.4,611.9z"/>
	<path class="st2" d="M130.2,635.8l-1.6,0.8l-1.6-3.3l1.6-0.8L130.2,635.8z"/>
	<path class="st2" d="M101,576.6l-1.6,0.8l-1.7-3.3l1.6-0.8L101,576.6z"/>
	<path class="st2" d="M101.8,582.3l-1.6-3.3l1.6-0.8l1.6,3.3L101.8,582.3z"/>
	<path class="st2" d="M102.6,584l1.6-0.8l1.6,3.3l-1.6,0.8L102.6,584z"/>
	<path class="st2" d="M105.1,588.9l1.6-0.8l1.6,3.3l-1.6,0.8L105.1,588.9z"/>
	<path class="st2" d="M111.5,602.1l-1.6-3.3l1.6-0.8l1.6,3.3L111.5,602.1z"/>
	<path class="st2" d="M112.4,603.7l1.6-0.8l1.6,3.3L114,607L112.4,603.7z"/>
	<path class="st2" d="M118.9,612.8l1.6,3.3l-1.6,0.8l-1.6-3.3L118.9,612.8z"/>
	<path class="st2" d="M127.8,630.9l-1.6,0.8l-1.6-3.3l1.6-0.8L127.8,630.9z"/>
	<path class="st2" d="M131,641.5l-1.6-3.3l1.6-0.8l1.6,3.3L131,641.5z"/>
	<path class="st2" d="M133.5,646.5l-1.6-3.3l1.6-0.8l1.6,3.3L133.5,646.5z"/>
	<path class="st2" d="M140,655.5l-1.6,0.8l-1.6-3.3l1.6-0.8L140,655.5z"/>
	<path class="st2" d="M143.2,666.2l-1.6-3.3l1.6-0.8l1.6,3.3L143.2,666.2z"/>
	<path class="st2" d="M145.7,671.1l-1.6-3.3l1.6-0.8l1.6,3.3L145.7,671.1z"/>
	<path class="st2" d="M150.5,681l-1.6-3.3l1.6-0.8l1.6,3.3L150.5,681z"/>
	<path class="st2" d="M155.4,690.8l-1.6-3.2l1.6-0.8l1.6,3.2L155.4,690.8z"/>
	<path class="st2" d="M159.5,695l-1.6,0.8l-1.6-3.3l1.6-0.8L159.5,695z"/>
	<path class="st2" d="M95.3,569.2l1.6-0.8l1.6,3.3l-1.6,0.8L95.3,569.2z"/>
	<path class="st2" d="M110.7,596.3l-1.6,0.8l-1.6-3.3l1.6-0.8L110.7,596.3z"/>
	<path class="st2" d="M119.7,618.5l1.6-0.8l1.6,3.3l-1.6,0.8L119.7,618.5z"/>
	<path class="st2" d="M123.7,622.6l1.6,3.3l-1.6,0.8l-1.6-3.3L123.7,622.6z"/>
	<path class="st2" d="M134.3,648.1l1.6-0.8l1.6,3.3l-1.6,0.8L134.3,648.1z"/>
	<path class="st2" d="M148.1,676l-1.6-3.3l1.6-0.8l1.6,3.3L148.1,676z"/>
	<path class="st2" d="M154.6,685.1l-1.6,0.8l-1.6-3.3l1.6-0.8L154.6,685.1z"/>
	<path class="st2" d="M160.3,696.6l1.6,3.3l-1.6,0.8l-1.6-3.2L160.3,696.6z"/>
	<path class="st2" d="M139.2,658l1.6-0.8l1.6,3.3l-1.6,0.8L139.2,658z"/>
</g>
<circle class="st0" cx="163.4" cy="705" r="6.3"/>
<g class="st1">
	<path class="st2" d="M131.1,737.3c0.3,0,0.5-0.2,0.5-0.5s-0.2-0.5-0.5-0.5s-0.5,0.2-0.5,0.5C130.6,737,130.8,737.3,131.1,737.3
		L131.1,737.3z"/>
	<path class="st2" d="M156.9,695.3c0.1,0,0.3-0.1,0.3-0.3s-0.1-0.3-0.3-0.3s-0.3,0.1-0.3,0.3C156.6,695.2,156.7,695.3,156.9,695.3
		L156.9,695.3z"/>
	<path class="st2" d="M157.9,672.3c0.1,0,0.3-0.1,0.3-0.3s-0.1-0.3-0.3-0.3s-0.3,0.1-0.3,0.3C157.6,672.2,157.7,672.3,157.9,672.3
		L157.9,672.3z"/>
	<path class="st2" d="M140.9,673.3c0.1,0,0.3-0.1,0.3-0.3s-0.1-0.3-0.3-0.3s-0.3,0.1-0.3,0.3C140.6,673.2,140.7,673.3,140.9,673.3
		L140.9,673.3z"/>
	<path class="st2" d="M160.9,711.3c0.1,0,0.3-0.1,0.3-0.3s-0.1-0.3-0.3-0.3s-0.3,0.1-0.3,0.3C160.6,711.2,160.7,711.3,160.9,711.3
		L160.9,711.3z"/>
	<path class="st2" d="M132.1,693.3c0.3,0,0.5-0.2,0.5-0.5s-0.2-0.5-0.5-0.5s-0.5,0.2-0.5,0.5C131.6,693,131.8,693.3,132.1,693.3
		L132.1,693.3z"/>
	<path class="st2" d="M166.2,737.3c0.3,0,0.5-0.2,0.5-0.5c0-0.3-0.2-0.5-0.5-0.5s-0.5,0.2-0.5,0.5
		C165.7,737,165.8,737.3,166.2,737.3L166.2,737.3z"/>
	<path class="st2" d="M191.9,695.3c0.1,0,0.2-0.1,0.3-0.3c0-0.1-0.1-0.3-0.3-0.3s-0.3,0.1-0.3,0.3
		C191.7,695.2,191.8,695.3,191.9,695.3C191.9,695.3,191.9,695.3,191.9,695.3L191.9,695.3z"/>
	<path class="st2" d="M192.9,672.3c0.1,0,0.2-0.1,0.3-0.3c0-0.1-0.1-0.3-0.3-0.3s-0.3,0.1-0.3,0.3
		C192.7,672.2,192.8,672.3,192.9,672.3C192.9,672.3,192.9,672.3,192.9,672.3L192.9,672.3z"/>
	<path class="st2" d="M175.9,673.3c0.1,0,0.2-0.1,0.3-0.3c0-0.1-0.1-0.3-0.3-0.3s-0.3,0.1-0.3,0.3
		C175.7,673.2,175.8,673.3,175.9,673.3C175.9,673.3,175.9,673.3,175.9,673.3L175.9,673.3z"/>
	<path class="st2" d="M195.9,711.3c0.1,0,0.2-0.1,0.3-0.3c0-0.1-0.1-0.3-0.3-0.3s-0.3,0.1-0.3,0.3
		C195.7,711.2,195.8,711.3,195.9,711.3C195.9,711.3,195.9,711.3,195.9,711.3L195.9,711.3z"/>
	<path class="st2" d="M167.2,693.3c0.3,0,0.5-0.2,0.5-0.5c0-0.3-0.2-0.5-0.5-0.5s-0.5,0.2-0.5,0.5
		C166.7,693,166.8,693.3,167.2,693.3L167.2,693.3z"/>
</g>
</svg>
