<?xml version="1.0" encoding="utf-8"?>
<!-- Generator: Adobe Illustrator 23.0.1, SVG Export Plug-In . SVG Version: 6.00 Build 0)  -->
<svg version="1.1" id="Layer_1" xmlns="http://www.w3.org/2000/svg" xmlns:xlink="http://www.w3.org/1999/xlink" x="0px" y="0px"
	 viewBox="0 0 271.4 737.8" style="enable-background:new 0 0 271.4 737.8;" xml:space="preserve">
<style type="text/css">
	.st0{opacity:0.53;fill:#FBDB32;enable-background:new    ;}
	.st1{opacity:0.31;}
	.st2{fill:#FFFFFF;stroke:#FFFFFF;stroke-miterlimit:10;}
	.st3{fill:#231F20;stroke:#FFFFFF;stroke-miterlimit:10;}
	.st4{fill:#FBDB32;fill-opacity:0;}
</style>
<title>constellation2</title>
<g>
	<circle class="st0" cx="80.2" cy="730.9" r="6.3"/>
	<circle class="st0" cx="103.6" cy="548.5" r="7"/>
	<circle class="st0" cx="223.6" cy="649.2" r="7.3"/>
	<circle class="st0" cx="42.3" cy="409.6" r="7.9"/>
	<g class="st1">
		<path class="st2" d="M219.2,651l-2.1,1.2l0.9,1.6l2.1-1.2L219.2,651z"/>
		<path class="st2" d="M87,730.1l1.1-0.6l-0.9-1.6l-1.1,0.6L87,730.1z"/>
		<path class="st2" d="M129.9,703l-3.1,1.8l0.9,1.6l3.1-1.8L129.9,703z"/>
		<path class="st2" d="M154.6,690.7l-0.9-1.5l-3.1,1.8l0.9,1.6L154.6,690.7z"/>
		<path class="st2" d="M97.6,723.9l-0.9-1.5l-3.2,1.8l0.9,1.5L97.6,723.9z"/>
		<path class="st2" d="M101.4,719.6l-3.1,1.8l0.9,1.5l3.1-1.8L101.4,719.6z"/>
		<path class="st2" d="M103,718.7l0.9,1.6l3.1-1.8l-0.9-1.6L103,718.7z"/>
		<path class="st2" d="M107.8,715.9l0.9,1.5l3.1-1.8l-0.9-1.5L107.8,715.9z"/>
		<path class="st2" d="M120.4,708.5l-3.1,1.8l0.9,1.6l3.1-1.8L120.4,708.5z"/>
		<path class="st2" d="M122,707.6l0.9,1.6l3.1-1.8l-0.9-1.6L122,707.6z"/>
		<path class="st2" d="M132.5,703.6l3.1-1.8l-0.9-1.6l-3.1,1.8L132.5,703.6z"/>
		<path class="st2" d="M149.9,693.5L149,692l-3.1,1.8l0.9,1.5L149.9,693.5z"/>
		<path class="st2" d="M158.5,686.4l-3.1,1.8l0.9,1.5l3.1-1.8L158.5,686.4z"/>
		<path class="st2" d="M163.2,683.6l-3.1,1.8l0.9,1.6l3.1-1.9L163.2,683.6z"/>
		<path class="st2" d="M173.7,679.6l-0.9-1.5l-3.1,1.8l0.9,1.5L173.7,679.6z"/>
		<path class="st2" d="M182.3,672.5l-3.1,1.8l0.9,1.6l3.1-1.8L182.3,672.5z"/>
		<path class="st2" d="M187,669.8l-3.1,1.8l0.9,1.6l3.1-1.8L187,669.8z"/>
		<path class="st2" d="M196.5,664.2l-3.1,1.8l0.9,1.6l3.1-1.8L196.5,664.2z"/>
		<path class="st2" d="M206,658.7l-3.1,1.8l0.9,1.6l3.1-1.8L206,658.7z"/>
		<path class="st2" d="M211.7,657.5l-0.9-1.6l-3.1,1.8l0.9,1.5L211.7,657.5z"/>
		<path class="st2" d="M88.7,727l0.9,1.6l3.1-1.8l-0.9-1.5L88.7,727z"/>
		<path class="st2" d="M116.6,712.9l-0.9-1.6l-3.2,1.8l0.9,1.6L116.6,712.9z"/>
		<path class="st2" d="M136.3,699.3l0.9,1.5l3.1-1.8l-0.9-1.6L136.3,699.3z"/>
		<path class="st2" d="M142,698.1l3.1-1.8l-0.9-1.6l-3.1,1.8L142,698.1z"/>
		<path class="st2" d="M164.9,682.7l0.9,1.5l3.1-1.8l-0.9-1.5L164.9,682.7z"/>
		<path class="st2" d="M191.7,667l-3.1,1.8l0.9,1.6l3.1-1.8L191.7,667z"/>
		<path class="st2" d="M202.2,663l-0.9-1.6l-3.1,1.8l0.9,1.6L202.2,663z"/>
		<path class="st2" d="M213.3,656.5l3.1-1.8l-0.9-1.6l-3.1,1.8L213.3,656.5z"/>
		<path class="st2" d="M174.3,677.1l0.9,1.6l3.1-1.8l-0.9-1.6L174.3,677.1z"/>
	</g>
	<g class="st1">
		<path class="st2" d="M103.6,550l1.9,1.5l1.2-1.5l-1.8-1.5L103.6,550z"/>
		<path class="st2" d="M224.7,645.1l-1-0.8l-1.2,1.5l1,0.8L224.7,645.1z"/>
		<path class="st2" d="M184,614.8l2.8,2.3l1.1-1.4l-2.8-2.3L184,614.8z"/>
		<path class="st2" d="M163.7,596.1l-1.1,1.4l2.8,2.3l1.1-1.4L163.7,596.1z"/>
		<path class="st2" d="M215.1,637.5l-1.1,1.4l2.9,2.3l1.1-1.4L215.1,637.5z"/>
		<path class="st2" d="M209.7,635.5l2.8,2.3l1.1-1.4l-2.8-2.3L209.7,635.5z"/>
		<path class="st2" d="M208.3,634.3l1.1-1.4l-2.8-2.3l-1.1,1.4L208.3,634.3z"/>
		<path class="st2" d="M204,630.8l1.1-1.4l-2.8-2.3l-1.1,1.4L204,630.8z"/>
		<path class="st2" d="M192.6,621.7l2.8,2.3l1.1-1.4l-2.8-2.3L192.6,621.7z"/>
		<path class="st2" d="M191.2,620.5l1.1-1.4l-2.8-2.3l-1.1,1.4L191.2,620.5z"/>
		<path class="st2" d="M183.7,612.1l-2.8-2.3l-1.2,1.4l2.8,2.3L183.7,612.1z"/>
		<path class="st2" d="M168,599.6l-1.1,1.4l2.8,2.3l1.1-1.4L168,599.6z"/>
		<path class="st2" d="M158.3,594l2.8,2.3l1.1-1.4l-2.8-2.3L158.3,594z"/>
		<path class="st2" d="M154,590.6l2.8,2.3l1.1-1.4l-2.8-2.3L154,590.6z"/>
		<path class="st2" d="M146.6,582.3l-1.1,1.4l2.8,2.3l1.1-1.4L146.6,582.3z"/>
		<path class="st2" d="M136.9,576.8l2.8,2.3l1.1-1.4l-2.8-2.3L136.9,576.8z"/>
		<path class="st2" d="M132.6,573.4l2.8,2.3l1.1-1.4l-2.8-2.3L132.6,573.4z"/>
		<path class="st2" d="M124,566.5l2.8,2.3l1.1-1.4l-2.8-2.3L124,566.5z"/>
		<path class="st2" d="M115.5,559.6l2.8,2.3l1.1-1.4l-2.8-2.3L115.5,559.6z"/>
		<path class="st2" d="M112.3,554.7l-1.1,1.4l2.8,2.3l1.1-1.4L112.3,554.7z"/>
		<path class="st2" d="M221.1,644.7l1.1-1.4l-2.8-2.3l-1.1,1.4L221.1,644.7z"/>
		<path class="st2" d="M198,623.7l-1.1,1.4l2.8,2.3l1.1-1.4L198,623.7z"/>
		<path class="st2" d="M178.3,610.1l1.1-1.4l-2.8-2.3l-1.1,1.4L178.3,610.1z"/>
		<path class="st2" d="M175.1,605.3l-2.8-2.3l-1.1,1.4l2.8,2.3L175.1,605.3z"/>
		<path class="st2" d="M152.6,589.4l1.2-1.4l-2.8-2.3l-1.2,1.4L152.6,589.4z"/>
		<path class="st2" d="M128.3,569.9l2.8,2.3l1.1-1.4l-2.8-2.3L128.3,569.9z"/>
		<path class="st2" d="M120.9,561.6l-1.1,1.4l2.8,2.3l1.1-1.4L120.9,561.6z"/>
		<path class="st2" d="M110.8,553.5l-2.8-2.3l-1.1,1.4l2.8,2.3L110.8,553.5z"/>
		<path class="st2" d="M144,582.5l1.1-1.4l-2.8-2.3l-1.1,1.4L144,582.5z"/>
	</g>
	<g class="st1">
		<path class="st2" d="M41.3,407.4l1,2.2l1.7-0.8l-1-2.2L41.3,407.4z"/>
		<path class="st2" d="M105.6,547.4l-0.5-1.1l-1.7,0.8l0.5,1.1L105.6,547.4z"/>
		<path class="st2" d="M83.3,501.8l1.5,3.4l1.7-0.7l-1.5-3.3L83.3,501.8z"/>
		<path class="st2" d="M73.7,475.9l-1.6,0.7l1.5,3.3l1.6-0.7L73.7,475.9z"/>
		<path class="st2" d="M100.6,536.2l-1.6,0.7l1.5,3.4l1.6-0.7L100.6,536.2z"/>
		<path class="st2" d="M96.7,532l1.5,3.3l1.6-0.7l-1.5-3.3L96.7,532z"/>
		<path class="st2" d="M96,530.2l1.6-0.7l-1.5-3.4l-1.6,0.7L96,530.2z"/>
		<path class="st2" d="M93.7,525.2l1.6-0.7l-1.5-3.3l-1.6,0.7L93.7,525.2z"/>
		<path class="st2" d="M87.7,511.8l1.5,3.3l1.6-0.7l-1.4-3.3L87.7,511.8z"/>
		<path class="st2" d="M87,510.1l1.6-0.7l-1.5-3.3l-1.6,0.7L87,510.1z"/>
		<path class="st2" d="M84.2,499.3l-1.5-3.3l-1.6,0.7l1.5,3.3L84.2,499.3z"/>
		<path class="st2" d="M76,480.9l-1.6,0.7l1.5,3.3l1.6-0.7L76,480.9z"/>
		<path class="st2" d="M69.9,471.6l1.5,3.3l1.6-0.7l-1.5-3.3L69.9,471.6z"/>
		<path class="st2" d="M67.6,466.6l1.5,3.3l1.6-0.8l-1.5-3.3L67.6,466.6z"/>
		<path class="st2" d="M64.8,455.8l-1.6,0.7l1.5,3.3l1.6-0.7L64.8,455.8z"/>
		<path class="st2" d="M58.7,446.5l1.5,3.3l1.6-0.7l-1.5-3.3L58.7,446.5z"/>
		<path class="st2" d="M56.5,441.5l1.5,3.3l1.6-0.7l-1.5-3.3L56.5,441.5z"/>
		<path class="st2" d="M52,431.4l1.5,3.3l1.6-0.7l-1.5-3.3L52,431.4z"/>
		<path class="st2" d="M47.5,421.4l1.5,3.3l1.6-0.7l-1.5-3.3L47.5,421.4z"/>
		<path class="st2" d="M46.9,415.6l-1.6,0.7l1.5,3.3l1.6-0.7L46.9,415.6z"/>
		<path class="st2" d="M102.7,545.3l1.6-0.7l-1.5-3.3l-1.6,0.7L102.7,545.3z"/>
		<path class="st2" d="M91.7,516.1l-1.6,0.7l1.5,3.3l1.6-0.7L91.7,516.1z"/>
		<path class="st2" d="M80.3,495l1.6-0.7l-1.5-3.3l-1.6,0.7L80.3,495z"/>
		<path class="st2" d="M79.7,489.3l-1.5-3.3l-1.7,0.7L78,490L79.7,489.3z"/>
		<path class="st2" d="M66.9,464.9l1.6-0.7l-1.5-3.3l-1.6,0.7L66.9,464.9z"/>
		<path class="st2" d="M54.2,436.4l1.5,3.3l1.6-0.7l-1.5-3.3L54.2,436.4z"/>
		<path class="st2" d="M51.4,425.6l-1.6,0.7l1.5,3.3l1.6-0.7L51.4,425.6z"/>
		<path class="st2" d="M46.2,413.9l-1.4-3.3l-1.7,0.7l1.5,3.3L46.2,413.9z"/>
		<path class="st2" d="M62.4,454.8l1.6-0.7l-1.5-3.3l-1.7,0.7L62.4,454.8z"/>
	</g>
	<g class="st1">
		<path class="st2" d="M157,307.7l-1.8,1.6l1.2,1.4l1.8-1.6L157,307.7z"/>
		<path class="st2" d="M42.7,411.1l0.9-0.8l-1.2-1.4l-0.9,0.8L42.7,411.1z"/>
		<path class="st2" d="M79.5,376.1l-2.8,2.4l1.2,1.4l2.7-2.4L79.5,376.1z"/>
		<path class="st2" d="M101.4,359.2l-1.2-1.4l-2.7,2.4l1.2,1.4L101.4,359.2z"/>
		<path class="st2" d="M51.9,402.9l-1.1-1.3L48,404l1.2,1.3L51.9,402.9z"/>
		<path class="st2" d="M54.7,398l-2.7,2.4l1.2,1.3l2.7-2.4L54.7,398z"/>
		<path class="st2" d="M56.2,396.7l1.2,1.4l2.7-2.4l-1.2-1.4L56.2,396.7z"/>
		<path class="st2" d="M60.3,393.1l1.2,1.3l2.7-2.4l-1.2-1.3L60.3,393.1z"/>
		<path class="st2" d="M71.3,383.4l-2.7,2.4l1.2,1.4l2.7-2.4L71.3,383.4z"/>
		<path class="st2" d="M72.7,382.1l1.2,1.3l2.7-2.4l-1.2-1.4L72.7,382.1z"/>
		<path class="st2" d="M82.1,376.2l2.7-2.4l-1.2-1.4l-2.7,2.4L82.1,376.2z"/>
		<path class="st2" d="M97.2,362.9l-1.2-1.3l-2.7,2.4l1.2,1.3L97.2,362.9z"/>
		<path class="st2" d="M104.3,354.2l-2.7,2.4l1.2,1.4l2.7-2.4L104.3,354.2z"/>
		<path class="st2" d="M108.4,350.6l-2.7,2.4l1.2,1.4l2.7-2.4L108.4,350.6z"/>
		<path class="st2" d="M117.8,344.7l-1.2-1.3l-2.7,2.4l1.2,1.3L117.8,344.7z"/>
		<path class="st2" d="M124.9,336l-2.7,2.4l1.2,1.3l2.7-2.4L124.9,336z"/>
		<path class="st2" d="M129,332.4l-2.7,2.4l1.2,1.3l2.7-2.4L129,332.4z"/>
		<path class="st2" d="M137.3,325.1l-2.7,2.4l1.2,1.4l2.7-2.4L137.3,325.1z"/>
		<path class="st2" d="M145.5,317.8l-2.7,2.4l1.2,1.4l2.7-2.4L145.5,317.8z"/>
		<path class="st2" d="M150.8,315.5l-1.2-1.4l-2.7,2.4l1.2,1.3L150.8,315.5z"/>
		<path class="st2" d="M43.8,407.7L45,409l2.7-2.4l-1.2-1.4L43.8,407.7z"/>
		<path class="st2" d="M68.4,388.4l-1.2-1.4l-2.7,2.4l1.2,1.4L68.4,388.4z"/>
		<path class="st2" d="M85.1,371.2l1.2,1.3l2.7-2.4l-1.2-1.3L85.1,371.2z"/>
		<path class="st2" d="M90.4,368.9l2.7-2.4l-1.2-1.4l-2.7,2.4L90.4,368.9z"/>
		<path class="st2" d="M109.8,349.4l1.2,1.3l2.7-2.4l-1.2-1.3L109.8,349.4z"/>
		<path class="st2" d="M133.2,328.7l-2.7,2.4l1.2,1.4l2.7-2.4L133.2,328.7z"/>
		<path class="st2" d="M142.6,322.8l-1.2-1.4l-2.7,2.4l1.2,1.4L142.6,322.8z"/>
		<path class="st2" d="M152.3,314.3l2.7-2.4l-1.2-1.4l-2.7,2.4L152.3,314.3z"/>
		<path class="st2" d="M118,342.1l1.2,1.4l2.7-2.4l-1.2-1.4L118,342.1z"/>
	</g>
	<circle class="st0" cx="158.2" cy="307.7" r="6.4"/>
	<g class="st1">
		<path class="st2" d="M92.5,171.5l1,2.2l1.7-0.8l-1-2.2L92.5,171.5z"/>
		<path class="st2" d="M160,310l-0.5-1.1l-1.7,0.8l0.5,1.1L160,310z"/>
		<path class="st2" d="M136.7,264.9l1.6,3.3l1.6-0.8l-1.5-3.3L136.7,264.9z"/>
		<path class="st2" d="M126.6,239.2L125,240l1.5,3.3l1.6-0.8L126.6,239.2z"/>
		<path class="st2" d="M154.7,298.9l-1.6,0.8l1.6,3.3l1.6-0.8L154.7,298.9z"/>
		<path class="st2" d="M150.7,294.7l1.5,3.3l1.6-0.8l-1.5-3.3L150.7,294.7z"/>
		<path class="st2" d="M150,293l1.6-0.8l-1.6-3.3l-1.6,0.8L150,293z"/>
		<path class="st2" d="M147.7,288.1l1.6-0.8l-1.5-3.3l-1.6,0.8L147.7,288.1z"/>
		<path class="st2" d="M141.4,274.8l1.5,3.3l1.6-0.8L143,274L141.4,274.8z"/>
		<path class="st2" d="M140.6,273.1l1.6-0.8l-1.6-3.3l-1.6,0.8L140.6,273.1z"/>
		<path class="st2" d="M137.5,262.4l-1.5-3.3l-1.6,0.8l1.5,3.3L137.5,262.4z"/>
		<path class="st2" d="M128.9,244.2l-1.6,0.8l1.6,3.3l1.6-0.8L128.9,244.2z"/>
		<path class="st2" d="M122.6,235l1.5,3.3l1.6-0.8l-1.5-3.3L122.6,235z"/>
		<path class="st2" d="M120.2,230.1l1.5,3.3l1.6-0.8l-1.5-3.3L120.2,230.1z"/>
		<path class="st2" d="M117.1,219.3l-1.6,0.8l1.6,3.3l1.6-0.8L117.1,219.3z"/>
		<path class="st2" d="M110.8,210.1l1.5,3.3l1.6-0.8l-1.5-3.3L110.8,210.1z"/>
		<path class="st2" d="M108.5,205.1l1.6,3.3l1.6-0.8l-1.6-3.3L108.5,205.1z"/>
		<path class="st2" d="M103.7,195.2l1.5,3.3l1.6-0.8l-1.5-3.3L103.7,195.2z"/>
		<path class="st2" d="M99.1,185.3l1.5,3.3l1.6-0.8l-1.5-3.3L99.1,185.3z"/>
		<path class="st2" d="M98.3,179.5l-1.6,0.8l1.5,3.3l1.6-0.8L98.3,179.5z"/>
		<path class="st2" d="M157.1,308l1.6-0.8l-1.5-3.3l-1.6,0.8L157.1,308z"/>
		<path class="st2" d="M145.4,279l-1.6,0.8l1.6,3.3l1.6-0.8L145.4,279z"/>
		<path class="st2" d="M133.6,258.2l1.6-0.8l-1.6-3.3l-1.6,0.8L133.6,258.2z"/>
		<path class="st2" d="M132.8,252.4l-1.6-3.3l-1.6,0.8l1.5,3.3L132.8,252.4z"/>
		<path class="st2" d="M119.4,228.4l1.6-0.8l-1.5-3.3l-1.6,0.8L119.4,228.4z"/>
		<path class="st2" d="M106.1,200.2l1.5,3.3l1.6-0.8l-1.5-3.3L106.1,200.2z"/>
		<path class="st2" d="M103.1,189.5l-1.6,0.8l1.6,3.3l1.6-0.8L103.1,189.5z"/>
		<path class="st2" d="M97.6,177.8l-1.5-3.3l-1.6,0.8l1.5,3.3L97.6,177.8z"/>
		<path class="st2" d="M114.7,218.4l1.6-0.8l-1.5-3.3l-1.6,0.8L114.7,218.4z"/>
	</g>
	<circle class="st0" cx="93.9" cy="170.7" r="6.3"/>
	<g class="st1">
		<path class="st2" d="M133.9,662.5c0.3,0,0.5,0.2,0.5,0.5s-0.2,0.5-0.5,0.5s-0.5-0.2-0.5-0.5C133.4,662.8,133.6,662.6,133.9,662.5
			L133.9,662.5z"/>
		<path class="st2" d="M159.7,704.5c0.1,0,0.3,0.1,0.3,0.3s-0.1,0.3-0.3,0.3s-0.3-0.1-0.3-0.3C159.5,704.7,159.6,704.6,159.7,704.5
			L159.7,704.5z"/>
		<path class="st2" d="M160.7,727.5c0.1,0,0.3,0.1,0.3,0.3s-0.1,0.3-0.3,0.3s-0.3-0.1-0.3-0.3C160.5,727.7,160.6,727.6,160.7,727.5
			L160.7,727.5z"/>
		<path class="st2" d="M143.7,726.5c0.1,0,0.3,0.1,0.3,0.3s-0.1,0.3-0.3,0.3s-0.3-0.1-0.3-0.3C143.5,726.7,143.6,726.6,143.7,726.5
			L143.7,726.5z"/>
		<path class="st2" d="M163.7,688.5c0.1,0,0.3,0.1,0.3,0.3s-0.1,0.3-0.3,0.3s-0.3-0.1-0.3-0.3C163.5,688.7,163.6,688.6,163.7,688.5
			L163.7,688.5z"/>
		<path class="st2" d="M134.9,706.5c0.3,0,0.5,0.2,0.5,0.5s-0.2,0.5-0.5,0.5s-0.5-0.2-0.5-0.5C134.4,706.8,134.6,706.6,134.9,706.5
			L134.9,706.5z"/>
		<path class="st2" d="M114.2,728c-0.3,0-0.5-0.2-0.5-0.5s0.2-0.5,0.5-0.5s0.5,0.2,0.5,0.5S114.5,728,114.2,728
			C114.3,728,114.3,728,114.2,728L114.2,728z"/>
		<path class="st2" d="M88.4,686c-0.1,0-0.3-0.1-0.3-0.3s0.1-0.3,0.3-0.3s0.3,0.1,0.3,0.3C88.7,685.9,88.6,686,88.4,686
			C88.5,686,88.5,686,88.4,686L88.4,686z"/>
		<path class="st2" d="M87.4,663c-0.1,0-0.3-0.1-0.3-0.3s0.1-0.3,0.3-0.3s0.3,0.1,0.3,0.3C87.7,662.9,87.6,663,87.4,663
			C87.5,663,87.5,663,87.4,663L87.4,663z"/>
		<path class="st2" d="M104.4,664c-0.1,0-0.3-0.1-0.3-0.3s0.1-0.3,0.3-0.3s0.3,0.1,0.3,0.3C104.7,663.9,104.6,664,104.4,664
			C104.5,664,104.5,664,104.4,664L104.4,664z"/>
		<path class="st2" d="M84.4,702c-0.1,0-0.3-0.1-0.3-0.3s0.1-0.3,0.3-0.3s0.3,0.1,0.3,0.3C84.7,701.9,84.6,702,84.4,702
			C84.5,702,84.5,702,84.4,702L84.4,702z"/>
		<path class="st2" d="M113.2,684c-0.3,0-0.5-0.2-0.5-0.5s0.2-0.5,0.5-0.5s0.5,0.2,0.5,0.5S113.5,684,113.2,684
			C113.3,684,113.3,684,113.2,684L113.2,684z"/>
	</g>
	<g class="st1">
		<path class="st3" d="M105.7,506c0.3,0,0.5,0.2,0.5,0.5s-0.2,0.5-0.5,0.5s-0.5-0.2-0.5-0.5C105.1,506.3,105.3,506.1,105.7,506
			C105.6,506,105.6,506,105.7,506L105.7,506z"/>
		<path class="st3" d="M131.4,548c0.1,0,0.3,0.1,0.3,0.3c0,0.1-0.1,0.2-0.3,0.3c-0.1,0-0.3-0.1-0.3-0.3
			C131.1,548.2,131.2,548.1,131.4,548L131.4,548L131.4,548z"/>
		<path class="st3" d="M132.4,571c0.1,0,0.3,0.1,0.3,0.3c0,0.1-0.1,0.2-0.3,0.3c-0.1,0-0.3-0.1-0.3-0.3
			C132.1,571.2,132.2,571.1,132.4,571L132.4,571L132.4,571z"/>
		<path class="st3" d="M115.4,570c0.1,0,0.3,0.1,0.3,0.3c0,0.1-0.1,0.2-0.3,0.3c-0.1,0-0.3-0.1-0.3-0.3
			C115.1,570.2,115.2,570.1,115.4,570L115.4,570L115.4,570z"/>
		<path class="st3" d="M135.4,532c0.1,0,0.3,0.1,0.3,0.3c0,0.1-0.1,0.2-0.3,0.3c-0.1,0-0.3-0.1-0.3-0.3
			C135.1,532.2,135.2,532.1,135.4,532L135.4,532L135.4,532z"/>
		<path class="st3" d="M106.7,550c0.3,0,0.5,0.2,0.5,0.5s-0.2,0.5-0.5,0.5s-0.5-0.2-0.5-0.5C106.1,550.3,106.3,550.1,106.7,550
			C106.6,550,106.6,550,106.7,550C106.6,550,106.6,550,106.7,550z"/>
		<path class="st3" d="M85.9,571.5c-0.3,0-0.5-0.2-0.5-0.5s0.2-0.5,0.5-0.5s0.5,0.2,0.5,0.5S86.2,571.5,85.9,571.5
			C86,571.5,86,571.5,85.9,571.5L85.9,571.5z"/>
		<path class="st3" d="M60.1,529.5c-0.1,0-0.3-0.1-0.3-0.3c0-0.1,0.1-0.3,0.3-0.3s0.3,0.1,0.3,0.3C60.4,529.4,60.3,529.5,60.1,529.5
			C60.2,529.5,60.2,529.5,60.1,529.5L60.1,529.5z"/>
		<path class="st3" d="M59.1,506.5c-0.1,0-0.3-0.1-0.3-0.3s0.1-0.3,0.3-0.3s0.3,0.1,0.3,0.3C59.4,506.4,59.3,506.5,59.1,506.5
			C59.2,506.5,59.2,506.5,59.1,506.5L59.1,506.5z"/>
		<path class="st3" d="M76.1,507.5c-0.1,0-0.3-0.1-0.3-0.3s0.1-0.3,0.3-0.3s0.3,0.1,0.3,0.3S76.3,507.5,76.1,507.5
			C76.2,507.5,76.2,507.5,76.1,507.5L76.1,507.5z"/>
		<path class="st3" d="M56.1,545.5c-0.1,0-0.3-0.1-0.3-0.3c0-0.1,0.1-0.3,0.3-0.3s0.3,0.1,0.3,0.3C56.4,545.4,56.3,545.5,56.1,545.5
			C56.2,545.5,56.2,545.5,56.1,545.5L56.1,545.5z"/>
		<path class="st3" d="M84.9,527.5c-0.3,0-0.5-0.2-0.5-0.5s0.2-0.5,0.5-0.5s0.5,0.2,0.5,0.5S85.2,527.5,84.9,527.5
			C85,527.5,85,527.5,84.9,527.5L84.9,527.5z"/>
	</g>
	<g class="st1">
		<path class="st2" d="M221.1,605c-0.3,0-0.5,0.2-0.5,0.5s0.2,0.5,0.5,0.5s0.5-0.2,0.5-0.5S221.4,605,221.1,605L221.1,605z"/>
		<path class="st2" d="M195.3,647c-0.1,0-0.3,0.1-0.3,0.3s0.1,0.3,0.3,0.3s0.3-0.1,0.3-0.3S195.5,647,195.3,647
			C195.4,647,195.4,647,195.3,647L195.3,647z"/>
		<path class="st2" d="M194.3,670c-0.1,0-0.3,0.1-0.3,0.3s0.1,0.3,0.3,0.3s0.3-0.1,0.3-0.3S194.5,670,194.3,670
			C194.4,670,194.4,670,194.3,670L194.3,670z"/>
		<path class="st2" d="M211.3,669c-0.1,0-0.3,0.1-0.3,0.3s0.1,0.3,0.3,0.3s0.3-0.1,0.3-0.3S211.5,669,211.3,669
			C211.4,669,211.4,669,211.3,669L211.3,669z"/>
		<path class="st2" d="M191.3,631c-0.1,0-0.3,0.1-0.3,0.3s0.1,0.3,0.3,0.3s0.3-0.1,0.3-0.3S191.5,631,191.3,631
			C191.4,631,191.4,631,191.3,631L191.3,631z"/>
		<path class="st2" d="M220.1,649c-0.3,0-0.5,0.2-0.5,0.5s0.2,0.5,0.5,0.5s0.5-0.2,0.5-0.5S220.4,649,220.1,649L220.1,649z"/>
	</g>
	<g class="st1">
		<path class="st3" d="M240.8,670.5c0.3,0,0.5-0.2,0.5-0.5s-0.2-0.5-0.5-0.5s-0.5,0.2-0.5,0.5S240.5,670.5,240.8,670.5L240.8,670.5
			L240.8,670.5z"/>
		<path class="st3" d="M266.6,628.5c0.1,0,0.3-0.1,0.3-0.3s-0.1-0.3-0.3-0.3s-0.3,0.1-0.3,0.3C266.3,628.4,266.4,628.5,266.6,628.5
			L266.6,628.5L266.6,628.5z"/>
		<path class="st3" d="M267.6,605.5c0.1,0,0.3-0.1,0.3-0.3s-0.1-0.3-0.3-0.3s-0.3,0.1-0.3,0.3C267.3,605.4,267.4,605.5,267.6,605.5
			L267.6,605.5L267.6,605.5z"/>
		<path class="st3" d="M250.6,606.5c0.1,0,0.3-0.1,0.3-0.3s-0.1-0.3-0.3-0.3s-0.3,0.1-0.3,0.3S250.4,606.5,250.6,606.5L250.6,606.5
			L250.6,606.5z"/>
		<path class="st3" d="M270.6,644.5c0.1,0,0.3-0.1,0.3-0.3s-0.1-0.3-0.3-0.3s-0.3,0.1-0.3,0.3C270.3,644.4,270.4,644.5,270.6,644.5
			L270.6,644.5L270.6,644.5z"/>
		<path class="st3" d="M241.8,626.5c0.3,0,0.5-0.2,0.5-0.5s-0.2-0.5-0.5-0.5s-0.5,0.2-0.5,0.5S241.5,626.5,241.8,626.5L241.8,626.5
			L241.8,626.5z"/>
	</g>
	<g class="st1">
		<path class="st3" d="M50.3,368.5c0.3,0,0.5,0.2,0.5,0.5s-0.2,0.5-0.5,0.5s-0.5-0.2-0.5-0.5C49.8,368.8,50,368.6,50.3,368.5
			C50.2,368.5,50.2,368.5,50.3,368.5L50.3,368.5z"/>
		<path class="st3" d="M76,410.5c0.1,0,0.3,0.1,0.3,0.3S76.2,411,76,411s-0.3-0.1-0.3-0.3C75.8,410.6,75.9,410.5,76,410.5L76,410.5
			L76,410.5z"/>
		<path class="st3" d="M77,433.5c0.1,0,0.3,0.1,0.3,0.3S77.2,434,77,434s-0.3-0.1-0.3-0.3C76.8,433.6,76.9,433.5,77,433.5L77,433.5
			L77,433.5z"/>
		<path class="st3" d="M60,432.5c0.1,0,0.3,0.1,0.3,0.3S60.2,433,60,433s-0.3-0.1-0.3-0.3C59.8,432.6,59.9,432.5,60,432.5L60,432.5
			L60,432.5z"/>
		<path class="st3" d="M80,394.5c0.1,0,0.3,0.1,0.3,0.3S80.2,395,80,395s-0.3-0.1-0.3-0.3C79.8,394.6,79.9,394.5,80,394.5L80,394.5
			L80,394.5z"/>
		<path class="st3" d="M51.3,412.5c0.3,0,0.5,0.2,0.5,0.5s-0.2,0.5-0.5,0.5s-0.5-0.2-0.5-0.5C50.8,412.8,51,412.6,51.3,412.5
			C51.2,412.5,51.2,412.5,51.3,412.5L51.3,412.5z"/>
	</g>
	<g class="st1">
		<path class="st2" d="M30.5,434c-0.3,0-0.5-0.2-0.5-0.5s0.2-0.5,0.5-0.5s0.5,0.2,0.5,0.5C31.1,433.8,30.9,434,30.5,434L30.5,434z"
			/>
		<path class="st2" d="M4.7,392c-0.1,0-0.3-0.1-0.3-0.3s0.1-0.3,0.3-0.3s0.3,0.1,0.3,0.3S4.9,392,4.7,392L4.7,392z"/>
		<path class="st2" d="M3.7,369c-0.1,0-0.3-0.1-0.3-0.3s0.1-0.3,0.3-0.3s0.3,0.1,0.3,0.3S3.9,369,3.7,369L3.7,369z"/>
		<path class="st2" d="M20.7,370c-0.1,0-0.3-0.1-0.3-0.3s0.1-0.3,0.3-0.3s0.3,0.1,0.3,0.3S20.9,370,20.7,370L20.7,370z"/>
		<path class="st2" d="M0.7,408c-0.1,0-0.3-0.1-0.3-0.3s0.1-0.3,0.3-0.3s0.3,0.1,0.3,0.3S0.9,408,0.7,408L0.7,408z"/>
		<path class="st2" d="M29.5,390c-0.3,0-0.5-0.2-0.5-0.5s0.2-0.5,0.5-0.5s0.5,0.2,0.5,0.5C30.1,389.8,29.9,390,29.5,390L29.5,390z"
			/>
	</g>
	<g class="st1">
		<path class="st2" d="M167.6,274.5c0.3,0,0.5,0.2,0.5,0.5s-0.2,0.5-0.5,0.5s-0.5-0.2-0.5-0.5S167.3,274.5,167.6,274.5
			C167.5,274.5,167.5,274.5,167.6,274.5L167.6,274.5z"/>
		<path class="st2" d="M193.4,316.5c0.1,0,0.3,0.1,0.3,0.3s-0.1,0.3-0.3,0.3s-0.3-0.1-0.3-0.3C193.1,316.6,193.2,316.5,193.4,316.5
			L193.4,316.5z"/>
		<path class="st2" d="M194.4,339.5c0.1,0,0.3,0.1,0.3,0.3s-0.1,0.3-0.3,0.3s-0.3-0.1-0.3-0.3C194.1,339.6,194.2,339.5,194.4,339.5
			L194.4,339.5z"/>
		<path class="st2" d="M177.4,338.5c0.1,0,0.3,0.1,0.3,0.3s-0.1,0.3-0.3,0.3s-0.3-0.1-0.3-0.3C177.1,338.6,177.2,338.5,177.4,338.5
			L177.4,338.5z"/>
		<path class="st2" d="M197.4,300.5c0.1,0,0.3,0.1,0.3,0.3s-0.1,0.3-0.3,0.3s-0.3-0.1-0.3-0.3C197.1,300.6,197.2,300.5,197.4,300.5
			L197.4,300.5z"/>
		<path class="st2" d="M168.6,318.5c0.3,0,0.5,0.2,0.5,0.5s-0.2,0.5-0.5,0.5s-0.5-0.2-0.5-0.5S168.3,318.5,168.6,318.5
			C168.5,318.5,168.5,318.5,168.6,318.5L168.6,318.5z"/>
	</g>
	<g class="st1">
		<path class="st3" d="M147.9,340c-0.3,0-0.5-0.2-0.5-0.5s0.2-0.5,0.5-0.5s0.5,0.2,0.5,0.5C148.4,339.7,148.2,340,147.9,340
			L147.9,340z"/>
		<path class="st3" d="M122.1,298c-0.1,0-0.3-0.1-0.3-0.3s0.1-0.3,0.3-0.3s0.3,0.1,0.3,0.3S122.3,298,122.1,298L122.1,298z"/>
		<path class="st3" d="M121.1,275c-0.1,0-0.3-0.1-0.3-0.3s0.1-0.3,0.3-0.3s0.3,0.1,0.3,0.3S121.3,275,121.1,275L121.1,275z"/>
		<path class="st3" d="M138.1,276c-0.1,0-0.3-0.1-0.3-0.3s0.1-0.3,0.3-0.3s0.3,0.1,0.3,0.3C138.4,275.9,138.3,276,138.1,276
			L138.1,276z"/>
		<path class="st3" d="M118.1,314c-0.1,0-0.3-0.1-0.3-0.3s0.1-0.3,0.3-0.3s0.3,0.1,0.3,0.3S118.3,314,118.1,314L118.1,314z"/>
		<path class="st3" d="M146.9,296c-0.3,0-0.5-0.2-0.5-0.5s0.2-0.5,0.5-0.5s0.5,0.2,0.5,0.5C147.4,295.7,147.2,296,146.9,296
			L146.9,296z"/>
	</g>
	<g class="st1">
		<path class="st2" d="M102.4,135.9c0.3,0,0.5,0.2,0.5,0.5s-0.2,0.5-0.5,0.5s-0.5-0.2-0.5-0.5C101.9,136.2,102.1,136,102.4,135.9
			C102.3,136,102.3,136,102.4,135.9L102.4,135.9z"/>
		<path class="st2" d="M128.2,177.9c0.1,0,0.3,0.1,0.3,0.3s-0.1,0.3-0.3,0.3s-0.3-0.1-0.3-0.3C127.9,178.1,128,178,128.2,177.9
			L128.2,177.9z"/>
		<path class="st2" d="M129.2,200.9c0.1,0,0.3,0.1,0.3,0.3s-0.1,0.3-0.3,0.3s-0.3-0.1-0.3-0.3C128.9,201.1,129,201,129.2,200.9
			L129.2,200.9z"/>
		<path class="st2" d="M112.2,199.9c0.1,0,0.3,0.1,0.3,0.3s-0.1,0.3-0.3,0.3s-0.3-0.1-0.3-0.3C111.9,200.1,112,200,112.2,199.9
			L112.2,199.9z"/>
		<path class="st2" d="M132.2,161.9c0.1,0,0.3,0.1,0.3,0.3s-0.1,0.3-0.3,0.3s-0.3-0.1-0.3-0.3C131.9,162.1,132,162,132.2,161.9
			L132.2,161.9z"/>
		<path class="st2" d="M103.4,179.9c0.3,0,0.5,0.2,0.5,0.5s-0.2,0.5-0.5,0.5s-0.5-0.2-0.5-0.5C102.9,180.2,103.1,180,103.4,179.9
			C103.3,180,103.3,180,103.4,179.9L103.4,179.9z"/>
	</g>
	<g class="st1">
		<path class="st2" d="M82.7,201.4c-0.3,0-0.5-0.2-0.5-0.5s0.2-0.5,0.5-0.5s0.5,0.2,0.5,0.5S83,201.4,82.7,201.4L82.7,201.4z"/>
		<path class="st2" d="M56.9,159.4c-0.1,0-0.3-0.1-0.3-0.3s0.1-0.3,0.3-0.3s0.3,0.1,0.3,0.3C57.2,159.3,57.1,159.4,56.9,159.4
			L56.9,159.4z"/>
		<path class="st2" d="M55.9,136.4c-0.1,0-0.3-0.1-0.3-0.3s0.1-0.3,0.3-0.3s0.3,0.1,0.3,0.3C56.2,136.3,56.1,136.4,55.9,136.4
			L55.9,136.4z"/>
		<path class="st2" d="M72.9,137.4c-0.1,0-0.3-0.1-0.3-0.3s0.1-0.3,0.3-0.3s0.3,0.1,0.3,0.3C73.2,137.3,73.1,137.4,72.9,137.4
			L72.9,137.4z"/>
		<path class="st2" d="M52.9,175.4c-0.1,0-0.3-0.1-0.3-0.3s0.1-0.3,0.3-0.3s0.3,0.1,0.3,0.3C53.2,175.3,53.1,175.4,52.9,175.4
			L52.9,175.4z"/>
		<path class="st2" d="M81.7,157.4c-0.3,0-0.5-0.2-0.5-0.5s0.2-0.5,0.5-0.5s0.5,0.2,0.5,0.5S82,157.4,81.7,157.4L81.7,157.4z"/>
	</g>
	<g class="st1">
		<path class="st2" d="M162.2,33.2l-1.1,2.2l1.7,0.8l1.1-2.1L162.2,33.2z"/>
		<path class="st2" d="M95.6,172.1l0.5-1.1l-1.7-0.8l-0.5,1.1L95.6,172.1z"/>
		<path class="st2" d="M116.4,125.8l-1.6,3.3l1.6,0.8l1.6-3.3L116.4,125.8z"/>
		<path class="st2" d="M130.3,102l-1.6-0.8l-1.6,3.3l1.6,0.8L130.3,102z"/>
		<path class="st2" d="M101,161.1l-1.6-0.8l-1.7,3.3l1.6,0.8L101,161.1z"/>
		<path class="st2" d="M101.8,155.4l-1.6,3.3l1.6,0.8l1.6-3.3L101.8,155.4z"/>
		<path class="st2" d="M102.6,153.8l1.6,0.8l1.6-3.3l-1.6-0.8L102.6,153.8z"/>
		<path class="st2" d="M105.1,148.9l1.6,0.8l1.6-3.3l-1.6-0.8L105.1,148.9z"/>
		<path class="st2" d="M111.6,135.7L110,139l1.6,0.8l1.6-3.3L111.6,135.7z"/>
		<path class="st2" d="M112.4,134.1l1.6,0.8l1.6-3.3l-1.6-0.8L112.4,134.1z"/>
		<path class="st2" d="M118.9,125l1.6-3.3l-1.6-0.8l-1.6,3.3L118.9,125z"/>
		<path class="st2" d="M127.8,106.9l-1.6-0.8l-1.6,3.3l1.6,0.8L127.8,106.9z"/>
		<path class="st2" d="M131.1,96.2l-1.6,3.3l1.6,0.8l1.6-3.3L131.1,96.2z"/>
		<path class="st2" d="M133.5,91.3l-1.6,3.3l1.6,0.8l1.6-3.3L133.5,91.3z"/>
		<path class="st2" d="M140,82.3l-1.6-0.8l-1.6,3.3l1.6,0.8L140,82.3z"/>
		<path class="st2" d="M143.3,71.6l-1.6,3.3l1.6,0.8l1.6-3.3L143.3,71.6z"/>
		<path class="st2" d="M145.7,66.7l-1.6,3.3l1.6,0.8l1.6-3.3L145.7,66.7z"/>
		<path class="st2" d="M150.6,56.8l-1.6,3.3l1.6,0.8l1.6-3.3L150.6,56.8z"/>
		<path class="st2" d="M155.5,46.9l-1.6,3.2l1.6,0.8l1.6-3.2L155.5,46.9z"/>
		<path class="st2" d="M159.5,42.8l-1.6-0.8l-1.6,3.3l1.6,0.8L159.5,42.8z"/>
		<path class="st2" d="M95.3,168.6l1.6,0.8l1.6-3.3l-1.6-0.8L95.3,168.6z"/>
		<path class="st2" d="M110.7,141.4l-1.6-0.8l-1.6,3.3l1.6,0.8L110.7,141.4z"/>
		<path class="st2" d="M119.7,119.3l1.6,0.8l1.6-3.3l-1.6-0.8L119.7,119.3z"/>
		<path class="st2" d="M123.7,115.1l1.6-3.3l-1.6-0.8l-1.6,3.3L123.7,115.1z"/>
		<path class="st2" d="M134.4,89.7l1.6,0.8l1.6-3.3l-1.6-0.8L134.4,89.7z"/>
		<path class="st2" d="M148.2,61.7l-1.6,3.3l1.6,0.8l1.6-3.3L148.2,61.7z"/>
		<path class="st2" d="M154.6,52.7l-1.6-0.8l-1.6,3.3L153,56L154.6,52.7z"/>
		<path class="st2" d="M160.4,41.1l1.6-3.3l-1.6-0.8l-1.6,3.2L160.4,41.1z"/>
		<path class="st2" d="M139.2,79.8l1.6,0.8l1.6-3.3l-1.6-0.8L139.2,79.8z"/>
	</g>
	<circle class="st4" cx="163.4" cy="32.7" r="6.3"/>
	<g class="st1">
		<path class="st2" d="M131.2,0.5c0.3,0,0.5,0.2,0.5,0.5s-0.2,0.5-0.5,0.5s-0.5-0.2-0.5-0.5C130.6,0.7,130.8,0.5,131.2,0.5
			L131.2,0.5z"/>
		<path class="st2" d="M156.9,42.5c0.1,0,0.3,0.1,0.3,0.3S157,43,156.9,43s-0.3-0.1-0.3-0.3C156.7,42.6,156.8,42.5,156.9,42.5
			L156.9,42.5z"/>
		<path class="st2" d="M157.9,65.5c0.1,0,0.3,0.1,0.3,0.3S158,66,157.9,66s-0.3-0.1-0.3-0.3C157.7,65.6,157.8,65.5,157.9,65.5
			L157.9,65.5z"/>
		<path class="st2" d="M140.9,64.5c0.1,0,0.3,0.1,0.3,0.3S141,65,140.9,65s-0.3-0.1-0.3-0.3C140.7,64.6,140.8,64.5,140.9,64.5
			L140.9,64.5z"/>
		<path class="st2" d="M160.9,26.5c0.1,0,0.3,0.1,0.3,0.3S161,27,160.9,27s-0.3-0.1-0.3-0.3C160.7,26.6,160.8,26.5,160.9,26.5
			L160.9,26.5z"/>
		<path class="st2" d="M132.2,44.5c0.3,0,0.5,0.2,0.5,0.5s-0.2,0.5-0.5,0.5s-0.5-0.2-0.5-0.5C131.6,44.7,131.8,44.5,132.2,44.5
			L132.2,44.5z"/>
		<path class="st2" d="M166.2,0.5c0.3,0,0.5,0.2,0.5,0.5s-0.2,0.5-0.5,0.5s-0.5-0.2-0.5-0.5S165.9,0.5,166.2,0.5L166.2,0.5z"/>
		<path class="st2" d="M192,42.5c0.1,0,0.2,0.1,0.3,0.3c0,0.1-0.1,0.3-0.3,0.3s-0.3-0.1-0.3-0.3S191.8,42.5,192,42.5
			C191.9,42.5,191.9,42.5,192,42.5L192,42.5z"/>
		<path class="st2" d="M193,65.5c0.1,0,0.2,0.1,0.3,0.3c0,0.1-0.1,0.3-0.3,0.3s-0.3-0.1-0.3-0.3S192.8,65.5,193,65.5
			C192.9,65.5,192.9,65.5,193,65.5L193,65.5z"/>
		<path class="st2" d="M176,64.5c0.1,0,0.2,0.1,0.3,0.3c0,0.1-0.1,0.3-0.3,0.3s-0.3-0.1-0.3-0.3S175.8,64.5,176,64.5
			C175.9,64.5,175.9,64.5,176,64.5L176,64.5z"/>
		<path class="st2" d="M196,26.5c0.1,0,0.2,0.1,0.3,0.3c0,0.1-0.1,0.3-0.3,0.3s-0.3-0.1-0.3-0.3S195.8,26.5,196,26.5
			C195.9,26.5,195.9,26.5,196,26.5L196,26.5z"/>
		<path class="st2" d="M167.2,44.5c0.3,0,0.5,0.2,0.5,0.5s-0.2,0.5-0.5,0.5s-0.5-0.2-0.5-0.5S166.9,44.5,167.2,44.5L167.2,44.5z"/>
	</g>
</g>
</svg>
