<?xml version="1.0" encoding="utf-8"?>
<!-- Generator: Adobe Illustrator 23.0.1, SVG Export Plug-In . SVG Version: 6.00 Build 0)  -->
<svg version="1.1" id="Layer_1" xmlns="http://www.w3.org/2000/svg" xmlns:xlink="http://www.w3.org/1999/xlink" x="0px" y="0px"
	 viewBox="0 0 592.4 540.6" style="enable-background:new 0 0 592.4 540.6;" xml:space="preserve">
<style type="text/css">
	.st0{fill:#F39B83;}
	.st1{fill:#F9B89D;}
	.st2{fill:#F7A583;}
	.st3{fill:none;}
</style>
<path class="st0" d="M487.7,222.2c8.8-13.4,16.8-14.3,19.5-14.4c15.7-0.4,31.9,25.3,31.4,47.6c-0.4,20-13.9,22.6-18,52.1
	c-2,14.2-0.1,22.7-5.6,26.2c-7.2,4.6-20.6-3.6-30.6-11.1c1.7-14.6,2.9-30.4,3.5-47.1C488.8,256.5,488.6,238.6,487.7,222.2z"/>
<path class="st0" d="M101.5,222.2c-8.8-13.4-16.8-14.3-19.5-14.4c-15.7-0.4-31.9,25.2-31.4,47.6c0.4,20,13.9,22.6,18,52.1
	c2,14.2,0.1,22.7,5.6,26.2c7.2,4.6,20.6-3.6,30.6-11.1c-1.7-14.6-2.9-30.4-3.5-47.1C100.4,256.5,100.7,238.6,101.5,222.2z"/>
<path class="st1" d="M110,150.3c-11.4,22-11.8,50.9-12.7,108.7c-0.6,39.7-0.9,73.9,12.7,116c15.3,47.5,39.5,78.5,47,87.6
	c19.2,23.5,50.4,61.7,104.7,74.4c6.8,1.6,36.5,8,73.4-0.3c58.4-13.1,92.1-53.4,107.7-72.2c29.4-35.2,40.8-69.7,44.1-80.3
	c6.1-19.8,10-42.7,5.8-121.4c-3.9-72.7-5.6-109.1-12.1-120.4C425.3,45.3,161.4,50.9,110,150.3z"/>
<g>
	<path class="st2" d="M98.6,205.1c-4.8,6.9-3.8,31.1-1.6,79.1c1.1,24.9,1.7,37.3,2.8,45.8c6.9,56.2,33.3,98.7,42.3,112.2
		c18.5,27.8,49,73.6,107.5,91.4c37.6,11.4,70.9,6.4,88.9,2.3c-11.5-134.4-25.7-169.7-38.1-170.4c-6-0.4-12.7,7.2-26.1,5.3
		c-8.7-1.3-19.3-6.7-23.8-16.6c-1.2-2.5-3-6.5-2.1-11.2c1.3-7.5,7.9-9.8,16.9-19.7c0,0,3.6-4,10.2-13.8c11.3-16.9,9.2-47.2,5.1-60.6
		C263.1,191.4,125.1,167,98.6,205.1z"/>
</g>
<path class="st3" d="M282.1,248.7c4.4,46.6-6,65.8-16.9,74.6c-5.5,4.4-15.5,9.7-16.9,19.7c-1.5,11.3,9.1,20.5,9.8,21.1
	c10.4,8.7,27,9.2,42.2,1.4"/>
<path class="st1" d="M489.4,203.8c-130.3,0.5-260.5,0.9-390.8,1.4c-0.3-6.5-0.1-15.5,1.7-25.6c0,0,3-16,11.6-32.8
	c28.3-54.9,80.6-80.5,80.6-80.5c36.9-18,69.3-17.2,100.7-16.5c19.6,0.5,68.8,2.2,117.6,29.6c9.6,5.4,31.4,17.9,51.4,40.5
	c20.1,22.7,23.4,38.4,24.1,42.7c0.5,2.9,1.3,9.2,2,16C489.2,189.1,489.4,197.7,489.4,203.8z"/>
<g>
	<g>
		<g>
			<g>
				<path class="st3" d="M319.8,65.7c0,0-3.7-22-23.5-40c-1.2-1.1-2-1.9-2.5-2.2c-14.5-13-29.1-16.4-42.6-19.3
					c-28.4-5.9-57.9-2.5-83.9,9.6c-5.1,2.5-17,8.4-29.9,19.8c-41.1,36-34.1,73.8-77.7,105.3c-9.6,7-13.6,7.4-13.2,9.6
					c2.8,17.6,257.6-1.6,272.2-56.4C322.3,78.9,319.8,65.7,319.8,65.7z"/>
			</g>
			<g>
				<path class="st3" d="M310.4,89.1c-9.1,23.5-36.2,85.1-97.8,124.4c-97.7,62.4-198.3,15-210.9,8.8
					C104.6,177.9,207.4,133.5,310.4,89.1z"/>
			</g>
			<g>
				<path class="st3" d="M315.6,86.4c-0.4-2.2-1.1-1.4-25.1-30.2c-6.5-7.9-10.3-12.5-16.5-17.6c-6.5-5.4-13.8-9.3-21.3-12.7
					c-26-11.7-39-17.4-52.9-17.4c-24.7,0.1-43.1,13.6-53.4,21.3c-17.3,12.8-26.7,27.2-29.4,31.5c-14.4,23-10.4,35.3-28.4,70.3
					c-5.5,10.7-8.4,16.2-13.4,20.8c-19,17.6-46.9,14.4-47.1,20.2c-0.2,3.4,8.9,6.6,13.7,8C106.5,198,317.4,95.6,315.6,86.4z"/>
			</g>
			<g>
				<path class="st3" d="M318.2,88c-3-30-61.8-43.2-66.1-44.2c-49.8-10.6-88.6,19.9-96.6,26.2c-2.2,1.8-15.4,18.7-41.5,52.2
					c-16.2,20.6-28,36.1-46.6,49.6c-11.2,8-19.2,12.9-19.2,12.9c-20,12.3-30.4,15.4-29.9,18.4c0.7,4.6,26.6,4.5,41.7,3.6
					C153.2,200.8,322.5,131.3,318.2,88z"/>
			</g>
			<g>
				<path class="st3" d="M317.3,89.1C299.7,77.2,284,72.9,274.2,71c-12.8-2.5-23-1.9-28.5-1.6c-9.8,0.5-19.8,1.3-29,5.4
					c-10.2,4.5-18.7,12.7-26.4,21.7c-15.4,18.1-13.5,26.4-33.1,60.5c-13.7,23.9-20.6,30.3-28,34.6c-7.2,4-14.3,5.6-25.9,6.3
					c-14.7,0.8-37.1,0.3-65.5-7.4c18.6,14.5,52.7,36,96.8,37C207.6,229.2,278,174.9,317.3,89.1z"/>
			</g>
		</g>
	</g>
</g>
<g>
	<path class="st3" d="M269.8,108.2c4.5,15.2,13.9,38.7,33.3,61.3c21.6,25.1,44.4,35.6,78.7,50.9c0,0,79.5,35.6,171.3,24.1
		c2.1-0.2,5.1-0.7,5.8-2.4C563.5,228.2,413,165.2,269.8,108.2z"/>
	<path class="st3" d="M264.1,97.8c-5.4-13.3-4.2-27.2-4-29.5c2.4-25.5,20.4-48,40.9-59c34.7-18.9,72.8-3.1,90.3,4.2
		c25,10.3,41.9,26,59,41.7c21.6,20,18.1,22.8,37.3,40.2c35.1,32,70.2,44.3,67.9,50.4c-0.9,2.4-7.3,2-8.9,2
		C438.4,141.4,289.9,161.2,264.1,97.8z"/>
	<path class="st3" d="M264.1,97.8c3.8-5.3,22.1-30.4,55.4-35.6c30.7-4.9,54.6,9.9,62.2,15.4c12,8.9,21.9,20.9,32.5,31.7
		c16,16.4,33.8,30.3,51.5,44.2c13,10.1,26.1,20.4,40.5,27.5c13,6.3,26.9,11.8,43.6,9c25.1-4.2,45.2-26.3,42.4-31.6
		c-1-2-5.2-1.6-8-1.4c-21,1.2-41.4-7-62.1-10.3C504.5,143.8,446,133.1,264.1,97.8z"/>
	<path class="st3" d="M265.4,101.5c-0.1-0.6,18.6-12.3,40.6-9.5c2.9,0.3,24.1,5.8,41.8,23.3c13.4,13.2,17.9,26.6,24.5,35.8
		c8,11,46.7,64.5,105.3,77.7c21.4,4.9,38.6,3.7,59.8,1.9c26.8-2.2,40.3-3.3,42.1-8.9c7.3-22.6-116-91.1-191.5-119.2
		c-21.1-7.8-51.4-17.3-87.4-11.1C281.1,94.9,265.7,102,265.4,101.5z"/>
	<path class="st3" d="M261.7,97.7c-7.4-27.5,3.8-62.9,24.3-81.2c19.2-17.1,47.3-20.8,68.2-11.5c4.4,1.9,8.6,4.2,12.7,6.8
		c5.6,3.6,10.8,7.8,15.6,12.3c16.8,16.2,55.6,70.4,94.5,105.9c25.2,23.1,42.1,30.5,58.5,31.6c8.7,0.5,17.4-0.4,25.7-2.8
		c0-0.1-46.1,12.8-93.3,15.2C402.9,177.2,279.5,163.6,261.7,97.7z"/>
</g>
</svg>
