<?xml version="1.0" encoding="utf-8"?>
<!-- Generator: Adobe Illustrator 23.0.1, SVG Export Plug-In . SVG Version: 6.00 Build 0)  -->
<svg version="1.1" id="Layer_1" xmlns="http://www.w3.org/2000/svg" xmlns:xlink="http://www.w3.org/1999/xlink" x="0px" y="0px"
	 viewBox="0 0 593.4 543.1" style="enable-background:new 0 0 593.4 543.1;" xml:space="preserve">
<style type="text/css">
	.st0{fill:#111D35;}
	.st1{opacity:0.69;}
	.st2{fill:none;stroke:#FFFFFF;stroke-width:2;stroke-miterlimit:10;}
	.st3{fill:#FFFFFF;}
	.st4{opacity:3.000000e-02;}
</style>
<title>face3</title>
<path class="st0" d="M487.5,223.4c8.8-13.4,16.8-14.3,19.5-14.4c15.7-0.4,31.9,25.3,31.4,47.6c-0.4,20-13.9,22.6-18,52.1
	c-2,14.2-0.1,22.7-5.6,26.2c-7.2,4.6-20.6-3.6-30.6-11.1c1.7-14.6,2.9-30.4,3.5-47.1C488.6,259,488.5,241.2,487.5,223.4z"/>
<path class="st0" d="M101.3,223.4C92.5,210,84.5,209.1,81.8,209c-15.7-0.4-31.9,25.2-31.4,47.6c0.4,20,13.9,22.6,18,52.1
	c2,14.2,0.1,22.7,5.6,26.2c7.2,4.6,20.6-3.6,30.6-11.1c-1.7-14.6-2.9-30.4-3.5-47.1C100.2,257.7,100.5,239.8,101.3,223.4z"/>
<path class="st0" d="M109.8,151.5c-11.4,22-11.8,50.9-12.7,108.7c-0.6,39.7-0.9,73.9,12.7,116c15.3,47.5,39.5,78.5,47,87.6
	c19.2,23.5,50.4,61.7,104.7,74.4c6.8,1.6,36.5,8,73.4-0.3c58.4-13.1,92.1-53.4,107.7-72.2c19.8-23.6,34.8-50.9,44.1-80.3
	c6.1-19.8,10-42.7,5.8-121.4c-3.9-72.7-5.6-109.1-12.1-120.4C425.1,46.5,161.2,52.1,109.8,151.5z"/>
<path class="st0" d="M98.4,206.3c-4.8,6.9-3.8,31.1-1.6,79.1c1.1,24.9,1.7,37.3,2.8,45.8c6.9,56.2,33.3,98.7,42.3,112.2
	c18.5,27.8,49,73.6,107.5,91.4c37.6,11.4,70.9,6.4,88.9,2.3c-11.5-134.4-25.7-169.7-38.1-170.4c-6-0.4-12.7,7.2-26.1,5.3
	c-8.7-1.3-19.3-6.7-23.8-16.6c-1.2-2.5-3-6.5-2.1-11.2c1.3-7.5,7.9-9.8,16.9-19.7c3.7-4.4,7.1-9,10.2-13.8
	c11.3-16.9,9.2-47.2,5.1-60.6C262.9,192.6,124.9,168.2,98.4,206.3z"/>
<path class="st0" d="M281.9,249.9c4.4,46.6-6,65.8-16.9,74.6c-5.5,4.4-15.5,9.7-16.9,19.7c-1.5,11.3,9.1,20.5,9.8,21.1
	c10.4,8.7,27,9.2,42.2,1.4"/>
<path class="st0" d="M491,208.6c-130.3,0.5-260.6,1-390.8,1.4c-0.4-8.6,0.2-17.2,1.7-25.6c2.4-11.4,6.3-22.4,11.6-32.8
	c28.3-54.9,80.6-80.5,80.6-80.5c36.9-18,69.3-17.2,100.7-16.5c19.6,0.5,68.8,2.2,117.6,29.6c9.6,5.4,31.4,17.9,51.4,40.5
	s23.4,38.4,24.1,42.7c0.5,2.9,1.3,9.2,2,16C490.8,193.9,491,202.6,491,208.6z"/>
<path class="st0" d="M319.5,66.9c0,0-3.7-22-23.5-40c-1.2-1.1-2-1.9-2.5-2.2c-14.5-13-29.1-16.4-42.6-19.3
	c-28.3-5.9-57.7-2.5-83.9,9.6c-10.8,5.2-20.9,11.8-29.9,19.8C96,70.8,103,108.6,59.5,140.1c-9.6,7-13.6,7.4-13.2,9.6
	c2.8,17.6,257.6-1.6,272.3-56.4C322,80,319.5,66.9,319.5,66.9z"/>
<path class="st0" d="M310.1,90.2c-9.1,23.5-36.3,85.1-97.8,124.4c-97.7,62.4-198.3,15-210.9,8.8C104.3,179.1,207.2,134.7,310.1,90.2
	z"/>
<path class="st0" d="M315.3,87.5c-0.5-2.2-1.1-1.4-25.1-30.2c-6.5-7.9-10.3-12.5-16.5-17.6c-6.5-5.4-13.9-9.3-21.3-12.7
	c-26-11.7-39-17.4-52.9-17.4c-24.7,0.1-43,13.6-53.4,21.3c-11.7,8.6-21.6,19.3-29.4,31.5c-14.3,23-10.4,35.3-28.4,70.3
	c-5.5,10.7-8.4,16.2-13.4,20.8c-19,17.6-46.8,14.4-47.1,20.2c-0.2,3.4,8.9,6.6,13.7,8.1C106.2,199.1,317.1,96.7,315.3,87.5z"/>
<path class="st0" d="M318,89.2c-3-30-61.8-43.2-66.1-44.2c-49.8-10.6-88.6,19.9-96.6,26.2C153,73,139.9,90,113.7,123.4
	c-16.2,20.6-28,36.1-46.6,49.6C55.9,181,48,185.9,48,185.9c-20,12.3-30.4,15.4-29.9,18.4c0.7,4.6,26.6,4.5,41.7,3.6
	C152.9,202,322.2,132.4,318,89.2z"/>
<path class="st0" d="M317,90.2c-13-8.9-27.7-15.1-43.1-18.1c-9.4-1.8-19-2.3-28.5-1.6c-9.8,0.5-19.8,1.3-29,5.4
	c-10.2,4.5-18.7,12.7-26.4,21.7c-15.4,18.1-13.5,26.4-33.1,60.5c-13.7,23.9-20.6,30.3-28,34.6c-7.2,4-14.3,5.6-25.9,6.3
	c-14.7,0.8-37.1,0.3-65.4-7.4c18.6,14.5,52.7,36,96.8,37C207.4,230.4,277.8,176,317,90.2z"/>
<path class="st0" d="M269.5,109.4c6.7,22.5,18,43.4,33.3,61.3c21.6,25.1,44.4,35.6,78.7,50.9c0,0,79.5,35.6,171.3,24.1
	c2.1-0.2,5.1-0.7,5.8-2.4C563.3,229.3,412.8,166.3,269.5,109.4z"/>
<path class="st0" d="M263.9,99c-5.4-13.3-4.2-27.2-4-29.5c2.4-25.5,20.4-48,41-59c34.7-18.9,72.7-3.2,90.3,4.2
	c25,10.3,41.9,26,59,41.7c21.6,20,18.1,22.7,37.3,40.2c35.1,32,70.2,44.3,67.9,50.4c-0.9,2.4-7.3,2-8.9,2
	C438.2,142.6,289.6,162.3,263.9,99z"/>
<path class="st0" d="M263.9,99c3.8-5.3,22.1-30.4,55.4-35.6c30.7-4.9,54.6,9.9,62.2,15.4c12,8.9,21.9,20.9,32.5,31.7
	c16,16.4,33.8,30.3,51.5,44.2c13,10.1,26.1,20.4,40.5,27.5c13,6.3,26.9,11.8,43.6,9c25.1-4.2,45.2-26.3,42.4-31.6
	c-1-2-5.2-1.6-8-1.4c-21,1.2-41.4-7-62.1-10.4C504.2,145,445.8,134.2,263.9,99z"/>
<path class="st0" d="M265.2,102.6c-0.1-0.6,18.6-12.3,40.6-9.5c2.9,0.3,24.1,5.8,41.8,23.3c13.4,13.2,17.9,26.7,24.5,35.9
	c8,11,46.7,64.5,105.3,77.7c21.4,4.9,38.6,3.7,59.8,1.9c26.8-2.2,40.3-3.3,42-8.9c7.3-22.6-116-91.1-191.5-119.2
	c-21.1-7.8-51.4-17.3-87.4-11.1C280.8,96,265.4,103.2,265.2,102.6z"/>
<path class="st0" d="M261.4,98.8c-7.4-27.5,3.8-62.9,24.3-81.3C304.9,0.6,333-3.1,354,6.1c4.4,1.9,8.6,4.2,12.6,6.8
	c5.6,3.6,10.8,7.8,15.6,12.3C399,41.4,437.9,95.5,476.8,131c25.2,23.1,42.1,30.5,58.5,31.6c8.7,0.5,17.4-0.4,25.7-2.8
	c0-0.1-46,12.8-93.3,15.2C402.7,178.4,279.3,164.8,261.4,98.8z"/>
<g class="st1">
	<circle class="st2" cx="207.1" cy="265.7" r="57.9"/>
	<path class="st3" d="M179.9,240c0.2,0,0.3-0.2,0.2-0.3c0-0.1-0.1-0.2-0.2-0.2c-0.2,0-0.3,0.1-0.3,0.2c0,0.2,0.1,0.3,0.2,0.3
		C179.8,240,179.9,240,179.9,240z"/>
	<path class="st3" d="M177.5,260.3c0.2,0,0.3-0.2,0.2-0.3c0-0.1-0.1-0.2-0.2-0.2c-0.2,0-0.3,0.2-0.2,0.3
		C177.3,260.2,177.4,260.3,177.5,260.3z"/>
	<path class="st3" d="M188,290c0.2,0,0.3-0.2,0.2-0.3c0-0.1-0.1-0.2-0.2-0.2c-0.2,0-0.3,0.2-0.2,0.3C187.8,289.9,187.9,290,188,290z
		"/>
	<path class="st3" d="M236.9,266c0.2,0,0.3-0.2,0.2-0.3c0-0.1-0.1-0.2-0.2-0.2c-0.2,0-0.3,0.2-0.2,0.3
		C236.7,265.9,236.7,266,236.9,266z"/>
	<path class="st3" d="M206.6,242.6c0.2,0,0.3-0.2,0.2-0.3c0-0.1-0.1-0.2-0.2-0.2c-0.2,0-0.3,0.1-0.3,0.2c0,0.2,0.1,0.3,0.2,0.3
		C206.5,242.6,206.5,242.6,206.6,242.6z"/>
	<path class="st3" d="M228.2,296.9c0.2,0,0.3-0.2,0.2-0.3c0-0.1-0.1-0.2-0.2-0.2c-0.2,0-0.3,0.1-0.3,0.2c0,0.2,0.1,0.3,0.2,0.3
		C228.1,296.9,228.2,296.9,228.2,296.9z"/>
	<path class="st3" d="M234.3,236.8c0.2,0,0.3-0.2,0.2-0.3c0-0.1-0.1-0.2-0.2-0.2c-0.2,0-0.3,0.2-0.2,0.3
		C234.1,236.7,234.2,236.8,234.3,236.8z"/>
	<circle class="st2" cx="384" cy="265.7" r="57.9"/>
	<path class="st2" d="M265,265.7c8.9-16.9,29.8-23.3,46.7-14.4c6.1,3.2,11.2,8.3,14.4,14.4"/>
	<path class="st3" d="M411.2,292.9c0.3,0,0.3-0.6,0-0.6S410.9,292.9,411.2,292.9z"/>
	<path class="st3" d="M413.7,272.7c0.3,0,0.3-0.6,0-0.6c-0.2,0-0.3,0.1-0.3,0.3S413.5,272.7,413.7,272.7
		C413.7,272.7,413.7,272.7,413.7,272.7z"/>
	<path class="st3" d="M403.1,242.9c0.2,0,0.3-0.2,0.2-0.3c0-0.1-0.1-0.2-0.2-0.2c-0.2,0-0.3,0.1-0.3,0.2c0,0.2,0.1,0.3,0.2,0.3
		C403.1,242.9,403.1,242.9,403.1,242.9z"/>
	<path class="st3" d="M354.3,266.9c0.2,0,0.3-0.2,0.2-0.3c0-0.1-0.1-0.2-0.2-0.2c-0.2,0-0.3,0.2-0.2,0.3
		C354.1,266.8,354.2,266.9,354.3,266.9z"/>
	<path class="st3" d="M384.5,290.3c0.2,0,0.3-0.1,0.3-0.3c0-0.2-0.1-0.3-0.3-0.3C384.2,289.8,384.2,290.3,384.5,290.3z"/>
	<path class="st3" d="M363,235.9c0.2,0,0.3-0.2,0.2-0.3c0-0.1-0.1-0.2-0.2-0.2c-0.2,0-0.3,0.1-0.3,0.2c0,0.2,0.1,0.3,0.2,0.3
		C362.9,236,363,236,363,235.9z"/>
	<path class="st3" d="M356.8,296.1c0.2,0,0.3-0.2,0.2-0.3c0-0.1-0.1-0.2-0.2-0.2c-0.2,0-0.3,0.1-0.3,0.2c0,0.2,0.1,0.3,0.2,0.3
		C356.8,296.1,356.8,296.1,356.8,296.1z"/>
</g>
<g class="st1">
	<path class="st2" d="M220.9,2.6c-9,0.2-41.7,1.1-71.7,22.8C120.3,46.2,104,79,100.1,87.3c-4.2,9-8.3,18.7-18,31
		c-8.1,10-17.6,18.7-28.4,25.7c-5.1,2.2-7.6,4.1-7.5,5.7c0.3,2.9,9,4.9,26.1,6.1c-6.5,4.3-13.5,7.8-20.8,10.4
		c-13.7,4.8-23.3,4.6-23.6,7.2c-0.2,1.8,3.7,4.8,23.7,10.2l-13.5,8.1C30.4,196,24.8,199,21,201c-2.7,1.4-4.3,2.3-4.2,3.3
		c0.2,2.4,10.5,3.6,19.4,4.2L2.4,223.9c8.8,4.1,17.9,7.7,27.1,10.7c8.2,2.7,15.9,4.7,23,6.3c-2.1,6-2.8,12.4-2,18.7
		c0.8,5.1,2.3,10.1,4.7,14.7c2,3.9,3.9,6.2,6.8,12.3c0,0,1.4,3,2.7,6.4c5.6,15,1.9,36.6,9.3,41.9c3.2,2.3,9.8,2.6,25-7.1
		c0.4,3.6,1.1,8.6,2.2,14.5c2.2,12.5,5.1,24.8,8.9,36.9c7,21.8,15.8,37,26.4,55.6c6.9,11.9,11.9,20.8,20.6,32
		c9,11.7,19.1,22.5,30.2,32.2c11.4,9.8,37,31.1,76.2,39.6c23.7,4.9,48.2,4.6,71.8-0.9c56.7-13.1,89.9-51.8,105.4-69.9
		c12.9-15.1,25.4-34,32.5-49.1c1.4-3,4.5-10.5,10.8-25.5c3.9-9.3,4.9-11.8,5.9-15.8c1.2-4.7,1.6-9.2,2.9-23.6
		c0.7-8.2,1.1-15.9,1.3-23.2c4.1,2.1,16.7,8.3,22.1,3.5c2-1.7,2.1-4.1,3-12.5c1.4-12.2,2-18.3,2.7-21.3c1.3-5.4,4.1-11.2,9.8-22.9
		c3.4-7,5-9.5,6-14.3c1-5.1,1-10.4,0-15.5c4.7-0.3,9.4-0.9,14-1.8c5.4-1.1,6.5-1.7,6.8-2.6s0.5-4.1-11.3-12.3
		c4.8,0,9.6-0.5,14.3-1.3c8.8-1.7,16-3.1,17.8-6.7c4.3-8.7-23.1-29.8-26.5-32.4c8.5-2,16.5-5.8,23.5-11c7.1-5.3,18-15.9,15.6-20.5
		c-1.7-3.2-8-0.1-23.5-1.5c-5.3-0.5-12.9-2.2-28-5.5c-6.9-1.5-12.6-2.9-16.6-3.9c24.7,2.8,30.4,0.9,31.1-1.4
		c1.4-4.7-18.5-11.4-49.3-35.1c-10.5-8-20.5-16.7-29.7-26.2c-11.1-11.6-9.5-12.3-20.8-24c-10.8-11.2-22.7-21.3-35.4-30.2
		c-6.1-4.5-12.4-8.5-19-12.2c-9.3-4.9-19.1-8.8-29.1-11.7c-10.3-3-25.7-7.4-45.4-6c-2.4,0.1-4.8,0.4-7.2,0.8
		c-15.7,2.5-27.1,10.4-33.9,16.1C265.4,7.6,243.3,2.2,220.9,2.6z"/>
</g>
<g class="st4">
	<path class="st3" d="M486.2,223.4C495,210,503,209.1,505.7,209c15.7-0.4,31.9,25.3,31.4,47.6c-0.4,20-13.9,22.6-18,52.1
		c-2,14.2-0.1,22.7-5.6,26.2c-7.2,4.6-20.6-3.6-30.6-11.1c1.7-14.6,2.9-30.4,3.5-47.1C487.2,258.9,487.2,241.1,486.2,223.4z"/>
	<path class="st3" d="M100,223.4C91.2,210,83.2,209.1,80.5,209c-15.7-0.4-31.9,25.2-31.4,47.6c0.4,20,13.9,22.6,18,52.1
		c2,14.2,0.1,22.7,5.6,26.2c7.2,4.6,20.6-3.6,30.6-11.1c-1.7-14.6-2.9-30.4-3.5-47.1C98.9,257.6,99.2,239.7,100,223.4z"/>
	<path class="st3" d="M108.5,151.4c-11.4,22-11.8,50.9-12.7,108.7c-0.6,39.7-0.9,73.9,12.7,116c15.3,47.5,39.5,78.5,47,87.6
		c19.2,23.5,50.4,61.7,104.7,74.4c6.8,1.6,36.5,8,73.4-0.3c58.4-13.1,92.1-53.4,107.7-72.2c19.8-23.6,34.8-50.9,44.1-80.3
		c6.1-19.8,10-42.7,5.8-121.4c-3.9-72.7-5.6-109.1-12.1-120.4C423.8,46.4,159.9,52,108.5,151.4z"/>
	<path class="st3" d="M97.1,206.2c-4.8,6.9-3.8,31.1-1.6,79.1c1.1,24.9,1.7,37.3,2.8,45.8c6.9,56.2,33.3,98.7,42.3,112.2
		c18.5,27.8,49,73.6,107.5,91.4c37.6,11.4,70.9,6.4,88.9,2.3c-11.5-134.4-25.7-169.7-38.1-170.4c-6-0.4-12.7,7.2-26.1,5.3
		c-8.7-1.3-19.3-6.7-23.8-16.6c-1.2-2.5-3-6.5-2.1-11.2c1.3-7.5,7.9-9.8,16.9-19.7c3.7-4.4,7.1-9,10.2-13.8
		c11.3-16.9,9.2-47.2,5.1-60.6C261.6,192.6,123.6,168.1,97.1,206.2z"/>
	<path class="st3" d="M280.6,249.8c4.4,46.6-6,65.8-16.9,74.6c-5.5,4.4-15.5,9.7-16.9,19.7c-1.5,11.3,9.1,20.5,9.8,21.1
		c10.4,8.7,27,9.2,42.2,1.4"/>
	<path class="st3" d="M489.7,208.6c-130.3,0.5-260.6,1-390.8,1.4c-0.4-8.6,0.2-17.2,1.7-25.6c2.4-11.4,6.3-22.4,11.6-32.8
		c28.3-54.9,80.6-80.5,80.6-80.5c36.9-18,69.3-17.2,100.7-16.5c19.6,0.5,68.8,2.2,117.6,29.6c9.6,5.4,31.4,17.9,51.4,40.5
		s23.4,38.4,24.1,42.7c0.5,2.9,1.3,9.2,2,16C489.5,193.9,489.7,202.5,489.7,208.6z"/>
	<path class="st3" d="M318.3,66.8c0,0-3.7-22-23.5-40c-1.2-1.1-2-1.9-2.5-2.2c-14.5-13-29.1-16.4-42.6-19.3
		C221.4-0.6,192,2.8,165.8,15c-10.8,5.2-20.9,11.8-29.9,19.8c-41.1,36-34.1,73.8-77.7,105.3c-9.6,7-13.6,7.4-13.2,9.6
		c2.8,17.6,257.6-1.6,272.3-56.4C320.8,80,318.3,66.8,318.3,66.8z"/>
	<path class="st3" d="M308.9,90.2c-9.1,23.5-36.3,85.1-97.8,124.4c-97.7,62.4-198.2,15-210.9,8.8C103,179,205.9,134.6,308.9,90.2z"
		/>
	<path class="st3" d="M314.1,87.5c-0.5-2.2-1.1-1.4-25.1-30.2c-6.5-7.9-10.3-12.4-16.5-17.7c-6.5-5.4-13.9-9.3-21.3-12.7
		c-26-11.7-39-17.4-52.9-17.4c-24.7,0.1-43,13.6-53.4,21.3c-11.7,8.6-21.6,19.3-29.4,31.5c-14.3,23-10.4,35.3-28.4,70.3
		c-5.5,10.7-8.4,16.2-13.4,20.8c-19,17.6-46.8,14.3-47.2,20.2c-0.2,3.4,8.9,6.6,13.7,8.1C104.9,199.1,315.9,96.7,314.1,87.5z"/>
	<path class="st3" d="M316.7,89.1c-3-30-61.8-43.2-66.1-44.2C200.8,34.4,162,64.8,154,71.2c-2.2,1.8-15.4,18.7-41.5,52.2
		c-16.2,20.6-28,36.1-46.6,49.6c-11.2,8-19.2,12.9-19.2,12.9c-20,12.3-30.4,15.4-29.9,18.4c0.7,4.6,26.6,4.5,41.7,3.6
		C151.7,201.9,320.9,132.4,316.7,89.1z"/>
	<path class="st3" d="M315.7,90.2c-13-8.9-27.7-15.1-43.1-18.1c-9.4-1.7-19-2.3-28.5-1.5c-9.8,0.5-19.8,1.3-29,5.4
		c-10.2,4.4-18.7,12.6-26.4,21.6c-15.4,18.1-13.5,26.4-33.1,60.5c-13.7,23.9-20.6,30.3-28,34.6c-7.2,4-14.3,5.6-25.9,6.3
		c-14.7,0.8-37.1,0.3-65.4-7.4c18.6,14.5,52.7,36,96.8,37C206.1,230.3,276.5,176,315.7,90.2z"/>
	<path class="st3" d="M268.3,109.4c6.7,22.5,18,43.4,33.3,61.3c21.6,25.1,44.4,35.6,78.7,50.9c0,0,79.5,35.6,171.3,24.1
		c2.1-0.2,5.1-0.7,5.8-2.4C562,229.3,411.5,166.2,268.3,109.4z"/>
	<path class="st3" d="M262.6,98.9c-5.4-13.3-4.2-27.2-4-29.5c2.4-25.5,20.4-48,41-59c34.7-18.9,72.8-3.1,90.3,4.2
		c25,10.3,41.9,26,59,41.7c21.6,20,18.1,22.8,37.3,40.2c35.1,32,70.2,44.3,67.9,50.4c-0.9,2.4-7.3,2-8.9,2
		C436.9,142.5,288.3,162.3,262.6,98.9z"/>
	<path class="st3" d="M262.6,98.9c3.8-5.3,22.1-30.4,55.4-35.6c30.7-4.9,54.6,9.9,62.2,15.4c12,8.9,21.9,20.9,32.5,31.7
		c16,16.4,33.8,30.3,51.5,44.2c13,10.1,26.1,20.4,40.5,27.5c13,6.3,26.9,11.8,43.6,9c25.1-4.2,45.2-26.3,42.4-31.6
		c-1-2-5.2-1.6-8-1.4c-21,1.2-41.4-7-62.1-10.4C502.9,144.9,444.5,134.2,262.6,98.9z"/>
	<path class="st3" d="M263.9,102.6c-0.1-0.6,18.6-12.3,40.6-9.5c2.9,0.3,24.1,5.8,41.8,23.3c13.4,13.2,17.9,26.6,24.5,35.8
		c8,11,46.7,64.5,105.3,77.7c21.4,4.9,38.6,3.7,59.8,1.9c26.8-2.2,40.3-3.3,42-8.9c7.3-22.6-116-91.1-191.5-119.2
		c-21.1-7.8-51.4-17.3-87.4-11.1C279.5,96,264.1,103.1,263.9,102.6z"/>
	<path class="st3" d="M260.1,98.8c-7.4-27.5,3.8-62.9,24.3-81.2C303.6,0.5,331.7-3.2,352.7,6c4.4,1.9,8.6,4.2,12.6,6.8
		c5.6,3.6,10.8,7.8,15.6,12.3c16.8,16.2,55.6,70.4,94.5,105.9c25.2,23.1,42,30.5,58.5,31.6c8.7,0.5,17.4-0.4,25.7-2.8
		c0-0.1-46,12.8-93.3,15.2C401.4,178.4,278,164.7,260.1,98.8z"/>
</g>
</svg>
