<svg id="Layer_1" data-name="Layer 1" xmlns="http://www.w3.org/2000/svg" viewBox="0 0 312.04 235.47"><defs><style>.cls-1{fill:#fafafa;}</style></defs><title>fence</title><path class="cls-1" d="M390.67,492.75H351.58V486c0-66.5.1-133-.17-199.51,0-5.92,1.63-10.94,7.93-15.44,4.5-3.22,8.22-6.86,13.15-11,8.38,9.18,18.86,16.16,18.67,27.9-1,65.94-.49,131.88-.49,197.82Z" transform="translate(-134.11 -257.28)"/><path class="cls-1" d="M209.4,257.37c6.22,6,11.73,11.07,16.82,16.32a6.86,6.86,0,0,1,1.7,4.79Q228,382.64,228,486.8a24.67,24.67,0,0,1-.44,3.11H188.85v-6.37c0-66.43.13-132.87-.22-199.3,0-6.54,1.8-12,8.77-16.91C201.52,264.45,204.9,261.14,209.4,257.37Z" transform="translate(-134.11 -257.28)"/><path class="cls-1" d="M263.36,257.61c11.63,9.32,19.09,18.09,18.89,30.3-1.07,65-.5,130-.5,195v7.06h-39v-7.12c0-66.5.09-133-.2-199.48,0-5.57,1.74-10.2,7.37-14.45C254.47,265.44,258.49,261.72,263.36,257.61Z" transform="translate(-134.11 -257.28)"/><path class="cls-1" d="M318.05,260.08c6.22,6,11.91,11.23,17.15,16.65a6.78,6.78,0,0,1,1.56,4.83q.12,103.68.05,207.38a35.27,35.27,0,0,1-.44,3.7h-38.2c-.13-1.64-.4-3.43-.4-5.23q0-102.55.15-205.12c0-2.77,1.67-5.84,4-8.21C306.41,269.49,311.93,265.3,318.05,260.08Z" transform="translate(-134.11 -257.28)"/><path class="cls-1" d="M155,257.28c5.87,5.64,11,10.24,15.51,15.05a8.77,8.77,0,0,1,2.48,5.78q.18,104.22.08,208.43a25,25,0,0,1-.51,3.48h-37.8a59.18,59.18,0,0,1-.57-5.93q0-102,.15-203.9c0-2.94,1.94-6.19,4.41-8.73C143.3,266.74,149,262.43,155,257.28Z" transform="translate(-134.11 -257.28)"/><path class="cls-1" d="M426.6,260.22c11,9.6,19.77,18.17,19.54,30.75-1.17,64.78-.54,129.58-.54,194.37v7.16H406.67v-6.29c0-66.67.09-133.33-.23-200,0-6.14,1.65-11.32,8.11-16C418.64,267.32,422.07,264,426.6,260.22Z" transform="translate(-134.11 -257.28)"/><rect class="cls-1" x="10.32" y="164.67" width="298.1" height="10.08"/><rect class="cls-1" x="10.32" y="86.34" width="298.1" height="10.08"/></svg>