<?xml version="1.0" encoding="utf-8"?>
<!-- Generator: Adobe Illustrator 23.0.1, SVG Export Plug-In . SVG Version: 6.00 Build 0)  -->
<svg version="1.1" id="Layer_1" xmlns="http://www.w3.org/2000/svg" xmlns:xlink="http://www.w3.org/1999/xlink" x="0px" y="0px"
	 viewBox="0 0 326.5 311.9" style="enable-background:new 0 0 326.5 311.9;" xml:space="preserve">
<style type="text/css">
	.st0{fill:#45279F;}
	.st1{fill:#9273CA;}
	.st2{fill:#EBE5F4;}
	.st3{fill:#EAE4F4;}
	.st4{fill:#E9E3F3;}
</style>
<title>galaxy-2</title>
<g>
	<path class="st0" d="M183.1,0c1.2,0,2.4,0,3.7,0c0.2,0.7,0.8,0.4,1.2,0.4c4.1,0.1,8.2,0.4,12.3,0.9c12.6,1.6,24.6,5.1,36.1,10.7
		c15,7.2,27.9,17.1,38,30.8c14.6,19.9,20,42.1,17,66.7c-1.3,10.4-4.2,20.4-8.1,30.1c-1,2.5-1.9,5-3.3,7.2c-0.1-0.5,0-1,0.2-1.5
		c3.1-13.2,4.3-26.5,3.1-40c-1.1-12.2-4.3-23.8-9.4-34.8c-5.1-11-11.8-20.8-19.8-29.7c-2.5-2.8-5.1-5.5-7.9-8
		c-0.1-0.1-0.2-0.1-0.3-0.2c-0.1-0.1-0.2-0.1-0.3-0.2c0,0-0.1,0-0.1-0.1c0,0,0.1,0,0.1,0.1c0.1,0.1,0.1,0.2,0.2,0.3
		c0.1,0.1,0.1,0.2,0.2,0.3c0.2,0.2,0.3,0.5,0.5,0.7c4.8,5.9,9.2,12.1,12.9,18.8C269,69.6,274.1,88,273.1,108
		c-0.5,9.5-2.1,18.8-5,27.9c-6.6,20.4-17.6,37.9-31.9,53.4c-4.3,4.6-8.9,8.9-13.5,13.2c-10,9.4-20.2,18.5-31.4,26.4
		c-10.4,7.4-21.4,13.9-33.7,17.5c-7.6,2.2-15.4,3.2-23.2,1.4c-8.4-1.9-15.3-6.5-21.3-12.5c-1.4-1.4-2.9-2.8-3.9-4.6c0.3,0,0.6,0,1,0
		c1.9,0,3.5-1.3,3.9-3.1c0.5-1.9-0.4-3.8-2.1-4.7c-1.7-0.9-3.6-0.5-4.9,0.9c-0.6,0.6-0.7,1.4-1.1,2.1c-2.5-5.9-2.4-11.9-0.8-18
		c1.4-5.1,3.5-10,6.1-14.6c1.4-2.6,3-5.1,4.4-7.6c0.3,0.3,0.5,0.5,0.8,0.8c3,3.1,7.7,3.3,11,0.6c4.4-3.7,4-11.2-1.8-14.1
		c0.1-0.4,0.3-0.7,0.6-0.9c5.1-5.9,10.4-11.6,16.1-17c2-1.9,3.9-3.9,6.1-5.5c0.2,0.3,0.5,0.7,0.7,1c3.1,4.3,8.6,6,13.6,4.3
		c4.9-1.7,8.3-6.5,8.3-11.8c0-3.7-1.4-6.8-4-9.4c4.4-5.5,6-11.8,4.4-18.7c-1.4-6-4.8-10.4-9.9-13.4c0.1-0.3,0.3-0.7,0.4-1
		c1.4-3.8,0-8-3.3-10.2c-3.3-2.1-7.6-1.5-10.3,1.5c-2,2.3-2.4,5-1.9,7.9c-3,0.6-5.5,2.2-7.8,4.1c-14.6,12.6-28,26.3-39.9,41.7
		c-8.5,11-16,22.5-21.5,35.4c-4.9,11.5-7.9,23.5-7.3,36.2c0.6,11.3,4,21.7,10.7,30.7c9.3,12.7,21.4,21.7,36,27.2
		c9.9,3.7,20.1,4.7,30.6,3.6c7-0.8,13.7-2.6,20.3-4.9c0.5,0.1,1,0,1.6-0.1c10.2-2.2,20-5.9,29.3-10.6c22.4-11.2,41.9-26.6,59.8-44.3
		c14.1-13.9,26.1-29.5,37-46.1c10.1-15.3,18.4-31.6,23.7-49.4c2.5-8.6,4.1-17.3,4.6-26.3c0.2-3.6,0.2-7.3,0.1-10.9
		c0.1,0.2,0.3,0.4,0.3,0.6c1,4.2,1.6,8.4,2,12.7c0,0.5-0.3,1.1,0.5,1.3c0,5.3,0,10.5,0,15.8c-0.6,0.1-0.4,0.7-0.5,1.1
		c-0.4,6-1.3,11.9-2.6,17.8c-3.2,14.8-8.2,28.9-14.7,42.4c-15.2,31.7-35.1,60-60.6,83.9c-12.5,11.7-25.8,22.1-40.6,30.5
		c-18,10.2-36.9,17.6-57.6,19.1c-0.3,0-0.8-0.1-0.8,0.5c-6,0-12,0-18.1,0c-0.1-0.7-0.7-0.5-1.1-0.5c-4.6-0.3-9.2-1-13.8-1.9
		c-11.4-2.3-22.2-6.3-32.5-11.8c-13.7-7.3-25.2-17.2-34.3-30c-13.4-19-18.5-40.2-15.9-63.5c1-9.3,3.3-18.2,6.5-26.9
		c1.6-4.3,3.2-8.6,5.4-12.7c0.1,0.7-0.2,1.4-0.4,2.1c-3.2,13.3-4.3,26.7-3.1,40.4c1.1,12.2,4.3,23.9,9.5,34.9
		c5,10.8,11.7,20.5,19.6,29.3c2.5,2.8,5.1,5.6,8,8.1c0.1,0.1,0.2,0.1,0.3,0.2c0.1,0.1,0.2,0.1,0.3,0.2c0,0,0.1,0,0.1,0.1
		c0,0-0.1,0-0.1-0.1c-0.1-0.1-0.1-0.2-0.2-0.3c-0.1-0.1-0.1-0.2-0.2-0.3c-0.2-0.2-0.3-0.5-0.5-0.7c-4.8-5.9-9.2-12.2-13-18.9
		C56.1,242.4,51,224,52,204c0.5-9.5,2.1-18.7,5-27.6c6.6-20.3,17.5-37.9,31.8-53.4c6.6-7.1,13.7-13.5,20.8-20
		c10.4-9.5,21.3-18.5,33.3-25.9c8.6-5.3,17.5-9.7,27.3-12.2c8.2-2.1,16.4-2.3,24.5,0.5c3.6,1.2,6.9,3.1,10.1,5.2
		c-0.1,0.4-0.3,0.8-0.4,1.2c-2.2,5.8,0.1,12.3,5.3,15.4c3.2,1.9,6.6,2,10.1,1c1.9,5.8,1.4,11.5-0.3,17.2c-3,9.8-8.2,18.5-14.3,26.5
		c-11.3,14.9-24.5,27.7-38.9,39.4c-2.5,2-5.2,3.7-7.4,6.1c-5.6,6-7.4,13.1-5,21c2.4,7.8,7.8,12.6,15.6,14.3c2.5,0.5,5,0.7,7.4-0.1
		c0.4,0.2,0.8,0.3,1.1,0.5c6.2,3,13.6,0.2,16.4-6.3c1-2.2,1.1-4.6,1.1-7c0.4-0.1,0.7-0.4,1-0.7c10.7-10.1,20.7-20.9,29.8-32.6
		c8.5-11,16.1-22.6,21.6-35.5c4.9-11.5,7.9-23.4,7.2-36.1c-0.6-11.3-4.1-21.5-10.5-30.6c-5.6-7.9-12.8-14.2-20.8-19.5
		c-15.2-10-31.7-13.7-49.6-10.9c-5.3,0.8-10.4,2.2-15.4,4c-0.4-0.4-0.8-0.1-1.1-0.1c-10.3,2.1-20.2,5.6-29.7,10.3
		c-21.8,10.7-40.8,25.4-58.4,42.3c-14.2,13.6-26,29.3-36.8,45.8c-9.6,14.7-17.6,30.2-23.2,46.9c-3.6,10.7-6.2,21.7-7.3,33
		c-0.3,3.3-0.5,6.5-0.8,10.1C0,217.4-0.2,209,0.2,200.5c0.6-12.9,3-25.4,6.7-37.8c5.4-18.2,13-35.4,22.5-51.7
		c8.5-14.7,17.9-28.7,29-41.4c12.3-14.1,25.8-26.9,40.8-37.9c14.9-10.9,30.9-19.6,48.3-25.4c11.1-3.7,22.5-5.6,34.1-5.9
		C182.1,0.4,182.7,0.7,183.1,0z"/>
	<path class="st1" d="M279.7,147.4c-1.9,6.2-3.7,12.4-6.1,18.4c-7.5,18.6-17.7,35.4-31.1,50.2c-8.5,9.4-17.4,18.5-26.9,26.9
		c-11.1,9.7-22.7,18.7-35.7,25.5c-3.8,2-7.8,3.8-11.8,5.3c-0.1,0.1-0.3,0.2-0.4,0.2c-6.6,2.2-13.4,4.1-20.3,4.9
		c-10.5,1.1-20.7,0.1-30.6-3.6c-14.5-5.4-26.6-14.5-36-27.2c-6.7-9-10.1-19.4-10.7-30.7c-0.7-12.7,2.3-24.7,7.3-36.2
		c5.5-12.9,13.1-24.4,21.5-35.4c11.8-15.4,25.3-29.1,39.9-41.7c2.3-2,4.9-3.5,7.8-4.1c0.9,2.4,2.3,4.3,4.6,5.3
		c3.3,1.4,7.6,0.9,10.4-3.6c5.1,3.1,8.6,7.5,9.9,13.4c1.6,7,0,13.2-4.4,18.7c-3.2-2.7-6.8-3.9-10.9-2.9c-8.3,2-12,11-7.8,18.8
		c-2.2,1.7-4.1,3.6-6.1,5.5c-5.6,5.4-11,11-16.1,17c-0.2,0.3-0.5,0.5-0.6,0.9c-5.3-2.4-10.5,1.2-11.4,6c-0.4,2.5,0.2,4.7,1.4,6.8
		c-1.5,2.5-3,5-4.4,7.6c-2.5,4.6-4.7,9.4-6.1,14.6c-1.7,6.1-1.7,12.1,0.8,18c0,2.4,0.9,4,3.1,4.8c1,1.8,2.5,3.2,3.9,4.6
		c6.1,6,13,10.6,21.3,12.5c7.9,1.8,15.6,0.9,23.2-1.4c12.3-3.6,23.2-10.1,33.7-17.5c11.2-7.9,21.4-17,31.4-26.4
		c4.6-4.3,9.2-8.6,13.5-13.2c14.3-15.5,25.3-33,31.9-53.4c2.9-9,4.6-18.3,5-27.9c1-20-4.1-38.4-13.8-55.6
		c-3.8-6.7-8.1-12.9-12.9-18.8c-0.2-0.2-0.3-0.5-0.5-0.7c0,0,0.1-0.1,0.1-0.1c2.8,2.4,5.4,5.2,7.9,8c8,8.9,14.7,18.7,19.8,29.7
		c5.1,11,8.3,22.6,9.4,34.8c1.2,13.5,0.1,26.9-3.1,40c-0.1,0.5-0.3,1-0.2,1.5c0,0,0,0,0,0C279.7,146.9,279.6,147.1,279.7,147.4z"/>
	<path class="st1" d="M45.5,164.5c2-6.1,3.7-12.2,6.1-18.2c5.6-14.2,13-27.3,22.1-39.4c8.5-11.3,18.4-21.3,28.6-31
		c9.4-8.9,19.2-17.2,29.9-24.4c8-5.4,16.3-9.9,25.3-13.3c0.4-0.2,0.8-0.3,1.3-0.4c5-1.8,10.2-3.2,15.4-4
		c17.9-2.9,34.4,0.8,49.6,10.9c8,5.3,15.1,11.6,20.8,19.5c6.5,9.1,9.9,19.3,10.5,30.6c0.7,12.7-2.3,24.6-7.2,36.1
		c-5.5,12.9-13.1,24.5-21.6,35.5c-9,11.7-19,22.5-29.8,32.6c-0.3,0.3-0.5,0.6-1,0.7c-0.1-0.2-0.2-0.4-0.3-0.5
		c-1.4-6.3-6.3-10.2-12.6-10c-7.9,0.2-13.6,8.8-10.9,16.5c1,2.9,2.9,5.1,5.2,6.9c-2.5,0.9-5,0.7-7.4,0.1
		c-7.8-1.7-13.2-6.4-15.6-14.3c-2.4-7.9-0.6-15.1,5-21c2.2-2.4,5-4.1,7.4-6.1c14.4-11.7,27.6-24.5,38.9-39.4
		c6.1-8.1,11.2-16.7,14.3-26.5c1.7-5.7,2.3-11.4,0.3-17.2c5.5-2.5,8.4-6.7,8.1-13c-0.3-5.7-5.4-11-11-11.3c-5.4-0.3-9.4,2-12.1,6.8
		c-3.2-2-6.5-3.9-10.1-5.2c-8.1-2.8-16.3-2.6-24.5-0.5c-9.8,2.5-18.7,6.9-27.3,12.2c-12,7.5-22.9,16.4-33.3,25.9
		c-7.1,6.5-14.3,12.9-20.8,20c-14.3,15.4-25.2,33-31.8,53.4c-2.9,9-4.5,18.2-5,27.6c-1,20,4.1,38.4,13.7,55.6
		c3.8,6.7,8.1,13,13,18.9c0.2,0.2,0.3,0.5,0.5,0.7c0,0-0.1,0.1-0.1,0.1c-2.9-2.5-5.4-5.3-8-8.1c-7.9-8.8-14.6-18.5-19.6-29.3
		c-5.1-11.1-8.3-22.7-9.5-34.9c-1.3-13.7-0.1-27.1,3.1-40.4C45.3,165.9,45.6,165.2,45.5,164.5z M97.5,110c0-2.3-1.8-4.1-4-4.1
		c-2.3,0-4.1,1.9-4.1,4.2c0,2.3,1.8,4.1,4.1,4.1C95.8,114.2,97.5,112.4,97.5,110z"/>
	<path class="st2" d="M148.5,149.7c-4.2-7.8-0.5-16.9,7.8-18.8c4.1-1,7.7,0.2,10.9,2.9c2.5,2.6,4,5.7,4,9.4c0,5.3-3.3,10.1-8.3,11.8
		c-5,1.7-10.5,0-13.6-4.3C149,150.4,148.7,150,148.5,149.7z"/>
	<path class="st2" d="M177,212.5c-2.3-1.8-4.2-3.9-5.2-6.9c-2.7-7.7,3-16.3,10.9-16.5c6.3-0.2,11.2,3.7,12.6,10
		c0,0.2,0.2,0.4,0.3,0.5c0,2.4-0.1,4.8-1.1,7c-2.8,6.4-10.1,9.2-16.4,6.3C177.7,212.8,177.3,212.7,177,212.5z"/>
	<path class="st2" d="M204.9,70.5c2.7-4.8,6.7-7.1,12.1-6.8c5.6,0.3,10.7,5.6,11,11.3c0.3,6.3-2.5,10.6-8.1,13
		c-3.5,1-6.9,0.9-10.1-1c-5.2-3.1-7.5-9.6-5.3-15.4C204.6,71.3,204.7,70.9,204.9,70.5z"/>
	<path class="st3" d="M161.6,101.6c-2.8,4.4-7.1,5-10.4,3.6c-2.3-1-3.7-3-4.6-5.3c-0.5-2.9-0.1-5.7,1.9-7.9c2.7-3,7-3.6,10.3-1.5
		c3.3,2.1,4.7,6.4,3.3,10.2C161.9,100.9,161.7,101.3,161.6,101.6z"/>
	<path class="st3" d="M115.7,185.8c-1.2-2.1-1.8-4.3-1.4-6.8c0.9-4.8,6.1-8.3,11.4-6c5.7,2.9,6.1,10.4,1.8,14.1
		c-3.3,2.7-7.9,2.5-11-0.6C116.3,186.4,116,186.1,115.7,185.8z"/>
	<path class="st4" d="M109.1,230.8c-2.2-0.8-3.2-2.5-3.1-4.8c0.4-0.7,0.5-1.5,1.1-2.1c1.3-1.4,3.2-1.8,4.9-0.9
		c1.7,0.9,2.5,2.8,2.1,4.7c-0.5,1.8-2,3.1-3.9,3.1C109.8,230.9,109.5,230.8,109.1,230.8z"/>
	<path class="st1" d="M245.5,32.4C245.5,32.3,245.5,32.3,245.5,32.4C245.5,32.3,245.5,32.3,245.5,32.4L245.5,32.4z"/>
	<path class="st1" d="M245.5,32.4c0.1,0.1,0.2,0.1,0.3,0.2c0,0-0.1,0.1-0.1,0.1C245.6,32.5,245.6,32.5,245.5,32.4
		C245.5,32.4,245.5,32.4,245.5,32.4z"/>
	<path class="st1" d="M245.9,32.9c-0.1-0.1-0.1-0.2-0.2-0.3c0,0,0.1-0.1,0.1-0.1c0.1,0.1,0.2,0.1,0.3,0.2
		C246,32.8,246,32.9,245.9,32.9z"/>
	<path class="st1" d="M79.3,279.5c-0.1-0.1-0.2-0.1-0.3-0.2c0,0,0.1-0.1,0.1-0.1C79.3,279.3,79.3,279.4,79.3,279.5
		C79.4,279.5,79.3,279.5,79.3,279.5z"/>
	<path class="st1" d="M79.4,279.5c0.1,0.1,0.1,0.2,0.2,0.3l0,0C79.5,279.7,79.4,279.6,79.4,279.5C79.3,279.5,79.4,279.5,79.4,279.5z
		"/>
	<path class="st1" d="M79.6,279.7C79.6,279.8,79.7,279.8,79.6,279.7C79.7,279.8,79.6,279.8,79.6,279.7
		C79.6,279.7,79.6,279.7,79.6,279.7z"/>
	<path class="st0" d="M279.7,147.4c0-0.2,0-0.5,0.2-0.6C279.9,147,279.9,147.2,279.7,147.4z"/>
	<path class="st3" d="M97.5,110c0,2.4-1.7,4.2-4,4.2c-2.3,0-4-1.8-4.1-4.1c0-2.4,1.8-4.2,4.1-4.2C95.7,105.9,97.5,107.7,97.5,110z"
		/>
</g>
</svg>
