<svg id="Layer_1" data-name="Layer 1" xmlns="http://www.w3.org/2000/svg" viewBox="0 0 401.39 360.65"><defs><style>.cls-1{fill:#fcee23;}.cls-2{fill:#c1c8d0;opacity:0.51;}.cls-2,.cls-3{isolation:isolate;}.cls-3{fill:#fff;opacity:0.82;}</style></defs><title>galaxy</title><path class="cls-1" d="M424.9,257.6a.5.5,0,1,0-.5-.5A.47.47,0,0,0,424.9,257.6Z" transform="translate(-40.01 -0.01)"/><path class="cls-1" d="M425.2,198.3a.5.5,0,1,0-.5-.5A.47.47,0,0,0,425.2,198.3Z" transform="translate(-40.01 -0.01)"/><path class="cls-2" d="M366.6.2c2-.7,2.8.7,3.7,1.5C397.8,27.4,418,58,428.9,94.3c23.1,76.8-.7,154.9-60,204.5-25.7,21.5-55.3,34.4-88.6,37.9-34.9,3.6-68.1-2.3-98.4-20.8-34.2-20.9-54.8-51.6-61.8-91.3-3.7-20.9-3-41.5,4.5-61.5,10.9-29.1,29.5-51.2,58.8-62.9,14.5-5.8,29.6-7,44.9-5.1,16.5,2,31.5,7.5,44.1,18.8,14,12.5,21.1,28.5,22.8,47.1.1,1,0,2,.2,3,.3,1.3-.6,3.3.9,3.9s3.2-.6,4.5-1.6c3.8-3.1,5.6-7.4,6.9-11.9,4.6-16.1,1.5-31.2-6.8-45.2-13-21.9-32.3-36.1-55.9-44.1-39.3-13.4-76-5.8-109.9,16.4C95,107.8,71.8,145.8,63.8,193.2c-6.8,40,.1,78.2,16.2,115a251.87,251.87,0,0,0,29.1,49.6c.5.7,1.9,1.6,1,2.5-1.1,1.1-1.9-.6-2.6-1.3-31-29-53.1-63.6-62.1-105.4C29,177.3,50,112.9,108.4,61.8c25.3-22.1,55.4-34.7,88.8-38.1,34.8-3.6,67.9,2.4,98.1,20.6C327.4,63.7,347.7,92.1,356,129c5.2,23,5.3,46-3.1,68.4-10.9,29.1-29.5,51.2-58.8,62.9-15.5,6.2-31.8,7.1-48.2,4.6-15.1-2.3-29-7.8-40.6-18.1-14.2-12.7-21.4-28.8-23-47.7-.1-1.3-.1-2.7-.3-4-.2-3-1-3.4-3.7-1.9-5,2.8-7.1,7.8-8.5,13-4.6,16.2-1.5,31.4,7.1,45.4,15.5,25.5,38.8,40.4,67.2,47.2,32.7,7.8,63.5,1.3,92-15.7,43.7-26.1,69-65.3,77.7-115.4,6.9-40.1,0-78.4-16.1-115.3A269.64,269.64,0,0,0,366.6.2Z" transform="translate(-40.01 -0.01)"/><circle class="cls-3" cx="198.69" cy="180.19" r="34.9"/><path class="cls-1" d="M81.9,294.6a.5.5,0,1,0-.5-.5A.47.47,0,0,0,81.9,294.6Z" transform="translate(-40.01 -0.01)"/><path class="cls-1" d="M151.9,317.6a.5.5,0,1,0-.5-.5A.47.47,0,0,0,151.9,317.6Z" transform="translate(-40.01 -0.01)"/><path class="cls-1" d="M183.9,81.6a.5.5,0,1,0-.5-.5A.47.47,0,0,0,183.9,81.6Z" transform="translate(-40.01 -0.01)"/><path class="cls-1" d="M93.9,151.6a.5.5,0,1,0-.5-.5A.47.47,0,0,0,93.9,151.6Z" transform="translate(-40.01 -0.01)"/><path class="cls-1" d="M192.9,243.6a.5.5,0,1,0-.5-.5A.47.47,0,0,0,192.9,243.6Z" transform="translate(-40.01 -0.01)"/><path class="cls-1" d="M130.65,114.6a.25.25,0,1,0-.25-.25A.24.24,0,0,0,130.65,114.6Z" transform="translate(-40.01 -0.01)"/><path class="cls-1" d="M128.65,147.6a.25.25,0,1,0-.25-.25A.24.24,0,0,0,128.65,147.6Z" transform="translate(-40.01 -0.01)"/><path class="cls-1" d="M107.65,113.6a.25.25,0,1,0-.25-.25A.24.24,0,0,0,107.65,113.6Z" transform="translate(-40.01 -0.01)"/><path class="cls-1" d="M221.65,89.6a.25.25,0,1,0-.25-.25A.24.24,0,0,0,221.65,89.6Z" transform="translate(-40.01 -0.01)"/><path class="cls-1" d="M218.65,67.6a.25.25,0,1,0-.25-.25A.24.24,0,0,0,218.65,67.6Z" transform="translate(-40.01 -0.01)"/><path class="cls-1" d="M268.65,94.6a.25.25,0,1,0-.25-.25A.24.24,0,0,0,268.65,94.6Z" transform="translate(-40.01 -0.01)"/><path class="cls-1" d="M295.65,116.6a.25.25,0,1,0-.25-.25A.24.24,0,0,0,295.65,116.6Z" transform="translate(-40.01 -0.01)"/><path class="cls-1" d="M288.65,127.6a.25.25,0,1,0-.25-.25A.24.24,0,0,0,288.65,127.6Z" transform="translate(-40.01 -0.01)"/><path class="cls-1" d="M179.65,212.6a.25.25,0,1,0-.25-.25A.24.24,0,0,0,179.65,212.6Z" transform="translate(-40.01 -0.01)"/><path class="cls-1" d="M115.65,180.6a.25.25,0,1,0-.25-.25A.24.24,0,0,0,115.65,180.6Z" transform="translate(-40.01 -0.01)"/><path class="cls-1" d="M85.65,187.6a.25.25,0,1,0-.25-.25A.24.24,0,0,0,85.65,187.6Z" transform="translate(-40.01 -0.01)"/><path class="cls-1" d="M93.65,207.6a.25.25,0,1,0-.25-.25A.24.24,0,0,0,93.65,207.6Z" transform="translate(-40.01 -0.01)"/><path class="cls-1" d="M110.65,214.6a.25.25,0,1,0-.25-.25A.24.24,0,0,0,110.65,214.6Z" transform="translate(-40.01 -0.01)"/><path class="cls-1" d="M74.65,227.6a.25.25,0,1,0-.25-.25A.24.24,0,0,0,74.65,227.6Z" transform="translate(-40.01 -0.01)"/><path class="cls-1" d="M73.65,245.6a.25.25,0,1,0-.25-.25A.24.24,0,0,0,73.65,245.6Z" transform="translate(-40.01 -0.01)"/><path class="cls-1" d="M107.65,252.6a.25.25,0,1,0-.25-.25A.24.24,0,0,0,107.65,252.6Z" transform="translate(-40.01 -0.01)"/><path class="cls-1" d="M108.65,229.6a.25.25,0,1,0-.25-.25A.24.24,0,0,0,108.65,229.6Z" transform="translate(-40.01 -0.01)"/><path class="cls-1" d="M91.65,230.6a.25.25,0,1,0-.25-.25A.24.24,0,0,0,91.65,230.6Z" transform="translate(-40.01 -0.01)"/><path class="cls-1" d="M127.65,276.6a.25.25,0,1,0-.25-.25A.24.24,0,0,0,127.65,276.6Z" transform="translate(-40.01 -0.01)"/><path class="cls-1" d="M111.65,268.6a.25.25,0,1,0-.25-.25A.24.24,0,0,0,111.65,268.6Z" transform="translate(-40.01 -0.01)"/><path class="cls-1" d="M79.65,262.6a.25.25,0,1,0-.25-.25A.24.24,0,0,0,79.65,262.6Z" transform="translate(-40.01 -0.01)"/><path class="cls-1" d="M115.65,142.6a.25.25,0,1,0-.25-.25A.24.24,0,0,0,115.65,142.6Z" transform="translate(-40.01 -0.01)"/><path class="cls-1" d="M135.65,103.6a.25.25,0,1,0-.25-.25A.24.24,0,0,0,135.65,103.6Z" transform="translate(-40.01 -0.01)"/><path class="cls-1" d="M155.65,92.6a.25.25,0,1,0-.25-.25A.24.24,0,0,0,155.65,92.6Z" transform="translate(-40.01 -0.01)"/><path class="cls-1" d="M188.65,89.6a.25.25,0,1,0-.25-.25A.24.24,0,0,0,188.65,89.6Z" transform="translate(-40.01 -0.01)"/><path class="cls-1" d="M215.65,255.6a.25.25,0,1,0-.25-.25A.24.24,0,0,0,215.65,255.6Z" transform="translate(-40.01 -0.01)"/><path class="cls-1" d="M200.65,261.6a.25.25,0,1,0-.25-.25A.24.24,0,0,0,200.65,261.6Z" transform="translate(-40.01 -0.01)"/><path class="cls-1" d="M204.65,273.6a.25.25,0,1,0-.25-.25A.24.24,0,0,0,204.65,273.6Z" transform="translate(-40.01 -0.01)"/><path class="cls-1" d="M222.65,274.6a.25.25,0,1,0-.25-.25A.24.24,0,0,0,222.65,274.6Z" transform="translate(-40.01 -0.01)"/><path class="cls-1" d="M224.65,269.6a.25.25,0,1,0-.25-.25A.24.24,0,0,0,224.65,269.6Z" transform="translate(-40.01 -0.01)"/><path class="cls-1" d="M243.65,279.6a.25.25,0,1,0-.25-.25A.24.24,0,0,0,243.65,279.6Z" transform="translate(-40.01 -0.01)"/><path class="cls-1" d="M228.65,288.6a.25.25,0,1,0-.25-.25A.24.24,0,0,0,228.65,288.6Z" transform="translate(-40.01 -0.01)"/><path class="cls-1" d="M261.65,268.6a.25.25,0,1,0-.25-.25A.24.24,0,0,0,261.65,268.6Z" transform="translate(-40.01 -0.01)"/><path class="cls-1" d="M254.65,283.6a.25.25,0,1,0-.25-.25A.24.24,0,0,0,254.65,283.6Z" transform="translate(-40.01 -0.01)"/><path class="cls-1" d="M262.65,293.6a.25.25,0,1,0-.25-.25A.24.24,0,0,0,262.65,293.6Z" transform="translate(-40.01 -0.01)"/><path class="cls-1" d="M276.65,281.6a.25.25,0,1,0-.25-.25A.24.24,0,0,0,276.65,281.6Z" transform="translate(-40.01 -0.01)"/><path class="cls-1" d="M279.65,271.6a.25.25,0,1,0-.25-.25A.24.24,0,0,0,279.65,271.6Z" transform="translate(-40.01 -0.01)"/><path class="cls-1" d="M283.65,282.6a.25.25,0,1,0-.25-.25A.24.24,0,0,0,283.65,282.6Z" transform="translate(-40.01 -0.01)"/><path class="cls-1" d="M278.65,290.6a.25.25,0,1,0-.25-.25A.24.24,0,0,0,278.65,290.6Z" transform="translate(-40.01 -0.01)"/><path class="cls-1" d="M301.65,273.6a.25.25,0,1,0-.25-.25A.24.24,0,0,0,301.65,273.6Z" transform="translate(-40.01 -0.01)"/><path class="cls-1" d="M293.65,267.6a.25.25,0,1,0-.25-.25A.24.24,0,0,0,293.65,267.6Z" transform="translate(-40.01 -0.01)"/><path class="cls-1" d="M297.65,289.6a.25.25,0,1,0-.25-.25A.24.24,0,0,0,297.65,289.6Z" transform="translate(-40.01 -0.01)"/><path class="cls-1" d="M309.65,291.6a.25.25,0,1,0-.25-.25A.24.24,0,0,0,309.65,291.6Z" transform="translate(-40.01 -0.01)"/><path class="cls-1" d="M316.65,267.6a.25.25,0,1,0-.25-.25A.24.24,0,0,0,316.65,267.6Z" transform="translate(-40.01 -0.01)"/><path class="cls-1" d="M312.65,260.6a.25.25,0,1,0-.25-.25A.24.24,0,0,0,312.65,260.6Z" transform="translate(-40.01 -0.01)"/><path class="cls-1" d="M343.65,243.6a.25.25,0,1,0-.25-.25A.24.24,0,0,0,343.65,243.6Z" transform="translate(-40.01 -0.01)"/><path class="cls-1" d="M345.65,263.6a.25.25,0,1,0-.25-.25A.24.24,0,0,0,345.65,263.6Z" transform="translate(-40.01 -0.01)"/><path class="cls-1" d="M106.9,196.6a.5.5,0,1,0-.5-.5A.47.47,0,0,0,106.9,196.6Z" transform="translate(-40.01 -0.01)"/><path class="cls-1" d="M82.9,250.6a.5.5,0,1,0-.5-.5A.47.47,0,0,0,82.9,250.6Z" transform="translate(-40.01 -0.01)"/><path class="cls-1" d="M120.9,271.6a.5.5,0,1,0-.5-.5A.47.47,0,0,0,120.9,271.6Z" transform="translate(-40.01 -0.01)"/><path class="cls-1" d="M243.9,285.6a.5.5,0,1,0-.5-.5A.47.47,0,0,0,243.9,285.6Z" transform="translate(-40.01 -0.01)"/><path class="cls-1" d="M311.9,267.6a.5.5,0,1,0-.5-.5A.47.47,0,0,0,311.9,267.6Z" transform="translate(-40.01 -0.01)"/><path class="cls-1" d="M349.9,255.6a.5.5,0,1,0-.5-.5A.47.47,0,0,0,349.9,255.6Z" transform="translate(-40.01 -0.01)"/><path class="cls-1" d="M353.9,221.6a.5.5,0,1,0-.5-.5A.47.47,0,0,0,353.9,221.6Z" transform="translate(-40.01 -0.01)"/><path class="cls-1" d="M385.65,206.6a.25.25,0,1,0-.25-.25A.24.24,0,0,0,385.65,206.6Z" transform="translate(-40.01 -0.01)"/><path class="cls-1" d="M373.65,194.6a.25.25,0,1,0-.25-.25A.24.24,0,0,0,373.65,194.6Z" transform="translate(-40.01 -0.01)"/><path class="cls-1" d="M382.65,175.6a.25.25,0,1,0-.25-.25A.24.24,0,0,0,382.65,175.6Z" transform="translate(-40.01 -0.01)"/><path class="cls-1" d="M381.65,168.6a.25.25,0,1,0-.25-.25A.24.24,0,0,0,381.65,168.6Z" transform="translate(-40.01 -0.01)"/><path class="cls-1" d="M397.65,167.6a.25.25,0,1,0-.25-.25A.24.24,0,0,0,397.65,167.6Z" transform="translate(-40.01 -0.01)"/><path class="cls-1" d="M397.65,158.6a.25.25,0,1,0-.25-.25A.24.24,0,0,0,397.65,158.6Z" transform="translate(-40.01 -0.01)"/><path class="cls-1" d="M375.65,155.6a.25.25,0,1,0-.25-.25A.24.24,0,0,0,375.65,155.6Z" transform="translate(-40.01 -0.01)"/><path class="cls-1" d="M381.65,145.6a.25.25,0,1,0-.25-.25A.24.24,0,0,0,381.65,145.6Z" transform="translate(-40.01 -0.01)"/><path class="cls-1" d="M377.65,118.6a.25.25,0,1,0-.25-.25A.24.24,0,0,0,377.65,118.6Z" transform="translate(-40.01 -0.01)"/><path class="cls-1" d="M391.65,110.6a.25.25,0,1,0-.25-.25A.24.24,0,0,0,391.65,110.6Z" transform="translate(-40.01 -0.01)"/><path class="cls-1" d="M365.65,87.6a.25.25,0,1,0-.25-.25A.24.24,0,0,0,365.65,87.6Z" transform="translate(-40.01 -0.01)"/><path class="cls-1" d="M379.65,78.6a.25.25,0,1,0-.25-.25A.24.24,0,0,0,379.65,78.6Z" transform="translate(-40.01 -0.01)"/><path class="cls-1" d="M365.65,72.6a.25.25,0,1,0-.25-.25A.24.24,0,0,0,365.65,72.6Z" transform="translate(-40.01 -0.01)"/><path class="cls-1" d="M373.65,56.6a.25.25,0,1,0-.25-.25A.24.24,0,0,0,373.65,56.6Z" transform="translate(-40.01 -0.01)"/><path class="cls-1" d="M347.65,36.6a.25.25,0,1,0-.25-.25A.24.24,0,0,0,347.65,36.6Z" transform="translate(-40.01 -0.01)"/><path class="cls-1" d="M331.65,61.6a.25.25,0,1,0-.25-.25A.24.24,0,0,0,331.65,61.6Z" transform="translate(-40.01 -0.01)"/><path class="cls-1" d="M377.65,67.6a.25.25,0,1,0-.25-.25A.24.24,0,0,0,377.65,67.6Z" transform="translate(-40.01 -0.01)"/><path class="cls-1" d="M395.65,85.6a.25.25,0,1,0-.25-.25A.24.24,0,0,0,395.65,85.6Z" transform="translate(-40.01 -0.01)"/><path class="cls-1" d="M407.65,97.6a.25.25,0,1,0-.25-.25A.24.24,0,0,0,407.65,97.6Z" transform="translate(-40.01 -0.01)"/><path class="cls-1" d="M388.65,125.6a.25.25,0,1,0-.25-.25A.24.24,0,0,0,388.65,125.6Z" transform="translate(-40.01 -0.01)"/><path class="cls-1" d="M411.65,131.6a.25.25,0,1,0-.25-.25A.24.24,0,0,0,411.65,131.6Z" transform="translate(-40.01 -0.01)"/><path class="cls-1" d="M236.9,82.6a.5.5,0,1,0-.5-.5A.47.47,0,0,0,236.9,82.6Z" transform="translate(-40.01 -0.01)"/><path class="cls-1" d="M284.9,99.6a.5.5,0,1,0-.5-.5A.47.47,0,0,0,284.9,99.6Z" transform="translate(-40.01 -0.01)"/><path class="cls-1" d="M392.9,184.6a.5.5,0,1,0-.5-.5A.47.47,0,0,0,392.9,184.6Z" transform="translate(-40.01 -0.01)"/><path class="cls-1" d="M372.9,157.6a.5.5,0,1,0-.5-.5A.47.47,0,0,0,372.9,157.6Z" transform="translate(-40.01 -0.01)"/><path class="cls-1" d="M394.9,133.6a.5.5,0,1,0-.5-.5A.47.47,0,0,0,394.9,133.6Z" transform="translate(-40.01 -0.01)"/><path class="cls-1" d="M440.9,118.6a.5.5,0,1,0-.5-.5A.47.47,0,0,0,440.9,118.6Z" transform="translate(-40.01 -0.01)"/><path class="cls-1" d="M219.9,344.6a.5.5,0,1,0-.5-.5A.47.47,0,0,0,219.9,344.6Z" transform="translate(-40.01 -0.01)"/><path class="cls-1" d="M58.9,305.6a.5.5,0,1,0-.5-.5A.47.47,0,0,0,58.9,305.6Z" transform="translate(-40.01 -0.01)"/><path class="cls-1" d="M42.9,142.6a.5.5,0,1,0-.5-.5A.47.47,0,0,0,42.9,142.6Z" transform="translate(-40.01 -0.01)"/><path class="cls-1" d="M112.9,55.6a.5.5,0,1,0-.5-.5A.47.47,0,0,0,112.9,55.6Z" transform="translate(-40.01 -0.01)"/><path class="cls-1" d="M295.9,42.6a.5.5,0,1,0-.5-.5A.47.47,0,0,0,295.9,42.6Z" transform="translate(-40.01 -0.01)"/></svg>