<?xml version="1.0" encoding="utf-8"?>
<!-- Generator: Adobe Illustrator 23.0.1, SVG Export Plug-In . SVG Version: 6.00 Build 0)  -->
<svg version="1.1" id="Layer_1" xmlns="http://www.w3.org/2000/svg" xmlns:xlink="http://www.w3.org/1999/xlink" x="0px" y="0px"
	 viewBox="0 0 529.3 211.3" style="enable-background:new 0 0 529.3 211.3;" xml:space="preserve">
<style type="text/css">
	.st0{fill:#111D35;}
	.st1{fill:#FFFFFF;stroke:#FFFFFF;stroke-width:0.75;stroke-miterlimit:10;}
	.st2{fill:none;stroke:#000000;stroke-width:2;stroke-miterlimit:10;}
</style>
<g>
	<circle class="st0" cx="104.4" cy="104.4" r="104.4"/>
	<g>
		<g>
			<path class="st1" d="M55.4,58c0.6,0,0.6-1,0-1C54.7,57,54.7,58,55.4,58L55.4,58z"/>
		</g>
	</g>
	<g>
		<g>
			<path class="st1" d="M51,94.6c0.6,0,0.6-1,0-1S50.4,94.6,51,94.6L51,94.6z"/>
		</g>
	</g>
	<g>
		<g>
			<path class="st1" d="M70,148.2c0.6,0,0.6-1,0-1S69.4,148.2,70,148.2L70,148.2z"/>
		</g>
	</g>
	<g>
		<g>
			<path class="st1" d="M158.1,104.9c0.6,0,0.6-1,0-1S157.5,104.9,158.1,104.9L158.1,104.9z"/>
		</g>
	</g>
	<g>
		<g>
			<path class="st1" d="M103.5,62.6c0.6,0,0.6-1,0-1C102.8,61.6,102.8,62.6,103.5,62.6L103.5,62.6z"/>
		</g>
	</g>
	<g>
		<g>
			<path class="st1" d="M142.5,160.7c0.6,0,0.6-1,0-1C141.8,159.7,141.8,160.7,142.5,160.7L142.5,160.7z"/>
		</g>
	</g>
	<g>
		<g>
			<path class="st1" d="M153.5,52.2c0.6,0,0.6-1,0-1S152.9,52.2,153.5,52.2L153.5,52.2z"/>
		</g>
	</g>
	<circle class="st0" cx="423.4" cy="104.4" r="104.4"/>
	<path class="st2" d="M208.9,104.4c10.8-20.3,31.9-33.1,54.9-33.2c23.1-0.1,44.5,12.7,55.3,33.2"/>
	<g>
		<g>
			<path class="st1" d="M472.6,153.4c0.6,0,0.6-1,0-1S472,153.4,472.6,153.4L472.6,153.4z"/>
		</g>
	</g>
	<g>
		<g>
			<path class="st1" d="M477,116.9c0.6,0,0.6-1,0-1C476.3,115.9,476.3,116.9,477,116.9L477,116.9z"/>
		</g>
	</g>
	<g>
		<g>
			<path class="st1" d="M458,63.2c0.6,0,0.6-1,0-1C457.3,62.2,457.3,63.2,458,63.2L458,63.2z"/>
		</g>
	</g>
	<g>
		<g>
			<path class="st1" d="M369.9,106.5c0.6,0,0.6-1,0-1S369.3,106.5,369.9,106.5L369.9,106.5z"/>
		</g>
	</g>
	<g>
		<g>
			<path class="st1" d="M424.5,148.8c0.6,0,0.6-1,0-1S423.9,148.8,424.5,148.8L424.5,148.8z"/>
		</g>
	</g>
	<g>
		<g>
			<path class="st1" d="M385.6,50.7c0.6,0,0.6-1,0-1C384.9,49.7,384.9,50.7,385.6,50.7L385.6,50.7z"/>
		</g>
	</g>
	<g>
		<g>
			<path class="st1" d="M374.5,159.2c0.6,0,0.6-1,0-1C373.8,158.2,373.8,159.2,374.5,159.2L374.5,159.2z"/>
		</g>
	</g>
</g>
</svg>
