<?xml version="1.0" encoding="utf-8"?>
<!-- Generator: Adobe Illustrator 23.0.1, SVG Export Plug-In . SVG Version: 6.00 Build 0)  -->
<svg version="1.1" id="Layer_1" xmlns="http://www.w3.org/2000/svg" xmlns:xlink="http://www.w3.org/1999/xlink" x="0px" y="0px"
	 viewBox="0 0 595.3 243.9" style="enable-background:new 0 0 595.3 243.9;" xml:space="preserve">
<style type="text/css">
	.st0{fill:#97B53C;}
	.st1{fill:#947463;}
	.st2{fill:#F6FAFE;}
	.st3{fill:#E9DAD5;}
	.st4{fill:#E1D0C9;}
	.st5{fill:#8E9838;}
	.st6{fill:#A88578;}
	.st7{fill:#856353;}
</style>
<title>ground</title>
<path class="st0" d="M506.3,208.6c3.9-0.5,7.3-2.6,11.1-3.5c2.2-0.5,4.3-1.4,6.6-1.2c2.7,0.8,0.8,2.8,0.5,3.7
	c-1.1,3.2,0.2,3.7,3,3.7c5.8-0.1,5.8,0,4.5-5.4c-0.2-0.9-0.4-1.8-0.6-2.8c13.4,0.4,26.9,1.6,40.2,3.6c8.4,1.3,16.4,2.8,23.8,4.5
	v32.6H0v-41.2c11.6-1.5,27.5-5.4,42.7-16.3c2.6-1.9,5.1-3.9,7.5-6.1c-0.4,2.2-1.8,5-0.9,6.5c1.2,2,4.4,0.6,6.7,0.8
	c1.5,0.2,2-0.4,1.7-2.1c-0.6-2.9-1.9-5.7-1.7-8.8c3.1-1.8,6.5-3.1,10.1-3.8c-0.8,3.4-1.4,6.7-2.4,10c-0.6,2.1,0.2,2.5,2,2.5
	c2.9,0,5.7-0.1,8.6,0c2.2,0.1,3-0.6,2.3-3c-1-3.5-1.7-7.1-2.6-10.7c6.7-0.4,13.3,0.7,20,1.4c4.2,1.9,8.7,3,12.5,5.8
	c0,0.6,0.1,1.2,0,1.8c-0.2,4.9,0.2,5.2,5.2,4.6c0.7-0.1,1.4-0.4,2-0.7l2.9,2.8c0.3,4.8-1.9,9.1-2.9,13.6c-0.5,2.3-0.3,3.3,2.3,3.1
	c4.1-0.2,8.1-0.2,12.2,0c2.5,0.1,4.2-0.2,4.4-3.1c3.2,1.3,6.6,2.3,9.9,3c2.8-1.9,3.9-1.8,4.3-1.5c0.6,0.5,0.3,1.8-1.4,8.2
	c-1.2,4.5-1.6,5.5-0.9,6.3c0.7,0.9,2.6,0.9,6.2,0.7c2-0.1,2.7-0.4,2.2-2.7c-0.8-3.5-2.5-6.7-2.4-10.4c1.2-0.6,2.5-1.3,3.7-1.9
	c0.9-0.1,1.8-0.2,2.7-0.2c1.1-0.1,2.1-0.1,3.1-0.1c5.9-0.6,10.5-1.8,13.5-2.7c7-2.2,10-4.3,14.6-3.6c4.2,0.6,7.3,3.1,9.2,5.1
	c0.4,0.4,1.1,1,1.3,1.9c0.5,1.8-0.8,3.6-1.2,5.3c-1.1,4.4-1.1,4.4,3.3,4.4c2,0,4.1-0.1,6.1,0s3.5-0.4,4.3-2.3l6.4,4.4
	c0,1.3-0.2,2.6-0.6,3.9c-0.3,0.8-0.1,1.7,0.5,2.3c1.2,1,6.9,0.1,8.1-1.2c7,3.1,13.9,6.7,21.6,8c0.7,0.3,1.3,0.5,2,0.7
	c11.7,2.6,23.2,2.6,34.6-1.6c1.5,3.3,4.6,2.8,6.9,2.1c1.9-0.6,0-2.8,0-4.2c0.1-0.7,0.2-1.3,0.4-2l2-1.6c2.4,1.5,5.1,0.6,7.6,0.8
	c2.3,0.2,2.7-0.7,2.3-3c-0.4-2.6-2.7-4.9-1.1-7.7c1-1.8,1.9-3.6,3-5.3c6.3-10.2,14.5-17.9,26.5-20.7c-2,8.1-4,16.2-6.1,24.3
	c-0.6,2.3-0.1,3.1,2.3,3c4.3-0.1,8.6-0.3,12.9,0.1c3.8,0.3,3.8-1.2,3-4.1c-1.7-6.1-3.3-12.2-4.8-18.3c-1.3-4.9-1.2-4.9,3.7-5.2
	c7.3,0.2,13.3,3.8,19.3,7.3c0,2.6-1.4,4.8-1.8,7.3c-0.1,0.9-0.6,1.9,0.4,2.6c1.6,1.2,8.1-0.1,9.3-1.8c1.6,2,3,4,4.3,6.2
	c2.4,4.4,4.3,9.1,6.8,13.5c4.6,8.4,11.2,9.8,19.1,4.2c4-3,7.6-6.6,10.6-10.7c4-5,7.8-10,13.6-13.1c2.8-0.7,5.6-1,8.5-0.9
	c-0.4,1.7-0.7,3.5-1.1,5.2c-1.7,6.6-1.7,6.6,5,6.4c2.4-0.1,2.9-0.9,2.2-3.1c-0.7-2.4-1.1-4.9-1.7-7.3c3,0.5,5.3,2.3,7.8,3.8
	c-0.9,5.3-2.2,10.5-3.8,15.6c-2,6.8-2.1,6.8,5,6.8c8.7,0,8.6,0,6.5-8.4c-0.6-2.6-2.3-5.2-1.3-8.1c2.7,2.7,5.2,5.7,7.4,8.8
	c2.4,3.4,5.8,4.9,9.9,4.9c3.8,0,7.3-1.3,10.9-2.3c1.1,2.6-0.7,4.8-1,7.1c-0.3,1.6,0,2.1,1.6,2.3c6.6,0.8,7.4,0.2,6.2-6.1
	c-0.4-2,0.3-2.6,2.2-2.6c2.2,0,4.3-0.1,6.5,0c2.3,0.1,2.9-0.7,2.3-3c-0.5-2-2.1-4-0.4-6.1L506.3,208.6z M353.9,196.1H353
	c-2.1,7.9-4.2,15.8-6.2,23.8c-0.4,1.5,0.2,2.3,1.8,2.3c3.2,0,6.5,0,9.7,0c1.6,0,2.1-0.6,1.7-2.2C357.9,212,355.9,204,353.9,196.1z"
	/>
<path class="st1" d="M217.5,214.9l-6.4-4.4c-2-2.3-2.1-5.2-2.9-8c-1.5-5.4-2.5-10.9-4.8-17c-1.4,5.1-2.7,9.3-3.7,13.6
	c-0.4,1.4-0.8,2.2-2.3,2c-7.1-3.1-14.3-1.8-21.4-0.4c-5.4,1.1-10.7,2.2-16.1,3.3c-1.7,0.1-3.5-0.4-5.2,0.6h-4.2
	c-1.1-1.3-0.4-3.4-2.7-4.9c0.5,4.8-2.5,4.4-5.3,4.3c-3.4-0.7-6.7-1.7-9.9-3c-2.6-4.6-2.9-9.8-4.5-14.7c-1.9-6.1-2.9-12.6-5.2-18.7
	c-1.2,0.9-1.1,2.1-1.4,3.1c-1.7,5.6-2.5,11.4-4.9,16.8l-2.9-2.8c-2.6-3.8-2.1-8.7-4.4-12.9c-1.6,2.4-1.1,5.2-2.9,7.1
	c-3.8-2.8-8.3-3.9-12.5-5.8c8.8-10.5,17.6-21,26.4-31.4c14.5-17.2,29-34.3,43.6-51.4c0.5-0.5,1-1,1.6-1.5
	c2.4,19.2,4.9,38.5,7.3,57.7c1.5,0,1.9-1,2.6-1.6c10.1-9.6,20.1-19.3,30.1-29c8.1-7.7,16.1-15.4,24.2-23.1
	c-1.2,9.5-2.4,18.9-3.6,28.4c-1.5,12.7-2.8,25.4-4.6,38c-0.5,3.4,0.9,3.1,3,2.8c4.9-0.6,9.8-0.9,14.5-2.2c3.8-1,3.9,1.1,4.3,3.5
	c0.1,1.2,0.2,2.4,0.1,3.6c-0.1,5.6,0.6,11.2,0.9,16.9c0.6,14.7,1.8,29.3,2.8,44c-7.7-1.3-14.5-4.9-21.6-8c-1.3-5.2-2.6-10.4-4-16.2
	c-1.7,2.1-1.9,4.1-2.5,5.8S218,213.1,217.5,214.9z"/>
<path class="st1" d="M432.4,199.8c-2.9-0.2-5.7,0.1-8.5,0.9c-5.3-5.8-10.8-11.4-15.9-17.3c-2.7-3.2-6.3-5.5-8.1-9.4
	c0-1.1-0.2-2.1-0.8-3.1c-8.5-19.9-15.8-34.4-18-42.5c-0.8-2.2-1.7-4.3-2.7-6.4c-0.4-1-1-1.9-1.8-2.6c-0.7-0.6-1.5-1-2.4-1.3
	c-6.5-2-13-4.2-19.5-6.1c-1.7-0.5-2.2-1.3-2.5-2.9c-0.8-3.3-0.6-6.7-0.6-10c0.1-1.6-0.1-3.1-0.7-4.6c1.7,0.6,2-1,2.6-1.8
	c2.8-4.3,5.7-8.6,8.3-13c1.4-2.3,2.5-2.9,5-1.3c8.2,5.3,16.4,10.4,24.7,15.4c8.8,5.3,17.3,11.2,26.4,16c6.7,5.5,11.9,12.5,17.6,18.9
	c22.9,25.8,45.8,51.6,68.6,77.5c0.7,0.8,1.4,1.7,2,2.5c-2.9,2.3-6.4,3.4-9.6,5c-1.6-0.3-1.4-1.7-1.7-2.8c-1.5-5.3-2.9-10.6-4.4-15.9
	h-0.9c-1.8,6.9-3.6,13.9-5.5,21.1c-0.8-0.7-0.5-2-1.8-2.1c-1.3,2.6-1.2,5.8-3.1,8.1c-3.6,1-7,2.4-10.9,2.3c-4.1-0.1-7.5-1.5-9.9-4.9
	c-2.2-3.1-4.7-6.1-7.4-8.8c-2.5-3.4-2.1-7.8-4.2-11.6c-1.7,1.7-1.2,4-2.3,5.7c-2.5-1.5-4.9-3.3-7.8-3.8c-0.6-2.3-1.3-4.5-1.9-6.8
	l-0.7,0.1L432.4,199.8z"/>
<path class="st2" d="M241.3,0c3.6,1.3,5.6,4.4,8,7c5.8,6.2,11.3,12.6,16.9,18.9c10.7,11.9,21.4,23.8,32.1,35.6
	c5.5,6,11.1,11.8,16.6,17.8c0.8,1,1.6,1.9,2.5,2.9s1.7,2,2.6,2.9c0.4,0.4,1,1,1.8,1.7c2.2,1.9,3.9,3.2,4.2,3.4
	c7.2,5.6,26,28.4,26,28.4c5.5,6.7,5.1,6.4,7.9,9.6c4.8,5.6,7.4,8.1,11.3,13.2c2.3,3,4,5.6,5.1,7.2c-0.4,0-1,0.1-1.6-0.2
	c-0.5-0.2-0.9-0.6-1.4-0.8c-10.6-6.5-21.1-12.9-31.7-19.4c-15.9-9.7-31.8-19.3-47.6-29c-1.6-1-2.5-1.3-3.7,0.5
	c-6.6,9.5-13.3,18.8-20,28.3c-2.5,3.6-2.5,3.7-5.4,0.5c-10.6-11.7-21.1-23.5-31.7-35.2c-0.7-0.8-1.3-1.8-2.6-1.6
	c-0.9-4.4,0.4-8.7,0.9-13c1.4-12.4,3.2-24.8,4.8-37.2C238,27.7,239.6,13.9,241.3,0z"/>
<path class="st3" d="M241.3,0c0.9,16.7,0.6,36.8-2.8,59.2c-1.9,12.2-4.4,23.3-7.1,33.3c-0.5,0.1-1,0.2-1.6,0.3
	c-8.1,7.7-16.2,15.4-24.2,23.1c-10.1,9.6-20.1,19.3-30.1,29c-0.7,0.6-1.1,1.6-2.6,1.6c-2.4-19.2-4.9-38.5-7.3-57.7
	c6.2-8.5,13.5-16.1,20.2-24.2c7.1-8.5,14.4-17,21.6-25.4c6.2-7.3,12.4-14.6,18.5-21.9l10.6-12.6C237.8,2.9,239.5,1.3,241.3,0z"/>
<path class="st3" d="M418,109.7c-9.1-4.8-17.6-10.7-26.4-16c-8.3-5-16.6-10.2-24.7-15.4c-1.2-0.8-2.1-1-2.8-0.8
	c-1.2,0.3-1.9,1.5-2.2,2.1c-2,3.8-2.4,5.7-3.7,8.5c0,0-1.6,3.2-5.7,6.4c-0.4,0.3-0.7,0.3-0.8,0.3c-0.3,0-0.5-0.2-0.7-0.4
	c0,0-0.4-1.4-0.5-1.4c-0.1-0.5-0.3-1-0.4-1.4c0-0.2,0.1-0.5,0.2-0.8c0,0,0.2-0.9,0.2-1.8c0.1-6.7-2.7-24.9-2.7-24.9
	c-0.9-6.1,0-3.8-1.5-22.7c-0.4-5.3-0.8-9.7-1.1-12.6c0.8-2.5,1.8-0.8,2.4,0c3.7,4.1,7.3,8.2,10.9,12.4c4.9,5.6,9.8,11.1,14.6,16.7
	c8.9,10.1,17.8,20.2,26.8,30.3c5.6,6.3,11.2,12.7,16.8,19C417.3,107.9,418.1,108.6,418,109.7z"/>
<path class="st4" d="M345.2,28.9c2.6,4,1.4,8.6,2,12.9c1.1,8,1.1,16.2,1.7,24.3c0.6,7.7,1.3,15.4,2,23.1c0.1,1,0.3,1.9-0.8,2.5
	c-3.6-7.1-7.4-14.2-10.9-21.4c-0.6-1.2-1-1.8-1.6-1.8c-0.9-0.1-1.8,0.9-2.1,1.3c-1.7,2-7.3,7.6-15.4,15.6c-1.8-2-3.5-4-5.3-5.9
	c7.6-12.8,15.2-25.5,22.8-38.3C340.1,36.9,342.6,32.9,345.2,28.9z"/>
<path class="st5" d="M533.7,211.3c-1.5,0.5-3.8,1-6.6,0.7c-1.6-0.1-2.9-0.5-4-0.8c1.9-6.8,3.7-13.6,5.6-20.4
	C530.3,197.7,532,204.5,533.7,211.3z"/>
<path class="st6" d="M229.8,92.9l0.8-1.2c1.3-0.2,1.9,0.8,2.6,1.6c10.6,11.7,21.2,23.5,31.8,35.2c2.9,3.2,2.9,3.1,5.4-0.5
	c6.6-9.5,13.4-18.8,20-28.3c1.3-1.9,2.1-1.5,3.7-0.5c15.8,9.7,31.7,19.3,47.6,29c10.6,6.4,21.1,12.9,31.7,19.4
	c0.9,0.5,1.7,1.4,2.9,1l0,0c0.1,0,0.4-0.1,0.6,0c0.3,0.1,0.4,0.2,0.7,0.6c0.2,0.2,0.4,0.4,0.7,0.7c6.7,8.5,14,16.6,21.8,24.1
	c1.8,3.9,5.5,6.2,8.1,9.4c5,6,10.5,11.6,15.9,17.3c-5.8,3.1-9.6,8.1-13.6,13.1c-3,4-6.6,7.6-10.6,10.7c-7.8,5.6-14.5,4.2-19.1-4.2
	c-2.4-4.4-4.4-9-6.8-13.5c-1.3-2.1-2.8-4.2-4.3-6.2c-3-4.9-2.8-11-5.3-16.4c-1.6,2.8-1.6,5.7-2.6,8.4c-8-4.1-14.6-5.6-18.8-6.3
	c-3.6-0.6-5.9-0.6-7-0.5c-6.9,0.1-11.9,2.2-12.9,2.7c-9.4,4-14.5,11.9-18.1,17.7c-1.1,1.7-2,3.5-3,5.3c-2.6-1.6-1.1-5-3.3-7.1
	c-0.6,2.2-1.2,4.3-1.8,6.3c-1.2,3.6-1.2,7.6-3.6,10.8l-2,1.5c-2.6-1.6-1.2-4.9-3-7.1c-2.3,3.6-1.8,8.1-4.3,11.3
	c-6.4,2.6-15.9,5.3-27.4,4.9c-29.7-1.1-48.6-22.3-52.5-27c5.5-27.3,11.7-55.1,18.7-83.5C224.9,111.8,227.3,102.3,229.8,92.9z"/>
<path class="st7" d="M401.5,176.4c-4.2-4.5-8.5-9.2-12.8-14.1c-3.7-4.2-7.2-8.3-10.5-12.4c-0.3-0.2-0.6-0.4-0.9-0.5l-1.1-0.8
	c-5.7-6.5-11.4-12.9-17.1-19.4c-13-14.7-26-29.4-39.1-44.1c5.1-5.1,10.4-10.2,15.4-15.5c0.3-0.3,1.1-1.3,2.1-1.2
	c1,0.1,1.6,1,1.9,1.4c8.1,11.8,10.9,21.1,10.9,21.1c0.1,0.4,0.5,1.7,1.2,3.5c0.7,1.9,1.4,3.3,1.6,3.6c0.8,1.7,1.3,4.6,0.2,10.3
	c0,0.4-0.2,1.4,0.4,2c0.6,0.7,1.6,0.7,2,0.8c1.8,0.1,6.6,1.6,16.1,4.7c1.8,0.6,4.6,1.5,7.9,3.1c2.3,3.5,3.9,6.4,4.9,8.2
	c3.8,7.1,6.8,14.6,15.2,43.3C400.5,173,401.2,175.1,401.5,176.4z"/>
<path class="st5" d="M564.4,226.8c-0.7,0.2-1.8,0.5-3.1,0.3c-0.7-0.1-1.4-0.2-1.9-0.4c0.9-3.2,1.7-6.4,2.6-9.5
	C562.8,220.4,563.6,223.6,564.4,226.8z"/>
<path class="st5" d="M487.6,231.1c-1.5,0.5-3.8,1-6.6,0.7c-1.6-0.1-2.9-0.5-4-0.8c1.9-6.8,3.7-13.6,5.6-20.4
	C484.2,217.5,485.9,224.3,487.6,231.1z"/>
<path class="st5" d="M500.4,223.4c-2.9,0.7-7.4,1.5-12.8,1.2c-3-0.2-5.6-0.7-7.7-1.3c3.6-10.9,7.1-21.7,10.7-32.6
	C493.8,201.6,497.1,212.5,500.4,223.4z"/>
<path class="st5" d="M455.6,227c-2.6,0.8-6.6,1.6-11.4,1.2c-2.7-0.2-5-0.8-6.8-1.4c3.2-11.6,6.3-23.2,9.5-34.9
	C449.8,203.6,452.7,215.3,455.6,227z"/>
<path class="st5" d="M439.7,211.7c-1.5,0.5-3.8,1-6.6,0.7c-1.6-0.1-2.9-0.5-4-0.8c1.9-6.8,3.7-13.6,5.6-20.4
	C436.3,198.1,438,204.9,439.7,211.7z"/>
<path class="st5" d="M345,212.7c-3.1,0.9-7.9,2-13.6,1.5c-3.2-0.3-6-0.9-8.2-1.7c3.8-13.9,7.6-27.9,11.4-41.8
	C338.1,184.8,341.6,198.7,345,212.7z"/>
<path class="st5" d="M360.8,222.1c-2.2,0.7-5.5,1.4-9.5,1c-2.3-0.2-4.2-0.7-5.7-1.2c2.7-9.7,5.3-19.4,8-29.2
	C355.9,202.6,358.4,212.3,360.8,222.1z"/>
<path class="st5" d="M370.7,202.7c-1.8,0.5-4.6,1-7.9,0.8c-1.9-0.1-3.5-0.5-4.8-0.8c2.2-7.1,4.4-14.2,6.6-21.4
	C366.7,188.4,368.7,195.5,370.7,202.7z"/>
<path class="st5" d="M304.9,222.7c-1.7,0.5-4.5,1-7.7,0.8c-1.8-0.1-3.4-0.5-4.6-0.8c2.2-7.1,4.3-14.2,6.5-21.3
	C301,208.4,303,215.6,304.9,222.7z"/>
<path class="st5" d="M292.9,230c-1.4,0.4-3.6,0.9-6.2,0.7c-1.5-0.1-2.7-0.4-3.7-0.8c1.7-6.3,3.5-12.7,5.2-19
	C289.7,217.3,291.3,223.6,292.9,230z"/>
<path class="st5" d="M227.3,222c-1.8,0.5-4.5,1.1-7.9,0.9c-1.9-0.2-3.5-0.5-4.7-1c2.2-8,4.4-16.1,6.6-24.1
	C223.3,205.9,225.3,214,227.3,222z"/>
<path class="st5" d="M213.8,213.2c-3.1,0.9-7.9,2-13.6,1.5c-3.2-0.3-6-0.9-8.2-1.7c3.8-13.9,7.6-27.9,11.4-41.8
	C206.9,185.3,210.4,199.2,213.8,213.2z"/>
<path class="st5" d="M155.5,217.6c-1.9,0.6-4.9,1.2-8.6,0.9c-2-0.2-3.8-0.6-5.1-1c2.4-8.8,4.8-17.5,7.2-26.3
	C151.2,200,153.4,208.8,155.5,217.6z"/>
<path class="st5" d="M134.2,207c-3.4,1.1-8.7,2.2-15.1,1.7c-3.6-0.3-6.6-1-9.1-1.8c4.2-15.4,8.4-30.8,12.6-46.3
	C126.5,176.1,130.4,191.6,134.2,207z"/>
<path class="st5" d="M115.5,186.5c-1.7,0.5-4.4,1.1-7.6,0.8c-1.8-0.1-3.3-0.5-4.5-0.9c2.1-7.7,4.2-15.4,6.3-23.2
	C111.6,171,113.5,178.7,115.5,186.5z"/>
<path class="st5" d="M78.4,186.5c-2.4,0.7-6.1,1.5-10.6,1.2c-2.5-0.2-4.6-0.7-6.3-1.3c3-10.8,5.9-21.6,8.9-32.4
	C73,164.8,75.7,175.7,78.4,186.5z"/>
<path class="st5" d="M60.5,189.6c-1.9,0.6-4.9,1.2-8.6,0.9c-2-0.2-3.8-0.6-5.1-1c2.4-8.8,4.8-17.5,7.2-26.3
	C56.1,172,58.3,180.8,60.5,189.6z"/>
</svg>
