<?xml version="1.0" encoding="utf-8"?>
<!-- Generator: Adobe Illustrator 23.0.1, SVG Export Plug-In . SVG Version: 6.00 Build 0)  -->
<svg version="1.1" id="Layer_1" xmlns="http://www.w3.org/2000/svg" xmlns:xlink="http://www.w3.org/1999/xlink" x="0px" y="0px"
	 viewBox="0 0 245 245" style="enable-background:new 0 0 245 245;" xml:space="preserve">
<style type="text/css">
	.st0{fill:#ED1C24;}
	.st1{opacity:0.35;fill:#BE1E2D;enable-background:new    ;}
	.st2{fill:none;stroke:#231F20;stroke-width:7;stroke-miterlimit:10;}
</style>
<title>home-button</title>
<circle class="st0" cx="122.5" cy="122.5" r="122.5"/>
<path class="st1" d="M122.5,0C72.2,21.8,40,71.9,41.4,126c1.4,51.7,33.1,98.3,81.1,119C55.3,245,0,189.7,0,122.5S55.3,0,122.5,0z"/>
<path class="st2" d="M76.3,127.3c-4.5,0-8.6,0.2-12.6-0.1c-1.6-0.1-4.2-1.1-4.4-2.2c-0.4-1.8,0.8-3.9,1.7-5.1
	c4.9-6.6,13.6-15.8,16.6-18.9c0-6.5-0.1-11.4-0.3-14.8c-0.1-2.3-0.2-4.6,1.3-6.2c1.1-1.1,2.9-1.4,6.2-1.6c5.1-0.3,8.7,0.8,9,7.8
	c7.1-6.9,13.5-13,19.8-19.2c8.2-8.1,8.9-8.1,17.1,0c17,16.9,33.9,33.8,50.7,50.7c1.1,1,2.1,2.1,3.1,3.3c2.2,3,1.4,5.2-2.3,5.7
	c-4.5,0.6-9,0.7-14.3,1v4.6c0,15.1,0,30.3,0,45.4c0,5.5-0.6,6-6,6H82.2c-5.3,0-5.9-0.6-5.9-6.1c0-15,0-30,0-45L76.3,127.3z"/>
</svg>
