<?xml version="1.0" encoding="utf-8"?>
<!-- Generator: Adobe Illustrator 23.0.1, SVG Export Plug-In . SVG Version: 6.00 Build 0)  -->
<svg version="1.1" id="Layer_1" xmlns="http://www.w3.org/2000/svg" xmlns:xlink="http://www.w3.org/1999/xlink" x="0px" y="0px"
	 viewBox="0 0 440.5 279.8" style="enable-background:new 0 0 440.5 279.8;" xml:space="preserve">
<style type="text/css">
	.st0{fill:#E0D4C6;}
	.st1{fill:#DECFBC;}
	.st2{fill:#DECEBE;}
	.st3{fill:#785612;}
	.st4{fill:#FDD54F;}
	.st5{fill:#DCCDB8;}
	.st6{fill:#E5E1E2;}
	.st7{opacity:0.26;fill:#231F20;enable-background:new    ;}
	.st8{fill:#B17E5E;}
	.st9{fill:#4C4E56;}
	.st10{fill:#FEFEFD;}
	.st11{fill:#B2D6F1;}
	.st12{fill:#3D3F46;}
	.st13{opacity:0.52;fill:#231F20;enable-background:new    ;}
	.st14{fill:#231F20;}
</style>
<title>house</title>
<path class="st0" d="M9.9,136.1c25.7-19.9,44.3-34.3,46.4-35.9c0.9-0.6,1.6-1.5,2.1-2.5c0.5-1,0.7-2.1,0.6-3.2
	C59,78,59.1,61.6,59,45.1c0-1.4,0.9-3.8-2-3.7c-4.3,0.1-4.2-2.7-4.1-5.7c0.3-15-2.1-12.6,12.7-12.8c14-0.1,28.1,0.1,42.1-0.1
	c4.4-0.1,6.1,1.5,5.7,5.9c-0.3,2.8,0,5.6-0.1,8.4c0,1.5,0,3.7-1.7,3.8c-5.8,0-4.4,4.1-4.4,7.3c-0.1,3.1,0,6.2,0,10.5l62.1-51
	c1.4-1,2.8-1.8,4.1-2.9c8.1-6.5,10.1-6.5,18.4,0.2c43.3,35.2,86.5,70.4,129.8,105.6c2.4,2.1,5.3,3.5,8.4,4.1
	c28.3,6.1,56.5,12.4,84.8,18.7c0.7,0.1,1.5,0,2.2-0.1l15.3,3.6c5.9,1.4,8.9,5.3,8,10.2c-0.9,5.3-5.4,8.3-11.4,6.6
	c-5.7-1.6-9.7-0.2-14,3.8c-8.8,8.1-18.1,15.7-27.3,23.4c-2.6,1.9-4,4.9-3.9,8.1c0.2,18.5,0.2,37.1,0,55.6c0,4.2,0.8,6.4,5.5,5.7
	c1.5-0.2,3,0.1,4.5-0.1c4.5-0.6,6.4,1.5,5.6,5.8c-1,5.4,1.7,6.3,6.3,5.9c3.5-0.3,7.1,0.2,10.7-0.1c2.6-0.2,4.5,0.1,5.6,1.3
	c1.5,1.5-0.2,4.6,1.2,5.4c0.7,0.4,1,0.1,2,0.5c2,0.8,2.7,3.3,3,4.5c0.5,1.7,0.5,3.6,0.1,5.4c-41.4,0.4-103.4,0.9-179.2,0.9
	c-20.3,0-34.1,0-46.1,0c-26.4-0.1-46.4-0.2-54.3-0.2h-2c-16.2-0.1-45.6-0.1-103.3,0.3c0.1-49.3,0.3-98.6,0.4-147.9l-34,24.5
	c-1.3,0.1-7,0.3-9-2.9C-1.6,149.8,1.2,141.8,9.9,136.1z M323.5,141.1c-0.1,35.2-0.2,70.4-0.3,105.6c0,3.2,1.4,3.6,4.1,3.6
	c11.6-0.1,23.2-0.1,34.8,0c3.4,0.1,4.5-0.9,4.5-4.4c-0.1-33.7-0.1-67.4-0.1-101.1c0-1.6,0.9-4-2.1-4.3c-10.9-2.4-21.7-4.8-32.5-7
	C322.7,131.7,322.7,131.7,323.5,141.1z M130.9,209.7c-7.5-1.8-14.4,2.7-18.3,5.3c0,0-14.5,9.4-16.6,42.7c-0.1,2.1,0.5,2.9,0.9,3.3
	c0.6,0.6,1.7,0.9,3.3,0.9c15-0.1,29.9-0.2,44.9,0c1.9,0,3.1-0.3,3.8-1c0.5-0.5,1.1-1.6,0.9-3.7C146.2,213.3,130.9,209.7,130.9,209.7
	z M358.4,273.8h23c12.6,0,12.4,0,12.6-12.6c0.1-4.6-1.5-5.5-5.8-5.5c-17.2,0.2-34.4,0-51.6,0c-14.1,0-14,0-13.4,14
	c0.1,3.2,1.1,4.2,4.3,4.1C337.8,273.7,348.1,273.8,358.4,273.8z M371.6,196.1c0,16.6,0,33.3,0,50c0,2.5,0.1,4.3,3.5,4.3
	c3.1,0,3.7-1.4,3.7-4.1c-0.1-32.9-0.1-65.9,0-98.8c0-3.4-1.3-4.8-4.5-4.9c-4.1-0.2-2.6,2.9-2.6,4.7
	C371.6,163.6,371.6,179.8,371.6,196.1z M123.1,267.5L123.1,267.5c-2.8-0.1-24-0.5-25.8,0.2c-0.6,0.2-0.9,0.6-0.9,0.6
	c-0.4,0.6-0.2,1.1-0.3,2.3c-0.1,1.6-0.7,2.2-0.3,2.8c0.3,0.3,0.7,0.4,0.9,0.4c6,0.9,47.2-0.1,52.1-0.1c0,0,3,0.1,3.3-0.8
	c0.2-0.7-1.3-1.3-1.3-2.5c0.1-1.1,1.4-1.6,1.3-2.2c-0.2-0.9-3.3-0.7-3.3-0.7C140.2,267.5,131.6,267.5,123.1,267.5z M384.5,176.7
	c9.6-8.2,18.7-15.9,27.7-23.7c0.5-0.5,1-1.1,1.5-1.7c-4.7-2.6-8.4-1.9-12,1.8c-4.2,4.2-8.7,8.1-13.5,11.6
	C384.1,167.7,383.1,171.2,384.5,176.7z M382.7,162.1c3.1-2.4,6.3-5,9.5-7.7c2.5-2.1,4.9-4.2,7.3-6.3c-5.8-3.5-11.6-4.3-14.4-1.8
	c-1.4,1.3-1.9,3.4-2.4,5.8c-0.8,3.6-0.4,6.9-0.2,8.3C382.5,161.1,382.7,161.7,382.7,162.1z M408.5,267.4c-1.9,0-3.7,0.1-5.6,0
	c-2.2-0.1-3.5,0.4-3.5,3c0,2.8,1.1,3.5,3.7,3.5c3.7-0.1,7.4-0.1,11.2,0c2.5,0.1,3.2-1,3.2-3.3c0-2.5-1.1-3.3-3.4-3.1
	C412.3,267.4,410.4,267.4,408.5,267.4z"/>
<path class="st1" d="M238,273.9c-24.7,0-49.4-0.1-74.1,0.1c-4.4,0-5.4-1-6.2-5.7c-6-32.9-1-66-2.6-99c-0.2-3.3-1.1-4.7-4.6-4.7
	c-18.4,0.1-36.7,0.1-55,0c-4.8,0-4.9,2.6-4.9,6.1c0.1,28.3-0.1,56.5,0.1,84.8c0.1,6-4.9,10.7-3.4,16.9c0.3,1.3-1.4,1.5-2.5,1.4
	c-0.4,0-0.8-0.2-1.2-0.4l-0.1-0.1c-0.3-0.2-9.6-0.3-34-0.2c-0.2-47.9-0.4-95.8-0.6-143.8l2.7-3.1c72.9-59,125.2-101.4,127.7-103.8
	c0.9-0.9,2-1.5,3.3-1.6c1.2,0.1,2.4,0.7,3.2,1.5c43.1,35.1,86.2,70.2,129.4,105.2c2,1.4,3.1,3.7,3,6.2c-0.1,45.1-0.2,90.2-0.1,135.3
	c0,1.9-0.4,3.1-1.1,3.8c-1.4,1.3-3.7,1-4.3,1C308.6,273.5,279.6,273.5,238,273.9z M181.9,138.5c20.2,0.2,36.8-16.1,36.9-36.3
	c0-0.2,0-0.5,0-0.7c0-20.5-16.6-37.1-37.1-37.1s-37.1,16.6-37.1,37.1c0,20.5,16.6,37.1,37.1,37.1
	C181.7,138.5,181.8,138.5,181.9,138.5z M231,195c-12.9,0-25.8,0.1-38.7-0.1c-4.1-0.1-5.6,1.2-5.5,5.5c0.2,16.7,0.2,33.3,0,50
	c0,3.9,1.3,5.3,5.2,5.3c25.8-0.1,51.7-0.1,77.5,0c3.8,0,5.3-1.3,5.3-5.2c-0.1-16.7-0.2-33.3,0-50c0-4.2-1.4-5.6-5.5-5.5
	C256.5,195.1,243.8,195,231,195L231,195z M230.6,190.6c12.9,0,25.8-0.1,38.7,0c3.7,0,5.6-1,5.4-5.1c-0.2-5.4-0.2-10.9,0-16.3
	c0.1-3.4-1.2-4.7-4.5-4.7c-26.2,0.1-52.3,0.1-78.5,0c-3.7,0-4.9,1.4-4.8,5c0.3,5,0.3,10.1,0,15.1c-0.4,4.9,1.8,6,6.2,6
	C205.6,190.5,218.1,190.6,230.6,190.6L230.6,190.6z"/>
<path class="st2" d="M358.4,273.8c-10.3,0-20.6-0.1-30.9,0.1c-3.1,0-4.1-1-4.3-4.1c-0.6-14-0.7-14,13.4-14c17.2,0,34.4,0.2,51.6,0
	c4.2,0,5.9,0.8,5.8,5.5c-0.3,12.6,0,12.6-12.6,12.6L358.4,273.8z"/>
<path class="st3" d="M366.5,184.8c0-10.2-0.1-24.9-0.3-44c7.3,1.4,14.6,2.9,21.9,4.3c-0.5,0.2-2.7,1.2-3.8,3.5
	c-0.6,1.4-0.6,2.7-0.5,3.4c0.6,63.1,0.8,89.8,0.7,91c0,0.1-0.1,1,0,2.3c0,0.5,0.1,1,0.1,1.5c0.1,0.7,0.5,1.8,1.6,3.1
	c-3.3,0.3-6.9,0.5-10.8,0.4c-3.7,0-7.1-0.3-10.2-0.6c0.4-1.2,1-3.1,1.2-5.4c0.2-2.2,0.1-3.7,0-6.1c0-0.1,0-2.7,0-7.9
	c0-8.3,0-16,0-16C366.6,203.6,366.6,189.8,366.5,184.8z"/>
<path class="st4" d="M384.5,176.7c-1.5-5.5-0.4-9,3.6-11.9c4.8-3.5,9.3-7.4,13.5-11.6c3.7-3.7,7.3-4.4,12-1.8
	c-0.4,0.6-0.9,1.2-1.5,1.7C403.2,160.8,394.2,168.5,384.5,176.7z"/>
<path class="st5" d="M408.5,267.4c1.9,0,3.7,0.1,5.6,0c2.3-0.1,3.4,0.6,3.4,3.1c0,2.3-0.8,3.4-3.2,3.3c-3.7-0.1-7.5-0.1-11.2,0
	c-2.5,0.1-3.7-0.6-3.7-3.5c0-2.6,1.4-3.1,3.5-3C404.8,267.4,406.7,267.4,408.5,267.4z"/>
<path class="st6" d="M181.9,138.5c-20.5,0.1-37.1-16.4-37.2-36.9c0,0,0,0,0,0c0-20.5,16.5-37.1,37-37.2c20.5,0,37.1,16.5,37.1,37
	c0.2,20.2-16,36.8-36.2,37C182.4,138.5,182.1,138.5,181.9,138.5z M155.5,101.7c0,14.6,11.8,26.5,26.4,26.5
	c14.6,0,26.5-11.8,26.5-26.4S196.6,75.3,182,75.3C167.3,75.2,155.5,87.1,155.5,101.7L155.5,101.7z"/>
<path class="st7" d="M231.1,195c12.7,0,25.5,0.1,38.2-0.1c4.1,0,5.5,1.3,5.5,5.5c-0.2,16.7-0.2,33.3,0,50c0,4-1.4,5.3-5.3,5.2
	c-25.8-0.1-51.6-0.1-77.5,0c-3.9,0-5.2-1.4-5.2-5.3c0.2-16.7,0.2-33.3,0-50c0-4.2,1.4-5.5,5.5-5.5C205.3,195.1,218.2,195,231.1,195z
	 M228.1,225.2H228c0-6.9-0.1-13.8,0-20.7c0.1-2.9-0.5-4.4-4-4.3c-9.3,0.2-18.7,0.2-28,0c-3.4-0.1-4,1.3-4,4.3c0.1,14,0,28-0.1,42
	c0,2.9,0.8,3.9,3.8,3.9c9.5-0.2,19.1-0.2,28.6,0c3,0,3.9-1,3.9-3.9C228,239.4,228.1,232.3,228.1,225.2z M233.4,225.1L233.4,225.1
	c-0.1,7.1,0,14.2-0.1,21.3c-0.1,2.9,0.8,4,3.8,3.9c9.5-0.2,19.1-0.2,28.6-0.1c2.6,0,3.6-0.8,3.6-3.5c-0.1-14.2-0.1-28.4,0-42.6
	c0-2.8-0.8-4-3.8-3.9c-9.4,0.1-18.7,0.2-28,0c-3.3-0.1-4.2,1.1-4.1,4.2C233.5,211.3,233.4,218.2,233.4,225.1L233.4,225.1z"/>
<path class="st7" d="M230.6,190.6c-12.5,0-25-0.1-37.6,0.1c-4.4,0.1-6.6-1.1-6.2-6c0.3-5,0.3-10.1,0-15.1c-0.1-3.6,1.1-5,4.8-5
	c26.2,0.1,52.3,0.1,78.5,0c3.4,0,4.7,1.3,4.5,4.7c-0.2,5.4-0.2,10.9,0,16.3c0.2,4.1-1.7,5.1-5.4,5.1
	C256.4,190.6,243.5,190.6,230.6,190.6z M230.9,169.8L230.9,169.8c-11.6-0.1-23.2-0.1-34.8-0.1c-1.7,0-4-0.7-4.1,2.3s1.8,2.7,3.8,2.7
	c23.2,0,46.4,0,69.5-0.1c1.8,0,4,0.5,3.9-2.5s-2.4-2.3-4.1-2.3C253.7,169.8,242.3,169.8,230.9,169.8z M230.3,185.3L230.3,185.3
	c11.4-0.1,22.8,0,34.2-0.1c1.7,0,4.6,1.3,4.6-2.2s-2.9-2.3-4.5-2.3c-22.8-0.1-45.6-0.2-68.4-0.1c-1.7,0-4-0.7-4,2.4s2.3,2.4,4,2.4
	C207.5,185.3,218.9,185.3,230.3,185.3L230.3,185.3z"/>
<g>
	<path class="st8" d="M152.7,232.8c0,14-0.1,28,0.1,42c0,3.7-1.1,4.9-5.1,4.9c-16.2-0.2-32.4-0.1-48.6,0c-3.4,0-4.5-0.9-4.5-4.2
		c0.1-28.6,0.2-57.2,0.1-85.7c0-3.8,1.6-4.4,5-4.4c16,0.1,32,0.2,48,0c4,0,5.3,1,5.2,4.8C152.6,204.4,152.7,218.6,152.7,232.8z
		 M141.7,249.7c0,1.1,0,2.3,0,3.4c0.1,1.8,0.4,3.6,2.8,3.7c2.8,0.1,3-1.9,3.1-3.9s0-4.2,0-6.3c0-1.9-0.7-3.6-3-3.5
		c-2.3,0.1-2.8,1.8-2.8,3.7C141.6,247.9,141.6,248.8,141.7,249.7L141.7,249.7z"/>
	<path class="st9" d="M141.5,249.7c0-1.1,0-2.1,0-3.2c0-2.1,0.6-4,3-4.1s3.1,1.8,3.2,3.9c0,2.3,0,4.7,0,7s-0.3,4.5-3.3,4.4
		c-2.5-0.1-2.8-2.1-2.9-4.1C141.4,252.3,141.5,251,141.5,249.7z"/>
</g>
<path class="st10" d="M155.5,101.7c0-14.6,11.8-26.5,26.4-26.5c14.6,0,26.5,11.8,26.5,26.4c0,14.6-11.8,26.5-26.4,26.5
	c-0.1,0-0.1,0-0.2,0C167.3,127.9,155.5,116.2,155.5,101.7z M170.3,104.3c-1.5,0-3,0.1-4.5,0c-4.8-0.4-4.9,1.7-3.2,5.3
	c2.1,4.5,5,8.3,9.6,10.5c6.4,3.1,7,2.7,7-4.5c-0.1-2.1-0.1-4.1,0-6.2c0.4-3.9-1.1-5.6-5.1-5.1C172.8,104.4,171.5,104.4,170.3,104.3z
	 M179.3,89.1c-0.6-2.2,1.5-6.1-1.1-7.3c-2.8-1.3-5.9,1.2-8.4,3.1c-1.7,1.1-3.2,2.5-4.5,4.1c-1.7,2.6-4.6,5.6-3.4,8.4
	s5.3,1.3,8.1,1.3C180.4,98.7,179.1,99.9,179.3,89.1L179.3,89.1z M184.8,113.5c0,1.9,0,3.7,0,5.6c0,2,0.5,3,3,2.5
	c5.1-1,12.6-7.7,13.8-12.8c0.7-3,0-4.8-3.5-4.5c-1.3,0.1-2.6,0-3.9,0C183.6,104.4,184.9,103.2,184.8,113.5L184.8,113.5z M194,98.7
	c1.3-0.1,2.6-0.1,3.9,0c4.6,0.5,5-1.5,3.4-5.2c-1.5-3.4-4.1-5.7-6.6-8.2s-5.7-4.9-8.8-3.7c-2.6,1-1,5-1.1,7.7
	C184.8,99.9,183.6,98.7,194,98.7z"/>
<path class="st11" d="M228.1,225.2c0,7.1-0.1,14.2,0,21.3c0.1,2.9-0.9,3.9-3.9,3.9c-9.5-0.2-19.1-0.2-28.6,0c-3,0-3.9-1-3.8-3.9
	c0.1-14,0.2-28,0.1-42c0-3,0.7-4.4,4-4.3c9.3,0.2,18.7,0.2,28,0c3.4-0.1,4,1.4,4,4.3c-0.1,6.9,0,13.8,0,20.7L228.1,225.2z"/>
<path class="st11" d="M233.4,225.1c0-6.9,0.1-13.9-0.1-20.8c-0.1-3.1,0.8-4.3,4.1-4.2c9.3,0.2,18.7,0.2,28,0c3,0,3.8,1.1,3.8,3.9
	c-0.1,14.2-0.1,28.4,0,42.6c0,2.7-0.9,3.6-3.6,3.5c-9.5-0.1-19.1-0.1-28.6,0.1c-3,0.1-3.9-1-3.8-3.9
	C233.4,239.3,233.3,232.2,233.4,225.1L233.4,225.1z"/>
<path class="st11" d="M230.9,169.8c11.4,0,22.8,0,34.2,0c1.7,0,4-0.8,4.1,2.3s-2.1,2.5-3.9,2.5c-23.2,0.1-46.4,0.1-69.5,0.1
	c-1.9,0-3.9,0.1-3.8-2.7s2.4-2.3,4.1-2.3C207.7,169.7,219.3,169.7,230.9,169.8L230.9,169.8z"/>
<path class="st11" d="M230.3,185.3c-11.4,0-22.8,0-34.2,0c-1.7,0-4,0.7-4-2.4s2.3-2.4,4-2.4c22.8,0,45.6,0,68.4,0.1
	c1.7,0,4.6-1.2,4.5,2.3s-2.9,2.2-4.6,2.2C253.1,185.3,241.7,185.2,230.3,185.3L230.3,185.3z"/>
<path class="st11" d="M170.3,104.3c1.3,0.1,2.6,0.1,3.9,0c4-0.5,5.5,1.3,5.1,5.1c-0.1,2.1-0.1,4.1,0,6.2c0,7.2-0.6,7.5-7,4.5
	c-4.6-2.2-7.5-6-9.6-10.5c-1.7-3.6-1.6-5.7,3.2-5.3C167.3,104.4,168.8,104.3,170.3,104.3z"/>
<path class="st11" d="M179.2,89.1c-0.1,10.8,1.2,9.7-9.2,9.6c-2.8,0-6.8,1.6-8.1-1.3s1.7-5.8,3.4-8.4c1.3-1.6,2.8-3,4.5-4.1
	c2.5-1.9,5.6-4.4,8.4-3.1C180.7,83,178.6,86.9,179.2,89.1z"/>
<path class="st11" d="M184.7,113.5c0.2-10.3-1.1-9.1,9.4-9.2c1.3,0,2.6,0.1,3.9,0c3.5-0.2,4.2,1.5,3.5,4.5
	c-1.2,5.1-8.7,11.8-13.8,12.8c-2.5,0.5-3-0.5-3-2.5C184.7,117.2,184.7,115.4,184.7,113.5z"/>
<path class="st11" d="M194,98.7c-10.4-0.1-9.2,1.1-9.1-9.3c0-2.6-1.5-6.7,1.1-7.7c3-1.2,6.3,1.3,8.8,3.7s5.2,4.8,6.6,8.2
	c1.5,3.6,1.3,5.7-3.4,5.2C196.6,98.7,195.3,98.7,194,98.7z"/>
<path class="st12" d="M58.7,97.2c0.1-18.7,0.2-37.4,0.3-56.1c-1.9,0.5-3.7,0.1-4.9-1.2c-0.7-0.7-0.9-1.5-1-2c0-3.9,0-7.8,0-11.6
	c0-1,0.1-2.3,1.1-3.1c0.2-0.2,0.8-0.6,1.8-0.7c2.1-0.2,24-0.3,53.7-0.3c0.3,0,2.3,0.3,3.4,2.1c0.6,1,0.6,2.1,0.6,2.5
	c0,0.6,0.4,9.1-0.2,11.8c-0.1,0.5-0.3,1.2-1,1.6c-0.5,0.3-1,0.1-2,0.2c-0.1,0-1,0.2-1.5,0.5c-1.1,0.6-1.4,2-1.5,2.9
	c-0.6,3.4-0.2,6.6-0.1,9.8c0.1,1.1,0.1,2.9,0,4.9C91.2,71.5,74.9,84.4,58.7,97.2z"/>
<path class="st13" d="M43.8,131.9c-11.3,8.2-22.7,16.3-34,24.5c-3.8,0.7-7.4-0.4-9-2.9c-1.8-2.9-0.2-6.5,0.6-8.2
	c1.4-3.1,3.7-5.8,6.6-7.7c6.5-4.3,25-19.2,50.5-39.8l0.3-56.1l-4-0.5c-0.5-0.3-1-0.7-1.4-1.2c-0.4-0.6-0.6-1.4-0.5-2.1
	c0-2.8,0-5.4,0-6.1c0-1.8-0.1-2.1,0-3.7c0.1-1.2,0.2-2.1,0.3-2.7c0.1-0.7,0.5-1.3,1-1.7c0.5-0.3,1-0.5,1.6-0.5
	c1.6,0,23.1-0.1,52.8-0.3c1.4-0.1,2.7,0.3,3.7,1.2c1.1,1.1,1.5,2.7,1.3,4.2c0,0.4-0.1,1.1-0.1,2c-0.1,2.8,0.2,4,0.1,6.5
	c0,0.7-0.1,1.7-0.3,3c0,0.4-0.2,0.7-0.4,1c-0.2,0.2-0.5,0.3-0.8,0.4c-0.3,0-0.6,0-0.9,0c-0.3,0-0.7,0.1-1,0.1
	c-0.7,0.1-1.3,0.4-1.8,0.8c-0.6,0.7-1,1.5-1,2.4c-0.1,1-0.1,2.1,0.1,3.1c0,1,0,1.8,0,2.4c0,2.9,0.1,5.9,0.1,8.8
	c1-0.9,2.4-2.1,4.1-3.6c1.2-1,2.1-1.7,2.4-2c4.2-3.4,15.3-12.4,21.5-17.5c4.5-3.7,7.4-6.1,11.3-9.4c1.7-1.4,5.3-4.5,8.7-7.3
	c2.7-2.2,2.8-2.2,4.4-3.6c0.4-0.4,1.3-1.1,2.6-2.1c0.8-0.6,1.1-0.8,1.6-1.2c2.6-1.9,3.1-2.9,5.6-4.6c1.3-0.9,1.1-0.7,2.4-1.7
	c4.4-3.1,5.4-4.7,8.2-5.4c1-0.2,1.8-0.3,2.3-0.3c-2,5.8-3.9,11.5-5.9,17.3c1.4,1.1,2.9,2.3,4.3,3.4C135.4,57.8,89.6,94.9,43.8,131.9
	z"/>
<path class="st13" d="M182.7,0.1c0.5,0,1.1,0,1.8,0.2c2.1,0.5,3.5,1.7,3.9,2.1c5,4.4,11,7.7,15.7,12.4c1.1,1.1-0.8-0.9,19.4,15.7
	c15.7,12.9,27.9,23.1,28.9,23.9c11.6,9.7,32.5,26.8,73.6,59.2c25.2,5.1,40.8,8.8,50.6,11.3c6.6,1.7,13.9,3.6,24.7,5.6
	c6,1.1,9.4,1.6,15.8,2.9c8.1,1.7,14.6,3.6,18.7,4.9c4.1,2.5,5.7,7.5,3.9,11.3c-1.4,3-4.7,4.8-8.3,4.7
	c-36.1-7.5-72.1-14.9-108.2-22.4c-48.8-38.1-97.5-76.3-146.3-114.4C178.8,11.6,180.7,5.9,182.7,0.1z"/>
<path class="st3" d="M404.4,166.9c7.9-7.5,5.2-4.2,9.3-8.3c1.1-1.1,2.6-2.6,5-3.8c2.3-1.2,4.6-1.7,6.1-1.9
	c-8.9-1.8-17.8-3.7-26.7-5.5c0.2,0.4,0.5,0.9,0.7,1.3c-13,11-18.7,15.7-18.8,15.9c0,0,0,0,0,0c0,0.1-0.2,0.2-0.5,0.4
	c-0.1,0.1-0.2,0.2-0.4,0.2c-0.2,0.1-0.6,0.1-1.4-0.3c0.8,1.9,1.5,3.9,2.2,6.1c1.9,6.2,3,11.9,3.5,17
	C384.7,186.6,395.8,175.1,404.4,166.9z"/>
<path class="st14" d="M417.7,134.1"/>
</svg>
