<svg id="Layer_1" data-name="Layer 1" xmlns="http://www.w3.org/2000/svg" viewBox="0 0 245.14 245.12"><defs><style>.cls-1{fill:#39b54a;}.cls-2{fill:#148453;opacity:0.35;}.cls-3{fill:none;stroke-width:9px;}.cls-3,.cls-4{stroke:#231f20;stroke-miterlimit:10;}.cls-4{fill:#231f20;}</style></defs><title>info-button</title><rect class="cls-1" x="0.02" width="245.12" height="245.12" rx="34.35"/><path class="cls-2" d="M337.2,273.12c-50.32,21.76-82.5,71.86-81.09,126,1.35,51.68,33.1,98.29,81.09,119l-88.15.06A35.93,35.93,0,0,1,224.62,508a35.34,35.34,0,0,1-9.84-19.88q-.14-46.24-.08-92.47.06-46.38.31-92.77a34.48,34.48,0,0,1,27.28-29.09Z" transform="translate(-214.68 -273.06)"/><path class="cls-3" d="M301.59,370.24a34.35,34.35,0,0,0-1,4.15c.19.05,1.18-10.21,7.11-19.33,10.93-16.84,30.37-19.64,31.32-19.77,2.79-.35,25.79-3.34,38.12,14.12,7.09,10.06,9.45,24.38,5.56,35.77-4.9,14.35-19.46,23.26-29.12,29.17-5.83,3.57-11.29,4.85-15,10.83-4.35,7-4.64,17-4.88,16.92a3.92,3.92,0,0,1,0-1.1" transform="translate(-214.68 -273.06)"/><ellipse class="cls-4" cx="119.83" cy="195.62" rx="3.81" ry="4.19"/></svg>