<svg id="Layer_1" data-name="Layer 1" xmlns="http://www.w3.org/2000/svg" viewBox="0 0 405.82 191.35"><defs><style>.cls-1{fill:#b9b4a8;stroke:#1f274b;stroke-width:7px;}.cls-1,.cls-5,.cls-6{stroke-miterlimit:10;}.cls-2{fill:#2f9245;}.cls-3{opacity:0.61;}.cls-4{fill:#57bb6b;}.cls-5,.cls-6{fill:none;}.cls-5{stroke:#2f9245;stroke-width:3px;}.cls-6{stroke:#75c375;stroke-width:2px;}</style></defs><title>interior3</title><rect class="cls-1" x="3.5" y="3.5" width="398.82" height="184.35" rx="12.71"/><path class="cls-2" d="M326.48,241.44v91.22l22,22.06h79.58l21.31-21.3V243.29l-21.55-21.55H349.11Z" transform="translate(-56.47 -209.42)"/><g class="cls-3"><path class="cls-4" d="M351.25,224.1V352.57" transform="translate(-56.47 -209.42)"/><path class="cls-4" d="M349.75,224.1V352.57a1.5,1.5,0,0,0,3,0V224.1a1.5,1.5,0,0,0-3,0Z" transform="translate(-56.47 -209.42)"/></g><g class="cls-3"><path class="cls-4" d="M426.11,224.1V352.57" transform="translate(-56.47 -209.42)"/><path class="cls-4" d="M424.62,224.1V352.57a1.5,1.5,0,1,0,3,0V224.1a1.5,1.5,0,0,0-3,0Z" transform="translate(-56.47 -209.42)"/></g><g class="cls-3"><path class="cls-4" d="M376.67,224.1V352.57" transform="translate(-56.47 -209.42)"/><path class="cls-4" d="M375.17,224.1V352.57a1.5,1.5,0,0,0,3,0V224.1a1.5,1.5,0,1,0-3,0Z" transform="translate(-56.47 -209.42)"/></g><g class="cls-3"><path class="cls-4" d="M403,224.1V352.57" transform="translate(-56.47 -209.42)"/><path class="cls-4" d="M401.52,224.1V352.57a1.5,1.5,0,0,0,3,0V224.1a1.5,1.5,0,0,0-3,0Z" transform="translate(-56.47 -209.42)"/></g><g class="cls-3"><path class="cls-4" d="M327.87,242.38H446.81" transform="translate(-56.47 -209.42)"/><path class="cls-4" d="M327.87,243.88H446.81a1.5,1.5,0,1,0,0-3H327.87a1.5,1.5,0,0,0,0,3Z" transform="translate(-56.47 -209.42)"/></g><g class="cls-3"><path class="cls-4" d="M329.11,333.16H448" transform="translate(-56.47 -209.42)"/><path class="cls-4" d="M329.11,334.61H448a1.5,1.5,0,0,0,0-3H329.11a1.5,1.5,0,0,0,0,3Z" transform="translate(-56.47 -209.42)"/></g><g class="cls-3"><path class="cls-4" d="M328.66,272H447.6" transform="translate(-56.47 -209.42)"/><path class="cls-4" d="M328.66,273.52H447.6a1.5,1.5,0,0,0,0-3H328.66a1.5,1.5,0,0,0,0,3Z" transform="translate(-56.47 -209.42)"/></g><g class="cls-3"><path class="cls-4" d="M328.47,303.49H447.41" transform="translate(-56.47 -209.42)"/><path class="cls-4" d="M328.47,305H447.41a1.5,1.5,0,1,0,0-3H328.47a1.5,1.5,0,0,0,0,3Z" transform="translate(-56.47 -209.42)"/></g><path class="cls-5" d="M325.87,241.54v91.23l22.06,22.05H427.5l21.3-21.3V243.4l-21.54-21.55h-78.8l-19.26,16.8Z" transform="translate(-56.47 -209.42)"/><path class="cls-6" d="M364.69,242.58c-.31.2-.67.08-1,.12a6.06,6.06,0,0,0-1.89.74,10.1,10.1,0,0,1-2.53.69c-1.26.22-2.51.43-3.76.69s-2.32.51-3.48.82a8.94,8.94,0,0,0-2.93,1.69,31.24,31.24,0,0,1-2.9,2.08,6.48,6.48,0,0,0-1.59,1.63,31.69,31.69,0,0,0-3.56,5.2,13.51,13.51,0,0,0-1.62,4.39,4.89,4.89,0,0,0,.39,2.44,32.85,32.85,0,0,0,2.36,4.89,4.54,4.54,0,0,1,.64,1.77,2.94,2.94,0,0,0,.84,1.67,9.3,9.3,0,0,0,4,2.41,29.15,29.15,0,0,0,4.21,1.06,32.17,32.17,0,0,0,4.61.49,25.3,25.3,0,0,0,3.48-.12,10.68,10.68,0,0,0,3.8-1.16,72,72,0,0,1,6.92-3.31,7.48,7.48,0,0,1,2.44-.61,2.37,2.37,0,0,0,1.4-.75,8.39,8.39,0,0,0,2.25-3.27,4.53,4.53,0,0,0,.37-1.85,9.77,9.77,0,0,1,1.49-5.47,14.46,14.46,0,0,0,1.06-2.12,4.82,4.82,0,0,0-.25-3.67,14,14,0,0,0-2.12-3.25,7.92,7.92,0,0,1-1.7-4c-.07-.41-.14-.82-.18-1.22-.06-.75-.59-1-1.16-1.16a16.42,16.42,0,0,0-3-.58c-.75-.05-1.51-.11-2.26-.18-1.43-.14-2.86,0-4.29-.07" transform="translate(-56.47 -209.42)"/><path class="cls-6" d="M429.42,262.64c-.44.09-.8-.19-1.19-.29a7.49,7.49,0,0,0-2.5,0,12.32,12.32,0,0,1-3.2-.3c-1.54-.29-3.06-.58-4.61-.82s-2.89-.41-4.35-.55a11,11,0,0,0-4.09.68,38.1,38.1,0,0,1-4.22,1.15,8,8,0,0,0-2.52,1.18,39.3,39.3,0,0,0-6.32,4.45,16.61,16.61,0,0,0-3.75,4.35,6,6,0,0,0-.6,3,42,42,0,0,0,.61,6.62,5.41,5.41,0,0,1,0,2.3,3.62,3.62,0,0,0,.25,2.29,11.53,11.53,0,0,0,3.53,4.47,35.15,35.15,0,0,0,4.38,3,37.74,37.74,0,0,0,5.09,2.54,29.06,29.06,0,0,0,4,1.36,13.24,13.24,0,0,0,4.86.3,88.84,88.84,0,0,1,9.37-.83,9.1,9.1,0,0,1,3.06.35,2.88,2.88,0,0,0,1.94-.27,10,10,0,0,0,4-2.78,5.41,5.41,0,0,0,1.21-2,12,12,0,0,1,4.07-5.65,17.21,17.21,0,0,0,2.12-2,5.91,5.91,0,0,0,1.3-4.32,17.56,17.56,0,0,0-1.05-4.64,9.82,9.82,0,0,1-.24-5.32c.1-.5.19-1,.32-1.48a1.57,1.57,0,0,0-.83-1.82,20.44,20.44,0,0,0-3.16-1.94q-1.27-.57-2.52-1.17c-1.58-.79-3.27-1.26-4.9-1.93" transform="translate(-56.47 -209.42)"/><path class="cls-6" d="M371.91,302c-.41.27-.88.11-1.31.16a8,8,0,0,0-2.51,1,13.28,13.28,0,0,1-3.35.9c-1.66.29-3.32.57-5,.92s-3.07.67-4.6,1.08a12,12,0,0,0-3.88,2.23,41.27,41.27,0,0,1-3.83,2.76,8.58,8.58,0,0,0-2.1,2.15,41.88,41.88,0,0,0-4.71,6.88,18.35,18.35,0,0,0-2.15,5.81,6.45,6.45,0,0,0,.52,3.23,44.66,44.66,0,0,0,3.12,6.46,6,6,0,0,1,.85,2.34,3.85,3.85,0,0,0,1.12,2.21,12.16,12.16,0,0,0,5.25,3.18,36,36,0,0,0,5.57,1.4,41.37,41.37,0,0,0,6.1.65,32.11,32.11,0,0,0,4.6-.15,14.46,14.46,0,0,0,5-1.53,93.44,93.44,0,0,1,9.14-4.38,10,10,0,0,1,3.23-.81,3.12,3.12,0,0,0,1.86-1,11,11,0,0,0,3-4.31,5.92,5.92,0,0,0,.48-2.45,13,13,0,0,1,2-7.24,19.25,19.25,0,0,0,1.4-2.8,6.32,6.32,0,0,0-.32-4.85,18.91,18.91,0,0,0-2.81-4.31,10.42,10.42,0,0,1-2.25-5.27c-.09-.55-.19-1.09-.23-1.62-.09-1-.79-1.34-1.53-1.53a22,22,0,0,0-3.93-.76c-1-.07-2-.14-3-.24-1.89-.19-3.79,0-5.68-.1" transform="translate(-56.47 -209.42)"/></svg>