<svg id="Layer_1" data-name="Layer 1" xmlns="http://www.w3.org/2000/svg" viewBox="0 0 405.8 191.3"><defs><style>.cls-1{fill:#b9b4a8;stroke:#1f274b;stroke-width:7px;}.cls-1,.cls-10,.cls-11,.cls-12,.cls-13,.cls-5,.cls-6,.cls-7,.cls-8,.cls-9{stroke-miterlimit:10;}.cls-2{fill:#309245;}.cls-3{opacity:0.61;}.cls-4{fill:#57bb6b;}.cls-11,.cls-13,.cls-5,.cls-6,.cls-9{fill:none;}.cls-5{stroke:#309245;stroke-width:3px;}.cls-10,.cls-11,.cls-12,.cls-13,.cls-6,.cls-7,.cls-8,.cls-9{stroke:#77c375;}.cls-6,.cls-7{stroke-width:2px;}.cls-10,.cls-12,.cls-7,.cls-8{fill:#77c375;}.cls-10,.cls-11{stroke-width:0.75px;}.cls-12,.cls-13{stroke-width:0.5px;}</style></defs><title>interior6</title><path class="cls-1" d="M111.2,329.5H484.6a12.72,12.72,0,0,1,12.7,12.7V501.1a12.72,12.72,0,0,1-12.7,12.7H111.2a12.72,12.72,0,0,1-12.7-12.7V342.2A12.72,12.72,0,0,1,111.2,329.5Z" transform="translate(-95 -326)"/><path class="cls-2" d="M365,358v91.2l22,22.1h79.6L487.9,450V359.9l-21.5-21.6H387.7Z" transform="translate(-95 -326)"/><g class="cls-3"><path class="cls-4" d="M464.6,340.7V469.2" transform="translate(-95 -326)"/><path class="cls-4" d="M463.2,340.7V469.2a1.5,1.5,0,0,0,3,0V340.7a1.5,1.5,0,0,0-3,0Z" transform="translate(-95 -326)"/></g><g class="cls-3"><path class="cls-4" d="M415.2,340.7V469.2" transform="translate(-95 -326)"/><path class="cls-4" d="M413.7,340.7V469.2a1.5,1.5,0,0,0,3,0V340.7a1.5,1.5,0,0,0-3,0Z" transform="translate(-95 -326)"/></g><g class="cls-3"><path class="cls-4" d="M441.5,340.7V469.2" transform="translate(-95 -326)"/><path class="cls-4" d="M440,340.7V469.2a1.5,1.5,0,1,0,3,0V340.7a1.5,1.5,0,0,0-3,0Z" transform="translate(-95 -326)"/></g><g class="cls-3"><path class="cls-4" d="M366.4,359H485.3" transform="translate(-95 -326)"/><path class="cls-4" d="M366.4,360.5H485.3a1.5,1.5,0,0,0,0-3H366.4a1.5,1.5,0,0,0,0,3Z" transform="translate(-95 -326)"/></g><g class="cls-3"><path class="cls-4" d="M367.6,449.7H486.5" transform="translate(-95 -326)"/><path class="cls-4" d="M367.6,451.2H486.5a1.5,1.5,0,0,0,0-3H367.6a1.5,1.5,0,0,0,0,3Z" transform="translate(-95 -326)"/></g><g class="cls-3"><path class="cls-4" d="M367.2,388.6H486.1" transform="translate(-95 -326)"/><path class="cls-4" d="M367.2,390.1H486.1a1.5,1.5,0,0,0,0-3H367.2a1.5,1.5,0,1,0,0,3Z" transform="translate(-95 -326)"/></g><g class="cls-3"><path class="cls-4" d="M367,420.1H485.9" transform="translate(-95 -326)"/><path class="cls-4" d="M367,421.6H485.9a1.5,1.5,0,0,0,0-3H367a1.5,1.5,0,0,0,0,3Z" transform="translate(-95 -326)"/></g><path class="cls-5" d="M364.4,358.1v91.2l22.1,22H466L487.3,450V360l-21.5-21.6H387l-19.3,16.8Z" transform="translate(-95 -326)"/><g class="cls-3"><path class="cls-4" d="M389.8,340.7V469.2" transform="translate(-95 -326)"/><path class="cls-4" d="M388.3,340.7V469.2a1.5,1.5,0,0,0,3,0V340.7a1.5,1.5,0,0,0-3,0Z" transform="translate(-95 -326)"/></g><path class="cls-6" d="M390.17,421.19l8.72-6.74a1.12,1.12,0,0,0,.39-.47,1,1,0,0,0,.11-.6c0-3.1,0-6.18,0-9.28,0-.26.17-.71-.37-.69-.81,0-.79-.51-.77-1.07.05-2.82-.4-2.37,2.38-2.41s5.28,0,7.91,0c.83,0,1.15.28,1.07,1.11-.05.53,0,1.05,0,1.58,0,.28,0,.69-.32.71-1.09,0-.82.77-.82,1.37s0,1.17,0,2l11.66-9.57c.26-.19.53-.34.77-.55,1.52-1.22,1.9-1.22,3.46,0l24.37,19.83a3.35,3.35,0,0,0,1.58.77c5.32,1.15,10.61,2.33,15.93,3.51a1.88,1.88,0,0,0,.41,0l2.88.67c1.1.27,1.67,1,1.5,1.92a1.57,1.57,0,0,1-2.14,1.24,2.49,2.49,0,0,0-2.63.71c-1.65,1.52-3.4,3-5.13,4.4a1.78,1.78,0,0,0-.73,1.52c0,3.47,0,7,0,10.44,0,.79.15,1.2,1,1.07.28,0,.56,0,.85,0,.84-.11,1.2.28,1.05,1.09-.19,1,.32,1.18,1.18,1.11.66-.06,1.34,0,2,0a1.25,1.25,0,0,1,1.05.24c.28.29,0,.87.23,1s.19,0,.37.09c.38.15.51.62.57.85a2.15,2.15,0,0,1,0,1c-7.78.08-19.42.17-33.66.17h-8.66l-10.2,0h-.37c-3.05,0-8.57,0-19.4.06,0-9.26.05-18.52.07-27.78l-6.39,4.6c-.24,0-1.31.06-1.69-.54S388.54,422.26,390.17,421.19Zm58.9.94Q449,432,449,442c0,.61.26.68.77.68q3.25,0,6.53,0c.64,0,.85-.17.85-.83q0-9.49,0-19c0-.3.17-.76-.4-.81-2-.45-4.07-.9-6.1-1.32C448.92,420.37,448.92,420.37,449.07,422.13Z" transform="translate(-95 -326)"/><path class="cls-6" d="M457.15,430.34q0-2.88-.06-8.27l4.11.81a1.47,1.47,0,0,0-.71.66,1.24,1.24,0,0,0-.09.64c.11,11.85.15,16.86.13,17.09a2.63,2.63,0,0,0,0,.43c0,.1,0,.19,0,.28a1.23,1.23,0,0,0,.3.59,18.63,18.63,0,0,1-2,.07c-.7,0-1.33-.06-1.92-.11a4.21,4.21,0,0,0,.23-1,7.23,7.23,0,0,0,0-1.14v-4.49C457.17,433.87,457.17,431.28,457.15,430.34Z" transform="translate(-95 -326)"/><path class="cls-6" d="M399.34,413.89l.05-10.54a.9.9,0,0,1-.92-.23.63.63,0,0,1-.18-.37v-2.18a.69.69,0,0,1,.2-.58.52.52,0,0,1,.34-.13c.4,0,4.51-.06,10.09-.06a.9.9,0,0,1,.64.39.94.94,0,0,1,.11.47,15.7,15.7,0,0,1,0,2.22.42.42,0,0,1-.19.3c-.09.06-.19,0-.37,0a1.06,1.06,0,0,0-.28.09.69.69,0,0,0-.29.55,9.45,9.45,0,0,0,0,1.84,6.91,6.91,0,0,1,0,.92C405.44,409.06,402.38,411.48,399.34,413.89Z" transform="translate(-95 -326)"/><path class="cls-6" d="M464.27,427s.66-.65,1.08-1a4.61,4.61,0,0,0,.66-.58,3.56,3.56,0,0,1,.94-.72,3.46,3.46,0,0,1,1.15-.35l-5-1c0,.08.1.17.13.25l-2.8,2.18,0,5.06Z" transform="translate(-95 -326)"/><path class="cls-6" d="M466.76,420.82" transform="translate(-95 -326)"/><path class="cls-7" d="M379.86,413.67l-.25-6.34h-1.75l-.27,6.31a2.33,2.33,0,0,0,1.07.3A2.41,2.41,0,0,0,379.86,413.67Z" transform="translate(-95 -326)"/><path class="cls-6" d="M390.06,407.33H368.21l5.65-8.07-2.62.1,5.21-8.34-2.59.07,5.31-9.75,5.31,9.75-2.72,0,5.34,8.4-2.86.05Z" transform="translate(-95 -326)"/><path class="cls-8" d="M460.86,395.45l-.16-3.88h-1.07l-.17,3.87a1.48,1.48,0,0,0,1.4,0Z" transform="translate(-95 -326)"/><path class="cls-9" d="M467.1,391.57H453.72l3.46-4.94-1.6.06,3.19-5.1-1.59,0q1.63-3,3.25-6l3.25,6-1.66,0,3.27,5.14-1.75,0Z" transform="translate(-95 -326)"/><path class="cls-10" d="M409.28,384.5l-.12-3.16h-.87l-.14,3.14a1.08,1.08,0,0,0,.53.15A1.2,1.2,0,0,0,409.28,384.5Z" transform="translate(-95 -326)"/><path class="cls-11" d="M414.37,381.34H403.48l2.81-4-1.3.05,2.59-4.16-1.29,0q1.33-2.43,2.65-4.86l2.64,4.86h-1.35l2.66,4.19-1.43,0Z" transform="translate(-95 -326)"/><path class="cls-12" d="M436.64,370.33l-.12-3h-.83l-.14,3a1.16,1.16,0,0,0,1.09,0Z" transform="translate(-95 -326)"/><path class="cls-13" d="M441.5,367.3H431.08l2.7-3.84-1.25.05,2.48-4-1.23,0q1.26-2.32,2.53-4.65l2.53,4.65-1.3,0,2.55,4-1.37,0Z" transform="translate(-95 -326)"/></svg>