<svg id="Layer_1" data-name="Layer 1" xmlns="http://www.w3.org/2000/svg" viewBox="0 0 405.82 191.35"><defs><style>.cls-1{fill:#b9b4a8;stroke:#1f274b;stroke-width:7px;}.cls-1,.cls-10,.cls-11,.cls-5,.cls-6,.cls-7,.cls-8,.cls-9{stroke-miterlimit:10;}.cls-2{fill:#2f9245;}.cls-3{opacity:0.61;}.cls-4{fill:#57bb6b;}.cls-10,.cls-5,.cls-6,.cls-8{fill:none;}.cls-5{stroke:#2f9245;stroke-width:3px;}.cls-10,.cls-11,.cls-6,.cls-7,.cls-8,.cls-9{stroke:#75c375;}.cls-6,.cls-7{stroke-width:2px;}.cls-11,.cls-7,.cls-9{fill:#75c375;}.cls-10,.cls-11{stroke-width:0.75px;}</style></defs><title>interior2</title><rect class="cls-1" x="3.5" y="3.5" width="398.82" height="184.35" rx="12.71"/><path class="cls-2" d="M326.48,241.44v91.22l22,22.06h79.58l21.31-21.3V243.29l-21.55-21.55H349.11Z" transform="translate(-56.47 -209.42)"/><g class="cls-3"><path class="cls-4" d="M351.25,224.1V352.57" transform="translate(-56.47 -209.42)"/><path class="cls-4" d="M349.75,224.1V352.57a1.5,1.5,0,0,0,3,0V224.1a1.5,1.5,0,0,0-3,0Z" transform="translate(-56.47 -209.42)"/></g><g class="cls-3"><path class="cls-4" d="M426.11,224.1V352.57" transform="translate(-56.47 -209.42)"/><path class="cls-4" d="M424.62,224.1V352.57a1.5,1.5,0,1,0,3,0V224.1a1.5,1.5,0,0,0-3,0Z" transform="translate(-56.47 -209.42)"/></g><g class="cls-3"><path class="cls-4" d="M376.67,224.1V352.57" transform="translate(-56.47 -209.42)"/><path class="cls-4" d="M375.17,224.1V352.57a1.5,1.5,0,0,0,3,0V224.1a1.5,1.5,0,1,0-3,0Z" transform="translate(-56.47 -209.42)"/></g><g class="cls-3"><path class="cls-4" d="M403,224.1V352.57" transform="translate(-56.47 -209.42)"/><path class="cls-4" d="M401.52,224.1V352.57a1.5,1.5,0,0,0,3,0V224.1a1.5,1.5,0,0,0-3,0Z" transform="translate(-56.47 -209.42)"/></g><g class="cls-3"><path class="cls-4" d="M327.87,242.38H446.81" transform="translate(-56.47 -209.42)"/><path class="cls-4" d="M327.87,243.88H446.81a1.5,1.5,0,1,0,0-3H327.87a1.5,1.5,0,0,0,0,3Z" transform="translate(-56.47 -209.42)"/></g><g class="cls-3"><path class="cls-4" d="M329.11,333.16H448" transform="translate(-56.47 -209.42)"/><path class="cls-4" d="M329.11,334.61H448a1.5,1.5,0,0,0,0-3H329.11a1.5,1.5,0,0,0,0,3Z" transform="translate(-56.47 -209.42)"/></g><g class="cls-3"><path class="cls-4" d="M328.66,272H447.6" transform="translate(-56.47 -209.42)"/><path class="cls-4" d="M328.66,273.52H447.6a1.5,1.5,0,0,0,0-3H328.66a1.5,1.5,0,0,0,0,3Z" transform="translate(-56.47 -209.42)"/></g><g class="cls-3"><path class="cls-4" d="M328.47,303.49H447.41" transform="translate(-56.47 -209.42)"/><path class="cls-4" d="M328.47,305H447.41a1.5,1.5,0,1,0,0-3H328.47a1.5,1.5,0,0,0,0,3Z" transform="translate(-56.47 -209.42)"/></g><path class="cls-5" d="M325.87,241.54v91.23l22.06,22.05H427.5l21.3-21.3V243.4l-21.54-21.55h-78.8l-19.26,16.8Z" transform="translate(-56.47 -209.42)"/><path class="cls-6" d="M393.92,302.59c1.25.2,3,.55,5.14,1.1a42,42,0,0,1,9.56,3.51,18.61,18.61,0,0,1,5.07,3.46,3.84,3.84,0,0,1,.9,2.86c0,.7-.57,1-1,1.38a20.56,20.56,0,0,1-3.21,2.57,32.13,32.13,0,0,1-7.55,3.29c-2.92.9-5.84,1.85-8.82,2.53-2.29.54-4.61,1-7,1.36-2.59.37-5.18.76-7.81.92-3.16.19-6.3.41-9.46.33-2.7,0-5.4-.14-8.08-.38s-5.66-.63-8.45-1.1a93.52,93.52,0,0,1-9.85-2.26,65.86,65.86,0,0,1-10.08-3.72,15.86,15.86,0,0,1-4.89-3.28c-.46-.48-1.12-.72-1.23-1.56a3.75,3.75,0,0,1,1.31-3.51,21.27,21.27,0,0,1,5.89-3.55,52,52,0,0,1,7.79-2.88c1.43-.43,2.65-.7,3.49-.9a41,41,0,0,0,4.69,2.46c18.37,8.27,36.48.84,37.86.26A41.08,41.08,0,0,0,393.92,302.59Z" transform="translate(-56.47 -209.42)"/><path class="cls-6" d="M327.61,314.46a5.55,5.55,0,0,0,.55,1.73c1,1.91,3.07,2.49,4.22,3.14a53.7,53.7,0,0,0,10.84,4.2c2.09.61,4.23,1.14,6.34,1.64a1.4,1.4,0,0,1,.62.31,27.63,27.63,0,0,0,15.08,7.22,30,30,0,0,0,15.16-1.29,24.34,24.34,0,0,0,9-5.42,4,4,0,0,1,2.22-.78,117,117,0,0,0,13.21-3.72c5.82-2,7.6-3.56,8.63-5.14.64-1,1.31-2.38,1.07-2.55s-1.64,1.74-3.82,3.45c-2,1.56-4.66,2.55-10.1,4.17-3.9,1.16-5.85,1.73-8.88,2.39s-7,1.21-11.81,1.65c-1.5.13-4,.37-7.11.44a98.2,98.2,0,0,1-17.38-1.21,112.9,112.9,0,0,1-14.1-3.23,43,43,0,0,1-7.28-2.7,27.78,27.78,0,0,1-5.77-3.7C328,314.81,327.77,314.59,327.61,314.46Z" transform="translate(-56.47 -209.42)"/><path class="cls-6" d="M390,325.59c-.92.17-2.26.4-3.92.64a75.67,75.67,0,0,1-12.49,1c-1.39,0-3.3.05-5.88,0a92.34,92.34,0,0,1-15.68-1.51c-1-.18-1.82-.37-2.35-.49a30,30,0,0,0,6.87,4.77,30.86,30.86,0,0,0,25.86.66A28.8,28.8,0,0,0,390,325.59Z" transform="translate(-56.47 -209.42)"/><path class="cls-7" d="M334.86,310.12a1.73,1.73,0,0,0-1.19.55,1.84,1.84,0,0,0-.28,1.75,3.94,3.94,0,0,0,4.52,1.56c1.09-.51,1.45-1.47.72-2.39a4,4,0,0,0-1.2-1,4.5,4.5,0,0,0-2.48-.46Z" transform="translate(-56.47 -209.42)"/><path class="cls-6" d="M344.49,303.16a60.69,60.69,0,0,0,50.74-.18,27,27,0,0,0-50.74.18Z" transform="translate(-56.47 -209.42)"/><path class="cls-7" d="M346.93,315.51a1.72,1.72,0,0,0-1,.82,1.93,1.93,0,0,0,.17,1.77,3.92,3.92,0,0,0,4.75.38c.92-.79,1-1.8.1-2.5a4.23,4.23,0,0,0-1.4-.68,4.51,4.51,0,0,0-2.52.19Z" transform="translate(-56.47 -209.42)"/><path class="cls-7" d="M368.07,318.74a1.78,1.78,0,0,0-1,.86,2,2,0,0,0,.22,1.77,4,4,0,0,0,4.78.25c.9-.81,1-1.82,0-2.5a3.75,3.75,0,0,0-1.44-.64,4.33,4.33,0,0,0-2.49.26Z" transform="translate(-56.47 -209.42)"/><path class="cls-7" d="M404.17,310.12a1.77,1.77,0,0,1,1.2.55,1.83,1.83,0,0,1,.27,1.75,3.93,3.93,0,0,1-4.52,1.56c-1.08-.51-1.45-1.47-.71-2.39a4,4,0,0,1,1.19-1,4.52,4.52,0,0,1,2.48-.46Z" transform="translate(-56.47 -209.42)"/><path class="cls-7" d="M391.46,315.51a1.8,1.8,0,0,1,1,.82,1.93,1.93,0,0,1-.17,1.77,3.92,3.92,0,0,1-4.75.38c-.92-.79-1-1.8-.1-2.5a4.23,4.23,0,0,1,1.4-.68,4.51,4.51,0,0,1,2.52.19Z" transform="translate(-56.47 -209.42)"/><path class="cls-8" d="M434.87,268.82c.49.19,1.19.48,2,.88a17.16,17.16,0,0,1,3.6,2.21,7.73,7.73,0,0,1,1.78,1.83,1.58,1.58,0,0,1,.13,1.24c-.05.29-.31.35-.52.48a8.07,8.07,0,0,1-1.52.78A13.64,13.64,0,0,1,437,277c-1.27.12-2.53.27-3.8.3-1,0-2,0-2.95,0s-2.17-.12-3.25-.27c-1.31-.19-2.6-.36-3.88-.65-1.1-.25-2.19-.51-3.26-.83s-2.25-.72-3.35-1.14a37.58,37.58,0,0,1-3.82-1.74,26.93,26.93,0,0,1-3.8-2.34,6.62,6.62,0,0,1-1.72-1.74c-.15-.24-.4-.39-.37-.74a1.53,1.53,0,0,1,.82-1.32,8.75,8.75,0,0,1,2.69-1,21.79,21.79,0,0,1,3.41-.53c.62-.05,1.14-.07,1.5-.08a15.15,15.15,0,0,0,1.7,1.39c6.8,4.89,14.78,3.36,15.39,3.24A17,17,0,0,0,434.87,268.82Z" transform="translate(-56.47 -209.42)"/><path class="cls-8" d="M406.89,268.17a2.34,2.34,0,0,0,.08.75c.26.86,1,1.27,1.46,1.63a22.35,22.35,0,0,0,4.07,2.61c.8.42,1.62.81,2.44,1.19a.52.52,0,0,1,.23.18,11.5,11.5,0,0,0,5.54,4.18,12.47,12.47,0,0,0,6.28.73A10.19,10.19,0,0,0,431.1,278a1.74,1.74,0,0,1,1-.14,49,49,0,0,0,5.69-.42c2.53-.33,3.39-.82,3.94-1.38.34-.34.73-.86.64-1s-.81.57-1.84,1.09a12.51,12.51,0,0,1-4.45.86c-1.69.15-2.53.22-3.81.24s-3-.08-4.95-.3c-.62-.07-1.66-.18-2.93-.41a41.26,41.26,0,0,1-7-1.93,47.33,47.33,0,0,1-5.47-2.48,17.43,17.43,0,0,1-2.74-1.7,11.66,11.66,0,0,1-2.05-2C407,268.35,407,268.24,406.89,268.17Z" transform="translate(-56.47 -209.42)"/><path class="cls-8" d="M431.38,277.86c-.38,0-.95,0-1.64-.06a32.17,32.17,0,0,1-5.17-.63c-.57-.12-1.35-.25-2.39-.49a38.22,38.22,0,0,1-6.26-1.91l-.92-.4a12.74,12.74,0,0,0,2.4,2.52,12.91,12.91,0,0,0,5.38,2.44,12.7,12.7,0,0,0,5.1,0A11.74,11.74,0,0,0,431.38,277.86Z" transform="translate(-56.47 -209.42)"/><path class="cls-9" d="M410.2,267a.7.7,0,0,0-.53.12.8.8,0,0,0-.26.69,1.64,1.64,0,0,0,1.71,1c.49-.12.72-.48.49-.91a1.54,1.54,0,0,0-.4-.51,1.9,1.9,0,0,0-1-.4Z" transform="translate(-56.47 -209.42)"/><path class="cls-8" d="M414.7,265a25.27,25.27,0,0,0,20.67,4.12A11.22,11.22,0,0,0,414.7,265Z" transform="translate(-56.47 -209.42)"/><path class="cls-9" d="M414.67,270.2a.69.69,0,0,0-.48.25.83.83,0,0,0-.08.73,1.63,1.63,0,0,0,1.91.55c.44-.24.57-.65.24-1a1.61,1.61,0,0,0-.51-.39,1.86,1.86,0,0,0-1-.13Z" transform="translate(-56.47 -209.42)"/><path class="cls-9" d="M423,273.26a.73.73,0,0,0-.47.27.82.82,0,0,0-.06.74,1.66,1.66,0,0,0,1.93.5c.43-.26.54-.66.21-1a1.66,1.66,0,0,0-.53-.38,1.76,1.76,0,0,0-1-.1Z" transform="translate(-56.47 -209.42)"/><path class="cls-9" d="M438.42,272.74a.69.69,0,0,1,.44.32.74.74,0,0,1,0,.73,1.63,1.63,0,0,1-2,.26.6.6,0,0,1-.09-1,1.76,1.76,0,0,1,.57-.31,1.84,1.84,0,0,1,1,0Z" transform="translate(-56.47 -209.42)"/><path class="cls-9" d="M432.8,273.88a.68.68,0,0,1,.34.42.77.77,0,0,1-.21.7,1.64,1.64,0,0,1-2-.24c-.31-.39-.27-.81.17-1a1.72,1.72,0,0,1,.63-.16,1.82,1.82,0,0,1,1,.28Z" transform="translate(-56.47 -209.42)"/><path class="cls-10" d="M371.51,252.84c.42,0,1,0,1.76,0a13.86,13.86,0,0,1,3.37.49,6.3,6.3,0,0,1,1.9.78,1.31,1.31,0,0,1,.49.88c.05.23-.12.36-.23.52a6.35,6.35,0,0,1-.88,1.06,10.39,10.39,0,0,1-2.24,1.6c-.9.5-1.79,1-2.71,1.44-.72.33-1.44.66-2.19.93s-1.64.6-2.49.84c-1,.27-2,.56-3.08.76-.89.17-1.78.32-2.67.43s-1.9.18-2.85.22a31.82,31.82,0,0,1-3.38-.06,21.41,21.41,0,0,1-3.55-.52,5.12,5.12,0,0,1-1.83-.74c-.18-.12-.42-.16-.51-.42a1.25,1.25,0,0,1,.18-1.24,7.18,7.18,0,0,1,1.69-1.57,16.87,16.87,0,0,1,2.35-1.48c.44-.24.82-.41,1.08-.54a12.77,12.77,0,0,0,1.71.48,16.87,16.87,0,0,0,12.41-2.53A14.33,14.33,0,0,0,371.51,252.84Z" transform="translate(-56.47 -209.42)"/><path class="cls-10" d="M350.61,261.3a1.86,1.86,0,0,0,.3.53,2.9,2.9,0,0,0,1.6.73,17.21,17.21,0,0,0,3.84.63c.73.06,1.46.09,2.19.1a.55.55,0,0,1,.22.06,9.23,9.23,0,0,0,5.44,1.32,10,10,0,0,0,4.87-1.46,8.22,8.22,0,0,0,2.58-2.4c.17-.25.44-.3.67-.41a38.37,38.37,0,0,0,4.07-2.13c1.77-1.06,2.24-1.69,2.47-2.28.14-.36.26-.87.18-.91s-.42.69-1,1.4a10.32,10.32,0,0,1-3,2.06c-1.19.65-1.79,1-2.74,1.39a38.75,38.75,0,0,1-3.75,1.36c-.49.15-1.29.4-2.3.64a34.09,34.09,0,0,1-5.77.8,37.18,37.18,0,0,1-4.85-.09,14.11,14.11,0,0,1-2.57-.38,9.24,9.24,0,0,1-2.14-.81Z" transform="translate(-56.47 -209.42)"/><path class="cls-10" d="M371.82,260.64c-.29.11-.71.29-1.24.48a25.71,25.71,0,0,1-4,1.18c-.46.1-1.08.25-1.93.4a29.92,29.92,0,0,1-5.24.59h-.8a9.63,9.63,0,0,0,2.58,1.09,10.32,10.32,0,0,0,8.51-1.56A9.83,9.83,0,0,0,371.82,260.64Z" transform="translate(-56.47 -209.42)"/><path class="cls-11" d="M352.69,259.38a.6.6,0,0,0-.36.26.62.62,0,0,0,0,.59,1.31,1.31,0,0,0,1.59.2c.32-.24.38-.58.07-.83a1.58,1.58,0,0,0-.46-.25,1.5,1.5,0,0,0-.84,0Z" transform="translate(-56.47 -209.42)"/><path class="cls-10" d="M355.36,256.44a20.28,20.28,0,0,0,16.6-3.57,9,9,0,0,0-16.6,3.57Z" transform="translate(-56.47 -209.42)"/><path class="cls-11" d="M357,260.31a.57.57,0,0,0-.27.34.65.65,0,0,0,.17.57,1.32,1.32,0,0,0,1.59-.21c.24-.32.21-.66-.14-.82a1.29,1.29,0,0,0-1.32.11Z" transform="translate(-56.47 -209.42)"/><path class="cls-11" d="M364.16,259.91a.59.59,0,0,0-.27.35.61.61,0,0,0,.2.56,1.34,1.34,0,0,0,1.58-.24c.24-.33.19-.67-.17-.82a1.14,1.14,0,0,0-.51-.11,1.4,1.4,0,0,0-.8.25Z" transform="translate(-56.47 -209.42)"/><path class="cls-11" d="M375.38,254.6a.59.59,0,0,1,.43.09.59.59,0,0,1,.21.56,1.32,1.32,0,0,1-1.37.82c-.39-.09-.58-.38-.4-.73a1.46,1.46,0,0,1,.32-.42,1.5,1.5,0,0,1,.78-.32Z" transform="translate(-56.47 -209.42)"/><path class="cls-11" d="M371.59,257.24a.57.57,0,0,1,.39.2.66.66,0,0,1,.07.59,1.31,1.31,0,0,1-1.53.45c-.36-.19-.47-.52-.21-.81a1.57,1.57,0,0,1,.41-.32,1.53,1.53,0,0,1,.84-.11Z" transform="translate(-56.47 -209.42)"/></svg>