<?xml version="1.0" encoding="utf-8"?>
<!-- Generator: Adobe Illustrator 23.0.1, SVG Export Plug-In . SVG Version: 6.00 Build 0)  -->
<svg version="1.1" id="Layer_1" xmlns="http://www.w3.org/2000/svg" xmlns:xlink="http://www.w3.org/1999/xlink" x="0px" y="0px"
	 viewBox="0 0 405.8 191.4" style="enable-background:new 0 0 405.8 191.4;" xml:space="preserve">
<style type="text/css">
	.st0{fill:#B9B4A8;stroke:#1F274B;stroke-width:7;stroke-miterlimit:10;}
	.st1{fill:#309245;}
	.st2{opacity:0.61;}
	.st3{fill:#57BB6B;}
	.st4{fill:none;stroke:#309245;stroke-width:3;stroke-miterlimit:10;}
	.st5{fill:#76C375;stroke:#76C375;stroke-width:2;stroke-miterlimit:10;}
	.st6{fill:none;stroke:#76C375;stroke-width:2;stroke-miterlimit:10;}
	.st7{opacity:0.17;fill:none;stroke:#76C375;stroke-width:2;stroke-miterlimit:10;enable-background:new    ;}
	.st8{fill:none;stroke:#76C375;stroke-width:3;stroke-miterlimit:10;}
	.st9{fill:none;stroke:#309245;stroke-width:2;stroke-miterlimit:10;}
	.st10{fill:#76C375;}
</style>
<title>interior4</title>
<path class="st0" d="M16.2,3.5h373.4c7,0,12.7,5.7,12.7,12.7v158.9c0,7-5.7,12.7-12.7,12.7H16.2c-7,0-12.7-5.7-12.7-12.7V16.2
	C3.5,9.2,9.2,3.5,16.2,3.5z"/>
<path class="st1" d="M270,32v91.2l22,22.1h79.6l21.3-21.3V33.9l-21.5-21.6h-78.7L270,32z"/>
<g class="st2">
	<path class="st3" d="M294.8,14.7v128.5"/>
	<path class="st3" d="M293.3,14.7v128.5c0,0.8,0.7,1.5,1.5,1.5s1.5-0.7,1.5-1.5V14.7c0-0.8-0.7-1.5-1.5-1.5S293.3,13.9,293.3,14.7z"
		/>
</g>
<g class="st2">
	<path class="st3" d="M369.6,14.7v128.5"/>
	<path class="st3" d="M368.2,14.7v128.5c0,0.8,0.7,1.5,1.5,1.5s1.5-0.7,1.5-1.5V14.7c0-0.8-0.7-1.5-1.5-1.5S368.2,13.9,368.2,14.7z"
		/>
</g>
<g class="st2">
	<path class="st3" d="M320.2,14.7v128.5"/>
	<path class="st3" d="M318.7,14.7v128.5c0,0.8,0.7,1.5,1.5,1.5s1.5-0.7,1.5-1.5V14.7c0-0.8-0.7-1.5-1.5-1.5S318.7,13.9,318.7,14.7z"
		/>
</g>
<g class="st2">
	<path class="st3" d="M346.5,14.7v128.5"/>
	<path class="st3" d="M345,14.7v128.5c0,0.8,0.7,1.5,1.5,1.5s1.5-0.7,1.5-1.5V14.7c0-0.8-0.7-1.5-1.5-1.5S345,13.9,345,14.7z"/>
</g>
<g class="st2">
	<path class="st3" d="M271.4,33h118.9"/>
	<path class="st3" d="M271.4,34.5h118.9c0.8,0,1.5-0.7,1.5-1.5s-0.7-1.5-1.5-1.5H271.4c-0.8,0-1.5,0.7-1.5,1.5
		S270.6,34.5,271.4,34.5z"/>
</g>
<g class="st2">
	<path class="st3" d="M272.6,123.7h118.9"/>
	<path class="st3" d="M272.6,125.2h118.9c0.8,0,1.5-0.7,1.5-1.5s-0.7-1.5-1.5-1.5l0,0H272.6c-0.8,0-1.5,0.7-1.5,1.5
		S271.8,125.2,272.6,125.2z"/>
</g>
<g class="st2">
	<path class="st3" d="M272.2,62.6h118.9"/>
	<path class="st3" d="M272.2,64.1h118.9c0.8,0,1.5-0.7,1.5-1.5s-0.7-1.5-1.5-1.5H272.2c-0.8,0-1.5,0.7-1.5,1.5
		S271.4,64.1,272.2,64.1z"/>
</g>
<g class="st2">
	<path class="st3" d="M272,94.1h118.9"/>
	<path class="st3" d="M272,95.6h118.9c0.8,0,1.5-0.7,1.5-1.5s-0.7-1.5-1.5-1.5H272c-0.8,0-1.5,0.7-1.5,1.5S271.2,95.6,272,95.6z"/>
</g>
<path class="st4" d="M269.4,32.1v91.2l22.1,22H371l21.3-21.3V34l-21.5-21.6H292l-19.3,16.8L269.4,32.1z"/>
<path class="st5" d="M347.7,68.5l-3.6,4.6c1.6,0.4,3,1.2,4.2,2.3c0.6-1.8,1.3-3.7,1.9-5.6L347.7,68.5z"/>
<path class="st6" d="M347.6,74.2"/>
<path class="st6" d="M344.1,73.1c-0.1,0.2,1,1,2,1.5s2.1,1,2.2,0.8s-0.9-1.1-2-1.7C345.3,73.3,344.2,72.9,344.1,73.1z"/>
<path class="st5" d="M339.9,64.2l-3.6,4.6c1.6,0.4,3,1.2,4.2,2.3c0.6-1.9,1.3-3.7,1.9-5.6L339.9,64.2z"/>
<path class="st6" d="M336.3,68.9c-0.1,0.2,1,1,2,1.5s2.1,1,2.2,0.8s-0.9-1.1-2-1.7C337.6,69,336.4,68.7,336.3,68.9z"/>
<path class="st6" d="M367.5,24.9c-1.4-0.8-3.2-0.1-5.3,0.7c-2.5,1-4.8,2.5-6.8,4.4c-5.8,5.6-9.8,14.1-10.9,16.5
	c-0.5,0.3-1.3,0.6-2.3,1c-1.8,0.7-3.6,1.3-5.4,1.7c-3.1,0.9-4.6,1.4-5.7,2.3c-1.4,1.1-2.4,2.6-2.9,4.3l33.7,18.6
	c1-1,1.7-2.2,2.1-3.6c0.6-2.7-0.7-4.6-1.8-8.6c-0.6-2.2-1-4.5-1.1-6.8c0.9-1.3,7-11.3,8.4-18.7c0.3-1.8,0.4-3.7,0.2-5.5
	C369.5,28.7,369.3,25.9,367.5,24.9z"/>
<path class="st5" d="M353.8,67.6c-0.1-0.3-0.6-0.4-0.7-0.4c-1.6-0.3-6-2.7-6.6-3s-5-2.8-6.1-4c-0.1-0.1-0.5-0.5-0.8-0.5
	s-0.4,0.3-0.5,0.5c-0.5,0.8-1,1.7-1.5,2.6c-0.2,0.5-0.3,0.6-0.2,0.9c0.1,0.5,0.5,0.9,0.9,1.1c8.3,4.9,9.6,5.5,12.2,6.6
	c0.4,0.2,0.9,0.3,1.4,0.1c0.2-0.1,0.4-0.3,0.5-0.5c0.8-1.1,0.6-1.6,1.3-2.8C353.8,68.1,353.9,67.8,353.8,67.6z"/>
<path class="st7" d="M367.5,24.9c-1.4-0.8-3.2-0.1-5.3,0.7c-2.5,1-4.8,2.5-6.8,4.4c-5.8,5.6-9.8,14.1-10.9,16.5
	c-0.5,0.3-1.3,0.6-2.3,1c-1.8,0.7-3.6,1.3-5.4,1.7c-3.1,0.9-4.6,1.4-5.7,2.3c-1.4,1.1-2.4,2.6-2.9,4.3l33.7,18.6
	c1-1,1.7-2.2,2.1-3.6c0.6-2.7-0.7-4.6-1.8-8.6c-0.6-2.2-1-4.5-1.1-6.8c0.9-1.3,7-11.3,8.4-18.7c0.3-1.8,0.4-3.7,0.2-5.5
	C369.5,28.7,369.3,25.9,367.5,24.9z"/>
<circle class="st8" cx="298.9" cy="43.7" r="15.4"/>
<path class="st5" d="M301.8,132c-0.8,0.5-1.5,1.1-2.3,1.6c-1,0.7-2,1.4-3,2c-0.5,0.3-1,0.4-1.5,0.4c-0.7,0.1-1.2-0.4-1.3-1
	c0-0.3,0.1-0.7,0.3-1c0.9-1.1,1.9-2.1,2.9-3.3c0.4,1,1.2,0.8,2,0.7c0.4,0,0.8,0,1.2,0.1c0.5,0.1,1.1,0.1,1.6,0.2L301.8,132z"/>
<path class="st5" d="M284.5,120.4l-2.8,0.1c-1.2,0-2.4,0.1-3.6,0.1c-0.5,0-1.1-0.2-1.5-0.4c-0.6-0.3-0.8-1-0.5-1.6
	c0.1-0.3,0.4-0.5,0.7-0.6c1.3-0.5,2.7-0.8,4.2-1.3c-0.2,1.1,0.6,1.3,1.3,1.7c0.4,0.2,0.7,0.4,1,0.7l1.3,1
	C284.5,120.3,284.5,120.4,284.5,120.4z"/>
<path class="st6" d="M308.9,82.3c0.1-0.3,0.2-0.6,0.3-0.9c0.1-0.2,0.2-0.4,0.3-0.6c0.6-1,1.3-1.8,2.2-2.5c0.1-0.1,0.1-0.1,0.1-0.2
	c0.8-0.8,1.9-1.3,3-1.3c1-0.1,1.1,0.2,4.8,1.2c1.3,0.4,2.6,0.8,3.9,1.3c0.6,0.2,1.1,0.5,1.6,0.9c0.8,0.8,1.3,1.8,1.4,2.9
	c0.6,2.2,0.5,4.6-0.2,6.7c-0.6,1.7-1.7,3.2-3,4.4c-3,0.3-6.1,0-9-1c-2.7-0.9-6.8-3-6.5-4.3c0.1-0.2,0.2-0.5,0.5-0.6
	C308.4,86.4,308.5,84.3,308.9,82.3z M325.8,80.8c0.1,0.1,0.2,0.2,0.4,0.3c0.1,0.2,0.2,0.3,0.3,0.5c0.4,1,0.6,2.1,0.6,3.3
	c0.3,2.8-0.5,5.6-2.3,7.8c-1.3,1.6-1,1.5-3.2,1.5c-2.7,0-5.5-0.5-8-1.5c-2.3-0.9-4.4-2-5.8-4c-0.2,0.5-0.1,0.6,0.1,0.9
	c0.9,1.1,1.9,2,3.2,2.7c1.9,1,3.9,1.6,6,2c1.8,0.4,3.7,0.5,5.5,0.5c0,0,0.1,0,0.2,0h0.2c1.4,0,2.7-0.1,4-0.4c0.1,0,0.2-0.1,0.3-0.3
	c0.4-0.5,0.7-1.1,1-1.7c1-2,1.6-4.1,1.9-6.3c0.3-1.5,0.3-3.1,0-4.7c-0.3-1.5-1-2.9-2.2-4c-0.1-0.2-0.3-0.3-0.5-0.4
	c-1.6-1.2-3.3-2.1-5.3-2.6c-3.4-1.1-7.1-0.3-9.8,2c0,0-0.1,0.1,0,0.1s0.1,0,0.1,0c1-0.1,1.9-0.1,2.9,0.1c3.7,0.6,7.3,2,10.4,4.2
	L325.8,80.8z M308.8,88.5L308.8,88.5L308.8,88.5L308.8,88.5z"/>
<path class="st5" d="M323,94.7h-0.1l0,0c0,0-0.1,0-0.1,0c-1.9,0.1-3.7-0.1-5.5-0.5c-2.1-0.4-4.1-1-6-2c-1.2-0.7-2.3-1.6-3.1-2.7
	c-0.3-0.3-0.3-0.4-0.1-0.9c1.4,2.1,3.5,3.1,5.8,4c2.5,1,5.3,1.5,8,1.5c2.2-0.1,1.9,0.1,3.2-1.5c1.8-2.2,2.6-5,2.3-7.8
	c-0.1-1.1-0.3-2.2-0.6-3.3c-0.1-0.2-0.2-0.4-0.3-0.5c0.1-0.3-0.1-0.4-0.4-0.3l0,0c0.2-0.1,0.4-0.3,0.5-0.5c0.1-0.4,0.3-0.8,0.4-1.1
	s0.2-0.4,0.5-0.5c0.1,0,0.2,0,0.2-0.1s-0.1-0.2-0.1-0.2s-0.2-0.1-0.2-0.3c0-0.2,0.1-0.4,0.2-0.6c0.1-0.2,0.3,0,0.4,0l0.2-0.1
	c1.1,1.1,1.9,2.5,2.1,4c0.3,1.5,0.3,3.1,0.1,4.7c-0.1,0-0.1,0.1-0.2,0.2c-0.2,0.5-0.4,1.1-0.7,1.6c-0.8,1.9-1.9,3.7-3.4,5.2
	c-0.8,0.7-1.5,1.5-2.8,1.5C323,94.5,322.9,94.6,323,94.7z"/>
<path class="st5" d="M327.9,77.4l-0.2,0.1c-0.1,0-0.3-0.2-0.4,0c-0.1,0.2-0.1,0.4-0.2,0.6c0,0.1,0.1,0.2,0.2,0.3s0.2,0.1,0.2,0.2
	s-0.1,0.1-0.2,0.1c-0.3,0-0.4,0.2-0.5,0.5s-0.3,0.8-0.4,1.1c-0.1,0.2-0.3,0.4-0.5,0.5c-5.2-2.4-9.1-3.8-10.3-3.9c-0.3,0-0.6,0-0.9,0
	c-0.8,0.1-1.5,0.4-2.2,0.8c0-0.4,0-0.8,0-1.3c1.3-1.1,2.8-2,4.5-2.3c1.8-0.4,3.6-0.3,5.4,0.3c1.9,0.5,3.7,1.4,5.3,2.6
	C327.6,77,327.8,77.2,327.9,77.4z"/>
<path class="st6" d="M308.6,88.3c0.2,0.5,0.5,0.8,0.9,1.1c1.6,1.3,3.4,2.2,5.3,2.9c2.2,0.7,4.5,1.1,6.8,1.2c0.5,0,1.1,0,1.6-0.1
	c0.4-0.2,0.8-0.5,1-0.9c1-1.3,1.8-2.9,2.1-4.5c0.2-1.3,0.2-2.7,0-4c0-0.3-0.1-0.7-0.1-1c-0.1-0.9-0.7-1.8-1.5-2.2
	c-1.3-0.8-2.6-1.4-4-1.9c-0.9-0.3-0.8-0.2-5.3-1.3c-1-0.3-2-0.3-2.9,0.1c-0.1,0.1-0.2,0.1-0.3,0.2c0.7-0.5,1.4-0.8,2.2-1
	c1.1-0.2,2.2,0.1,4.4,0.8c2.1,0.7,4.1,1.6,5.9,2.7c0.5,0.3,0.9,0.7,1.4,1c0.1,0.1,0.2,0.2,0.2,0.4c0.4,1.7,0.6,3.4,0.5,5.1
	c-0.2,1.6-0.7,3.2-1.5,4.6c-0.5,0.8-1,1.5-1.6,2.1c-0.1,0.1-0.3,0.2-0.4,0.2c-1.6,0.2-3.2,0.2-4.8-0.1c-1.8-0.3-3.6-0.8-5.4-1.5
	c-1.9-0.7-3.6-1.9-4.9-3.5c-0.1-0.1-0.2-0.2-0.1-0.4c0.2-0.1,0.4-0.2,0.6-0.2c0.1,0,0.1,0.2,0.1,0.2S308.6,88.3,308.6,88.3
	C308.5,88.3,308.5,88.2,308.6,88.3C308.5,88.3,308.5,88.3,308.6,88.3z"/>
<path class="st6" d="M323,94.7c0-0.1,0-0.2,0.1-0.2c1.2,0.1,2-0.8,2.8-1.5c1.5-1.5,2.6-3.2,3.4-5.2c0.2-0.5,0.5-1.1,0.6-1.6
	c0-0.1,0.1-0.2,0.2-0.2c-0.3,2.2-0.9,4.3-1.9,6.3c-0.3,0.6-0.6,1.1-1,1.7c-0.1,0.1-0.1,0.2-0.3,0.3C325.7,94.6,324.4,94.7,323,94.7z
	"/>
<path class="st6" d="M325.8,80.8c0.2,0,0.4,0,0.4,0.3C326,81,325.9,80.9,325.8,80.8z"/>
<path class="st6" d="M308.9,88.5L308.9,88.5L308.9,88.5L308.9,88.5z"/>
<path class="st6" d="M314.4,94.5L314.4,94.5L314.4,94.5z"/>
<path class="st6" d="M312.5,76.4c0,0-0.1,0-0.1,0s0,0,0-0.1L312.5,76.4z"/>
<path class="st6" d="M324.3,98.3"/>
<path class="st6" d="M308.6,88.3C308.6,88.3,308.5,88.2,308.6,88.3L308.6,88.3L308.6,88.3z"/>
<path class="st6" d="M306.7,93.9"/>
<path class="st6" d="M306,93.6L306,93.6L306,93.6z"/>
<path class="st6" d="M305.9,93.7C305.9,93.7,306,93.6,305.9,93.7L305.9,93.7C306,93.6,306,93.7,305.9,93.7L305.9,93.7z"/>
<path class="st5" d="M301.7,98.9c0,0-0.1-0.1-0.2-0.1c-0.8,0.1-1.6,0.2-2.3,0.2c-0.2,0-0.3-0.2-0.4-0.2c-0.4-0.4-0.5-1-0.5-2.6v-1.2
	c0-0.8,0-1.7,0-2.7v1.2c-0.1,1.3-0.1,2.5,0,3.8c0.1,0.5,0.2,1,0.4,1.5c-0.8-0.2-1.5-0.5-2.2-0.9c-2.1-1.1-2.4-1.9-3.6-2.7
	c-0.3-0.2-0.5-0.5-0.8-0.7c0-0.1,0-0.3,0.1-0.4c1-1.1,2-2.2,3-3.4c0.2-0.2,0.4-0.5,0.5-0.7c0.2-0.8,0-1.7-0.6-2.4
	c-0.6,2.4-2.2,4.5-4.3,5.9c0.2,0.3,0.4,0.5,0.7,0.6c0.2,0.1,0.4,0.1,0.6,0c1.3-1.4,2.3-2.5,3.1-3.4c0.2-0.2,0.4-0.5,0.5-0.7
	c0.1-0.8-0.1-1.7-0.6-2.3c-0.1,0.5-0.3,1-0.5,1.4c-0.3,0.8-0.8,1.6-1.4,2.2c-0.5,0.6-1.1,1.1-1.7,1.5c-0.1,0-0.1,0.1-0.2,0.1
	c-0.5,0.6-0.5,0.6-1.3,0.2l-1.2-0.7c-0.2-0.1-0.4-0.2-0.6-0.3c-0.4-0.3-0.7-0.6-0.9-1c-0.3-0.4-0.7-1-0.5-1.3s0.9-0.1,1-0.1
	c-0.7-0.4-1.1-0.9-1-1.1s0.6-0.3,1.3-0.1l-0.3-0.4c-0.5-0.6-0.7-0.9-0.6-1s0.6-0.4,1.3-0.4c-0.5-0.6-0.4-0.9-0.4-1
	c0.3-0.5,2.1-0.3,2.4,0.3c0,0.1,0,0.1,0,0.4s0.1,0.8,0.3,0.9c0.2,0.1,0.4,0.1,0.6-0.1c0.3-0.5,0.5-1.1,0.8-1.7
	c-0.1,0.1-0.2,0.4-0.3,0.7c-0.2,0.6-0.3,0.8-0.5,1c-0.2,0.1-0.4,0.1-0.6,0.1c-0.1-0.2-0.2-0.5-0.3-0.7c-0.1-0.2-0.1-0.4-0.1-0.6
	c0-1.7-0.1-2.9,0.7-3.5c0.5-0.5,1.4-0.5,1.6-0.3s-0.8,1.3-0.5,2c0.1,0.1,0.2,0.2,0.2,0.3c0.4,0.9,1.1,1.7,2,2.2
	c1.3,0.9,2.6,1.8,3.9,2.7c0.4,0.3,0.8,0.5,1.2,0.8c0.2,0.1,0.1,0.4,0,0.5c-0.1,1-0.2,2.1-0.5,3.1c-0.2,0.9-0.2,1.9-0.1,2.9
	c-0.1-0.7-0.1-1.3,0-2c0-0.1,0.1-0.6,0.3-1.8c0.1-0.4,0.1-0.8,0.2-1.2c0.1-0.3,0.1-0.6,0.1-1c0-0.3-0.1-0.4,0-0.5
	c0.2-0.3,1,0.1,2.1,0c0.7,0,0.8-0.3,2.6-0.9l1.5-0.5l0.1,2l-0.1-2h1.4c-0.2,0.9-0.5,1.7-0.7,2.5l0.2,0.1l0.4-2.1h0.5
	c0.9,1,1.9,1.9,3,2.7c2.5,1.6,5.4,2.5,8.4,2.7c1.5,0.2,2.9,0.2,4.4,0c1.3-0.2,2.7-0.5,3.9-1c-0.1,0.5-0.2,1.1-0.5,1.6
	c-0.4,1-1.1,1.9-2,2.6c1.7-1.8,2.9-3.9,3.5-6.3c0.2,0.5,0.3,1,0.3,1.5c0,0.4-0.1,0.9-0.2,1.3c0.3-0.9,0.3-1.9,0-2.8
	c0.8,0.4,1.6,0.8,2.3,1.5c0.7,0.7,1.4,1.5,2,2.4c0.3,0.4,0.6,0.8,0.9,1.3c0.6,0.9,0.5,1.1,0,1.9c-0.9,1.2-2.1,2.1-3.5,2.6
	c-0.4,0.1-0.7,0.3-1.1,0.5c1-0.3,1.9-0.8,2.7-1.4c0.7-0.5,1.4-1.1,1.9-1.8c0.2-0.3,0.3-0.6,0.5-1c0.3,0.2,0.5,0.5,0.5,0.9
	c0,0.2-0.1,0.4-0.3,0.6c-1.4,1.3-2.9,2.5-4.5,3.5c0.8-0.6,1.6-1.2,2.4-1.7c1.1-0.8,1.7-1.1,2.1-1.8c0.1-0.2,0.2-0.4,0.3-0.6
	c0.3,0.5,0.5,0.9,0.7,1.4c0.3,0.9,0.5,1.9,0.6,2.8c0.3,1.9,0.1,3.8-0.4,5.6c0,0.1,0,0.1-0.1,0.2c-0.3,1.4-0.5,1.5-1.8,1.7
	c-1.6,0.2-3.2,0.2-4.8-0.2c-0.4-0.1-0.9-0.1-1.3-0.2c0.5,0.1,3,0.4,4.8,0.5c1,0.1,2.1-0.3,2.9-0.9c-0.1,0.4-0.3,1-0.5,1.9
	c-0.3,1.4-0.7,2.8-1.2,4.2c0,0-0.2,0.5-0.3,0.6c-0.2,0.4-0.4,0.9-0.6,1.2c-0.5,0.5-1.3,0.9-1.5,0.7s0-0.9,0.5-1.6l-0.1-0.1
	c-0.2,0.4-0.5,0.8-0.9,1.1c-0.1,0-1,0.9-1.4,0.6s-0.1-0.8,0.3-1.5l-0.1-0.1c-0.1,0.1-0.2,0.3-0.3,0.5c-0.4,0.7-1,1.1-1.8,1.3
	c-0.4,0.1-0.9,0.1-1-0.1s0.4-0.4,0.7-0.9c0.2-0.3,0.3-0.7,0.3-1.1c-0.2,0.2-0.3,0.3-0.4,0.5c-0.6,0.7-1.4,1.2-2.3,1.4
	c-0.4,0.1-1-0.6-0.9-1c0-0.1,0.1-0.2,0.2-0.3c0.3-0.2,0.5-0.4,0.6-0.7c0.2-0.4,0.3-0.7,0.3-1.1c0.1-0.3,0.1-0.5,0.1-0.8
	c-0.1,0-0.3,1.2-0.7,1.2s-0.5-0.5-0.6-0.8c-0.1-0.2-0.1-0.3-0.1-0.5c0.1-0.4,0.3-0.8,0.7-0.9c0.3-0.3,0.6-0.6,0.9-0.9
	c0.4-0.6,0.7-1.2,0.9-1.9c4.7,0.7,7.1,1.2,7,1.5c0,0.1-0.2,0.1-0.5,0.1c-0.5,0-0.3,0.1-0.6,0.1c-0.7,0.1-1.5,0.1-2.2,0
	c-1.1-0.1-2.1-0.5-3-1.2c-0.3-0.3-0.8-0.8-0.9-0.7s0,0.2,0,0.2s0.4-0.4,0.6-0.8c0.9-1.5,1.4-3.3,1.3-5.1c-0.1-0.3-0.2-0.7-0.4-0.9
	c0,0-0.1-0.2-0.3-0.3s-0.1-0.1,0-0.2c0-0.1,0-0.3,0-0.4c-0.2-0.3-0.4-0.5-0.6-0.6c-0.5-0.3-1.9-1.1-3.7-2.2l2.2,1.3l0.5,0.3
	c-0.1,0.2-0.3,0.6-0.4,1c-1,2.4-0.8,3.7-1.5,5.5c-0.4,1-1,2-1.6,3c-1,1.5-2.1,3-3.2,4.5c-0.2,0.3-0.4,0.3-0.6,0c-1-0.9-2-1.7-3-2.4
	c-1.3-1-2.8-1.6-4.4-1.7c0.8,0.1,1.6,0.2,2.3,0.5c0.7,0.3,1.4,0.7,2.1,1.2c0.7,0.5,0.9,0.7,2,1.5c0.6,0.5,1.1,0.8,1.4,1
	c-0.1,0.1-0.4,0.4-0.6,0.6c-0.9,0.9-1.9,1.5-3.1,2c-2.2,0.8-4.4,1.5-6.5,2.3l-2.7,1c-1.1,0.3-2.2,0.4-3.3,0.2c-0.3,0-0.4,0-1-0.2
	c-1.2-0.2-2.3-0.4-3.1-0.5c0.9,0.2,1.7,0.3,2.6,0.4l2.3,0.4c0,0.1,0,0.4,0,0.7c0.1,0.9,0.3,1.6,0.3,1.8c0.1,1.6,0.1,3.3,0.1,4.9
	c0,1.1-0.3,2.1-1,2.9c-0.4,0.6-1.2,0.9-1.9,0.6c-0.9-0.3-1.8-0.5-2.6-0.9c-1.1-0.4-1.9-1.3-2.2-2.4c-0.3-1.1-0.6-2.3-0.8-3.4
	c-0.2-1.4-0.2-2.9-0.3-4.3c0-0.5,0-1,0-1.5c0-0.1,0-0.3,0-0.4l1.1,1c0.6,0.5,1.1,1,1.9,1.6l0.1,0.1l2.7,0.6v-0.1v0.1
	c-0.4-0.1-0.7-0.1-1-0.2c-0.6-0.1-1.2-0.3-1.7-0.4l-2.9-2.6c0-0.7,0.2-1.3,0.6-1.9l0.7,1.4h0.1l-0.8-1.3c0.1-0.3,0.2-0.5,0.4-0.8
	c0.2-0.2,0.4-0.5,0.6-0.6c2.3-1.6,4.5-2.3,4.8-3.4c0-0.1,0.2-0.9,0.2-0.9s0-0.2,0-0.4s-0.2-0.2-0.3-0.4c-0.1-0.2-0.2-0.5-0.2-0.7
	c0-0.3,0.1-0.7,0.2-1c0.4-1.4,0.3-2.9-0.2-4.3c0,0-0.1-0.1-0.1-0.1c-0.1-0.1-0.2-0.1-0.3-0.1c0.1,0.1,0.1,0.3,0.2,0.4
	c0.5,1,0.7,2.2,0.6,3.4c0,0.3-0.1,0.6-0.2,0.8c-0.4,0.7-0.3,1.6,0.3,2.2c0.1,0.1,0.1,0.2,0,0.4c-0.5,0.7-1.3,1.1-2.2,1.2
	c-1.4,0-2.7,0-4.1,0c-1.1,0-2.3,0-3.4,0c-0.4,0-0.8,0-1.1-0.3c-0.1-0.1-0.2-0.2-0.3-0.4c-0.2-0.5-0.3-1-0.2-1.6
	c-0.2-0.9-0.7-1.7-1.4-2.3c-0.6-0.7-1.4-1.1-2.2-1.2c0.7,0.2,1.5,0.5,2.1,1c1.2,1,1.8,2.5,1.8,4.1c-0.1,0-0.4-2-2.1-3.1
	c-0.5-0.3-1-0.5-1.5-0.6c0.5,0.1,1,0.3,1.5,0.6c1.1,0.7,1.8,1.8,2.1,3.1c-0.2,0.1-0.4,0.3-0.5,0.5c-0.1,0.3-0.2,0.6-0.3,0.9
	c-0.5,0.9-0.9,1.7-1.4,2.6c-0.5,1-1.3,1.8-2.2,2.4c-0.5,0.3-0.9,0.6-1.4,0.9c-0.2,0.1-0.3,0.1-0.5,0c-1-0.2-2-0.8-2.8-1.5
	c-0.8-0.9-1.1-2.2-0.7-3.3c0.4-1.7,1-3.3,1.8-4.8c0.4-0.8,0.9-1.5,1.5-2.3c0.3-0.4,0.6-0.8,0.8-0.8s0.4,0.8,0.4,0.8
	s-0.1-0.1-0.4-0.8c0.5-0.6,1.3-1,2.1-1.2c1.6-0.2,3.2-0.5,4.8-0.7c0.8-0.1,1.6-0.1,2.4,0c1.3,0.1,2.7,0,3.9-0.3
	c0.1,0,0.2-0.1,0.3-0.2l0.3,0.1c0.6,0,0.9-0.4,1.2-0.4c0.1,0,0.2,0.1,0.5,1.1c0.2,0.5,0.3,1,0.3,1.6c0,0.2,0,0.5,0,0.8
	c0-1.2-0.3-2.4-0.8-3.5c0.6-0.3,1.3-0.6,1.9-1s1.2-0.6,1.8-1c0.8-0.6,1.5-1.4,1.9-2.3c0.9-1.8,1.4-3.7,1.6-5.6
	c0.1-0.4,0.1-0.9,0.1-1.3c0,0.6,0,1-0.1,1.4c-0.1,0.6-0.2,1.2-0.3,1.8c-0.1,0.4-0.2,0.7-0.2,0.9c-0.6,0.2-1.1,0.3-1.7,0.4h-0.1
	L301.7,98.9z"/>
<path class="st9" d="M313.3,106.3c0.3,0.2,0.6,0.4,0.6,0.4c0.4,0.2,0.8,0.4,1.1,0.7c0.8,0.6,1.2,0.4,1.7-0.5
	c0.2-0.4,0.4-0.8,0.6-1.2c0.5-1.1,0.9-2.2,1.2-3.3c0.2-0.5,0.1-1.1-0.3-1.4c-0.9-0.7-1.9-1.3-2.8-1.9c-1.1-0.6-2.2-1-3.3-1.5
	c-0.7-0.5-1.6-0.3-2.1,0.4c-0.1,0.2-0.2,0.4-0.2,0.6c-0.5,1.4-0.9,2.8-1.3,4.3c-0.2,0.6-0.1,0.8,0.5,1c0.2,0.1,0.5,0.1,0.8,0.3
	l2.2,1.3c0.3,0.1,0.6,0.2,0.7,0.4c0.1,0.1,0.1,0.2,0.2,0.2C313.1,106.2,313.2,106.3,313.3,106.3z"/>
<path class="st6" d="M311.9,76.4"/>
<path class="st6" d="M312.2,77"/>
<path class="st10" d="M363.4,56.9c3.7,0.3,7.4,0.9,11,1.9c0.8,0.2,1.8,0.5,1.9,1c0.1,0.5,0.1,1,0,1.5c-0.1,1-0.6,2,0.1,3
	c0.6,0.8,1.7,1.5,0.8,2.3s-2.1,1.3-2.7,2.1c-0.5,0.9-0.9,1.8-1,2.8c-0.1,0.5-0.3,1-0.4,1.6c-0.1,0.4,0,0.9,0.3,1.3
	c0.4,0.4,0.9,0.8,0.8,1.3c-0.2,0.5-0.5,1-1,1.2c-1.3,0.8-2.6,1.4-4,1.9c-2.7,1-5.2,2.4-7.6,4.1c-0.9,0.9-1.9,1.7-3,2.3
	c-0.7,0.4-1.5,0.6-2.3,0.7c-0.9,0-1.8,0-2.7-0.3c-0.8-0.1-1.6-0.1-2.5,0c-0.7,0.2-1.5,0.4-2.2,0.7c-1.1,0.5-2.1,1.1-3,1.8
	c-1.1,0.8-2.4,1.4-3.8,1.8c-1.1,0.2-2.2,0.5-3.2,0.9c-0.7,0.3-1.3,0.7-1.9,1.2c-0.9,0.7-1.8,1.4-2.8,2.1c-0.4,0.3-0.9,0.6-1.4,0.9
	s0.6,0.6,1.1,0.3c1.1-0.7,2.1-1.4,3.1-2.2c0.6-0.5,1.2-1,1.9-1.4c0.9-0.5,1.9-0.9,2.9-1.1c1.4-0.3,2.8-0.7,4-1.4
	c1.1-0.6,1.9-1.4,2.9-2c0.6-0.4,1.2-0.6,1.9-0.9c0.4-0.2,0.9-0.3,1.3-0.3c0.5,0,1,0,1.5,0.1c0.9,0.2,1.7,0.3,2.6,0.2
	c0.8,0,1.6-0.2,2.4-0.5c1.2-0.5,2.3-1.2,3.3-2.1c2.3-1.9,4.8-3.4,7.5-4.4c2.5-1,6.6-2.4,6-4.3c-0.1-0.5-0.7-0.8-1-1.3s0-1,0.1-1.5
	c0.2-1.1,0.5-2.1,0.9-3.1c0.3-0.5,0.6-0.9,1.1-1.2c0.5-0.3,1-0.6,1.5-1c0.7-0.4,0.9-1.2,0.5-1.9c-0.1-0.2-0.2-0.3-0.4-0.4
	c-0.9-0.6-1.2-1.8-0.8-2.8c0.1-0.5,0.2-1.1,0.2-1.6c0.1-0.5-0.2-1-0.6-1.3c-0.7-0.3-1.4-0.6-2.1-0.8c-0.9-0.3-1.8-0.5-2.7-0.7
	c-1.8-0.4-3.7-0.7-5.6-0.9c-1-0.1-1.9-0.2-2.9-0.3C362.9,56.2,362.5,56.8,363.4,56.9L363.4,56.9z"/>
</svg>
