<?xml version="1.0" encoding="utf-8"?>
<!-- Generator: Adobe Illustrator 23.0.1, SVG Export Plug-In . SVG Version: 6.00 Build 0)  -->
<svg version="1.1" id="Layer_1" xmlns="http://www.w3.org/2000/svg" xmlns:xlink="http://www.w3.org/1999/xlink" x="0px" y="0px"
	 viewBox="0 0 279.2 663.4" style="enable-background:new 0 0 279.2 663.4;" xml:space="preserve">
<style type="text/css">
	.st0{fill:#404E5D;}
	.st1{fill:#C84645;}
	.st2{fill:#F7F8F8;}
	.st3{fill:#2D3945;}
	.st4{opacity:0.28;fill:#211D1E;enable-background:new    ;}
</style>
<title>lighthouse2</title>
<path class="st0" d="M192.2,121.3c15.6,0,31.2,0,46.8,0.1c1.7-0.2,3.4-0.1,5,0.4c10.8,4,10.5,27.7,10.5,35
	c-0.1,7.7-0.3,29.4-11,33.7c-1.1,0.7-2.5,1-3.8,0.8c-7-0.3-14.1,0-21.1,0.1H201c-6.2,0-12.5-0.1-18.7-0.1c-34.7,0-69.5,0-104.2,0.1
	H60.6c-7.5-0.1-14.9-0.2-22.4-0.1c-1,0-1.9-0.2-2.8-0.7c-9-3.9-9-21-9-34c0-12.7,0-30.5,9-34.4c0.9-0.4,1.9-0.6,2.9-0.7
	c16.3,0,32.6-0.1,48.9-0.1L192.2,121.3L192.2,121.3z"/>
<path class="st1" d="M15.9,541c0.3-10.4,2.3-20.6,3.6-30.8c2.9-23.4,6-46.8,9-70.3c0.1-1.2,0.4-2.5,0.6-3.7c1.8,0,3.6-0.1,5.4-0.1
	l193.6,0.1c7.3,0,14.7,0.1,22,0.1c4.3,33.5,8.6,67,12.9,100.4c0.2,1.4,0.2,2.8,0.3,4.1l-17.4,0.2c-1.1,0-2.2-0.2-3.3-0.2H36.5
	c-1.2,0-2.5,0.1-3.7,0.2H15.9z M139.4,523.5h100.1c2.3,0,4.4,0.3,3.9-3.3c-2.8-20.9-5.6-41.9-8.2-62.8c-0.3-2.7-1.4-3.8-4.2-3.7
	c-61.1,0.1-122.2,0.1-183.2,0c-2.5,0-3.6,0.5-3.9,3.3c-2.5,20.7-5.2,41.3-8.1,62c-0.5,3.7,0.6,4.7,4.3,4.7
	C73.3,523.5,106.3,523.5,139.4,523.5z"/>
<path class="st2" d="M15.9,541l16.9,0.2c-0.6,10.2-2.4,20.2-3.6,30.4c-1.4,11.6-2.9,23.2-4.4,34.8s-3.1,23.5-4.7,35.2
	c-0.4,3.2,0.6,4.3,4,4.3c77.1-0.1,154.2-0.1,231.3,0c3.6,0,4.2-1.3,3.7-4.4c-0.9-5.2-1.6-10.3-2.3-15.5c-1.8-14.1-3.4-28.2-5.2-42.2
	s-3.8-28.4-5.7-42.6l17.4-0.2c2.3,17.3,4.5,34.7,6.8,52c2.1,16,4.3,31.9,6.4,47.9c0.9,6.5,1.7,13.1,2.6,19.7
	c0.3,1.9-0.4,2.9-2.5,2.8c-1,0-1.9,0-2.9,0H5.5c-6.1,0-5.9,0-5-6c1.7-11.7,3.1-23.5,4.6-35.2c1.8-14.1,3.7-28.1,5.5-42.2
	c1.5-11.7,3-23.5,4.5-35.3C15.2,543.3,14.9,542,15.9,541z"/>
<path class="st1" d="M104.6,121.3H87.2c0-16-0.1-32.1,0.1-48.1c0.1-3.6-1.1-4.5-4.4-4.2s-6.6-0.1-9.9,0.1c-2.6,0.2-3.5-0.9-3.2-3.3
	v-0.8c-2-9.9,2.2-16,10.4-21.7c19.2-13.3,37.6-27.8,56.2-41.9c2.4-1.8,3.9-1.8,6.3,0c20.8,15.8,41.7,31.5,62.7,47
	c3,2.2,4.6,4.4,4.1,8.1c-0.1,2.3-0.1,4.7,0.1,7c-0.2,6.1,1.2,5.6-5.7,5.8c-3.8,0.1-8.7-1.7-11.1,0.8c-2.2,2.3-0.6,7.1-0.6,10.8v40.5
	h-17.7c0-16.2-0.1-32.4,0.1-48.6c0-2.8-0.7-3.8-3.7-3.8c-20.9,0.1-41.8,0.1-62.7,0c-3,0-3.7,0.9-3.7,3.8
	C104.7,88.8,104.7,105,104.6,121.3z M179.2,51.4c-0.4-0.7-0.5-1-0.6-1.1c-12.5-9.4-25-18.8-37.4-28.2c-1.5-1.2-2.4-0.5-3.6,0.3
	c-4.6,3.5-9.3,6.9-14,10.4c-8,6-16,12.1-24.7,18.6H179.2z"/>
<path class="st2" d="M250.1,436.2c-7.3,0-14.7-0.1-22-0.1L34.6,436c-1.8,0-3.6,0.1-5.4,0.1c1.2-10,2.4-20,3.6-29.9
	c1.5-11.9,3.1-23.7,4.7-35.6c2.4-18.6,4.9-37.1,7.3-55.7c1.6-12.6,2.9-25.1,4.4-37.7c0.1-0.7,0.3-1.3,0.6-1.9
	c-0.2,2.2,0.2,3.5,3,3.3c4.6-0.2,9.3,0,14,0.1c-0.4,3.6-0.6,7.1-1.1,10.7c-3,22.6-6.1,45.3-9,67.9c-3.2,24.7-6.1,49.5-9.4,74.1
	c-0.5,3.7,0.5,4,3.6,4c25.9-0.1,51.8,0,77.6,0c32.9,0,65.9-0.1,98.8,0.1c4.2,0,5-1.5,4.5-5c-0.7-4.8-1.2-9.6-1.9-14.3
	c-1.9-14.2-3.7-28.4-5.6-42.6l-4.8-36c-1.6-12-2.9-23.8-4.4-35.7c-1-7.8-2.2-15.5-3.3-23.3c1.8,0,3.5,0,5.3-0.2
	c4.1-0.4,8.4,1,12.5-0.8c1.6,12.1,3.1,24.3,4.7,36.4s3.1,24,4.7,36c1.8,13.7,3.5,27.3,5.3,41c1.6,12.2,3.1,24.3,4.7,36.5
	C249.4,430.5,249.7,433.4,250.1,436.2z"/>
<path class="st1" d="M229.7,277.8c-4.1,1.7-8.3,0.4-12.5,0.8c-1.8,0.2-3.5,0.1-5.3,0.2s-3.3-0.1-5-0.1H73.8c-2.4,0-4.7,0.1-7,0.2
	c-4.7-0.1-9.3-0.3-14-0.1c-2.8,0.1-3.3-1.1-3-3.3l10.9-83.9h17.5c-0.1,1-0.1,1.9-0.2,2.9c-2.7,21.2-5.4,42.4-8.3,63.6
	c-0.4,2.8,0.3,3.2,2.8,3.2c44.6-0.1,89.2-0.1,133.7,0c2.9,0,3.6-1,3.3-3.6c-1-7.1-1.9-14.2-2.8-21.3c-1.9-14.9-3.8-29.8-5.6-44.8
	h17.5c2.7,20.7,5.3,41.4,7.9,62.1C227.5,261.6,228.6,269.7,229.7,277.8z"/>
<path class="st1" d="M208,191.4c2.1,17,4.1,34,6.2,51c1,8.1,2,16.2,3.1,24.3c0.4,3-0.5,4.1-3.6,4.1c-49.2-0.1-98.4-0.1-147.6,0
	c-2.8,0-3.5-0.5-3.1-3.7c3.2-24.1,6.1-48.3,9.2-72.4c0.1-1.1,0.1-2.2,0.2-3.3c38.4-0.1,76.7-0.1,115.1-0.1
	C194.3,191.3,201.1,191.3,208,191.4z"/>
<path class="st3" d="M104.6,121.3c0-16.2,0.1-32.4,0-48.6c0-2.8,0.7-3.8,3.7-3.8c20.9,0.1,41.8,0.1,62.7,0c3,0,3.7,0.9,3.7,3.8
	c-0.1,16.2-0.1,32.4-0.1,48.6H104.6z"/>
<path class="st2" d="M255.3,541c2,15.9,4.2,31.9,6.1,47.8s3.7,31.6,5.6,47.4c0.7,5.8,1.5,11.7,2.5,17.4c0.6,3.5-0.1,5-4,5
	c-83.4-0.1-166.8-0.1-250.1,0c-3.7,0-4.8-1.2-4.3-4.8c1.7-13.2,3.4-26.4,5.1-39.5s3.3-26.1,4.8-39.1c1.3-11.4,3.3-22.7,3.9-34.1
	c1.3-0.1,2.7-0.3,4-0.3h222.9C252.9,541,254.1,541,255.3,541z"/>
<path class="st1" d="M140.5,534.9c-36-1.2-72-2.5-108-3.5c-4.1-0.1-5.2-1.4-4.5-6.2c4-26.8,7.8-53.6,11.5-80.4
	c0.5-3.7,1.7-4.3,4.4-4.2c66.4,2.3,132.8,4.5,199.2,6.7c3.1,0.1,4.1,1.5,4.4,5c2,27.4,4,54.7,6.1,82.1c0.4,4.8-1.8,4.3-4.4,4.2
	C213.1,537.3,176.8,536,140.5,534.9z"/>
<path class="st1" d="M179.2,51.4H98.9c8.7-6.6,16.7-12.6,24.7-18.6c4.6-3.5,9.3-6.9,14-10.4c1.2-0.9,2.1-1.5,3.6-0.3
	c12.4,9.5,24.9,18.8,37.4,28.2C178.7,50.4,178.8,50.7,179.2,51.4z"/>
<path class="st2" d="M66.8,278.7c2.4,0,4.7-0.2,7-0.2c49.5,0,74.1,0.4,133.1,0l11.8-0.1c2.5,7.1,4.5,14.3,6,21.6
	c2.9,14.2,2.3,20.8,4.2,34.8c1.8,13,2.8,10.4,7.5,33.7c6.1,29.5,5.9,40.2,5.6,44.7c-0.3,7.7-1.4,15.4-3.3,22.9
	c-2.2,0.1-4.4,0.1-6.6,0c-1.7-0.1-3.3-0.3-5-0.6c-2.2-0.3-38.2-0.1-98.8-0.1H50.7c-1.1-0.3-2.1-0.5-3.2-0.7
	c-2.5-0.2-5.1,0.2-7.4,1.2c3.1-26.6,6.5-53.7,10.2-81.3c3.5-25.9,7.3-51.3,11.3-76.2L66.8,278.7z M139.5,400.9
	c10.2,0,20.5-0.1,30.7,0.1c3.3,0.1,4.5-0.6,4.5-4.3c-0.2-15.1-0.1-30.1-0.1-45.2c0-4.2-0.6-8.3-1.8-12.3
	c-5-17.1-21.3-27.7-38.4-25.1c-16.3,2.5-29.3,17.4-29.6,34.6c-0.3,16.2,0,32.4-0.2,48.5c0,3,0.9,3.7,3.8,3.7
	C118.7,400.9,129.1,401,139.5,400.9L139.5,400.9z"/>
<path class="st0" d="M139.5,400.9c-10.4,0-20.8-0.1-31.1,0.1c-2.9,0-3.8-0.8-3.8-3.7c0.1-16.2-0.1-32.4,0.2-48.5
	c0.3-17.2,13.3-32.1,29.6-34.6c17.1-2.6,33.4,8,38.4,25.1c1.2,4,1.8,8.1,1.8,12.3c0,15.1-0.1,30.2,0.1,45.2c0,3.6-1.2,4.3-4.5,4.3
	C159.9,400.7,149.7,400.9,139.5,400.9z"/>
<rect y="595.5" class="st0" width="279.2" height="67.8"/>
<path class="st4" d="M0.3,662.2c-0.1-0.2-0.2-0.5-0.2-0.7v-0.7C0.1,639,0,617.2,0,595.4h8.4c0.4-2.8,1.2-9.5,1.6-12.4
	c2.8-22.2,5-39.1,7.1-54.8c1.3-10.1,3.6-27.8,6.4-49.4c5-38.6,8.6-66.8,9.6-74.8C37,373.5,44.5,315,60.7,191.4
	c-7.8-0.1-15.7-0.1-23.5-0.2c-0.7-0.2-1.4-0.5-2-0.8c-4.3-2.2-5.8-6.9-6.9-10.2c-1.4-4.3-1.5-7.8-1.8-14.1c-0.1-2.2-0.1-4-0.1-7.7
	c0-6.8,0-10.2,0.2-13.8c0.4-6.8,1.2-11.9,3.2-16.5c0.8-1.9,2-3.5,3.5-4.8c1.5-1.1,3.2-1.8,5-2.1c16.3,0,32.7-0.1,49-0.1l-0.6-51.3
	C86.3,70,78,73.2,73,68.9s-2.9-13.3-2.5-15c3-11.5,14.4-16.3,28.7-24.9c13.3-8,25.8-17.3,37.2-27.8c-2.5,22.6-5,45.1-7.5,67.7
	c-15.8-4.8-21.3-1.8-23.6,0.6c-3.9,4-1.7,10.6-0.7,25.1c0.6,8.9,0.6,17.7,0,26.6c-5,7.2-8.3,15.4-9.7,24.1
	c-3.9,25,10.3,44.1,13.4,48.1c-1.9,33.8-3.5,67.9-4.9,102.4c-5.2,125.5-7.1,247.6-5.6,366.4C56,662.5,0.6,662.8,0.3,662.2z"/>
</svg>
