<?xml version="1.0" encoding="utf-8"?>
<!-- Generator: Adobe Illustrator 23.0.1, SVG Export Plug-In . SVG Version: 6.00 Build 0)  -->
<svg version="1.1" id="Layer_1" xmlns="http://www.w3.org/2000/svg" xmlns:xlink="http://www.w3.org/1999/xlink" x="0px" y="0px"
	 viewBox="0 0 594.9 544" style="enable-background:new 0 0 594.9 544;" xml:space="preserve">
<style type="text/css">
	.st0{fill:#090F1B;stroke:#DBD9D5;stroke-width:2;stroke-miterlimit:10;}
	.st1{opacity:0.69;}
	.st2{fill:#DBD9D5;}
	.st3{fill:#231F20;}
	.st4{fill:#FFFFFF;}
	.st5{fill:none;stroke:#DBD9D5;stroke-width:2;stroke-miterlimit:10;}
</style>
<title>modal-face</title>
<path class="st0" d="M221,3.1c-36.9-2.3-63.2,16.7-71.7,22.8c-28.9,20.8-45.2,53.6-49.1,61.9c-4.2,9-8.3,18.7-18,31
	c-8.1,10-17.6,18.7-28.4,25.7c-5.1,2.2-7.6,4.1-7.5,5.7c0.3,2.9,9,4.9,26.1,6.1c-6.5,4.3-13.5,7.8-20.8,10.4
	c-13.7,4.8-23.3,4.6-23.6,7.2c-0.2,1.8,3.7,4.8,23.7,10.2l-13.5,8.1c-7.7,4.3-13.3,7.3-17.1,9.3c-2.7,1.4-4.3,2.3-4.2,3.3
	c0.2,2.4,10.5,3.6,19.4,4.2L2.5,224.4c8.8,4.1,17.9,7.7,27.1,10.7c8.2,2.7,15.9,4.7,23,6.3c-2.1,6-2.8,12.4-2,18.7
	c0.8,5.1,2.3,10.1,4.7,14.7c2,3.9,3.9,6.2,6.8,12.3c0,0,1.4,3,2.7,6.4c5.6,15,1.9,36.6,9.3,41.9c3.2,2.3,9.8,2.6,25-7.1
	c0.4,3.6,1.1,8.6,2.2,14.5c2.2,12.5,5.1,24.8,8.9,36.9c7,21.8,15.8,37,26.4,55.6c6.9,11.9,11.9,20.8,20.6,32
	c9,11.7,19.1,22.5,30.2,32.2c11.4,9.8,37,31.1,76.2,39.6c23.7,4.9,48.2,4.6,71.8-0.9c56.7-13.1,89.9-51.8,105.4-69.9
	c12.9-15.1,25.4-34,32.5-49.1c1.4-3,4.5-10.5,10.8-25.5c3.9-9.3,4.9-11.8,5.9-15.8c1.2-4.7,1.6-9.2,2.9-23.6
	c0.7-8.2,1.1-15.9,1.3-23.2c4.1,2.1,16.7,8.3,22.1,3.5c2-1.7,2.1-4.1,3-12.5c1.4-12.2,2-18.3,2.7-21.3c1.3-5.4,4.1-11.2,9.8-22.9
	c3.4-7,5-9.5,6-14.3c1-5.1,1-10.4,0-15.5c4.7-0.3,9.4-0.9,14-1.8c5.4-1.1,6.5-1.7,6.8-2.6c0.3-0.9,0.5-4.1-11.3-12.3
	c4.8,0,9.6-0.5,14.3-1.3c8.8-1.7,16-3.1,17.8-6.7c4.3-8.7-23.1-29.8-26.5-32.4c8.5-2,16.5-5.8,23.5-11c7.1-5.3,18-15.9,15.6-20.5
	c-1.7-3.2-8-0.1-23.5-1.5c-5.3-0.5-12.9-2.2-28-5.5c-6.9-1.5-12.6-2.9-16.6-3.9c24.7,2.8,30.4,0.9,31.1-1.4
	c1.4-4.7-18.5-11.4-49.3-35.1c-10.5-8-20.5-16.7-29.7-26.2c-11.1-11.6-9.5-12.3-20.8-24c-10.8-11.2-22.7-21.3-35.4-30.2
	c-6.1-4.5-12.4-8.5-19-12.2c-9.3-4.9-19-8.8-29.1-11.7c-10.3-3-25.7-7.4-45.4-6c-1.9,0.1-4.3,0.3-7.2,0.8
	c-17.7,2.9-31.6,12.4-41.5,21.8C269.1,18,249.2,4.8,221,3.1z"/>
<g class="st1">
	<circle class="st2" cx="219.2" cy="257.9" r="51.2"/>
	<path class="st3" d="M195.1,235.2c0.2,0,0.3-0.2,0.2-0.3c0-0.1-0.1-0.2-0.2-0.2c-0.2,0-0.3,0.1-0.3,0.2
		C194.9,235,194.9,235.2,195.1,235.2L195.1,235.2z"/>
	<path class="st3" d="M193,253.1c0.2,0,0.3-0.2,0.2-0.3c0-0.1-0.1-0.2-0.2-0.2c-0.2,0-0.3,0.2-0.2,0.3
		C192.8,253,192.9,253.1,193,253.1z"/>
	<path class="st3" d="M202.3,279.4c0.2,0,0.3-0.2,0.2-0.3c0-0.1-0.1-0.2-0.2-0.2c-0.2,0-0.3,0.2-0.2,0.3
		C202.1,279.3,202.2,279.4,202.3,279.4z"/>
	<path class="st3" d="M245.6,258.2c0.2,0,0.3-0.2,0.2-0.3c0-0.1-0.1-0.2-0.2-0.2c-0.2,0-0.3,0.2-0.2,0.3
		C245.5,258.1,245.4,258.2,245.6,258.2z"/>
	<path class="st3" d="M218.7,237.5c0.2,0,0.3-0.2,0.2-0.3c0-0.1-0.1-0.2-0.2-0.2c-0.2,0-0.3,0.1-0.3,0.2S218.6,237.5,218.7,237.5
		L218.7,237.5z"/>
	<path class="st4" d="M237.9,285.5c0.2,0,0.3-0.2,0.2-0.3c0-0.1-0.1-0.2-0.2-0.2c-0.2,0-0.3,0.1-0.3,0.2S237.7,285.5,237.9,285.5
		L237.9,285.5z"/>
	<path class="st4" d="M243.3,232.3c0.2,0,0.3-0.2,0.2-0.3c0-0.1-0.1-0.2-0.2-0.2c-0.2,0-0.3,0.2-0.2,0.3
		C243.1,232.2,243.2,232.3,243.3,232.3z"/>
	<circle class="st2" cx="375.7" cy="257.9" r="51.2"/>
	<path class="st5" d="M270.4,257.9c7.9-14.9,26.4-20.6,41.3-12.7c5.4,2.9,9.9,7.3,12.7,12.7"/>
	<path class="st3" d="M399.8,282c0.3,0,0.3-0.5,0-0.5C399.6,281.4,399.5,282,399.8,282z"/>
	<path class="st3" d="M402,264.1c0.3,0,0.3-0.5,0-0.5c-0.1,0-0.3,0.1-0.3,0.3S401.9,264.1,402,264.1L402,264.1z"/>
	<path class="st3" d="M392.6,237.7c0.2,0,0.3-0.2,0.2-0.3c0-0.1-0.1-0.2-0.2-0.2c-0.2,0-0.3,0.1-0.3,0.2S392.5,237.7,392.6,237.7
		L392.6,237.7z"/>
	<path class="st3" d="M349.4,259c0.2,0,0.3-0.2,0.2-0.3c0-0.1-0.1-0.2-0.2-0.2c-0.2,0-0.3,0.2-0.2,0.3
		C349.3,258.9,349.4,259,349.4,259z"/>
	<path class="st3" d="M376.2,279.7c0.1,0,0.3-0.1,0.3-0.3c0-0.1-0.1-0.3-0.3-0.3C375.9,279.2,375.9,279.7,376.2,279.7z"/>
	<path class="st3" d="M357.1,231.5c0.2,0,0.3-0.2,0.2-0.3c0-0.1-0.1-0.2-0.2-0.2c-0.2,0-0.3,0.1-0.3,0.2
		C356.9,231.4,357,231.5,357.1,231.5C357.1,231.5,357.1,231.6,357.1,231.5z"/>
	<path class="st3" d="M351.7,284.8c0.2,0,0.3-0.2,0.2-0.3c0-0.1-0.1-0.2-0.2-0.2c-0.2,0-0.3,0.1-0.3,0.2
		C351.4,284.6,351.5,284.8,351.7,284.8L351.7,284.8z"/>
</g>
</svg>
