<svg id="Layer_1" data-name="Layer 1" xmlns="http://www.w3.org/2000/svg" viewBox="0 0 532.41 463.76"><defs><style>.cls-1{fill:#e5e6e6;}.cls-2,.cls-7{fill:#231f20;}.cls-2,.cls-3{stroke:#8f8f99;stroke-miterlimit:10;}.cls-2{stroke-width:5px;}.cls-3{fill:#8f8f99;stroke-width:3px;}.cls-4{fill:#4b374f;}.cls-5{fill:#fff;opacity:0.11;}.cls-6{fill:#686870;}.cls-7{opacity:0.15;}</style></defs><title>monitor-off</title><path class="cls-1" d="M225.47,581.81a64.53,64.53,0,0,1-9.18,33.31,60.87,60.87,0,0,1-18,19,57.4,57.4,0,0,1-21,8.38H136.9c-10.77,2-19.22,9-21.5,18.11a22.89,22.89,0,0,0,1.15,13.9h346.5a23.57,23.57,0,0,0-.6-13.76c-3.38-9.11-12.88-15.43-24.23-16.36l-44.29-1a67.35,67.35,0,0,1-6-3.3,64.69,64.69,0,0,1-22.15-21.84,62.25,62.25,0,0,1-8.37-35.61Z" transform="translate(-23.27 -211.03)"/><path class="cls-2" d="M537.88,614.18l-506.11.3a6,6,0,0,1-6-6v-389a6,6,0,0,1,6-6H547a6,6,0,0,1,6,6V595.76Z" transform="translate(-23.27 -211.03)"/><path class="cls-3" d="M25.74,548.49H553q.51,24.25,1,48.51l.12,9.88a8.82,8.82,0,0,1-2.3,5.71,6.48,6.48,0,0,1-5,2.41l-10.27.12-501.18-.64a13.36,13.36,0,0,1-3.31,0,8.2,8.2,0,0,1-3.76-1.06c-2.14-1.41-2.52-4.17-2.59-4.94L25.83,596l-.06-5.08Q25.52,569.53,25.74,548.49Z" transform="translate(-23.27 -211.03)"/><path class="cls-4" d="M289.38,587.19" transform="translate(-23.27 -211.03)"/><path class="cls-4" d="M289.38,594.19c9,0,9-14,0-14s-9,14,0,14Z" transform="translate(-23.27 -211.03)"/><path class="cls-5" d="M47,613.53q-7.85.76-15.9.87c-1.13,0-2.26,0-3.39,0-.14.07-1.17.49-1.77-1.65a23.5,23.5,0,0,1-.54-5.08c0-.71,0-1.3,0-1.71,0-2,0-9.41,0-11.36q-.33-188.28.07-376.58a12.15,12.15,0,0,1,.72-3.38c.56-1.33,1.16-1.17,1.3-1.12H47.24q-1.55,95.49-1.67,200T47,613.53Z" transform="translate(-23.27 -211.03)"/><path class="cls-6" d="M177.29,642.55c162.31.35,209.44.69,217.09,1,15,.53,19.78.15,29.37.53h0s12.85,0,16.56.4A29.45,29.45,0,0,1,460,655.51a20.21,20.21,0,0,1,4,8.73,19.78,19.78,0,0,1-.95,10.32l-346.89.1a24.22,24.22,0,0,1-1.7-7.38,26.6,26.6,0,0,1,2.09-11.69c5-10.77,18.23-13.21,19.3-13.39Z" transform="translate(-23.27 -211.03)"/><path class="cls-7" d="M216.29,615.12a57.64,57.64,0,0,1-37.8,27.23l-47.27,1.5c-1.08.38-13,4.89-15.82,16.81a23.16,23.16,0,0,0,1.15,13.9c3.82,0,9.65.07,16.76.1,28.88.14,44.52.21,63.43,0,7.19-.08,17.58-.24,30.23-.57l10.47-59.39Z" transform="translate(-23.27 -211.03)"/><path class="cls-5" d="M46.9,235.47q.16-11,.34-21.94c1.91.08,4.88.18,8.59.18l2.15,0,14.32,0c2.73,0,466.71-.88,475,.08a7.81,7.81,0,0,1,3.85,1.54,6.71,6.71,0,0,1,1.83,2.65v17.58q-60.23-.77-123.32-1.2c-7.68,0-66.18-.44-128.93-.46C243.86,233.84,159.78,234.1,46.9,235.47Z" transform="translate(-23.27 -211.03)"/></svg>