<?xml version="1.0" encoding="utf-8"?>
<!-- Generator: Adobe Illustrator 23.0.1, SVG Export Plug-In . SVG Version: 6.00 Build 0)  -->
<svg version="1.1" id="Layer_1" xmlns="http://www.w3.org/2000/svg" xmlns:xlink="http://www.w3.org/1999/xlink" x="0px" y="0px"
	 viewBox="0 0 532.4 463.8" style="enable-background:new 0 0 532.4 463.8;" xml:space="preserve">
<style type="text/css">
	.st0{fill:#E5E6E6;}
	.st1{fill:#D8E4E8;stroke:#8F8F99;stroke-width:5;stroke-miterlimit:10;}
	.st2{fill:#8F8F99;stroke:#8F8F99;stroke-width:3;stroke-miterlimit:10;}
	.st3{fill:#4B374F;}
	.st4{opacity:0.28;fill:#FFFFFF;}
	.st5{opacity:0.15;fill:#231F20;enable-background:new    ;}
	.st6{fill:#686870;}
</style>
<title>monitor</title>
<path class="st0" d="M202.2,370.8c0,11.7-3.1,23.2-9.2,33.3c-4.6,7.6-10.7,14-18,19c-6.4,4.2-13.5,7-21,8.4h-40.4
	c-10.8,2-19.2,9-21.5,18.1c-1.1,4.6-0.7,9.5,1.2,13.9h346.5c1.2-4.5,1-9.3-0.6-13.8c-3.4-9.1-12.9-15.4-24.2-16.4l-44.3-1
	c-2.1-1-4.1-2.1-6-3.3c-9-5.4-16.7-12.9-22.1-21.8c-6.3-10.8-9.2-23.2-8.4-35.6L202.2,370.8z"/>
<path class="st1" d="M514.6,403.1L8.5,403.4c-3.3,0-6-2.7-6-6V8.4c0-3.3,2.7-6,6-6h515.2c3.3,0,6,2.7,6,6v376.3L514.6,403.1z"/>
<path class="st2" d="M2.5,337.5h527.3c0.3,16.2,0.7,32.3,1,48.5l0.1,9.9c-0.1,2.1-0.9,4.1-2.3,5.7c-1.2,1.5-3.1,2.4-5,2.4l-10.3,0.1
	l-501.2-0.6c-1.1,0.1-2.2,0.1-3.3,0c-1.3,0-2.6-0.4-3.8-1.1c-2.1-1.4-2.5-4.2-2.6-4.9L2.6,385l-0.1-5.1
	C2.3,365.6,2.3,351.5,2.5,337.5z"/>
<path class="st3" d="M266.1,376.2"/>
<path class="st4" d="M527.2,103.8c-81.8,77.4-163.6,154.7-245.5,232.1c-20,0-40.1-0.1-60.1-0.1c101.9-96.5,203.7-193,305.6-289.5
	C527.2,65.5,527.2,84.7,527.2,103.8z"/>
<path class="st4" d="M333.4,5.1C224,105.6,114.6,206,5.2,306.4C5.1,283,5,259.6,4.9,236.2C91.4,159.1,177.8,82.1,264.3,5
	C287.3,5,310.3,5.1,333.4,5.1z"/>
<path class="st5" d="M23.7,402.5c-5.2,0.5-10.5,0.8-15.9,0.9c-1.1,0-2.3,0-3.4,0c-0.1,0.1-1.2,0.5-1.8-1.7c-0.4-1.7-0.5-3.4-0.5-5.1
	c0-0.7,0-1.3,0-1.7c0-2,0-9.4,0-11.4C1.9,258,1.9,132.5,2.2,7c0.1-1.2,0.3-2.3,0.7-3.4c0.6-1.3,1.2-1.2,1.3-1.1H24
	c-1,63.7-1.6,130.3-1.7,200C22.2,272.2,22.7,338.8,23.7,402.5z"/>
<path class="st6" d="M154,431.5c162.3,0.3,209.4,0.7,217.1,1c15,0.5,19.8,0.2,29.4,0.5l0,0c0,0,12.9,0,16.6,0.4
	c7.8,0.9,14.9,4.9,19.7,11c2,2.5,3.4,5.5,4,8.7c0.6,3.5,0.3,7-1,10.3l-346.9,0.1c-1-2.4-1.5-4.8-1.7-7.4c-0.2-4,0.5-8,2.1-11.7
	c5-10.8,18.2-13.2,19.3-13.4L154,431.5z"/>
<path class="st5" d="M193,404.1c-8.2,14-21.9,23.9-37.8,27.2l-47.3,1.5c-1.1,0.4-13,4.9-15.8,16.8c-1.1,4.6-0.7,9.5,1.1,13.9
	c3.8,0,9.7,0.1,16.8,0.1c28.9,0.1,44.5,0.2,63.4,0c7.2-0.1,17.6-0.2,30.2-0.6l10.5-59.4L193,404.1z"/>
<path class="st5" d="M23.6,24.4c0.1-7.3,0.2-14.6,0.3-21.9c1.9,0.1,4.9,0.2,8.6,0.2h2.2H49c2.7,0,466.7-0.9,475,0.1
	c1.4,0.2,2.7,0.7,3.8,1.5c0.8,0.7,1.4,1.6,1.8,2.6v17.6c-40.2-0.5-81.3-0.9-123.3-1.2c-7.7,0-66.2-0.4-128.9-0.5
	C220.6,22.8,136.5,23.1,23.6,24.4z"/>
</svg>
