<?xml version="1.0" encoding="utf-8"?>
<!-- Generator: Adobe Illustrator 23.0.1, SVG Export Plug-In . SVG Version: 6.00 Build 0)  -->
<svg version="1.1" id="Layer_1" xmlns="http://www.w3.org/2000/svg" xmlns:xlink="http://www.w3.org/1999/xlink" x="0px" y="0px"
	 viewBox="0 0 256.6 202.6" style="enable-background:new 0 0 256.6 202.6;" xml:space="preserve">
<style type="text/css">
	.st0{fill:url(#SVGID_1_);}
	.st1{fill:#BEE4E1;}
	.st2{fill:#FBE7B2;}
	.st3{fill:#F06047;}
	.st4{fill:#D0D3D0;}
	.st5{fill:#A3C090;}
	.st6{fill:#DE5941;}
	.st7{fill:#BCBFBD;}
	.st8{fill:#94AF84;}
</style>
<title>mug</title>
<linearGradient id="SVGID_1_" gradientUnits="userSpaceOnUse" x1="353.37" y1="669.77" x2="463" y2="669.77" gradientTransform="matrix(1 0 0 1 -279.02 -613.2998)">
	<stop  offset="0" style="stop-color:#A9DBD3"/>
	<stop  offset="1" style="stop-color:#BEE4E1"/>
</linearGradient>
<path class="st0" d="M184,0H74.3v104c0.2,2.4,1.2,4.7,3,6.3c1.8,1.6,4.1,2.5,6.5,2.6h91c2.4,0.1,4.8-0.7,6.5-2.4
	c1.8-1.8,2.6-4.2,2.4-6.7L184,0z"/>
<path class="st1" d="M176.8,17.1h32.5c2-0.2,3.8,1.3,4,3.3c0,0.3,0,0.6,0,0.9v62.5c-0.1,1.8-1.3,3.3-3,3.7h-34.5l0.7-10.3l22.8-0.5
	c1.2-0.1,2.2-1.2,2.1-2.4l0.2-42.3c0.2-0.9-0.4-1.9-1.3-2.1c0,0,0,0,0,0c-0.2,0-0.4,0-0.6,0l-22.4,0.3
	C177.1,25.8,176.9,21.5,176.8,17.1z"/>
<rect x="224.8" y="113.6" class="st2" width="12.7" height="28.7"/>
<path class="st3" d="M22.1,112.9h216c-4.7,9.4-4.7,20.5,0,29.9h-216c-3.5-3.8-5.5-8.7-5.8-13.8C16,123.1,18.1,117.3,22.1,112.9z"/>
<rect x="35.3" y="143.5" class="st2" width="12.7" height="28.7"/>
<path class="st4" d="M250.8,142.8h-216c4.4,9.5,4.4,20.4,0,29.9h216c3.5-3.8,5.5-8.7,5.8-13.8C256.8,153,254.7,147.2,250.8,142.8z"
	/>
<rect x="208.6" y="173.4" class="st2" width="12.7" height="28.7"/>
<path class="st5" d="M5.9,172.7h216c-4.8,9.4-4.8,20.5,0,29.9H5.9C-1.9,194.2-1.9,181.2,5.9,172.7z"/>
<path class="st6" d="M225,133.9H31.4c-0.5-0.5-2.5-2.8-2.5-6.4c0-3.5,2-5.8,2.5-6.4c64.5,0,129.1,0,193.6,0c-0.6,0.9-2,3.3-1.9,6.7
	C223.2,130.9,224.4,133,225,133.9z"/>
<path class="st7" d="M52.7,164.1h193.6c0.5-0.5,2.5-2.8,2.5-6.4c0-3.5-2-5.8-2.5-6.4c-64.5,0-129.1,0-193.6,0c0.6,0.9,2,3.3,1.9,6.7
	C54.6,161.1,53.3,163.3,52.7,164.1z"/>
<path class="st8" d="M209,194H15.3c-0.5-0.5-2.5-2.8-2.5-6.4c0-3.5,2-5.8,2.5-6.4c64.5,0,129.1,0,193.6,0c-0.6,0.9-2,3.3-1.9,6.7
	C207.2,191,208.4,193.2,209,194z"/>
</svg>
