<svg id="Layer_1" data-name="Layer 1" xmlns="http://www.w3.org/2000/svg" viewBox="0 0 595.28 72.47"><defs><style>.cls-1{fill:#616264;}.cls-2{fill:#343434;}.cls-3{fill:#af9030;}</style></defs><title>path</title><rect class="cls-1" y="4" width="595.28" height="68.47"/><rect class="cls-2" width="595.28" height="68.47"/><path class="cls-3" d="M5.12,351.88H30.53" transform="translate(0 -318)"/><path class="cls-3" d="M5.12,353.38H30.53a1.5,1.5,0,0,0,0-3H5.12a1.5,1.5,0,0,0,0,3Z" transform="translate(0 -318)"/><path class="cls-3" d="M53.24,351.88H78.65" transform="translate(0 -318)"/><path class="cls-3" d="M53.24,353.38H78.65a1.5,1.5,0,0,0,0-3H53.24a1.5,1.5,0,0,0,0,3Z" transform="translate(0 -318)"/><path class="cls-3" d="M107.12,351.88h25.41" transform="translate(0 -318)"/><path class="cls-3" d="M107.12,353.38h25.41a1.5,1.5,0,0,0,0-3H107.12a1.5,1.5,0,0,0,0,3Z" transform="translate(0 -318)"/><path class="cls-3" d="M158.53,352.24h25.41" transform="translate(0 -318)"/><path class="cls-3" d="M158.53,353.74h25.41a1.5,1.5,0,0,0,0-3H158.53a1.5,1.5,0,0,0,0,3Z" transform="translate(0 -318)"/><path class="cls-3" d="M213.41,352.24h25.41" transform="translate(0 -318)"/><path class="cls-3" d="M213.41,353.74h25.41a1.5,1.5,0,0,0,0-3H213.41a1.5,1.5,0,0,0,0,3Z" transform="translate(0 -318)"/><path class="cls-3" d="M261.53,352.24h25.41" transform="translate(0 -318)"/><path class="cls-3" d="M261.53,353.74h25.41a1.5,1.5,0,0,0,0-3H261.53a1.5,1.5,0,0,0,0,3Z" transform="translate(0 -318)"/><path class="cls-3" d="M315.41,352.24h25.41" transform="translate(0 -318)"/><path class="cls-3" d="M315.41,353.74h25.41a1.5,1.5,0,0,0,0-3H315.41a1.5,1.5,0,0,0,0,3Z" transform="translate(0 -318)"/><path class="cls-3" d="M367.76,352.24h25.42" transform="translate(0 -318)"/><path class="cls-3" d="M367.76,353.74h25.42a1.5,1.5,0,0,0,0-3H367.76a1.5,1.5,0,0,0,0,3Z" transform="translate(0 -318)"/><path class="cls-3" d="M422,352.24h25.41" transform="translate(0 -318)"/><path class="cls-3" d="M422,353.74h25.41a1.5,1.5,0,0,0,0-3H422a1.5,1.5,0,0,0,0,3Z" transform="translate(0 -318)"/><path class="cls-3" d="M476.82,352.24h25.42" transform="translate(0 -318)"/><path class="cls-3" d="M476.82,353.74h25.42a1.5,1.5,0,0,0,0-3H476.82a1.5,1.5,0,0,0,0,3Z" transform="translate(0 -318)"/><path class="cls-3" d="M531.06,352.24h25.41" transform="translate(0 -318)"/><path class="cls-3" d="M531.06,353.74h25.41a1.5,1.5,0,0,0,0-3H531.06a1.5,1.5,0,0,0,0,3Z" transform="translate(0 -318)"/></svg>