<?xml version="1.0" encoding="utf-8"?>
<!-- Generator: Adobe Illustrator 23.0.1, SVG Export Plug-In . SVG Version: 6.00 Build 0)  -->
<svg version="1.1" id="Layer_1" xmlns="http://www.w3.org/2000/svg" xmlns:xlink="http://www.w3.org/1999/xlink" x="0px" y="0px"
	 viewBox="0 0 170.9 313.5" style="enable-background:new 0 0 170.9 313.5;" xml:space="preserve">
<style type="text/css">
	.st0{fill:#6AA142;}
	.st1{fill:#8CBE40;}
	.st2{fill:url(#SVGID_1_);}
</style>
<title>plant</title>
<path class="st0" d="M114.9,197c0.3,3.2-1.3,6.1-1.5,9.2c-3.9,0.5-7.8,0.5-11.7-0.1c0.8-3.3,0.9-6.7,2-9.9
	C107.5,195.8,111.1,197,114.9,197z"/>
<path class="st0" d="M84.8,206.2v-6.4c1.9,2.2,2.1,4.6,3.5,6.4C87.2,206.6,86,206.6,84.8,206.2z"/>
<g>
	<path class="st0" d="M61.5,131C61.5,131,61.5,131,61.5,131c0.1,0,1.2-34.8-6.1-71.6C52.9,47.2,50,37,45.6,12.3
		C44.7,7.1,43.9,2.8,43.5,0c2.3,2.9,4.5,6,6.7,9.3C63.6,30,67.8,51.4,69,67.4c0.9-1.8,2.1-4.4,3.3-7.6c3.4-8.5,3.9-12.9,4.6-12.8
		c1.6,0.3,0.7,18.1,0.3,25.6c0,0-1.7,35.2,3,51.3c0.2,0.6,0.6,2.2,1.2,2.1c1-0.1,1.1-1.5,1.4-2.5c2.1-7.2,17.2-46.5,20.7-54.9
		c5.4-13.2,10.5-25.4,21.8-34.8c6.2-5.2,12.3-7.8,16.6-9.2c-5.7,6.1-14.3,16.8-21,32.8c-7.6,18.2-9.4,34.8-9.8,44.4
		c2.1-0.9,2.5-2.9,3.1-4.5c3.3-8.7,7.2-16.6,12.9-22.4c2.4-2.5,5-4.5,8.6-4.3c-14.1,17.2-16.9,40.9-19.9,64.5
		c-0.1,1-0.7,2.5,0.4,2.9c0.9,0.4,1.3-1,1.8-1.9c4.1-7.3,9.2-12.4,15.7-14.5c1-0.3,1.9-0.8,3.4,0c-10.2,13-14.4,30-16.6,48.4
		c5-7.8,9.9-15.8,15.7-22.4c5.7-6.5,11.6-12.9,20-12.9c-15,15-23.5,36.6-33.1,56.9c-1.2,2.5-2.4,3.3-4.4,3.3
		c-25.2-0.1-50.3-0.1-75.5,0c-1.5,0-2.8-0.1-3.7-2.4c-8.6-21.6-20-39.4-35.1-52C4,140,3.7,139.5,3.3,139c0-0.1,0-0.2,0-1
		c7.8,0.6,14.6,4.8,21,10.5c6.4,5.8,12.1,12.7,17.2,20.7C35.5,136.8,24.7,109.1,4.6,90c5.2,0.6,10,3.4,14.5,6.6
		c11.4,8.2,20.6,20.1,28.5,34.2c0.8,1.3,1.4,4.1,2.6,3.4c1.3-0.9,0.2-3.3-0.1-4.9c-5.4-33.3-15.1-63.5-32.2-88c-0.3-0.5-0.7-1-1-1.6
		c-0.1-0.1,0-0.3-0.1-0.9C29.6,47.3,39,61,46.5,77.4C53.9,93.8,58.3,112.1,61.5,131z"/>
	<path class="st1" d="M107.1,136.2c-1.5-45.5,7.6-86.7,38-119.5c-26.3,11.8-36.8,36.7-43.4,66.3c-4-10.7-8-20.6-17.5-25.9
		c1.1,2.8,2.2,5.6,3.2,8.4c0.5,1.3,3.1,9.1,4.4,17.6C94.3,99,89.8,102,87.3,130c-0.2,2.3-0.6,7.1-2.1,7.3c-1.7,0.3-4-5.5-4.7-7.4
		C74.9,115.6,64.1,90.6,58.8,80c0,0-4.9-19.3-35.1-42.5c-1.4-1.1-2.8-2.5-5.6-2.9c17.9,21.7,26.8,47.1,32,75.3
		c-2.4-0.8-2.8-2.6-3.5-4.1c-3.8-7.8-8.3-15-14.8-20.2c-2.7-2.2-5.7-4.1-9.8-3.9c16.2,15.5,19.4,36.9,22.9,58.1
		c0.1,0.9,0.8,2.2-0.4,2.7c-1,0.4-1.5-0.9-2-1.7c-4.7-6.6-10.6-11.2-18-13c-1.1-0.3-2.2-0.7-3.9,0c11.8,11.7,16.5,27,19,43.6
		c-3.2-2.1-11.3-6.7-22.4-6.5C9.2,165,3.3,167.4,0,169.1c10.9,2,17.8,6,21.5,8.6c3.4,2.4,13,9.7,14.9,13.1c0.2,0.3,0.9,1.7,2.3,2.4
		c0.8,0.4,1.6,0.6,2.7,0.6c28.9-0.1,57.8-0.1,86.6,0c1.1,0,2,0,2.8-0.5c1-0.6,1.4-1.5,1.4-1.7c1.7-3.6,35.5-41.2,38.1-46.1
		c0.2-0.4,0.7-1.4,0.3-1.9c-0.3-0.4-0.8-0.4-1.3-0.4c-5.2,1.5-12.1,4.2-19.5,8.9c-9.7,6.3-16.1,13.6-19.8,18.7
		c1.8-9.7,5.7-24.4,15-40.2c8.6-14.6,18.6-24.7,25.8-30.9c-6.8,1.6-11.9,3.9-15.2,5.7c-17.4,9.2-30.2,27.4-32.7,30.8
		c-0.9,1.2-1.7,3.7-3,3.1c-1.5-0.8-0.2-3,0.1-4.4c6.3-30,17.3-57.2,37-79.3c0.4-0.5,0.8-0.9,1.1-1.4c0.1-0.1,0-0.2,0.2-0.8
		c-14.8,7.7-25.6,20-34.1,34.8C115.8,102.7,110.8,119.2,107.1,136.2z"/>
</g>
<linearGradient id="SVGID_1_" gradientUnits="userSpaceOnUse" x1="217.6878" y1="-174.7143" x2="366.2679" y2="-174.7143" gradientTransform="matrix(1 0 0 -1 -204.77 78.8498)">
	<stop  offset="0" style="stop-color:#C9462D"/>
	<stop  offset="1" style="stop-color:#8B181B"/>
</linearGradient>
<path class="st2" d="M13.9,193.6c9,0,145.7,0,146.7,0c0.2,0,0.5,0.1,0.7,0.2c0.2,0.2,0.2,0.4,0.2,0.6c0,0.6,0,5.3,0,11.7
	c0,0.2,0,0.3-0.1,0.5c-0.1,0.1-0.3,0.2-0.5,0.2H156c-0.3,0-0.6,0.1-0.8,0.2c-0.2,0.1-0.3,0.3-0.4,0.5l-24.8,106H50.5
	C39.8,278.3,29,243.2,18.3,208c0-0.4-0.2-0.7-0.5-0.9c-0.2-0.2-0.5-0.2-0.8-0.2c-1,0.1-1.9,0.1-2.9,0c-0.3,0-0.6-0.2-0.9-0.4
	c-0.2-0.2-0.3-0.6-0.3-0.9c0-0.8-0.1-5.1,0-10.9c0-0.3,0.1-0.5,0.3-0.7C13.4,193.8,13.6,193.7,13.9,193.6z"/>
</svg>
