<?xml version="1.0" encoding="utf-8"?>
<!-- Generator: Adobe Illustrator 23.0.1, SVG Export Plug-In . SVG Version: 6.00 Build 0)  -->
<svg version="1.1" id="Layer_1" xmlns="http://www.w3.org/2000/svg" xmlns:xlink="http://www.w3.org/1999/xlink" x="0px" y="0px"
	 viewBox="0 0 578.4 578" style="enable-background:new 0 0 578.4 578;" xml:space="preserve">
<style type="text/css">
	.st0{fill:#F05A69;}
	.st1{fill:#E74856;}
	.st2{fill:#DD3E49;}
	.st3{fill:#EE4959;}
	.st4{fill:#E63947;}
	.st5{opacity:0.14;fill:#231F20;}
</style>
<title>planet</title>
<g>
	<path class="st0" d="M578.4,289.5C578.2,448.1,447.2,578,289.1,578C131,577.9,0.2,448,0,289.5c-0.2-158.7,130.8-289,289.2-289
		C447.6,0.6,578.5,130.9,578.4,289.5z"/>
	<path class="st1" d="M5,342c56.4,40.8,121,35.6,184.1,28.9c64.1-6.8,106.9-5.5,166.2,18.3c37.3,15,62.8,32.4,79.2,43.8
		c18,12.6,40.5,30.4,64.1,54.7c-5.3,6.2-11.6,12.9-19.2,19.7c-7.1,6.4-14.1,11.8-20.5,16.3c-30.3-9-60.6-18-90.9-27
		c-96.1-9.7-192.5-9.2-288.8-8.7C38.6,447.3,14.2,398.5,5,342z"/>
	<path class="st2" d="M79,487.9c96.4-0.5,192.8-1,288.8,8.7c30.3,9,60.7,18,91,27c-21.7,15.8-64.9,42.8-125.9,52.1
		c-4.8,0.7-81.8,11.6-156.5-20c-22-9.3-40-20.7-43-22.7C109.1,517.5,91.2,500.8,79,487.9z"/>
	<path class="st3" d="M572.7,346.9c-66.4,3.9-118.5,4.3-148.3,3.4c-13.2-0.4-33.2-1.3-56.2-10.6c-7.6-3.1-15-6.8-22.2-11.3
		c-51.7-32.2-107.8-54.1-167.1-66.7c-56.7-12-109.2-31.7-153.5-70.2c-1.9-1.6-4.7-2.2-7.1-3.3c5.8-15.6,14.5-34.6,27.5-54.8
		c12.1-18.8,24.7-33.7,35.7-45c35.6-11.5,81.6-19.5,117.3,3c31,19.6,25.8,44.2,58.2,64.6c42.8,26.8,69.5-4.8,132,16.7
		c45.3,15.6,46.6,37.6,93.6,51.1c35.1,10.1,67.1,7.3,89,3.1c3.7,16.7,6.8,37.9,6.8,62.6C578.4,311.9,575.8,331.3,572.7,346.9z"/>
	<path class="st4" d="M571.6,227c-76.3,7.7-110.8-6.2-128.2-21c-5.3-4.5-22.2-20.4-48.8-31c-16.2-6.5-29.6-8.4-32.8-8.8
		c-14.4-2-27-1.2-35.1-0.7c-13.6,0.9-16.2,2.4-27.3,2.1c-3.2-0.1-14.6-0.3-24.8-3.2c-14.5-4-24.1-12.6-36.5-24.9
		c-40.5-40-40-49.3-58.5-57c-13.4-5.6-25.3-5.4-41.4-5.2c-24.6,0.4-44.2,6.4-56.6,11.2c18.7-20,65.2-63.9,139.3-81.5
		c46.1-11,85.6-7.6,110.3-3.4c67.4,11.5,113.2,41.5,126.5,51c18.5,13.3,64.8,49.7,94.5,114.2C562.6,191.7,568.3,212.2,571.6,227z"/>
	<path class="st5" d="M382,14.2c18.1,6.4,122,45.3,171.8,158.3c6.5,14.7,44.1,103.9,10.8,205.4c-4,12.2-20.8,60.4-63.9,107.4
		c-30.5,33.2-60.7,51-69.1,55.8c-13.1,7.5-66.8,36.7-142.5,36.8c-43.8,0.1-79-9.7-101.2-17.7C329.2,559,452,465.6,487.9,335
		C519.7,219.3,478.1,92.9,382,14.2z"/>
</g>
</svg>
