<?xml version="1.0" encoding="utf-8"?>
<!-- Generator: Adobe Illustrator 23.0.1, SVG Export Plug-In . SVG Version: 6.00 Build 0)  -->
<svg version="1.1" id="Layer_1" xmlns="http://www.w3.org/2000/svg" xmlns:xlink="http://www.w3.org/1999/xlink" x="0px" y="0px"
	 viewBox="0 0 53.3 608.5" style="enable-background:new 0 0 53.3 608.5;" xml:space="preserve">
<style type="text/css">
	.st0{fill:#9E9A91;stroke:#354264;stroke-width:0.75;stroke-miterlimit:10;}
	.st1{fill:#F05A69;}
	.st2{fill:#E74856;}
	.st3{fill:#DD3E49;}
	.st4{fill:#EE4959;}
	.st5{fill:#E63947;}
	.st6{opacity:0.14;fill:#231F20;enable-background:new    ;}
	.st7{fill:#E0D4C6;}
	.st8{fill:#DECFBC;}
	.st9{fill:#DECEBE;}
	.st10{fill:#785612;}
	.st11{fill:#FDD54F;}
	.st12{fill:#DCCDB8;}
	.st13{fill:#E5E1E2;}
	.st14{opacity:0.26;fill:#231F20;enable-background:new    ;}
	.st15{fill:#B17E5E;}
	.st16{fill:#4C4E56;}
	.st17{fill:#FEFEFD;}
	.st18{fill:#B2D6F1;}
	.st19{fill:#3D3F46;}
	.st20{opacity:0.52;fill:#231F20;enable-background:new    ;}
	.st21{fill:#231F20;}
	.st22{fill:#FCEE23;}
	.st23{fill:#C1C8D0;enable-background:new    ;}
	.st24{opacity:0.82;fill:#FFFFFF;enable-background:new    ;}
</style>
<title>progress</title>
<g>
	<path class="st0" d="M24.2,2.8V606c0,3.2,5,3.2,5,0V2.8C29.2-0.4,24.2-0.5,24.2,2.8z"/>
	<path class="st0" d="M2.4,5h48.4c3.2,0,3.2-5,0-5H2.4C-0.8,0-0.8,5,2.4,5z"/>
	<path class="st0" d="M2.5,608.5h48.4c3.2,0,3.2-5,0-5H2.5C-0.7,603.5-0.7,608.5,2.5,608.5z"/>
</g>
<g>
	<path class="st1" d="M40.5,269c0,7.6-6.3,13.8-13.8,13.8c-7.5,0-13.8-6.2-13.8-13.8c0-7.6,6.2-13.8,13.8-13.8
		C34.3,255.2,40.5,261.4,40.5,269z"/>
	<path class="st2" d="M13.2,271.5c2.7,1.9,5.8,1.7,8.8,1.4c3.1-0.3,5.1-0.3,7.9,0.9c1.8,0.7,3,1.5,3.8,2.1c0.9,0.6,1.9,1.4,3.1,2.6
		c-0.3,0.3-0.6,0.6-0.9,0.9c-0.3,0.3-0.7,0.6-1,0.8c-1.4-0.4-2.9-0.9-4.3-1.3c-4.6-0.5-9.2-0.4-13.8-0.4
		C14.8,276.5,13.6,274.2,13.2,271.5z"/>
	<path class="st3" d="M16.7,278.4c4.6,0,9.2,0,13.8,0.4c1.4,0.4,2.9,0.9,4.3,1.3c-1,0.8-3.1,2-6,2.5c-0.2,0-3.9,0.6-7.5-1
		c-1-0.4-1.9-1-2.1-1.1C18.1,279.9,17.3,279.1,16.7,278.4z"/>
	<path class="st4" d="M40.2,271.7c-3.2,0.2-5.7,0.2-7.1,0.2c-0.6,0-1.6-0.1-2.7-0.5c-0.4-0.1-0.7-0.3-1.1-0.5
		c-2.5-1.5-5.1-2.6-8-3.2c-2.7-0.6-5.2-1.5-7.3-3.3c-0.1-0.1-0.2-0.1-0.3-0.2c0.3-0.7,0.7-1.6,1.3-2.6c0.6-0.9,1.2-1.6,1.7-2.1
		c1.7-0.5,3.9-0.9,5.6,0.1c1.5,0.9,1.2,2.1,2.8,3.1c2,1.3,3.3-0.2,6.3,0.8c2.2,0.7,2.2,1.8,4.5,2.4c1.7,0.5,3.2,0.3,4.2,0.1
		c0.2,0.8,0.3,1.8,0.3,3C40.5,270.1,40.4,271,40.2,271.7z"/>
	<path class="st5" d="M40.2,266c-3.6,0.4-5.3-0.3-6.1-1c-0.3-0.2-1.1-1-2.3-1.5c-0.8-0.3-1.4-0.4-1.6-0.4c-0.7-0.1-1.3-0.1-1.7,0
		c-0.6,0-0.8,0.1-1.3,0.1c-0.2,0-0.7,0-1.2-0.2c-0.7-0.2-1.1-0.6-1.7-1.2c-1.9-1.9-1.9-2.4-2.8-2.7c-0.6-0.3-1.2-0.3-2-0.2
		c-1.2,0-2.1,0.3-2.7,0.5c0.9-1,3.1-3,6.6-3.9c2.2-0.5,4.1-0.4,5.3-0.2c3.2,0.5,5.4,2,6,2.4c0.9,0.6,3.1,2.4,4.5,5.4
		C39.8,264.3,40,265.3,40.2,266z"/>
	<path class="st6" d="M31.1,255.9c0.9,0.3,5.8,2.2,8.2,7.5c0.3,0.7,2.1,5,0.5,9.8c-0.2,0.6-1,2.9-3,5.1c-1.5,1.6-2.9,2.4-3.3,2.7
		c-0.6,0.4-3.2,1.8-6.8,1.8c-2.1,0-3.8-0.5-4.8-0.8c6.7-0.1,12.6-4.5,14.3-10.7C37.7,265.6,35.7,259.6,31.1,255.9z"/>
</g>
<g>
	<path class="st7" d="M8.9,559.7c2.4-1.9,4.2-3.2,4.4-3.4c0.1-0.1,0.2-0.1,0.2-0.2c0-0.1,0.1-0.2,0.1-0.3c0-1.6,0-3.1,0-4.6
		c0-0.1,0.1-0.4-0.2-0.3c-0.4,0-0.4-0.3-0.4-0.5c0-1.4-0.2-1.2,1.2-1.2c1.3,0,2.6,0,4,0c0.4,0,0.6,0.1,0.5,0.6c0,0.3,0,0.5,0,0.8
		c0,0.1,0,0.3-0.2,0.4c-0.5,0-0.4,0.4-0.4,0.7c0,0.3,0,0.6,0,1l5.8-4.8c0.1-0.1,0.3-0.2,0.4-0.3c0.8-0.6,0.9-0.6,1.7,0
		c4.1,3.3,8.1,6.6,12.2,9.9c0.2,0.2,0.5,0.3,0.8,0.4c2.7,0.6,5.3,1.2,8,1.8c0.1,0,0.1,0,0.2,0l1.4,0.3c0.6,0.1,0.8,0.5,0.8,1
		c-0.1,0.5-0.5,0.8-1.1,0.6c-0.5-0.2-0.9,0-1.3,0.4c-0.8,0.8-1.7,1.5-2.6,2.2c-0.2,0.2-0.4,0.5-0.4,0.8c0,1.7,0,3.5,0,5.2
		c0,0.4,0.1,0.6,0.5,0.5c0.1,0,0.3,0,0.4,0c0.4-0.1,0.6,0.1,0.5,0.5c-0.1,0.5,0.2,0.6,0.6,0.6c0.3,0,0.7,0,1,0c0.2,0,0.4,0,0.5,0.1
		c0.1,0.1,0,0.4,0.1,0.5c0.1,0,0.1,0,0.2,0c0.2,0.1,0.3,0.3,0.3,0.4c0,0.2,0,0.3,0,0.5c-3.9,0-9.7,0.1-16.8,0.1c-1.9,0-3.2,0-4.3,0
		c-2.5,0-4.4,0-5.1,0h-0.2c-1.5,0-4.3,0-9.7,0c0-4.6,0-9.3,0-13.9l-3.2,2.3c-0.1,0-0.7,0-0.8-0.3C7.8,561,8,560.2,8.9,559.7z
		 M38.3,560.1c0,3.3,0,6.6,0,9.9c0,0.3,0.1,0.3,0.4,0.3c1.1,0,2.2,0,3.3,0c0.3,0,0.4-0.1,0.4-0.4c0-3.2,0-6.3,0-9.5
		c0-0.2,0.1-0.4-0.2-0.4c-1-0.2-2-0.5-3.1-0.7C38.2,559.3,38.2,559.3,38.3,560.1z M20.2,566.6c-0.7-0.2-1.4,0.3-1.7,0.5
		c0,0-1.4,0.9-1.6,4c0,0.2,0,0.3,0.1,0.3c0.1,0.1,0.2,0.1,0.3,0.1c1.4,0,2.8,0,4.2,0c0.2,0,0.3,0,0.4-0.1c0,0,0.1-0.2,0.1-0.3
		C21.7,566.9,20.2,566.6,20.2,566.6z M41.6,572.6h2.2c1.2,0,1.2,0,1.2-1.2c0-0.4-0.1-0.5-0.5-0.5c-1.6,0-3.2,0-4.8,0
		c-1.3,0-1.3,0-1.3,1.3c0,0.3,0.1,0.4,0.4,0.4C39.7,572.6,40.6,572.6,41.6,572.6z M42.8,565.3c0,1.6,0,3.1,0,4.7
		c0,0.2,0,0.4,0.3,0.4c0.3,0,0.3-0.1,0.3-0.4c0-3.1,0-6.2,0-9.3c0-0.3-0.1-0.5-0.4-0.5c-0.4,0-0.2,0.3-0.2,0.4
		C42.8,562.3,42.8,563.8,42.8,565.3z M19.5,572L19.5,572c-0.3,0-2.3,0-2.4,0c-0.1,0-0.1,0.1-0.1,0.1c0,0.1,0,0.1,0,0.2
		c0,0.2-0.1,0.2,0,0.3c0,0,0.1,0,0.1,0c0.6,0.1,4.4,0,4.9,0c0,0,0.3,0,0.3-0.1c0-0.1-0.1-0.1-0.1-0.2c0-0.1,0.1-0.2,0.1-0.2
		c0-0.1-0.3-0.1-0.3-0.1C21.1,572,20.3,572,19.5,572z M44,563.5c0.9-0.8,1.8-1.5,2.6-2.2c0,0,0.1-0.1,0.1-0.2
		c-0.4-0.2-0.8-0.2-1.1,0.2c-0.4,0.4-0.8,0.8-1.3,1.1C44,562.6,43.9,563,44,563.5z M43.9,562.1c0.3-0.2,0.6-0.5,0.9-0.7
		c0.2-0.2,0.5-0.4,0.7-0.6c-0.5-0.3-1.1-0.4-1.4-0.2c-0.1,0.1-0.2,0.3-0.2,0.5c-0.1,0.3,0,0.6,0,0.8C43.9,562,43.9,562.1,43.9,562.1
		z M46.3,572c-0.2,0-0.3,0-0.5,0c-0.2,0-0.3,0-0.3,0.3c0,0.3,0.1,0.3,0.3,0.3c0.3,0,0.7,0,1.1,0c0.2,0,0.3-0.1,0.3-0.3
		c0-0.2-0.1-0.3-0.3-0.3C46.7,572,46.5,572,46.3,572z"/>
	<path class="st8" d="M30.3,572.6c-2.3,0-4.6,0-7,0c-0.4,0-0.5-0.1-0.6-0.5c-0.6-3.1-0.1-6.2-0.2-9.3c0-0.3-0.1-0.4-0.4-0.4
		c-1.7,0-3.4,0-5.2,0c-0.5,0-0.5,0.2-0.5,0.6c0,2.7,0,5.3,0,8c0,0.6-0.5,1-0.3,1.6c0,0.1-0.1,0.1-0.2,0.1c0,0-0.1,0-0.1,0l0,0
		c0,0-0.9,0-3.2,0c0-4.5,0-9-0.1-13.5l0.3-0.3c6.8-5.5,11.8-9.5,12-9.8c0.1-0.1,0.2-0.1,0.3-0.2c0.1,0,0.2,0.1,0.3,0.1
		c4,3.3,8.1,6.6,12.2,9.9c0.2,0.1,0.3,0.3,0.3,0.6c0,4.2,0,8.5,0,12.7c0,0.2,0,0.3-0.1,0.4c-0.1,0.1-0.3,0.1-0.4,0.1
		C36.9,572.6,34.2,572.6,30.3,572.6z M25,559.9c1.9,0,3.5-1.5,3.5-3.4c0,0,0,0,0-0.1c0-1.9-1.6-3.5-3.5-3.5s-3.5,1.6-3.5,3.5
		C21.5,558.4,23.1,559.9,25,559.9C25,559.9,25,559.9,25,559.9z M29.6,565.2c-1.2,0-2.4,0-3.6,0c-0.4,0-0.5,0.1-0.5,0.5
		c0,1.6,0,3.1,0,4.7c0,0.4,0.1,0.5,0.5,0.5c2.4,0,4.9,0,7.3,0c0.4,0,0.5-0.1,0.5-0.5c0-1.6,0-3.1,0-4.7c0-0.4-0.1-0.5-0.5-0.5
		C32,565.2,30.8,565.2,29.6,565.2L29.6,565.2z M29.6,564.8c1.2,0,2.4,0,3.6,0c0.3,0,0.5-0.1,0.5-0.5c0-0.5,0-1,0-1.5
		c0-0.3-0.1-0.4-0.4-0.4c-2.5,0-4.9,0-7.4,0c-0.3,0-0.5,0.1-0.5,0.5c0,0.5,0,0.9,0,1.4c0,0.5,0.2,0.6,0.6,0.6
		C27.2,564.8,28.4,564.8,29.6,564.8L29.6,564.8z"/>
	<path class="st9" d="M41.6,572.6c-1,0-1.9,0-2.9,0c-0.3,0-0.4-0.1-0.4-0.4c-0.1-1.3-0.1-1.3,1.3-1.3c1.6,0,3.2,0,4.8,0
		c0.4,0,0.6,0.1,0.5,0.5c0,1.2,0,1.2-1.2,1.2L41.6,572.6z"/>
	<path class="st10" d="M42.4,564.3c0-1,0-2.3,0-4.1c0.7,0.1,1.4,0.3,2.1,0.4c0,0-0.3,0.1-0.4,0.3c-0.1,0.1-0.1,0.3,0,0.3
		c0.1,5.9,0.1,8.4,0.1,8.5c0,0,0,0.1,0,0.2c0,0,0,0.1,0,0.1c0,0.1,0,0.2,0.2,0.3c-0.3,0-0.6,0-1,0c-0.3,0-0.7,0-1-0.1
		c0-0.1,0.1-0.3,0.1-0.5c0-0.2,0-0.3,0-0.6c0,0,0-0.3,0-0.7c0-0.8,0-1.5,0-1.5C42.4,566,42.4,564.7,42.4,564.3z"/>
	<path class="st11" d="M44,563.5c-0.1-0.5,0-0.8,0.3-1.1c0.5-0.3,0.9-0.7,1.3-1.1c0.3-0.3,0.7-0.4,1.1-0.2c0,0.1-0.1,0.1-0.1,0.2
		C45.8,562,45,562.7,44,563.5z"/>
	<path class="st12" d="M46.3,572c0.2,0,0.3,0,0.5,0c0.2,0,0.3,0.1,0.3,0.3c0,0.2-0.1,0.3-0.3,0.3c-0.3,0-0.7,0-1.1,0
		c-0.2,0-0.3-0.1-0.3-0.3c0-0.2,0.1-0.3,0.3-0.3C46,572,46.1,572,46.3,572z"/>
	<path class="st13" d="M25,559.9c-1.9,0-3.5-1.5-3.5-3.5l0,0c0-1.9,1.6-3.5,3.5-3.5c1.9,0,3.5,1.6,3.5,3.5
		C28.5,558.3,27,559.9,25,559.9C25.1,559.9,25,559.9,25,559.9z M22.5,556.4c0,1.4,1.1,2.5,2.5,2.5s2.5-1.1,2.5-2.5S26.4,554,25,554
		C23.6,554,22.5,555.1,22.5,556.4L22.5,556.4z"/>
	<path class="st14" d="M29.6,565.2c1.2,0,2.4,0,3.6,0c0.4,0,0.5,0.1,0.5,0.5c0,1.6,0,3.1,0,4.7c0,0.4-0.1,0.5-0.5,0.5
		c-2.4,0-4.8,0-7.3,0c-0.4,0-0.5-0.1-0.5-0.5c0-1.6,0-3.1,0-4.7c0-0.4,0.1-0.5,0.5-0.5C27.2,565.2,28.4,565.2,29.6,565.2z
		 M29.4,568.1L29.4,568.1c0-0.6,0-1.3,0-1.9c0-0.3,0-0.4-0.4-0.4c-0.9,0-1.8,0-2.6,0c-0.3,0-0.4,0.1-0.4,0.4c0,1.3,0,2.6,0,3.9
		c0,0.3,0.1,0.4,0.4,0.4c0.9,0,1.8,0,2.7,0c0.3,0,0.4-0.1,0.4-0.4C29.3,569.4,29.4,568.7,29.4,568.1z M29.8,568L29.8,568
		c0,0.7,0,1.3,0,2c0,0.3,0.1,0.4,0.4,0.4c0.9,0,1.8,0,2.7,0c0.2,0,0.3-0.1,0.3-0.3c0-1.3,0-2.7,0-4c0-0.3-0.1-0.4-0.4-0.4
		c-0.9,0-1.8,0-2.6,0c-0.3,0-0.4,0.1-0.4,0.4C29.9,566.7,29.8,567.4,29.8,568L29.8,568z"/>
	<path class="st14" d="M29.6,564.8c-1.2,0-2.3,0-3.5,0c-0.4,0-0.6-0.1-0.6-0.6c0-0.5,0-0.9,0-1.4c0-0.3,0.1-0.5,0.5-0.5
		c2.5,0,4.9,0,7.4,0c0.3,0,0.4,0.1,0.4,0.4c0,0.5,0,1,0,1.5c0,0.4-0.2,0.5-0.5,0.5C32,564.8,30.8,564.8,29.6,564.8z M29.6,562.8
		L29.6,562.8c-1.1,0-2.2,0-3.3,0c-0.2,0-0.4-0.1-0.4,0.2c0,0.3,0.2,0.3,0.4,0.3c2.2,0,4.4,0,6.5,0c0.2,0,0.4,0,0.4-0.2
		c0-0.3-0.2-0.2-0.4-0.2C31.8,562.8,30.7,562.8,29.6,562.8z M29.6,564.3L29.6,564.3c1.1,0,2.1,0,3.2,0c0.2,0,0.4,0.1,0.4-0.2
		s-0.3-0.2-0.4-0.2c-2.1,0-4.3,0-6.4,0c-0.2,0-0.4-0.1-0.4,0.2c0,0.3,0.2,0.2,0.4,0.2C27.4,564.3,28.5,564.3,29.6,564.3L29.6,564.3z
		"/>
	<g>
		<path class="st15" d="M22.3,568.8c0,1.3,0,2.6,0,3.9c0,0.3-0.1,0.5-0.5,0.5c-1.5,0-3,0-4.6,0c-0.3,0-0.4-0.1-0.4-0.4
			c0-2.7,0-5.4,0-8.1c0-0.4,0.2-0.4,0.5-0.4c1.5,0,3,0,4.5,0c0.4,0,0.5,0.1,0.5,0.5C22.3,566.1,22.3,567.4,22.3,568.8z M21.2,570.4
			c0,0.1,0,0.2,0,0.3c0,0.2,0,0.3,0.3,0.3c0.3,0,0.3-0.2,0.3-0.4c0-0.2,0-0.4,0-0.6c0-0.2-0.1-0.3-0.3-0.3s-0.3,0.2-0.3,0.3
			C21.2,570.2,21.2,570.3,21.2,570.4L21.2,570.4z"/>
		<path class="st16" d="M21.2,570.4c0-0.1,0-0.2,0-0.3c0-0.2,0.1-0.4,0.3-0.4s0.3,0.2,0.3,0.4c0,0.2,0,0.4,0,0.7
			c0,0.2,0,0.4-0.3,0.4c-0.2,0-0.3-0.2-0.3-0.4C21.2,570.6,21.2,570.5,21.2,570.4z"/>
	</g>
	<path class="st17" d="M22.5,556.4c0-1.4,1.1-2.5,2.5-2.5s2.5,1.1,2.5,2.5c0,1.4-1.1,2.5-2.5,2.5c0,0,0,0,0,0
		C23.6,558.9,22.5,557.8,22.5,556.4z M23.9,556.7c-0.1,0-0.3,0-0.4,0c-0.5,0-0.5,0.2-0.3,0.5c0.2,0.4,0.5,0.8,0.9,1
		c0.6,0.3,0.7,0.3,0.7-0.4c0-0.2,0-0.4,0-0.6c0-0.4-0.1-0.5-0.5-0.5C24.2,556.7,24,556.7,23.9,556.7z M24.8,555.3
		c-0.1-0.2,0.1-0.6-0.1-0.7c-0.3-0.1-0.6,0.1-0.8,0.3c-0.2,0.1-0.3,0.2-0.4,0.4c-0.2,0.2-0.4,0.5-0.3,0.8c0.1,0.3,0.5,0.1,0.8,0.1
		C24.9,556.2,24.7,556.3,24.8,555.3L24.8,555.3z M25.3,557.6c0,0.2,0,0.3,0,0.5c0,0.2,0,0.3,0.3,0.2c0.5-0.1,1.2-0.7,1.3-1.2
		c0.1-0.3,0-0.5-0.3-0.4c-0.1,0-0.2,0-0.4,0C25.2,556.7,25.3,556.6,25.3,557.6L25.3,557.6z M26.1,556.2c0.1,0,0.2,0,0.4,0
		c0.4,0,0.5-0.1,0.3-0.5c-0.1-0.3-0.4-0.5-0.6-0.8c-0.2-0.2-0.5-0.5-0.8-0.3c-0.2,0.1-0.1,0.5-0.1,0.7
		C25.3,556.3,25.2,556.2,26.1,556.2z"/>
	<path class="st18" d="M29.4,568.1c0,0.7,0,1.3,0,2c0,0.3-0.1,0.4-0.4,0.4c-0.9,0-1.8,0-2.7,0c-0.3,0-0.4-0.1-0.4-0.4
		c0-1.3,0-2.6,0-3.9c0-0.3,0.1-0.4,0.4-0.4c0.9,0,1.8,0,2.6,0c0.3,0,0.4,0.1,0.4,0.4C29.3,566.8,29.3,567.4,29.4,568.1L29.4,568.1z"
		/>
	<path class="st18" d="M29.8,568c0-0.6,0-1.3,0-2c0-0.3,0.1-0.4,0.4-0.4c0.9,0,1.8,0,2.6,0c0.3,0,0.4,0.1,0.4,0.4c0,1.3,0,2.7,0,4
		c0,0.3-0.1,0.3-0.3,0.3c-0.9,0-1.8,0-2.7,0c-0.3,0-0.4-0.1-0.4-0.4C29.8,569.4,29.8,568.7,29.8,568L29.8,568z"/>
	<path class="st18" d="M29.6,562.8c1.1,0,2.1,0,3.2,0c0.2,0,0.4-0.1,0.4,0.2c0,0.3-0.2,0.2-0.4,0.2c-2.2,0-4.4,0-6.5,0
		c-0.2,0-0.4,0-0.4-0.3s0.2-0.2,0.4-0.2C27.4,562.8,28.5,562.8,29.6,562.8L29.6,562.8z"/>
	<path class="st18" d="M29.6,564.3c-1.1,0-2.1,0-3.2,0c-0.2,0-0.4,0.1-0.4-0.2s0.2-0.2,0.4-0.2c2.1,0,4.3,0,6.4,0
		c0.2,0,0.4-0.1,0.4,0.2s-0.3,0.2-0.4,0.2C31.7,564.3,30.6,564.3,29.6,564.3L29.6,564.3z"/>
	<path class="st18" d="M23.9,556.7c0.1,0,0.2,0,0.4,0c0.4,0,0.5,0.1,0.5,0.5c0,0.2,0,0.4,0,0.6c0,0.7-0.1,0.7-0.7,0.4
		c-0.4-0.2-0.7-0.6-0.9-1c-0.2-0.3-0.2-0.5,0.3-0.5C23.6,556.7,23.8,556.7,23.9,556.7z"/>
	<path class="st18" d="M24.8,555.3c0,1,0.1,0.9-0.9,0.9c-0.3,0-0.6,0.2-0.8-0.1c-0.1-0.3,0.2-0.5,0.3-0.8c0.1-0.2,0.3-0.3,0.4-0.4
		c0.2-0.2,0.5-0.4,0.8-0.3C24.9,554.7,24.7,555.1,24.8,555.3z"/>
	<path class="st18" d="M25.3,557.6c0-1-0.1-0.9,0.9-0.9c0.1,0,0.2,0,0.4,0c0.3,0,0.4,0.1,0.3,0.4c-0.1,0.5-0.8,1.1-1.3,1.2
		c-0.2,0-0.3,0-0.3-0.2C25.3,557.9,25.3,557.7,25.3,557.6z"/>
	<path class="st18" d="M26.1,556.2c-1,0-0.9,0.1-0.9-0.9c0-0.2-0.1-0.6,0.1-0.7c0.3-0.1,0.6,0.1,0.8,0.3c0.2,0.2,0.5,0.5,0.6,0.8
		c0.1,0.3,0.1,0.5-0.3,0.5C26.4,556.2,26.3,556.2,26.1,556.2z"/>
	<path class="st19" d="M13.4,556c0-1.8,0-3.5,0-5.3c-0.2,0-0.3,0-0.5-0.1c-0.1-0.1-0.1-0.1-0.1-0.2c0-0.4,0-0.7,0-1.1
		c0-0.1,0-0.2,0.1-0.3c0,0,0.1-0.1,0.2-0.1c0.2,0,2.3,0,5,0c0,0,0.2,0,0.3,0.2c0.1,0.1,0.1,0.2,0.1,0.2c0,0.1,0,0.9,0,1.1
		c0,0,0,0.1-0.1,0.2c0,0-0.1,0-0.2,0c0,0-0.1,0-0.1,0c-0.1,0.1-0.1,0.2-0.1,0.3c-0.1,0.3,0,0.6,0,0.9c0,0.1,0,0.3,0,0.5
		C16.5,553.6,15,554.8,13.4,556z"/>
	<path class="st20" d="M12,559.3c-1.1,0.8-2.1,1.5-3.2,2.3c-0.4,0.1-0.7,0-0.8-0.3c-0.2-0.3,0-0.6,0.1-0.8c0.1-0.3,0.3-0.5,0.6-0.7
		c0.6-0.4,2.3-1.8,4.7-3.7l0-5.3l-0.4,0c0,0-0.1-0.1-0.1-0.1c0-0.1-0.1-0.1,0-0.2c0-0.3,0-0.5,0-0.6c0-0.2,0-0.2,0-0.3
		c0-0.1,0-0.2,0-0.3c0-0.1,0-0.1,0.1-0.2c0,0,0.1,0,0.2,0c0.2,0,2.2,0,5,0c0.1,0,0.3,0,0.3,0.1c0.1,0.1,0.1,0.3,0.1,0.4
		c0,0,0,0.1,0,0.2c0,0.3,0,0.4,0,0.6c0,0.1,0,0.2,0,0.3c0,0,0,0.1,0,0.1c0,0,0,0-0.1,0c0,0-0.1,0-0.1,0c0,0-0.1,0-0.1,0
		c-0.1,0-0.1,0-0.2,0.1c-0.1,0.1-0.1,0.1-0.1,0.2c0,0.1,0,0.2,0,0.3c0,0.1,0,0.2,0,0.2c0,0.3,0,0.6,0,0.8c0.1-0.1,0.2-0.2,0.4-0.3
		c0.1-0.1,0.2-0.2,0.2-0.2c0.4-0.3,1.4-1.2,2-1.6c0.4-0.3,0.7-0.6,1.1-0.9c0.2-0.1,0.5-0.4,0.8-0.7c0.3-0.2,0.3-0.2,0.4-0.3
		c0,0,0.1-0.1,0.2-0.2c0.1-0.1,0.1-0.1,0.2-0.1c0.2-0.2,0.3-0.3,0.5-0.4c0.1-0.1,0.1-0.1,0.2-0.2c0.4-0.3,0.5-0.4,0.8-0.5
		c0.1,0,0.2,0,0.2,0c-0.2,0.5-0.4,1.1-0.6,1.6c0.1,0.1,0.3,0.2,0.4,0.3C20.6,552.3,16.3,555.8,12,559.3z"/>
	<path class="st20" d="M25.1,546.9c0,0,0.1,0,0.2,0c0.2,0,0.3,0.2,0.4,0.2c0.5,0.4,1,0.7,1.5,1.2c0.1,0.1-0.1-0.1,1.8,1.5
		c1.5,1.2,2.6,2.2,2.7,2.2c1.1,0.9,3.1,2.5,6.9,5.6c2.4,0.5,3.8,0.8,4.8,1.1c0.6,0.2,1.3,0.3,2.3,0.5c0.6,0.1,0.9,0.2,1.5,0.3
		c0.8,0.2,1.4,0.3,1.8,0.5c0.4,0.2,0.5,0.7,0.4,1.1c-0.1,0.3-0.4,0.5-0.8,0.4c-3.4-0.7-6.8-1.4-10.2-2.1c-4.6-3.6-9.2-7.2-13.7-10.7
		C24.7,548,24.9,547.4,25.1,546.9z"/>
	<path class="st10" d="M45.9,562.6c0.7-0.7,0.5-0.4,0.9-0.8c0.1-0.1,0.2-0.2,0.5-0.4c0.2-0.1,0.4-0.2,0.6-0.2
		c-0.8-0.2-1.7-0.3-2.5-0.5c0,0,0,0.1,0.1,0.1c-1.2,1-1.8,1.5-1.8,1.5l0,0c0,0,0,0,0,0c0,0,0,0,0,0c0,0-0.1,0-0.1,0
		c0.1,0.2,0.1,0.4,0.2,0.6c0.2,0.6,0.3,1.1,0.3,1.6C44.1,564.4,45.1,563.3,45.9,562.6z"/>
	<path class="st21" d="M47.2,559.5"/>
</g>
<g>
	<path class="st22" d="M42.5,59.5C42.6,59.5,42.6,59.5,42.5,59.5C42.6,59.5,42.6,59.4,42.5,59.5C42.5,59.4,42.5,59.5,42.5,59.5
		C42.5,59.5,42.5,59.5,42.5,59.5C42.5,59.5,42.5,59.5,42.5,59.5z"/>
	<path class="st22" d="M42.6,54.4C42.6,54.4,42.6,54.4,42.6,54.4C42.6,54.4,42.6,54.3,42.6,54.4C42.5,54.3,42.5,54.4,42.6,54.4
		C42.5,54.4,42.5,54.4,42.6,54.4C42.6,54.4,42.6,54.4,42.6,54.4z"/>
	<path class="st23" d="M37.5,37.4c0.2-0.1,0.2,0.1,0.3,0.1c2.4,2.2,4.1,4.8,5,7.9c2,6.6-0.1,13.3-5.2,17.6c-2.2,1.8-4.7,3-7.6,3.3
		c-3,0.3-5.8-0.2-8.4-1.8c-2.9-1.8-4.7-4.4-5.3-7.8c-0.3-1.8-0.3-3.6,0.4-5.3c0.9-2.5,2.5-4.4,5-5.4c1.2-0.5,2.5-0.6,3.9-0.4
		c1.4,0.2,2.7,0.6,3.8,1.6c1.2,1.1,1.8,2.4,2,4c0,0.1,0,0.2,0,0.3c0,0.1-0.1,0.3,0.1,0.3c0.1,0.1,0.3-0.1,0.4-0.1
		c0.3-0.3,0.5-0.6,0.6-1c0.4-1.4,0.1-2.7-0.6-3.9c-1.1-1.9-2.8-3.1-4.8-3.8c-3.4-1.2-6.5-0.5-9.4,1.4c-3.4,2.3-5.4,5.5-6.1,9.6
		c-0.6,3.4,0,6.7,1.4,9.9c0.7,1.5,1.5,2.9,2.5,4.3c0,0.1,0.2,0.1,0.1,0.2c-0.1,0.1-0.2-0.1-0.2-0.1c-2.7-2.5-4.6-5.5-5.3-9
		c-1.4-6.6,0.4-12.1,5.4-16.5c2.2-1.9,4.8-3,7.6-3.3c3-0.3,5.8,0.2,8.4,1.8c2.8,1.7,4.5,4.1,5.2,7.3c0.4,2,0.5,3.9-0.3,5.9
		c-0.9,2.5-2.5,4.4-5,5.4c-1.3,0.5-2.7,0.6-4.1,0.4c-1.3-0.2-2.5-0.7-3.5-1.6c-1.2-1.1-1.8-2.5-2-4.1c0-0.1,0-0.2,0-0.3
		c0-0.3-0.1-0.3-0.3-0.2c-0.4,0.2-0.6,0.7-0.7,1.1c-0.4,1.4-0.1,2.7,0.6,3.9c1.3,2.2,3.3,3.5,5.8,4.1c2.8,0.7,5.5,0.1,7.9-1.3
		c3.8-2.2,5.9-5.6,6.7-9.9c0.6-3.4,0-6.7-1.4-9.9C39.5,40.3,38.6,38.8,37.5,37.4z"/>
	<circle class="st24" cx="26.5" cy="52.9" r="3"/>
	<path class="st22" d="M13.1,62.7C13.1,62.7,13.1,62.7,13.1,62.7C13.1,62.6,13.1,62.6,13.1,62.7C13.1,62.6,13,62.6,13.1,62.7
		C13,62.7,13.1,62.7,13.1,62.7C13.1,62.7,13.1,62.7,13.1,62.7z"/>
	<path class="st22" d="M19.1,64.7C19.1,64.7,19.1,64.6,19.1,64.7C19.1,64.6,19.1,64.6,19.1,64.7C19.1,64.6,19.1,64.6,19.1,64.7
		C19.1,64.6,19.1,64.7,19.1,64.7C19.1,64.7,19.1,64.7,19.1,64.7z"/>
	<path class="st22" d="M21.8,44.4C21.9,44.4,21.9,44.4,21.8,44.4C21.9,44.3,21.9,44.3,21.8,44.4C21.8,44.3,21.8,44.3,21.8,44.4
		C21.8,44.4,21.8,44.4,21.8,44.4C21.8,44.4,21.8,44.4,21.8,44.4z"/>
	<path class="st22" d="M14.1,50.4C14.1,50.4,14.2,50.4,14.1,50.4C14.2,50.3,14.1,50.3,14.1,50.4C14.1,50.3,14.1,50.3,14.1,50.4
		C14.1,50.4,14.1,50.4,14.1,50.4C14.1,50.4,14.1,50.4,14.1,50.4z"/>
	<path class="st22" d="M22.6,58.3C22.6,58.3,22.7,58.3,22.6,58.3C22.7,58.2,22.6,58.2,22.6,58.3C22.6,58.2,22.6,58.2,22.6,58.3
		C22.6,58.3,22.6,58.3,22.6,58.3C22.6,58.3,22.6,58.3,22.6,58.3z"/>
	<path class="st22" d="M17.3,47.2C17.3,47.2,17.3,47.2,17.3,47.2C17.3,47.2,17.3,47.2,17.3,47.2C17.3,47.2,17.3,47.2,17.3,47.2
		C17.2,47.2,17.3,47.2,17.3,47.2C17.3,47.2,17.3,47.2,17.3,47.2z"/>
	<path class="st22" d="M17.1,50.1C17.1,50.1,17.1,50.1,17.1,50.1C17.1,50,17.1,50,17.1,50.1C17.1,50,17.1,50,17.1,50.1
		C17.1,50.1,17.1,50.1,17.1,50.1C17.1,50.1,17.1,50.1,17.1,50.1z"/>
	<path class="st22" d="M15.3,47.2C15.3,47.2,15.3,47.1,15.3,47.2C15.3,47.1,15.3,47.1,15.3,47.2C15.3,47.1,15.3,47.1,15.3,47.2
		C15.3,47.1,15.3,47.2,15.3,47.2C15.3,47.2,15.3,47.2,15.3,47.2z"/>
	<path class="st22" d="M25.1,45.1C25.1,45.1,25.1,45.1,25.1,45.1C25.1,45.1,25.1,45.1,25.1,45.1C25.1,45.1,25.1,45.1,25.1,45.1
		C25.1,45.1,25.1,45.1,25.1,45.1C25.1,45.1,25.1,45.1,25.1,45.1z"/>
	<path class="st22" d="M24.8,43.2C24.8,43.2,24.8,43.2,24.8,43.2C24.8,43.2,24.8,43.2,24.8,43.2C24.8,43.2,24.8,43.2,24.8,43.2
		C24.8,43.2,24.8,43.2,24.8,43.2C24.8,43.2,24.8,43.2,24.8,43.2z"/>
	<path class="st22" d="M29.1,45.5C29.1,45.5,29.1,45.5,29.1,45.5C29.1,45.5,29.1,45.5,29.1,45.5C29.1,45.5,29.1,45.5,29.1,45.5
		C29.1,45.5,29.1,45.5,29.1,45.5C29.1,45.5,29.1,45.5,29.1,45.5z"/>
	<path class="st22" d="M31.4,47.4C31.4,47.4,31.5,47.4,31.4,47.4C31.5,47.4,31.4,47.4,31.4,47.4C31.4,47.4,31.4,47.4,31.4,47.4
		C31.4,47.4,31.4,47.4,31.4,47.4C31.4,47.4,31.4,47.4,31.4,47.4z"/>
	<path class="st22" d="M30.8,48.4C30.8,48.4,30.9,48.3,30.8,48.4C30.9,48.3,30.8,48.3,30.8,48.4C30.8,48.3,30.8,48.3,30.8,48.4
		C30.8,48.3,30.8,48.4,30.8,48.4C30.8,48.4,30.8,48.4,30.8,48.4z"/>
	<path class="st22" d="M21.5,55.7C21.5,55.7,21.5,55.6,21.5,55.7C21.5,55.6,21.5,55.6,21.5,55.7C21.5,55.6,21.5,55.6,21.5,55.7
		C21.5,55.6,21.5,55.7,21.5,55.7C21.5,55.7,21.5,55.7,21.5,55.7z"/>
	<path class="st22" d="M16,52.9C16,52.9,16,52.9,16,52.9C16,52.9,16,52.9,16,52.9C16,52.9,16,52.9,16,52.9C16,52.9,16,52.9,16,52.9
		C16,52.9,16,52.9,16,52.9z"/>
	<path class="st22" d="M13.4,53.5C13.4,53.5,13.4,53.5,13.4,53.5C13.4,53.5,13.4,53.5,13.4,53.5C13.4,53.5,13.4,53.5,13.4,53.5
		C13.4,53.5,13.4,53.5,13.4,53.5C13.4,53.5,13.4,53.5,13.4,53.5z"/>
	<path class="st22" d="M14.1,55.2C14.1,55.2,14.1,55.2,14.1,55.2C14.1,55.2,14.1,55.2,14.1,55.2C14.1,55.2,14.1,55.2,14.1,55.2
		C14.1,55.2,14.1,55.2,14.1,55.2C14.1,55.2,14.1,55.2,14.1,55.2z"/>
	<path class="st22" d="M15.6,55.8C15.6,55.8,15.6,55.8,15.6,55.8C15.6,55.8,15.6,55.8,15.6,55.8C15.5,55.8,15.5,55.8,15.6,55.8
		C15.5,55.8,15.5,55.8,15.6,55.8C15.6,55.8,15.6,55.8,15.6,55.8z"/>
	<path class="st22" d="M12.5,56.9C12.5,56.9,12.5,56.9,12.5,56.9C12.5,56.9,12.5,56.9,12.5,56.9C12.5,56.9,12.4,56.9,12.5,56.9
		C12.4,56.9,12.5,56.9,12.5,56.9C12.5,56.9,12.5,56.9,12.5,56.9z"/>
	<path class="st22" d="M12.4,58.5C12.4,58.5,12.4,58.5,12.4,58.5C12.4,58.5,12.4,58.4,12.4,58.5C12.4,58.4,12.4,58.5,12.4,58.5
		C12.4,58.5,12.4,58.5,12.4,58.5C12.4,58.5,12.4,58.5,12.4,58.5z"/>
	<path class="st22" d="M15.3,59.1C15.3,59.1,15.3,59.1,15.3,59.1C15.3,59.1,15.3,59,15.3,59.1C15.3,59,15.3,59.1,15.3,59.1
		C15.3,59.1,15.3,59.1,15.3,59.1C15.3,59.1,15.3,59.1,15.3,59.1z"/>
	<path class="st22" d="M15.4,57.1C15.4,57.1,15.4,57.1,15.4,57.1C15.4,57.1,15.4,57.1,15.4,57.1C15.4,57.1,15.4,57.1,15.4,57.1
		C15.4,57.1,15.4,57.1,15.4,57.1C15.4,57.1,15.4,57.1,15.4,57.1z"/>
	<path class="st22" d="M13.9,57.2C13.9,57.2,13.9,57.2,13.9,57.2C13.9,57.2,13.9,57.2,13.9,57.2C13.9,57.2,13.9,57.2,13.9,57.2
		C13.9,57.2,13.9,57.2,13.9,57.2C13.9,57.2,13.9,57.2,13.9,57.2z"/>
	<path class="st22" d="M17,61.1C17,61.1,17,61.1,17,61.1C17,61.1,17,61.1,17,61.1C17,61.1,17,61.1,17,61.1C17,61.1,17,61.1,17,61.1
		C17,61.1,17,61.1,17,61.1z"/>
	<path class="st22" d="M15.6,60.5C15.7,60.5,15.7,60.5,15.6,60.5C15.7,60.4,15.7,60.4,15.6,60.5C15.6,60.4,15.6,60.4,15.6,60.5
		C15.6,60.5,15.6,60.5,15.6,60.5C15.6,60.5,15.6,60.5,15.6,60.5z"/>
	<path class="st22" d="M12.9,59.9C12.9,59.9,12.9,59.9,12.9,59.9C12.9,59.9,12.9,59.9,12.9,59.9C12.9,59.9,12.9,59.9,12.9,59.9
		C12.9,59.9,12.9,59.9,12.9,59.9C12.9,59.9,12.9,59.9,12.9,59.9z"/>
	<path class="st22" d="M16,49.6C16,49.6,16,49.6,16,49.6C16,49.6,16,49.6,16,49.6C16,49.6,16,49.6,16,49.6C16,49.6,16,49.6,16,49.6
		C16,49.6,16,49.6,16,49.6z"/>
	<path class="st22" d="M17.7,46.3C17.7,46.3,17.7,46.3,17.7,46.3C17.7,46.3,17.7,46.3,17.7,46.3C17.7,46.3,17.7,46.3,17.7,46.3
		C17.7,46.3,17.7,46.3,17.7,46.3C17.7,46.3,17.7,46.3,17.7,46.3z"/>
	<path class="st22" d="M19.4,45.4C19.4,45.4,19.4,45.3,19.4,45.4C19.4,45.3,19.4,45.3,19.4,45.4C19.4,45.3,19.4,45.3,19.4,45.4
		C19.4,45.3,19.4,45.4,19.4,45.4C19.4,45.4,19.4,45.4,19.4,45.4z"/>
	<path class="st22" d="M22.3,45.1C22.3,45.1,22.3,45.1,22.3,45.1C22.3,45.1,22.3,45.1,22.3,45.1C22.2,45.1,22.2,45.1,22.3,45.1
		C22.2,45.1,22.2,45.1,22.3,45.1C22.3,45.1,22.3,45.1,22.3,45.1z"/>
	<path class="st22" d="M24.6,59.3C24.6,59.3,24.6,59.3,24.6,59.3C24.6,59.3,24.6,59.3,24.6,59.3C24.6,59.3,24.5,59.3,24.6,59.3
		C24.5,59.3,24.6,59.3,24.6,59.3C24.6,59.3,24.6,59.3,24.6,59.3z"/>
	<path class="st22" d="M23.3,59.9C23.3,59.9,23.3,59.9,23.3,59.9C23.3,59.8,23.3,59.8,23.3,59.9C23.3,59.8,23.3,59.8,23.3,59.9
		C23.3,59.8,23.3,59.9,23.3,59.9C23.3,59.9,23.3,59.9,23.3,59.9z"/>
	<path class="st22" d="M23.6,60.9C23.6,60.9,23.6,60.9,23.6,60.9C23.6,60.9,23.6,60.8,23.6,60.9C23.6,60.8,23.6,60.9,23.6,60.9
		C23.6,60.9,23.6,60.9,23.6,60.9C23.6,60.9,23.6,60.9,23.6,60.9z"/>
	<path class="st22" d="M25.2,61C25.2,61,25.2,61,25.2,61C25.2,60.9,25.2,60.9,25.2,61C25.2,60.9,25.1,60.9,25.2,61
		C25.1,61,25.2,61,25.2,61C25.2,61,25.2,61,25.2,61z"/>
	<path class="st22" d="M25.3,60.5C25.4,60.5,25.4,60.5,25.3,60.5C25.4,60.5,25.4,60.5,25.3,60.5C25.3,60.5,25.3,60.5,25.3,60.5
		C25.3,60.5,25.3,60.5,25.3,60.5C25.3,60.5,25.3,60.5,25.3,60.5z"/>
	<path class="st22" d="M27,61.4C27,61.4,27,61.4,27,61.4C27,61.4,27,61.4,27,61.4C27,61.4,27,61.4,27,61.4C27,61.4,27,61.4,27,61.4
		C27,61.4,27,61.4,27,61.4z"/>
	<path class="st22" d="M25.7,62.2C25.7,62.2,25.7,62.2,25.7,62.2C25.7,62.1,25.7,62.1,25.7,62.2C25.7,62.1,25.7,62.1,25.7,62.2
		C25.7,62.2,25.7,62.2,25.7,62.2C25.7,62.2,25.7,62.2,25.7,62.2z"/>
	<path class="st22" d="M28.5,60.5C28.5,60.5,28.5,60.5,28.5,60.5C28.5,60.4,28.5,60.4,28.5,60.5C28.5,60.4,28.5,60.4,28.5,60.5
		C28.5,60.5,28.5,60.5,28.5,60.5C28.5,60.5,28.5,60.5,28.5,60.5z"/>
	<path class="st22" d="M27.9,61.7C27.9,61.7,27.9,61.7,27.9,61.7C27.9,61.7,27.9,61.7,27.9,61.7C27.9,61.7,27.9,61.7,27.9,61.7
		C27.9,61.7,27.9,61.7,27.9,61.7C27.9,61.7,27.9,61.7,27.9,61.7z"/>
	<path class="st22" d="M28.6,62.6C28.6,62.6,28.6,62.6,28.6,62.6C28.6,62.6,28.6,62.6,28.6,62.6C28.6,62.6,28.6,62.6,28.6,62.6
		C28.6,62.6,28.6,62.6,28.6,62.6C28.6,62.6,28.6,62.6,28.6,62.6z"/>
	<path class="st22" d="M29.8,61.6C29.8,61.6,29.8,61.6,29.8,61.6C29.8,61.5,29.8,61.5,29.8,61.6C29.8,61.5,29.8,61.5,29.8,61.6
		C29.8,61.6,29.8,61.6,29.8,61.6C29.8,61.6,29.8,61.6,29.8,61.6z"/>
	<path class="st22" d="M30.1,60.7C30.1,60.7,30.1,60.7,30.1,60.7C30.1,60.7,30.1,60.7,30.1,60.7C30.1,60.7,30,60.7,30.1,60.7
		C30,60.7,30.1,60.7,30.1,60.7C30.1,60.7,30.1,60.7,30.1,60.7z"/>
	<path class="st22" d="M30.4,61.7C30.4,61.7,30.4,61.7,30.4,61.7C30.4,61.6,30.4,61.6,30.4,61.7C30.4,61.6,30.4,61.6,30.4,61.7
		C30.4,61.7,30.4,61.7,30.4,61.7C30.4,61.7,30.4,61.7,30.4,61.7z"/>
	<path class="st22" d="M30,62.3C30,62.3,30,62.3,30,62.3C30,62.3,30,62.3,30,62.3C30,62.3,30,62.3,30,62.3C30,62.3,30,62.3,30,62.3
		C30,62.3,30,62.3,30,62.3z"/>
	<path class="st22" d="M32,60.9C32,60.9,32,60.9,32,60.9C32,60.9,32,60.8,32,60.9C31.9,60.8,31.9,60.9,32,60.9
		C31.9,60.9,31.9,60.9,32,60.9C32,60.9,32,60.9,32,60.9z"/>
	<path class="st22" d="M31.3,60.4C31.3,60.4,31.3,60.4,31.3,60.4C31.3,60.3,31.3,60.3,31.3,60.4C31.3,60.3,31.2,60.3,31.3,60.4
		C31.2,60.4,31.3,60.4,31.3,60.4C31.3,60.4,31.3,60.4,31.3,60.4z"/>
	<path class="st22" d="M31.6,62.3C31.6,62.3,31.6,62.3,31.6,62.3C31.6,62.2,31.6,62.2,31.6,62.3C31.6,62.2,31.6,62.2,31.6,62.3
		C31.6,62.3,31.6,62.3,31.6,62.3C31.6,62.3,31.6,62.3,31.6,62.3z"/>
	<path class="st22" d="M32.6,62.4C32.7,62.4,32.7,62.4,32.6,62.4C32.7,62.4,32.7,62.4,32.6,62.4C32.6,62.4,32.6,62.4,32.6,62.4
		C32.6,62.4,32.6,62.4,32.6,62.4C32.6,62.4,32.6,62.4,32.6,62.4z"/>
	<path class="st22" d="M33.2,60.4C33.3,60.4,33.3,60.4,33.2,60.4C33.3,60.3,33.3,60.3,33.2,60.4C33.2,60.3,33.2,60.3,33.2,60.4
		C33.2,60.4,33.2,60.4,33.2,60.4C33.2,60.4,33.2,60.4,33.2,60.4z"/>
	<path class="st22" d="M32.9,59.8C32.9,59.8,32.9,59.8,32.9,59.8C32.9,59.7,32.9,59.7,32.9,59.8C32.9,59.7,32.9,59.7,32.9,59.8
		C32.9,59.8,32.9,59.8,32.9,59.8C32.9,59.8,32.9,59.8,32.9,59.8z"/>
	<path class="st22" d="M35.6,58.3C35.6,58.3,35.6,58.3,35.6,58.3C35.6,58.3,35.6,58.3,35.6,58.3C35.5,58.3,35.5,58.3,35.6,58.3
		C35.5,58.3,35.5,58.3,35.6,58.3C35.6,58.3,35.6,58.3,35.6,58.3z"/>
	<path class="st22" d="M35.7,60C35.7,60,35.8,60,35.7,60C35.8,60,35.7,60,35.7,60C35.7,60,35.7,60,35.7,60C35.7,60,35.7,60,35.7,60
		C35.7,60,35.7,60,35.7,60z"/>
	<path class="st22" d="M15.2,54.3C15.3,54.3,15.3,54.3,15.2,54.3C15.3,54.2,15.3,54.2,15.2,54.3C15.2,54.2,15.2,54.2,15.2,54.3
		C15.2,54.3,15.2,54.3,15.2,54.3C15.2,54.3,15.2,54.3,15.2,54.3z"/>
	<path class="st22" d="M13.2,58.9C13.2,58.9,13.2,58.9,13.2,58.9C13.2,58.8,13.2,58.8,13.2,58.9C13.1,58.8,13.1,58.8,13.2,58.9
		C13.1,58.9,13.1,58.9,13.2,58.9C13.2,58.9,13.2,58.9,13.2,58.9z"/>
	<path class="st22" d="M16.4,60.7C16.5,60.7,16.5,60.7,16.4,60.7C16.5,60.7,16.5,60.6,16.4,60.7C16.4,60.6,16.4,60.7,16.4,60.7
		C16.4,60.7,16.4,60.7,16.4,60.7C16.4,60.7,16.4,60.7,16.4,60.7z"/>
	<path class="st22" d="M27,61.9C27,61.9,27,61.9,27,61.9C27,61.9,27,61.8,27,61.9C27,61.8,27,61.9,27,61.9C27,61.9,27,61.9,27,61.9
		C27,61.9,27,61.9,27,61.9z"/>
	<path class="st22" d="M32.8,60.4C32.9,60.4,32.9,60.4,32.8,60.4C32.9,60.3,32.9,60.3,32.8,60.4C32.8,60.3,32.8,60.3,32.8,60.4
		C32.8,60.4,32.8,60.4,32.8,60.4C32.8,60.4,32.8,60.4,32.8,60.4z"/>
	<path class="st22" d="M36.1,59.3C36.1,59.3,36.1,59.3,36.1,59.3C36.1,59.3,36.1,59.3,36.1,59.3C36.1,59.3,36.1,59.3,36.1,59.3
		C36.1,59.3,36.1,59.3,36.1,59.3C36.1,59.3,36.1,59.3,36.1,59.3z"/>
	<path class="st22" d="M36.4,56.4C36.5,56.4,36.5,56.4,36.4,56.4C36.5,56.4,36.5,56.3,36.4,56.4C36.4,56.3,36.4,56.4,36.4,56.4
		C36.4,56.4,36.4,56.4,36.4,56.4C36.4,56.4,36.4,56.4,36.4,56.4z"/>
	<path class="st22" d="M39.2,55.1C39.2,55.1,39.2,55.1,39.2,55.1C39.2,55.1,39.2,55.1,39.2,55.1C39.2,55.1,39.1,55.1,39.2,55.1
		C39.1,55.1,39.2,55.1,39.2,55.1C39.2,55.1,39.2,55.1,39.2,55.1z"/>
	<path class="st22" d="M38.1,54.1C38.1,54.1,38.2,54.1,38.1,54.1C38.2,54.1,38.1,54.1,38.1,54.1C38.1,54.1,38.1,54.1,38.1,54.1
		C38.1,54.1,38.1,54.1,38.1,54.1C38.1,54.1,38.1,54.1,38.1,54.1z"/>
	<path class="st22" d="M38.9,52.5C38.9,52.5,38.9,52.5,38.9,52.5C38.9,52.4,38.9,52.4,38.9,52.5C38.9,52.4,38.9,52.4,38.9,52.5
		C38.9,52.5,38.9,52.5,38.9,52.5C38.9,52.5,38.9,52.5,38.9,52.5z"/>
	<path class="st22" d="M38.8,51.9C38.8,51.9,38.8,51.9,38.8,51.9C38.8,51.8,38.8,51.8,38.8,51.9C38.8,51.8,38.8,51.8,38.8,51.9
		C38.8,51.9,38.8,51.9,38.8,51.9C38.8,51.9,38.8,51.9,38.8,51.9z"/>
	<path class="st22" d="M40.2,51.8C40.2,51.8,40.2,51.8,40.2,51.8C40.2,51.8,40.2,51.7,40.2,51.8C40.2,51.7,40.2,51.8,40.2,51.8
		C40.2,51.8,40.2,51.8,40.2,51.8C40.2,51.8,40.2,51.8,40.2,51.8z"/>
	<path class="st22" d="M40.2,51C40.2,51,40.2,51,40.2,51C40.2,51,40.2,51,40.2,51C40.2,51,40.2,51,40.2,51C40.2,51,40.2,51,40.2,51
		C40.2,51,40.2,51,40.2,51z"/>
	<path class="st22" d="M38.3,50.8C38.3,50.8,38.3,50.8,38.3,50.8C38.3,50.7,38.3,50.7,38.3,50.8C38.3,50.7,38.3,50.7,38.3,50.8
		C38.3,50.7,38.3,50.8,38.3,50.8C38.3,50.8,38.3,50.8,38.3,50.8z"/>
	<path class="st22" d="M38.8,49.9C38.8,49.9,38.8,49.9,38.8,49.9C38.8,49.9,38.8,49.9,38.8,49.9C38.8,49.9,38.8,49.9,38.8,49.9
		C38.8,49.9,38.8,49.9,38.8,49.9C38.8,49.9,38.8,49.9,38.8,49.9z"/>
	<path class="st22" d="M38.5,47.6C38.5,47.6,38.5,47.6,38.5,47.6C38.5,47.6,38.5,47.5,38.5,47.6C38.5,47.5,38.5,47.6,38.5,47.6
		C38.5,47.6,38.5,47.6,38.5,47.6C38.5,47.6,38.5,47.6,38.5,47.6z"/>
	<path class="st22" d="M39.7,46.9C39.7,46.9,39.7,46.9,39.7,46.9C39.7,46.9,39.7,46.9,39.7,46.9C39.7,46.9,39.7,46.9,39.7,46.9
		C39.7,46.9,39.7,46.9,39.7,46.9C39.7,46.9,39.7,46.9,39.7,46.9z"/>
	<path class="st22" d="M37.4,44.9C37.5,44.9,37.5,44.9,37.4,44.9C37.5,44.9,37.5,44.9,37.4,44.9C37.4,44.9,37.4,44.9,37.4,44.9
		C37.4,44.9,37.4,44.9,37.4,44.9C37.4,44.9,37.4,44.9,37.4,44.9z"/>
	<path class="st22" d="M38.6,44.1C38.7,44.1,38.7,44.1,38.6,44.1C38.7,44.1,38.7,44.1,38.6,44.1C38.6,44.1,38.6,44.1,38.6,44.1
		C38.6,44.1,38.6,44.1,38.6,44.1C38.6,44.1,38.6,44.1,38.6,44.1z"/>
	<path class="st22" d="M37.4,43.6C37.5,43.6,37.5,43.6,37.4,43.6C37.5,43.6,37.5,43.6,37.4,43.6C37.4,43.6,37.4,43.6,37.4,43.6
		C37.4,43.6,37.4,43.6,37.4,43.6C37.4,43.6,37.4,43.6,37.4,43.6z"/>
	<path class="st22" d="M38.1,42.3C38.1,42.3,38.2,42.3,38.1,42.3C38.2,42.2,38.1,42.2,38.1,42.3C38.1,42.2,38.1,42.2,38.1,42.3
		C38.1,42.3,38.1,42.3,38.1,42.3C38.1,42.3,38.1,42.3,38.1,42.3z"/>
	<path class="st22" d="M35.9,40.5C35.9,40.5,35.9,40.5,35.9,40.5C35.9,40.5,35.9,40.5,35.9,40.5C35.9,40.5,35.9,40.5,35.9,40.5
		C35.9,40.5,35.9,40.5,35.9,40.5C35.9,40.5,35.9,40.5,35.9,40.5z"/>
	<path class="st22" d="M34.5,42.7C34.5,42.7,34.5,42.7,34.5,42.7C34.5,42.7,34.5,42.6,34.5,42.7C34.5,42.6,34.5,42.7,34.5,42.7
		C34.5,42.7,34.5,42.7,34.5,42.7C34.5,42.7,34.5,42.7,34.5,42.7z"/>
	<path class="st22" d="M38.5,43.2C38.5,43.2,38.5,43.2,38.5,43.2C38.5,43.2,38.5,43.2,38.5,43.2C38.5,43.2,38.5,43.2,38.5,43.2
		C38.5,43.2,38.5,43.2,38.5,43.2C38.5,43.2,38.5,43.2,38.5,43.2z"/>
	<path class="st22" d="M40,44.8C40,44.8,40,44.7,40,44.8C40,44.7,40,44.7,40,44.8C40,44.7,40,44.7,40,44.8C40,44.7,40,44.7,40,44.8
		C40,44.8,40,44.8,40,44.8z"/>
	<path class="st22" d="M41.1,45.8C41.1,45.8,41.1,45.8,41.1,45.8C41.1,45.7,41.1,45.7,41.1,45.8C41,45.7,41,45.7,41.1,45.8
		C41,45.8,41,45.8,41.1,45.8C41.1,45.8,41.1,45.8,41.1,45.8z"/>
	<path class="st22" d="M39.4,48.2C39.4,48.2,39.4,48.2,39.4,48.2C39.4,48.2,39.4,48.1,39.4,48.2C39.4,48.1,39.4,48.2,39.4,48.2
		C39.4,48.2,39.4,48.2,39.4,48.2C39.4,48.2,39.4,48.2,39.4,48.2z"/>
	<path class="st22" d="M41.4,48.7C41.4,48.7,41.4,48.7,41.4,48.7C41.4,48.7,41.4,48.7,41.4,48.7C41.4,48.7,41.4,48.7,41.4,48.7
		C41.4,48.7,41.4,48.7,41.4,48.7C41.4,48.7,41.4,48.7,41.4,48.7z"/>
	<path class="st22" d="M26.4,44.5C26.4,44.5,26.4,44.5,26.4,44.5C26.4,44.4,26.4,44.4,26.4,44.5C26.4,44.4,26.4,44.4,26.4,44.5
		C26.3,44.5,26.4,44.5,26.4,44.5C26.4,44.5,26.4,44.5,26.4,44.5z"/>
	<path class="st22" d="M30.5,46C30.5,46,30.6,45.9,30.5,46C30.6,45.9,30.5,45.9,30.5,46C30.5,45.9,30.5,45.9,30.5,46
		C30.5,45.9,30.5,46,30.5,46C30.5,46,30.5,46,30.5,46z"/>
	<path class="st22" d="M39.8,53.2C39.8,53.2,39.8,53.2,39.8,53.2C39.8,53.2,39.8,53.2,39.8,53.2C39.8,53.2,39.7,53.2,39.8,53.2
		C39.7,53.2,39.8,53.2,39.8,53.2C39.8,53.2,39.8,53.2,39.8,53.2z"/>
	<path class="st22" d="M38.1,50.9C38.1,50.9,38.1,50.9,38.1,50.9C38.1,50.9,38.1,50.8,38.1,50.9C38,50.8,38,50.9,38.1,50.9
		C38,50.9,38,50.9,38.1,50.9C38.1,50.9,38.1,50.9,38.1,50.9z"/>
	<path class="st22" d="M40,48.9C40,48.9,40,48.9,40,48.9C40,48.8,40,48.8,40,48.9C39.9,48.8,39.9,48.8,40,48.9
		C39.9,48.9,39.9,48.9,40,48.9C40,48.9,40,48.9,40,48.9z"/>
	<path class="st22" d="M43.9,47.6C43.9,47.6,43.9,47.6,43.9,47.6C43.9,47.5,43.9,47.5,43.9,47.6C43.9,47.5,43.9,47.5,43.9,47.6
		C43.9,47.6,43.9,47.6,43.9,47.6C43.9,47.6,43.9,47.6,43.9,47.6z"/>
	<path class="st22" d="M24.9,67C25,67,25,67,24.9,67C25,66.9,25,66.9,24.9,67C24.9,66.9,24.9,66.9,24.9,67C24.9,67,24.9,67,24.9,67
		C24.9,67,24.9,67,24.9,67z"/>
	<path class="st22" d="M11.1,63.6C11.1,63.6,11.2,63.6,11.1,63.6C11.2,63.6,11.1,63.6,11.1,63.6C11.1,63.6,11.1,63.6,11.1,63.6
		C11.1,63.6,11.1,63.6,11.1,63.6C11.1,63.6,11.1,63.6,11.1,63.6z"/>
	<path class="st22" d="M9.7,49.6C9.8,49.6,9.8,49.6,9.7,49.6C9.8,49.6,9.8,49.6,9.7,49.6C9.7,49.6,9.7,49.6,9.7,49.6
		C9.7,49.6,9.7,49.6,9.7,49.6C9.7,49.6,9.7,49.6,9.7,49.6z"/>
	<path class="st22" d="M15.7,42.2C15.8,42.2,15.8,42.2,15.7,42.2C15.8,42.1,15.8,42.1,15.7,42.2C15.7,42.1,15.7,42.1,15.7,42.2
		C15.7,42.2,15.7,42.2,15.7,42.2C15.7,42.2,15.7,42.2,15.7,42.2z"/>
	<path class="st22" d="M31.5,41.1C31.5,41.1,31.5,41,31.5,41.1C31.5,41,31.5,41,31.5,41.1C31.4,41,31.4,41,31.5,41.1
		C31.4,41,31.4,41.1,31.5,41.1C31.5,41.1,31.5,41.1,31.5,41.1z"/>
</g>
</svg>
