<svg id="Layer_1" data-name="Layer 1" xmlns="http://www.w3.org/2000/svg" xmlns:xlink="http://www.w3.org/1999/xlink" viewBox="0 0 214 627.45"><defs><style>.cls-1{fill:#cb5027;}.cls-2{fill:#fdb61c;}.cls-3{fill:#ffdf82;}.cls-4{fill:#d16130;}.cls-5{fill:#d05127;}.cls-6{fill:#f2c32f;}.cls-7{fill:#cad4da;}.cls-8{fill:url(#linear-gradient);}.cls-9{fill:#a1abb0;}.cls-10{fill:#848386;}.cls-11{fill:url(#radial-gradient);}.cls-12{fill:url(#radial-gradient-2);}.cls-13{fill:none;stroke:#231f20;stroke-miterlimit:10;stroke-width:0.25px;}</style><linearGradient id="linear-gradient" x1="444.21" y1="302" x2="487.23" y2="342.8" gradientTransform="matrix(-0.71, -0.7, -0.7, 0.71, 862.67, 347.43)" gradientUnits="userSpaceOnUse"><stop offset="0" stop-color="#dd5b26"/><stop offset="1" stop-color="#974023"/></linearGradient><radialGradient id="radial-gradient" cx="366.62" cy="422.06" r="30.84" gradientTransform="matrix(-0.71, -0.7, -0.7, 0.71, 673, 151.15)" gradientUnits="userSpaceOnUse"><stop offset="0" stop-color="#2a89ca"/><stop offset="1" stop-color="#357599"/></radialGradient><radialGradient id="radial-gradient-2" cx="295.84" cy="499.92" r="23.95" xlink:href="#radial-gradient"/></defs><title>rocket</title><path class="cls-1" d="M328.39,592.05a255.18,255.18,0,0,1,8.71,92.21,236.17,236.17,0,0,1-14.5,62.5l-5-9.17c-3.69,13.15-7.2,27.25-10.35,42.25-3.21,15.31-5.73,30-7.69,43.89q-6.65-38.65-13.3-77.29l-3,40.17c-10.28-27.9-22.24-71-21.06-123.14a309,309,0,0,1,10.21-72.28" transform="translate(-189.66 -196.28)"/><path class="cls-2" d="M319.51,591.93a162.52,162.52,0,0,1,8.27,62.33,149,149,0,0,1-8.8,41.49l-3.47-6.19c-2.28,8.73-4.42,18.08-6.31,28-1.93,10.17-3.4,19.93-4.51,29.18l-10-51.76-1.44,26.76c-7.26-18.76-15.85-47.71-15.8-82.46A229.72,229.72,0,0,1,280.23,606c1-6,2.11-11,3-14.79Z" transform="translate(-189.66 -196.28)"/><path class="cls-3" d="M312.23,591.83a95.65,95.65,0,0,1,6.46,35.3,79.31,79.31,0,0,1-3.76,23.08l-2.14-3.58c-1,4.84-2,10-2.74,15.59s-1.35,11.11-1.71,16.28l-7.11-29.4q0,7.5,0,15a137.15,137.15,0,0,1-11.29-46.85,126.68,126.68,0,0,1,.59-18.65c.18-1.48.39-3,.64-4.58.14-.9.29-1.77.45-2.63Z" transform="translate(-189.66 -196.28)"/><path class="cls-4" d="M371.49,529.25l25,23.81a418,418,0,0,1,6.29,50.13c.77,11.9,1,23.16.82,33.7l-17.92-7.76c-.35-9-2.5-29.58-17.79-46.68A66.29,66.29,0,0,0,356,572Z" transform="translate(-189.66 -196.28)"/><path class="cls-5" d="M226.62,518.08,202.11,542.4a418.56,418.56,0,0,0-9.31,46.38c-1.54,10.93-2.54,21.23-3.14,30.82l16.9-9a81.73,81.73,0,0,1,19.55-44.42,79.62,79.62,0,0,1,11.56-10.75Z" transform="translate(-189.66 -196.28)"/><path class="cls-6" d="M341.53,604q-4.36,10.57-8.72,21.15a112.28,112.28,0,0,1-69.92-2.57l-5.51-19.15Z" transform="translate(-189.66 -196.28)"/><path class="cls-7" d="M307.42,225.49c28.84,30,75,88.2,82.12,167,5.41,60-12.94,120-24.7,158.45-6.64,21.7-13.47,39.47-18.68,52.06a96,96,0,0,1-92.48-2.52c-4.83-11.79-11.35-28.73-17.89-49.49-9-28.6-18.46-58.59-21.36-92.33-.89-10.38-4.67-62,18.68-123.11A294,294,0,0,1,307.42,225.49Z" transform="translate(-189.66 -196.28)"/><path class="cls-8" d="M307.2,225.27c6.31,6.51,12.88,13.83,19.52,22,6.83,8.4,12.8,16.54,18,24.24a115.88,115.88,0,0,1-76.67-1.11c5.82-8.08,12.55-16.64,20.29-25.42C294.76,237.69,301.1,231.14,307.2,225.27Z" transform="translate(-189.66 -196.28)"/><path class="cls-9" d="M300,613.64a97.16,97.16,0,0,1-46.27-13.14,544.64,544.64,0,0,1-32.63-105.93c-4.08-20.56-6.94-34.94-7.38-55.45-1.13-51.69,14.17-90.66,21.24-108.16a299,299,0,0,1,33.14-60.58,115.44,115.44,0,0,0,18,5c1.77.34,5.38,1,10,1.47a120.38,120.38,0,0,0,20.15.35A1086.06,1086.06,0,0,1,321,449.76,1086.67,1086.67,0,0,1,300,613.64Z" transform="translate(-189.66 -196.28)"/><circle class="cls-10" cx="115.71" cy="195.59" r="39.84"/><circle class="cls-11" cx="115.71" cy="195.59" r="30.84"/><circle class="cls-10" cx="111.69" cy="300.73" r="30.94"/><circle class="cls-12" cx="111.69" cy="300.73" r="23.95"/><path class="cls-13" d="M307.2,225.27q0-14.49-.05-29" transform="translate(-189.66 -196.28)"/></svg>