<?xml version="1.0" encoding="utf-8"?>
<!-- Generator: Adobe Illustrator 23.0.1, SVG Export Plug-In . SVG Version: 6.00 Build 0)  -->
<svg version="1.1" id="Layer_1" xmlns="http://www.w3.org/2000/svg" xmlns:xlink="http://www.w3.org/1999/xlink" x="0px" y="0px"
	 viewBox="0 0 392.9 408.2" style="enable-background:new 0 0 392.9 408.2;" xml:space="preserve">
<style type="text/css">
	.st0{opacity:0.78;fill:#D2E3F5;enable-background:new    ;}
	.st1{opacity:0.78;fill:#C27B3E;enable-background:new    ;}
	.st2{opacity:0.78;fill:#FFFFFF;enable-background:new    ;}
	.st3{opacity:0.97;fill:#D2E3F5;enable-background:new    ;}
	.st4{opacity:0.6;fill:#808285;enable-background:new    ;}
	.st5{opacity:0.57;fill:#965F2D;enable-background:new    ;}
</style>
<title>sailboat</title>
<path class="st0" d="M134.2,23.6c20,6.9,39.5,15.4,58.3,25.3c23.1,12.2,45,26.5,64.8,43.6c24.1,20.8,44.4,44.8,58.4,73.7
	c8.6,17.7,14.5,36.6,17.4,56.1c0.4,2.5-0.1,3.1-2.7,3.1c-16.7,0.2-33.3,0.6-50,0.9c-15.1,0.3-30.1,0.7-45.2,1l-45.5,1
	c-15.2,0.3-30.3,0.7-45.5,1c-4.4,0.1-8.8,0.3-13.3,0.4l-11.8,0.1c-0.1-0.2-0.1-0.3,0-0.5c4.9-7.7,9-15.8,12.3-24.3
	c0.2-0.2,0.3-0.5,0.5-0.7c9.1-21.8,14.2-45.1,15.2-68.7c0.7-16.4-0.4-32.9-3.3-49.1c-2.1-13.1-5.5-25.9-9.9-38.4
	c-2.9-9.5-6.9-18.6-11.4-28.2L134.2,23.6z M144.7,40.4c-0.3,0.3-0.4,0.8-0.1,1.2c8.6,23.9,13.5,49,14.7,74.4
	c0.8,16.2-0.2,32.4-3,48.4c-3.1,17.3-8.3,34.2-15.7,50.2c-1,2.1-0.8,2.9,1.8,2.9c10-0.1,19.9-0.4,29.9-0.7c16.5-0.5,32.9-0.7,49.4-1
	c8.8-0.2,17.7-0.5,26.5-0.6c16.3-0.3,32.5-0.7,48.8-1c6.7-0.1,13.4-0.3,20-0.3c1.8,0,2.3-0.5,1.9-2.3c-2.6-11.9-6.4-23.4-11.4-34.5
	c-8.7-19.1-20.4-36.8-34.6-52.3c-13.9-15.3-29.4-28.9-46.4-40.7c-20.5-14.4-42.4-26.7-65.3-36.8C155.8,44.6,150.3,42.4,144.7,40.4z"
	/>
<path class="st1" d="M119.3,229.9l11.8-0.1c0,3.3,0,6.6-0.2,9.9c-0.1,1.8,0.4,2.4,2.3,2.4c12.8-0.3,25.6-0.4,38.5-0.6
	c22.4-0.3,44.9-0.7,67.3-1.1l128.1-1.9c7.8-0.1,15.7-0.2,23.5-0.4c1.8,0,2.5,0.5,2.3,2.4c-0.2,2.4-0.2,4.9-0.1,7.4
	c0.1,1.7-0.5,2.2-2.2,2.3c-6.2,0.1-12.4,1.4-18.2,3.8c-11,4.7-17.1,13.8-21.4,24.4c-4.4,10.9-7.2,22.2-11.2,33.2
	c-2.2,6.1-4.9,12-8.1,17.7c-0.3,0.6-0.8,1.1-0.6,1.8c-15.5,18.8-34.1,34.7-55,47.2c-30.4,18-64.9,28.3-100.2,30l-1-18
	c85.5-34,146.4-64.3,150.2-74.1c3.2-8.3,7-19.1,7-19.1c0.9-2.4,1.7-4.8,2.5-7.2c3.3-10.4,6.8-20.8,13-30c2.2-3.3,5-6,8-9.3
	c-1.4,0-2.3-0.1-3.2,0c-9.2,0.2-18.5,0.4-27.7,0.5c-19.3,0.3-38.6,0.6-57.9,0.9l-54.8,0.8l-57.6,0.9l-36.2,0.5L54.5,255
	c-13.3,0.2-26.6,0.4-39.8,0.5c-1.9,0-2.4,0.7-2.3,2.5c0.3,3.4,0.4,6.8,0.7,10.1c0.8,7,2,13.6,2.2,14.9c1.9,9.3,63.8,57,159.6,107.2
	l1,18c-27.2,0-54.1-5.9-78.8-17.3c-9.7-4.6-18.9-10-27.7-16.1c-14.8-10.3-36.9-28.4-57.8-58.3c-0.5-3.7-2.1-7-3.1-10.5
	C2.8,286.8,0,266.9,0,247c0-2.3,0.4-3,2.9-3c36.6-0.5,73.3-1,109.9-1.6c6.2-0.1,6.2,0,6.3-6.2C119.2,234.1,119.2,232,119.3,229.9z"
	/>
<path class="st2" d="M134.2,23.6l-11.5-3.7c4.4,9.6,8.5,18.7,11.4,28.2c0,1-0.1,2.1-0.1,3.1c-0.8,50.3-1.5,100.5-2.3,150.8
	c0,1,0,2.1,0,3.1c-3.3,8.5-7.4,16.6-12.3,24.3c0-1.2,0-2.5,0-3.7c1.2-77.3,2.7-114.6,3.1-201.6c0-2,0-6.1,0-11.4
	c-2.3-2.7-2.9-6.3-1.5-9c1.6-3,5.1-3.5,6.2-3.7c0.7-0.1,6.1-0.8,8.9,3.1c2.5,3.4,1.8,8.5,0.1,9.5c-0.6,0.2-1.1,0.6-1.5,1.1
	c-0.3,0.6-0.4,1.2-0.4,1.8C134.4,18.3,134.3,21,134.2,23.6z"/>
<path class="st3" d="M144.7,40.4c5.6,2,11.1,4.2,16.5,6.8c23,10.1,44.9,22.4,65.4,36.8c16.9,11.8,32.5,25.5,46.4,40.7
	c14.2,15.5,25.9,33.2,34.6,52.3c5,11.1,8.8,22.6,11.4,34.5c0.4,1.9-0.1,2.3-1.9,2.3c-6.7,0-13.4,0.2-20,0.3
	c-16.3,0.3-32.6,0.7-48.8,1c-8.8,0.2-17.7,0.5-26.5,0.6c-16.5,0.4-32.9,0.6-49.4,1c-10,0.3-19.9,0.6-29.9,0.7
	c-2.6,0-2.8-0.8-1.8-2.9c7.4-16,12.6-32.9,15.7-50.2c2.8-16,3.8-32.2,3-48.4c-1.2-25.4-6.1-50.5-14.7-74.4
	C144.3,41.2,144.4,40.7,144.7,40.4z"/>
<path class="st1" d="M316.1,331.5c-47,19.6-94.1,39.2-141.1,58.7c-21-11-38.7-21-52.4-29c-20.1-11.8-34-20.7-38.3-23.5
	c0,0-16.8-10.9-33.6-23c-1-0.7-6.9-5.2-14.4-10.9c0,0-3.6-2.8-8.3-6.9c-4.8-4.1-6.6-5.8-8.2-7.7c-2.1-2.4-3.5-4.5-4.5-5.9
	c-0.7-4.1-1.3-8.4-1.8-12.9c-0.5-4.3-0.8-8.4-1.1-12.4c-0.1-0.5-0.1-1.4,0.4-1.9c0.6-0.7,1.6-0.6,1.9-0.6
	c13.3-0.1,26.6-0.3,39.8-0.5l63.6-0.9l36.2-0.5l57.6-0.9l54.8-0.8c19.3-0.3,38.6-0.6,57.9-0.9c9.2-0.1,18.5-0.4,27.7-0.5
	c0.9,0,1.8,0,3.2,0c-3,3.3-5.8,6-8,9.3c-6.2,9.2-9.6,19.5-13,30c-2.8,8.9-5.5,17.8-9.4,26.3C322.5,321.5,319.5,326.6,316.1,331.5z"
	/>
<path class="st4" d="M122.7,19.9c28.5,9.3,96.2,34.2,146.9,83.7c10.1,9.8,26.4,26.1,40.8,52.3c11.2,20.4,18.8,42.4,22.7,65.3
	c0.4,1,0.9,2.5,0.1,3.6c-0.7,1.1-2.6,1-3.1,1c-3.6,0-37,0.5-83.2,1.2c5.7-21,11.8-55.7-0.7-92.1C218.6,54.2,117,18.1,122.7,19.9z"/>
<path class="st5" d="M318.2,345.3c-19.4,18.4-41.5,33.6-65.6,45c-24,10.4-49.6,16.5-75.7,17.7c66.6-39.4,119.4-98.4,151.2-169
	l64.4-0.5l-0.3,11.2c-6.8-0.2-13.6,1.2-19.8,4.2c-6.5,3.2-12,8-16.1,14c-1.6,2.3-2.9,4.8-4,7.4c-5.1,11.3-6.6,18.4-9.7,28
	c-3.2,9.8-5.6,17.4-11,25.9C327.9,335.1,323.4,340.5,318.2,345.3z"/>
<path class="st2" d="M131.2,241.4l-12.8-0.1l0.4-1l0.3-10.3l11.9-0.1c0,6-0.1,8.2-0.1,8.7c0,0,0,0.4,0,1.1c0,0.3,0,0.6,0,0.8
	C131,240.8,131.1,241.1,131.2,241.4z"/>
</svg>
