<svg id="Layer_1" data-name="Layer 1" xmlns="http://www.w3.org/2000/svg" viewBox="0 0 403.39 179.68"><defs><style>.cls-1{fill:#847f8e;}.cls-2{fill:#9389a1;}.cls-3{fill:#b0c0e0;}.cls-4{fill:#827c8a;}.cls-5{fill:#ead9cc;}.cls-6{fill:#4b4372;}</style></defs><title>satellite</title><path class="cls-1" d="M247.44,333.55H270.9" transform="translate(-95.94 -267.28)"/><path class="cls-1" d="M247.44,336.05H270.9c3.21,0,3.22-5,0-5H247.44c-3.22,0-3.22,5,0,5Z" transform="translate(-95.94 -267.28)"/><path class="cls-1" d="M325.05,331.3h21.47c3.21,0,3.22-5,0-5H325.05c-3.21,0-3.22,5,0,5Z" transform="translate(-95.94 -267.28)"/><path class="cls-2" d="M327.49,391.68c-30.88-8.95-31.06-8.95-59.35,0-.41-2.63-1.15-5.15-1.15-7.68q-.12-44.22,0-88.43c0-9.76,5-14.73,14.82-14.84q16-.17,32,0c9.83.11,14.83,5.13,14.84,14.83q0,44.2-.06,88.43A56.71,56.71,0,0,1,327.49,391.68Z" transform="translate(-95.94 -267.28)"/><path class="cls-3" d="M284.78,281c-.83-13.06-.23-13.71,13.16-13.68h.5c12.68.1,13.68,1.26,12.33,14.26Z" transform="translate(-95.94 -267.28)"/><path class="cls-4" d="M353.66,435.34l-113,.05c-.76-22,20.45-51.8,54.23-53C325.61,381.28,353.58,406.53,353.66,435.34Z" transform="translate(-95.94 -267.28)"/><path class="cls-5" d="M282.38,435l29,0c-.14,6-5.84,11.39-13.22,11.9C290,447.48,283.67,442.55,282.38,435Z" transform="translate(-95.94 -267.28)"/><rect class="cls-6" x="152.25" y="250.42" width="46.29" height="158.9" transform="translate(-250.42 237.99) rotate(-90)"/><rect class="cls-6" x="396.74" y="248.19" width="46.29" height="158.9" transform="translate(-3.7 480.25) rotate(-90)"/></svg>