<svg id="Layer_1" data-name="Layer 1" xmlns="http://www.w3.org/2000/svg" viewBox="0 0 182.62 254.33"><defs><style>.cls-1{fill:#a8a4a4;}.cls-2{fill:#414342;}.cls-3{fill:#807f80;}.cls-4{fill:#ebf4f9;}.cls-5{fill:#332d37;}.cls-6,.cls-8{fill:#1e1d1f;}.cls-6{opacity:0;}.cls-7{fill:#b8e2f9;}.cls-8{opacity:0.17;}</style></defs><title>spaceship</title><path class="cls-1" d="M315.61,452.1q-2.16,13.62-4.31,27.24a49.09,49.09,0,0,1,22.46,0q-2.36-13.56-4.7-27.13Z" transform="translate(-206.33 -226.86)"/><path class="cls-2" d="M328.13,475.94" transform="translate(-206.33 -226.86)"/><path class="cls-3" d="M311.3,479.34c0,1.08,6.46,1.89,11.55,1.85,4.56,0,10.88-.78,10.91-1.85s-6.13-2.44-11.94-2.32C316.87,477.12,311.28,478.33,311.3,479.34Z" transform="translate(-206.33 -226.86)"/><path class="cls-1" d="M274.11,452.1q-2.16,13.62-4.3,27.24a49,49,0,0,1,22.45,0q-2.36-13.56-4.7-27.13Z" transform="translate(-206.33 -226.86)"/><path class="cls-3" d="M269.81,479.34c0,1.08,6.46,1.89,11.54,1.85,4.56,0,10.88-.78,10.91-1.85s-6.13-2.44-11.93-2.32C275.37,477.12,269.78,478.33,269.81,479.34Z" transform="translate(-206.33 -226.86)"/><path class="cls-4" d="M298.27,228.59c-7.6-.09-13.3,6.6-20,14.69a99.37,99.37,0,0,0-18.11,33.31c-11.18,36.14-8.4,80-7.42,92.52-1.52,2.25-3.86,5.57-6.93,9.4-6.69,8.35-10.86,11.66-18.31,19.3C217,408.59,211.74,414,209.21,420.07c-3.64,8.74-3.25,17.49-2,24.25h180.1a35.45,35.45,0,0,0,.49-19.3c-3.43-12.37-13.28-17.27-26.72-31.17a159.27,159.27,0,0,1-19.79-25.23c.44-7.42,3.42-62.16-7.79-95.5a94.75,94.75,0,0,0-11.5-23C314.94,239.46,307.81,228.71,298.27,228.59Z" transform="translate(-206.33 -226.86)"/><path class="cls-5" d="M269.81,255h55.66a50.65,50.65,0,0,0-12.62-19.79c-4.28-4.11-8.82-8.46-15.05-8.37-5.16.08-8.84,3.15-12.9,6.63A54.83,54.83,0,0,0,269.81,255Z" transform="translate(-206.33 -226.86)"/><path class="cls-6" d="M298.27,228.59c-7.6-.09-13.3,6.6-20,14.69a99.37,99.37,0,0,0-18.11,33.31c-11.18,36.14-8.4,80-7.42,92.52-1.52,2.25-3.86,5.57-6.93,9.4-6.69,8.35-10.86,11.66-18.31,19.3C217,408.59,211.74,414,209.21,420.07c-3.64,8.74-3.25,17.49-2,24.25h180.1a35.45,35.45,0,0,0,.49-19.3c-3.43-12.37-13.28-17.27-26.72-31.17a159.27,159.27,0,0,1-19.79-25.23c.44-7.42,3.42-62.16-7.79-95.5a94.75,94.75,0,0,0-11.5-23C314.94,239.46,307.81,228.71,298.27,228.59Z" transform="translate(-206.33 -226.86)"/><path class="cls-7" d="M314.94,292.25c-.61-.83-6.22-8.08-16.08-8.16s-15.72,7.24-16.33,8c-11.46.72-13.47-1.94-14-3.1-1.95-4.51,7.2-13.78,16.7-17.81,1.51-.64,14-5.69,26.71.37,8.21,3.91,16.7,12.49,14.72,17.07C325.28,291.93,318.93,292.31,314.94,292.25Z" transform="translate(-206.33 -226.86)"/><path class="cls-5" d="M338.77,434.5c-1.18-1-3.35-.24-3.9-.06-7.23,2.29-30.9,2.58-34.13,2.59s-27,0-34.14-2.53c-.6-.21-3-1.08-4.27,0-.92.75-.92,2.08-.93,3.4-.08,8-.57,7.9.05,14.12.24,2.43.4,3.27,1.06,4.12,1.7,2.18,4.94,2.24,6.13,2.28,44.95,1.43,51.64.72,65-.7,1.2-.13,4.31-.44,5.84-2.69a5.94,5.94,0,0,0,.89-2.87c.83-6.61-1-8-.89-14.38C339.54,436.6,339.64,435.25,338.77,434.5Z" transform="translate(-206.33 -226.86)"/><path class="cls-8" d="M298.27,228.59c-7.6-.09-13.3,6.6-20,14.69a99.37,99.37,0,0,0-18.11,33.31c-11.18,36.14-8.4,80-7.42,92.52-1.52,2.25-3.86,5.57-6.93,9.4-6.69,8.35-10.86,11.66-18.31,19.3C217,408.59,211.74,414,209.21,420.07c-3.64,8.74-3.25,17.49-2,24.25h180.1a35.45,35.45,0,0,0,.49-19.3c-3.43-12.37-13.28-17.27-26.72-31.17a159.27,159.27,0,0,1-19.79-25.23c.44-7.42,3.42-62.16-7.79-95.5a94.75,94.75,0,0,0-11.5-23C314.94,239.46,307.81,228.71,298.27,228.59Z" transform="translate(-206.33 -226.86)"/></svg>