<svg id="Layer_1" data-name="Layer 1" xmlns="http://www.w3.org/2000/svg" viewBox="0 0 360.06 627"><defs><style>.cls-1{fill:#fff;}</style></defs><title>spacerope</title><path class="cls-1" d="M315.26,156.76a252.14,252.14,0,0,1,86,29.89c6.57,3.75,14.09,7.14,15.17,15.45,1,7.88.34,16.32-.12,24.23-.91,15.72-4.76,31.91.78,47.2,4.44,12.27,13.11,24.14,6.18,37.22-6.2,11.72-16.11,20.37-20.8,33.06-5.25,14.19-6.05,30-8,44.9-1.09,8.45-2.26,16.9-3.28,25.37-.86,7.19-.77,14,2.05,20.77s6.9,12.71,6.48,20.33c-.41,7.25-3.93,14-8,19.86-8.33,12-20.23,21.53-31.36,30.81C337.42,525,317,545.92,301,571.44c-7.69,12.32-13.35,26.62-23.59,37.14-4.81,4.94-10.9,9-17.73,10.44-7.6,1.57-14.37-1.68-21.43-4-6.83-2.26-12.66-2.27-19.24.8a70.24,70.24,0,0,0-17.09,11.65c-9.37,8.5-15.6,19.57-22.64,29.91-7.69,11.29-17.27,22-29.59,28.25-9,4.6-17.79,7.09-25.36,14.23-6,5.71-10.7,12.49-15.06,19.51-7,11.22-14.19,22.26-21.87,33q-5.25,7.33-10.74,14.51c-3.9,5.11,4.78,10.1,8.64,5.05q12.87-16.86,24.47-34.63c4.93-7.59,9.25-15.77,14.82-22.92,6.27-8.07,13.57-13.14,22.92-16.92a80.89,80.89,0,0,0,31.16-22.84c8.59-10,14.57-21.8,22.78-32A64.18,64.18,0,0,1,216.22,629c3.19-2.1,6.68-4.48,10.42-5.43,4-1,7.73.63,11.44,1.95,6.74,2.4,13.34,4.56,20.59,3.72a40.33,40.33,0,0,0,18.89-7.63c11.78-8.57,18.58-21.49,25.52-33.93,15.18-27.23,35.25-50.33,59.09-70.32,19.49-16.34,51.57-38.9,47.26-68.33-1.11-7.51-5.77-13.4-7.87-20.53-2.27-7.66-.07-16.34.93-24.06,2.13-16.5,3.24-33.57,7.18-49.76a57.87,57.87,0,0,1,8.71-19.83c3.79-5.42,8.24-10.37,11.77-16,7.58-12.05,6.87-24,1.42-36.73-2.87-6.71-6.24-13.25-7.12-20.6-1-8.14.24-16.39,1-24.49a259.44,259.44,0,0,0,1.28-26.44c0-7.27-.07-14.9-4.68-21-4.15-5.44-10.67-8.79-16.52-12.1q-10.4-5.88-21.31-10.76a262,262,0,0,0-43.79-15.18c-7.45-1.85-15-3.33-22.55-4.51-6.29-1-9,8.64-2.66,9.64Z" transform="translate(-75.7 -147.05)"/></svg>