<?xml version="1.0" encoding="utf-8"?>
<!-- Generator: Adobe Illustrator 23.0.1, SVG Export Plug-In . SVG Version: 6.00 Build 0)  -->
<svg version="1.1" id="Layer_1" xmlns="http://www.w3.org/2000/svg" xmlns:xlink="http://www.w3.org/1999/xlink" x="0px" y="0px"
	 viewBox="0 0 595.3 244" style="enable-background:new 0 0 595.3 244;" xml:space="preserve">
<style type="text/css">
	.st0{fill:none;}
	.st1{opacity:0.58;fill:#FFFFFF;enable-background:new    ;}
	.st2{opacity:0.67;}
	.st3{fill:#FFFFFF;}
</style>
<title>stars</title>
<rect y="0" class="st0" width="595.3" height="244"/>
<path class="st1" d="M107.2,138.1c0.3,0,0.6-0.4,0.6-0.7c0-0.3-0.3-0.5-0.6-0.6c-0.3,0-0.6,0.4-0.6,0.7
	C106.7,137.9,106.9,138.1,107.2,138.1z"/>
<path class="st1" d="M80.5,187.9c0.3,0,0.6-0.4,0.6-0.7c0-0.3-0.3-0.5-0.6-0.6c-0.3,0-0.6,0.4-0.6,0.7
	C80,187.6,80.2,187.8,80.5,187.9z"/>
<path class="st1" d="M38.6,163.7c0.3,0,0.6-0.4,0.5-0.7c0-0.3-0.3-0.5-0.5-0.6c-0.3,0-0.6,0.4-0.5,0.7
	C38.1,163.4,38.3,163.6,38.6,163.7z"/>
<path class="st1" d="M33.7,186.3c0.3,0,0.6-0.4,0.5-0.7c0-0.3-0.3-0.5-0.5-0.6c-0.3,0-0.6,0.4-0.5,0.7
	C33.1,186,33.4,186.2,33.7,186.3z"/>
<path class="st1" d="M86.6,212.1c0.3,0,0.6-0.4,0.6-0.7c0-0.3-0.3-0.5-0.6-0.6c-0.3,0-0.6,0.4-0.6,0.7
	C86.1,211.8,86.4,212,86.6,212.1z"/>
<path class="st1" d="M109.2,200.5c0.3,0,0.6-0.4,0.6-0.7c0-0.3-0.3-0.5-0.6-0.6c-0.3,0-0.6,0.4-0.6,0.7
	C108.7,200.2,109,200.5,109.2,200.5z"/>
<path class="st1" d="M144.6,190.8c0.3,0,0.6-0.4,0.6-0.7c0-0.3-0.3-0.5-0.6-0.6c-0.3,0-0.6,0.4-0.6,0.7
	C144.1,190.6,144.3,190.8,144.6,190.8z"/>
<path class="st1" d="M124.4,210.4c0.3,0,0.6-0.4,0.6-0.7c0-0.3-0.3-0.5-0.6-0.6c-0.3,0-0.6,0.4-0.6,0.7
	C123.9,210.2,124.2,210.4,124.4,210.4z"/>
<path class="st1" d="M134.3,227.1c0.3,0,0.6-0.4,0.6-0.7c0-0.3-0.3-0.5-0.6-0.6c-0.3,0-0.6,0.4-0.6,0.7
	C133.8,226.8,134,227.1,134.3,227.1z"/>
<path class="st1" d="M195.1,139c0.3,0,0.6-0.4,0.6-0.7c0-0.3-0.3-0.5-0.6-0.6c-0.3,0-0.6,0.4-0.6,0.7
	C194.6,138.7,194.8,139,195.1,139z"/>
<path class="st1" d="M197.1,160.5c0.3,0,0.6-0.4,0.6-0.7c0-0.3-0.3-0.5-0.6-0.6c-0.3,0-0.6,0.4-0.6,0.7
	C196.6,160.2,196.9,160.4,197.1,160.5z"/>
<path class="st1" d="M224.5,172.4c0.3,0,0.6-0.4,0.6-0.7c0-0.3-0.3-0.5-0.6-0.6c-0.3,0-0.6,0.4-0.6,0.7
	C224,172.1,224.3,172.3,224.5,172.4z"/>
<path class="st1" d="M194.3,230.1c0.3,0,0.6-0.4,0.6-0.7c0-0.3-0.3-0.5-0.6-0.6c-0.3,0-0.6,0.4-0.6,0.7
	C193.8,229.8,194,230,194.3,230.1z"/>
<path class="st1" d="M40.6,138.7c0.3,0,0.6-0.4,0.5-0.7c0-0.3-0.3-0.5-0.5-0.6c-0.3,0-0.6,0.4-0.5,0.7
	C40.1,138.4,40.3,138.7,40.6,138.7z"/>
<path class="st1" d="M65.3,109.1c0.3,0,0.6-0.4,0.6-0.7c0-0.3-0.3-0.5-0.6-0.6c-0.3,0-0.6,0.4-0.6,0.7
	C64.8,108.9,65,109.1,65.3,109.1z"/>
<path class="st1" d="M146.6,104c0.3,0,0.6-0.4,0.6-0.7c0-0.3-0.3-0.5-0.6-0.6c-0.3,0-0.6,0.4-0.6,0.7
	C146.1,103.7,146.3,104,146.6,104z"/>
<path class="st1" d="M202.9,106.2c0.3,0,0.6-0.4,0.6-0.7c0-0.3-0.3-0.5-0.6-0.6c-0.3,0-0.6,0.4-0.6,0.7
	C202.4,105.9,202.6,106.1,202.9,106.2z"/>
<path class="st1" d="M271.1,121c0.3,0,0.6-0.4,0.5-0.7c0-0.3-0.3-0.5-0.5-0.6c-0.3,0-0.6,0.4-0.5,0.7
	C270.6,120.7,270.8,121,271.1,121z"/>
<path class="st1" d="M323.5,157.8c0.3,0,0.6-0.4,0.5-0.7c0-0.3-0.3-0.5-0.5-0.5c-0.3,0-0.6,0.4-0.5,0.7
	C323,157.5,323.3,157.7,323.5,157.8z"/>
<path class="st1" d="M265.6,157.1c0.3,0,0.6-0.3,0.5-0.7c0,0,0,0,0,0c0-0.3-0.2-0.6-0.5-0.6c-0.3,0-0.6,0.2-0.6,0.5
	c0,0.1,0,0.1,0,0.2C265.1,156.9,265.3,157.1,265.6,157.1z"/>
<path class="st1" d="M290,198.1c0.3,0,0.6-0.4,0.5-0.7c0-0.3-0.3-0.5-0.5-0.6c-0.3,0-0.6,0.4-0.5,0.7
	C289.5,197.8,289.7,198,290,198.1z"/>
<path class="st1" d="M316.3,212.7c0.3,0,0.6-0.4,0.5-0.7c0-0.3-0.3-0.5-0.5-0.6c-0.3,0-0.6,0.4-0.5,0.7
	C315.8,212.4,316,212.6,316.3,212.7z"/>
<path class="st1" d="M335.2,232.2c0.3,0,0.6-0.4,0.5-0.7c0-0.3-0.3-0.5-0.5-0.6c-0.3,0-0.6,0.4-0.5,0.7
	C334.7,232,334.9,232.2,335.2,232.2z"/>
<path class="st1" d="M58.3,222.8c0.3,0,0.6-0.4,0.5-0.7c0-0.3-0.3-0.5-0.5-0.6c-0.3,0-0.6,0.4-0.5,0.7
	C57.8,222.5,58,222.8,58.3,222.8z"/>
<path class="st1" d="M39.4,222.8c0.3,0,0.6-0.4,0.5-0.7c0-0.3-0.3-0.5-0.5-0.6c-0.3,0-0.6,0.4-0.5,0.7
	C38.9,222.5,39.1,222.8,39.4,222.8z"/>
<path class="st1" d="M13.1,198.3c0.3,0,0.6-0.4,0.6-0.7c0-0.3-0.3-0.5-0.6-0.6c-0.3,0-0.6,0.4-0.6,0.7
	C12.6,198.1,12.8,198.3,13.1,198.3z"/>
<path class="st1" d="M10.2,133.8c0.3,0,0.6-0.4,0.6-0.7c0-0.3-0.3-0.5-0.6-0.6c-0.3,0-0.6,0.4-0.6,0.7
	C9.7,133.6,10,133.8,10.2,133.8z"/>
<path class="st1" d="M12.7,112.3c0.3,0,0.6-0.4,0.6-0.7c0-0.3-0.3-0.5-0.6-0.6c-0.3,0-0.6,0.4-0.6,0.7
	C12.2,112.1,12.4,112.3,12.7,112.3z"/>
<path class="st1" d="M331.1,122.6c0.3,0,0.6-0.4,0.5-0.7c0-0.3-0.3-0.5-0.5-0.6c-0.3,0-0.6,0.4-0.5,0.7
	C330.6,122.3,330.8,122.5,331.1,122.6z"/>
<path class="st1" d="M142.5,165.8c0.3,0,0.6-0.4,0.6-0.7c0-0.3-0.3-0.5-0.6-0.6c-0.3,0-0.6,0.4-0.6,0.7
	C142,165.6,142.2,165.8,142.5,165.8z"/>
<path class="st1" d="M253.2,229.5c0.3,0,0.6-0.4,0.6-0.7c0-0.3-0.3-0.5-0.6-0.6c-0.3,0-0.6,0.4-0.6,0.7
	C252.7,229.3,252.9,229.5,253.2,229.5z"/>
<path class="st1" d="M278.5,184.4c0.3,0,0.6-0.4,0.5-0.7c0-0.3-0.3-0.5-0.5-0.6c-0.3,0-0.6,0.4-0.5,0.7
	C278,184.1,278.2,184.3,278.5,184.4z"/>
<g class="st2">
	<path class="st3" d="M444,139.2c0.3,0,0.6-0.4,0.5-0.7c0-0.3-0.3-0.5-0.5-0.5c-0.3,0-0.6,0.4-0.5,0.7
		C443.5,139,443.7,139.2,444,139.2z"/>
</g>
<g class="st2">
	<path class="st3" d="M472.7,152.7c0.3,0,0.6-0.4,0.5-0.7c0-0.3-0.3-0.5-0.5-0.6c-0.3,0-0.6,0.4-0.5,0.7
		C472.2,152.4,472.4,152.6,472.7,152.7z"/>
</g>
<g class="st2">
	<path class="st3" d="M408.2,128.2c0.3,0,0.6-0.4,0.5-0.7c0-0.3-0.3-0.5-0.5-0.6c-0.3,0-0.6,0.4-0.5,0.7
		C407.7,127.9,407.9,128.2,408.2,128.2z"/>
</g>
<g class="st2">
	<path class="st3" d="M441.9,168.2c0.3,0,0.6-0.4,0.5-0.7c0-0.3-0.3-0.5-0.5-0.6c-0.3,0-0.6,0.4-0.5,0.7
		C441.4,168,441.6,168.2,441.9,168.2z"/>
</g>
<g class="st2">
	<path class="st3" d="M418,201.1c0.3,0,0.6-0.4,0.5-0.7c0-0.3-0.3-0.5-0.5-0.6c-0.3,0-0.6,0.4-0.5,0.7
		C417.5,200.9,417.7,201.1,418,201.1z"/>
</g>
<g class="st2">
	<path class="st3" d="M481.4,191.9c0.3,0,0.6-0.4,0.5-0.7c0-0.3-0.3-0.5-0.5-0.6c-0.3,0-0.6,0.4-0.5,0.7
		C480.8,191.6,481.1,191.9,481.4,191.9z"/>
</g>
<g class="st2">
	<path class="st3" d="M471.1,228.2c0.3,0,0.6-0.4,0.5-0.7c0-0.3-0.3-0.5-0.5-0.6c-0.3,0-0.6,0.4-0.5,0.7
		C470.6,227.9,470.8,228.1,471.1,228.2z"/>
</g>
<g class="st2">
	<path class="st3" d="M542.6,203.5c0.3,0,0.6-0.4,0.5-0.7c0-0.3-0.3-0.5-0.5-0.6c-0.3,0-0.6,0.4-0.5,0.7
		C542,203.2,542.3,203.4,542.6,203.5z"/>
</g>
<g class="st2">
	<path class="st3" d="M531.9,140c0.3,0,0.6-0.4,0.5-0.7c0-0.3-0.3-0.5-0.5-0.6c-0.3,0-0.6,0.4-0.5,0.7
		C531.4,139.7,531.6,140,531.9,140z"/>
</g>
<g class="st2">
	<path class="st3" d="M560.2,158.8c0.3,0,0.6-0.4,0.5-0.7c0-0.3-0.3-0.5-0.5-0.6c-0.3,0-0.6,0.4-0.5,0.7
		C559.7,158.6,559.9,158.8,560.2,158.8z"/>
</g>
<g class="st2">
	<path class="st3" d="M576.3,143.5c0.3,0,0.6-0.4,0.5-0.7c0-0.3-0.3-0.5-0.5-0.6c-0.3,0-0.6,0.4-0.5,0.7
		C575.7,143.3,576,143.5,576.3,143.5z"/>
</g>
<g class="st2">
	<path class="st3" d="M587.3,181.7c0.3,0,0.6-0.4,0.5-0.7c0-0.3-0.3-0.5-0.5-0.6c-0.3,0-0.6,0.4-0.5,0.7
		C586.8,181.4,587.1,181.7,587.3,181.7z"/>
</g>
<g class="st2">
	<path class="st3" d="M536.8,183.3c0.3,0,0.6-0.4,0.5-0.7c0-0.3-0.3-0.5-0.5-0.6c-0.3,0-0.6,0.4-0.5,0.7
		C536.3,183,536.5,183.3,536.8,183.3z"/>
</g>
<g class="st2">
	<path class="st3" d="M579.1,215.3c0.3,0,0.6-0.4,0.5-0.7c0-0.3-0.3-0.5-0.5-0.6c-0.3,0-0.6,0.4-0.5,0.7
		C578.6,215,578.8,215.2,579.1,215.3z"/>
</g>
<g class="st2">
	<path class="st3" d="M531.1,231.1c0.3,0,0.6-0.4,0.5-0.7c0-0.3-0.3-0.5-0.5-0.6c-0.3,0-0.6,0.4-0.5,0.7
		C530.5,230.9,530.8,231.1,531.1,231.1z"/>
</g>
<g class="st2">
	<path class="st3" d="M377.4,139.8c0.3,0,0.6-0.4,0.5-0.7c0-0.3-0.3-0.5-0.5-0.6c-0.3,0-0.6,0.4-0.5,0.7
		C376.9,139.5,377.1,139.7,377.4,139.8z"/>
</g>
<g class="st2">
	<path class="st3" d="M402.1,110.2c0.3,0,0.6-0.4,0.5-0.7c0-0.3-0.3-0.5-0.5-0.6c-0.3,0-0.6,0.4-0.5,0.7
		C401.6,109.9,401.8,110.2,402.1,110.2z"/>
</g>
<g class="st2">
	<path class="st3" d="M427.1,118.8c0.3,0,0.6-0.4,0.5-0.7c0-0.3-0.3-0.5-0.5-0.6c-0.3,0-0.6,0.4-0.5,0.7
		C426.6,118.5,426.8,118.8,427.1,118.8z"/>
</g>
<g class="st2">
	<path class="st3" d="M539.7,107.2c0.3,0,0.6-0.4,0.5-0.7c0-0.3-0.3-0.5-0.5-0.6c-0.3,0-0.6,0.4-0.5,0.7
		C539.2,107,539.4,107.2,539.7,107.2z"/>
</g>
<g class="st2">
	<path class="st3" d="M588.2,167.7c0.3,0,0.6-0.4,0.5-0.7c0-0.3-0.3-0.5-0.5-0.6c-0.3,0-0.6,0.4-0.5,0.7
		C587.6,167.5,587.9,167.7,588.2,167.7z"/>
</g>
<g class="st2">
	<path class="st3" d="M395.1,223.9c0.3,0,0.6-0.4,0.5-0.7c0-0.3-0.3-0.5-0.5-0.6c-0.3,0-0.6,0.4-0.5,0.7
		C394.6,223.6,394.8,223.8,395.1,223.9z"/>
</g>
<g class="st2">
	<path class="st3" d="M344.5,183.3c0.3,0,0.6-0.3,0.6-0.7c0,0,0,0,0,0c0-0.3-0.3-0.5-0.5-0.6c-0.3,0-0.6,0.4-0.5,0.7
		C344,183,344.2,183.3,344.5,183.3z"/>
</g>
<g class="st2">
	<path class="st3" d="M376.2,223.9c0.3,0,0.6-0.4,0.5-0.7c0-0.3-0.3-0.5-0.5-0.6c-0.3,0-0.6,0.4-0.5,0.7
		C375.7,223.6,375.9,223.8,376.2,223.9z"/>
</g>
<g class="st2">
	<path class="st3" d="M359.8,227.9c0.3,0,0.6-0.4,0.5-0.7c0-0.3-0.3-0.5-0.5-0.6c-0.3,0-0.6,0.4-0.5,0.7
		C359.2,227.7,359.5,227.9,359.8,227.9z"/>
</g>
<g class="st2">
	<path class="st3" d="M574.2,102.4c0.3,0,0.6-0.4,0.5-0.7c0-0.3-0.3-0.5-0.5-0.6c-0.3,0-0.6,0.4-0.5,0.7
		C573.7,102.1,573.9,102.4,574.2,102.4z"/>
</g>
<g class="st2">
	<path class="st3" d="M502.7,171.7c0.3,0,0.6-0.4,0.5-0.7c0-0.3-0.3-0.5-0.5-0.6c-0.3,0-0.6,0.4-0.5,0.7
		C502.2,171.5,502.4,171.7,502.7,171.7z"/>
</g>
<g class="st2">
	<path class="st3" d="M472.7,81.4c0.3,0,0.6-0.4,0.5-0.7c0-0.3-0.3-0.5-0.5-0.6c-0.3,0-0.6,0.4-0.5,0.7
		C472.2,81.1,472.4,81.3,472.7,81.4z"/>
</g>
<g class="st2">
	<path class="st3" d="M492.3,53.2c0.3,0,0.6-0.4,0.5-0.7c0-0.3-0.3-0.5-0.5-0.5c-0.3,0-0.6,0.4-0.5,0.7
		C491.8,53,492,53.2,492.3,53.2z"/>
</g>
<g class="st2">
	<path class="st3" d="M536.3,60.4c0.3-0.1,0.6-0.4,0.5-0.7c0-0.3-0.3-0.5-0.5-0.5c-0.3,0-0.6,0.4-0.5,0.7
		C535.8,60.1,536,60.3,536.3,60.4L536.3,60.4z"/>
</g>
<g class="st2">
	<path class="st3" d="M531.7,24.2c0.3,0,0.6-0.4,0.5-0.7c0-0.3-0.3-0.5-0.5-0.5c-0.3,0-0.6,0.4-0.5,0.7
		C531.2,23.9,531.4,24.2,531.7,24.2z"/>
</g>
<g class="st2">
	<path class="st3" d="M560.9,27.7c0.3,0,0.6-0.4,0.5-0.7c0-0.3-0.3-0.5-0.5-0.5c-0.3,0-0.6,0.4-0.5,0.7
		C560.4,27.4,560.6,27.7,560.9,27.7z"/>
</g>
<g class="st2">
	<path class="st3" d="M429,6.7c0.3,0,0.6-0.4,0.5-0.7c0-0.3-0.3-0.5-0.5-0.6c-0.3,0-0.6,0.4-0.5,0.7C428.5,6.5,428.7,6.7,429,6.7z"
		/>
</g>
<g class="st2">
	<path class="st3" d="M376,33.6c0.3,0,0.6-0.4,0.5-0.7c0-0.3-0.3-0.5-0.5-0.5c-0.3,0-0.6,0.4-0.5,0.7
		C375.5,33.3,375.7,33.6,376,33.6z"/>
</g>
<g class="st2">
	<path class="st3" d="M360,48.9c0.3,0,0.6-0.4,0.5-0.7c0-0.3-0.3-0.5-0.5-0.5c-0.3,0-0.6,0.4-0.5,0.7
		C359.5,48.7,359.7,48.9,360,48.9z"/>
</g>
<g class="st2">
	<path class="st3" d="M340.7,83.9c0.3,0,0.6-0.4,0.5-0.7c0-0.3-0.3-0.5-0.5-0.6c-0.3,0-0.6,0.4-0.5,0.7
		C340.2,83.6,340.4,83.8,340.7,83.9z"/>
</g>
<g class="st2">
	<path class="st3" d="M328.4,47c0.3,0,0.6-0.4,0.5-0.7c0-0.3-0.3-0.5-0.5-0.5c-0.3,0-0.6,0.4-0.5,0.7C327.9,46.7,328.1,47,328.4,47z
		"/>
</g>
<g class="st2">
	<path class="st3" d="M348.9,10.8c0.3,0,0.6-0.4,0.5-0.7c0-0.3-0.3-0.5-0.5-0.6c-0.3,0-0.6,0.4-0.5,0.7
		C348.4,10.5,348.6,10.7,348.9,10.8z"/>
</g>
<g class="st2">
	<path class="st3" d="M399.4,9.1c0.3,0,0.6-0.4,0.5-0.7c0-0.3-0.3-0.5-0.5-0.6c-0.3,0-0.6,0.4-0.5,0.7
		C398.9,8.9,399.1,9.1,399.4,9.1z"/>
</g>
<g class="st2">
	<path class="st3" d="M534.2,82.2c0.3,0,0.6-0.4,0.5-0.7c0-0.3-0.3-0.5-0.5-0.6c-0.3,0-0.6,0.4-0.5,0.7
		C533.7,82,533.9,82.2,534.2,82.2z"/>
</g>
<g class="st2">
	<path class="st3" d="M426.6,73.2c0.3,0,0.6-0.4,0.5-0.7c0-0.3-0.3-0.5-0.5-0.6c-0.3,0-0.6,0.4-0.5,0.7
		C426.1,72.9,426.3,73.2,426.6,73.2z"/>
</g>
<g class="st2">
	<path class="st3" d="M368.2,72.3c0.3,0,0.6-0.4,0.5-0.7c0-0.3-0.3-0.5-0.5-0.6c-0.3,0-0.6,0.4-0.5,0.7
		C367.7,72,367.9,72.3,368.2,72.3z"/>
</g>
<g class="st2">
	<path class="st3" d="M291.4,61c0.3,0,0.6-0.4,0.5-0.7c0-0.3-0.3-0.5-0.5-0.5c-0.3,0-0.6,0.4-0.5,0.7C290.9,60.7,291.1,61,291.4,61z
		"/>
</g>
<g class="st2">
	<path class="st3" d="M281.1,8.6c0.3,0,0.6-0.4,0.5-0.7c0-0.3-0.3-0.5-0.5-0.6c-0.3,0-0.6,0.4-0.5,0.7
		C280.6,8.3,280.8,8.6,281.1,8.6z"/>
</g>
<g class="st2">
	<path class="st3" d="M268.4,35.8c0.3,0,0.6-0.4,0.5-0.7c0-0.3-0.3-0.5-0.5-0.5c-0.3,0-0.6,0.4-0.5,0.7
		C267.9,35.5,268.1,35.7,268.4,35.8z"/>
</g>
<g class="st2">
	<path class="st3" d="M295.1,45.2c0.3,0,0.6-0.4,0.5-0.7c0-0.3-0.3-0.5-0.5-0.5c-0.3,0-0.6,0.4-0.5,0.7
		C294.6,44.9,294.8,45.1,295.1,45.2z"/>
</g>
<g class="st2">
	<path class="st3" d="M584.7,17.5c0.3,0,0.6-0.4,0.5-0.7c0-0.3-0.3-0.5-0.5-0.5c-0.3,0-0.6,0.4-0.5,0.7
		C584.2,17.2,584.4,17.4,584.7,17.5z"/>
</g>
<g class="st2">
	<path class="st3" d="M589.2,57.5c0.3,0,0.6-0.4,0.5-0.7c0-0.3-0.3-0.5-0.5-0.5c-0.3,0-0.6,0.4-0.5,0.7
		C588.7,57.3,588.9,57.5,589.2,57.5z"/>
</g>
<g class="st2">
	<path class="st3" d="M270.9,89.2c0.3,0,0.6-0.4,0.5-0.7c0-0.3-0.3-0.5-0.5-0.6c-0.3,0-0.6,0.4-0.5,0.7
		C270.3,89,270.6,89.2,270.9,89.2z"/>
</g>
<g class="st2">
	<path class="st3" d="M237.8,82.9c0.3,0,0.6-0.4,0.5-0.7c0-0.3-0.3-0.5-0.5-0.6c-0.3,0-0.6,0.4-0.5,0.7
		C237.3,82.6,237.6,82.8,237.8,82.9z"/>
</g>
<g class="st2">
	<path class="st3" d="M433.5,20.7c0.3,0,0.6-0.4,0.5-0.7c0-0.3-0.3-0.5-0.5-0.5c-0.3,0-0.6,0.4-0.5,0.7
		C433,20.4,433.2,20.7,433.5,20.7z"/>
</g>
<g class="st2">
	<path class="st3" d="M321,7c0.3,0,0.6-0.4,0.5-0.7c0-0.3-0.3-0.5-0.5-0.6c-0.3,0-0.6,0.4-0.5,0.7C320.5,6.7,320.7,7,321,7z"/>
</g>
<g class="st2">
	<path class="st3" d="M127.8,54.5c0.3,0,0.6-0.4,0.6-0.7c0-0.3-0.3-0.5-0.6-0.5c-0.3,0-0.6,0.4-0.6,0.7
		C127.3,54.2,127.6,54.4,127.8,54.5z"/>
</g>
<g class="st2">
	<path class="st3" d="M198.3,15.8c0.3,0,0.6-0.4,0.6-0.7c0-0.3-0.3-0.5-0.6-0.5c-0.3,0-0.6,0.4-0.6,0.7
		C197.7,15.5,198,15.7,198.3,15.8z"/>
</g>
<g class="st2">
	<path class="st3" d="M163.1,29.2c0.3,0,0.6-0.4,0.6-0.7c0-0.3-0.3-0.5-0.6-0.5c-0.3,0-0.6,0.4-0.6,0.7
		C162.6,29,162.9,29.2,163.1,29.2z"/>
</g>
<g class="st2">
	<path class="st3" d="M222.9,40c0.3,0,0.6-0.4,0.6-0.7c0-0.3-0.3-0.5-0.6-0.5c-0.3,0-0.6,0.4-0.6,0.7
		C222.4,39.7,222.6,39.9,222.9,40z"/>
</g>
<g class="st2">
	<path class="st3" d="M65.5,29.8c0.3,0,0.6-0.4,0.6-0.7c0-0.3-0.3-0.5-0.6-0.5c-0.3,0-0.6,0.4-0.6,0.7C65,29.6,65.2,29.8,65.5,29.8z
		"/>
</g>
<g class="st2">
	<path class="st3" d="M23.2,47.8c0.3,0,0.6-0.4,0.5-0.7c0-0.3-0.3-0.5-0.5-0.5c-0.3,0-0.6,0.4-0.5,0.7
		C22.7,47.6,22.9,47.8,23.2,47.8z"/>
</g>
<g class="st2">
	<path class="st3" d="M77,67.7c0.3,0,0.6-0.4,0.6-0.7c0-0.3-0.3-0.5-0.6-0.6c-0.3,0-0.6,0.4-0.6,0.7C76.5,67.5,76.7,67.7,77,67.7z"
		/>
</g>
<g class="st2">
	<path class="st3" d="M12.1,9.7c0.3,0,0.6-0.4,0.6-0.7c0-0.3-0.3-0.5-0.6-0.6c-0.3,0-0.6,0.4-0.6,0.7C11.6,9.4,11.8,9.7,12.1,9.7z"
		/>
</g>
<g class="st2">
	<path class="st3" d="M62.7,8.1c0.3,0,0.6-0.4,0.5-0.7c0-0.3-0.3-0.5-0.5-0.6c-0.3,0-0.6,0.4-0.5,0.7C62.1,7.8,62.4,8,62.7,8.1z"/>
</g>
<g class="st2">
	<path class="st3" d="M195.7,54.5c0.3,0,0.6-0.4,0.6-0.7c0-0.3-0.3-0.5-0.6-0.6c-0.3,0-0.6,0.4-0.6,0.7
		C195.1,54.2,195.4,54.4,195.7,54.5z"/>
</g>
<g class="st2">
	<path class="st3" d="M142.5,73.2c0.3,0,0.6-0.4,0.6-0.7c0-0.3-0.3-0.5-0.6-0.6c-0.3,0-0.6,0.4-0.6,0.7
		C142,72.9,142.2,73.2,142.5,73.2z"/>
</g>
<g class="st2">
	<path class="st3" d="M116.1,86.3c0.3,0,0.6-0.4,0.6-0.7c0-0.3-0.3-0.5-0.6-0.6c-0.3,0-0.6,0.4-0.6,0.7
		C115.5,86,115.8,86.2,116.1,86.3z"/>
</g>
<g class="st2">
	<path class="st3" d="M59.8,84.1c0.3,0,0.6-0.4,0.5-0.7c0-0.3-0.3-0.5-0.5-0.6c-0.3,0-0.6,0.4-0.5,0.7
		C59.3,83.9,59.5,84.1,59.8,84.1z"/>
</g>
<g class="st2">
	<path class="st3" d="M11.3,23.7c0.3,0,0.6-0.4,0.6-0.7c0-0.3-0.3-0.5-0.6-0.5c-0.3,0-0.6,0.4-0.6,0.7C10.8,23.4,11,23.6,11.3,23.7z
		"/>
</g>
<g class="st2">
	<path class="st3" d="M247.9,16.4c0.3,0,0.6-0.4,0.6-0.7c0-0.3-0.3-0.5-0.6-0.6c-0.3,0-0.6,0.4-0.6,0.7
		C247.4,16.1,247.6,16.4,247.9,16.4z"/>
</g>
<g class="st2">
	<path class="st3" d="M265,68.4c0.3,0,0.6-0.4,0.6-0.7c0-0.3-0.3-0.5-0.6-0.6c-0.3,0-0.6,0.4-0.5,0.7
		C264.5,68.1,264.7,68.3,265,68.4z"/>
</g>
<g class="st2">
	<path class="st3" d="M85.2,88.7c0.3,0,0.6-0.4,0.6-0.7c0-0.3-0.3-0.5-0.6-0.6c-0.3,0-0.6,0.4-0.6,0.7C84.7,88.4,85,88.7,85.2,88.7z
		"/>
</g>
<g class="st2">
	<path class="st3" d="M25.3,89c0.3,0,0.6-0.4,0.5-0.7c0-0.3-0.3-0.5-0.5-0.6c-0.3,0-0.6,0.4-0.5,0.7C24.7,88.7,25,89,25.3,89z"/>
</g>
<g class="st2">
	<path class="st3" d="M124.4,15.2c0.3,0,0.6-0.4,0.6-0.7c0-0.3-0.3-0.5-0.6-0.5c-0.3,0-0.6,0.4-0.6,0.7
		C123.9,14.9,124.2,15.1,124.4,15.2z"/>
</g>
<g class="st2">
	<path class="st3" d="M96.7,19.6c0.3,0,0.6-0.4,0.6-0.7c0-0.3-0.3-0.5-0.6-0.5c-0.3,0-0.6,0.4-0.6,0.7
		C96.2,19.4,96.5,19.6,96.7,19.6z"/>
</g>
<g class="st2">
	<path class="st3" d="M514.2,8.6c0.3,0,0.6-0.4,0.5-0.7c0-0.3-0.3-0.5-0.5-0.6c-0.3,0-0.6,0.4-0.5,0.7
		C513.7,8.3,513.9,8.6,514.2,8.6z"/>
</g>
<g class="st2">
	<path class="st3" d="M467.9,10.8c0.3,0,0.6-0.4,0.5-0.7c0-0.3-0.3-0.5-0.5-0.6c-0.3,0-0.6,0.4-0.5,0.7
		C467.4,10.5,467.7,10.7,467.9,10.8z"/>
</g>
</svg>
