<svg id="Layer_1" data-name="Layer 1" xmlns="http://www.w3.org/2000/svg" viewBox="0 0 440.55 279.84"><defs><style>.cls-1{fill:#e0d4c6;}.cls-2{fill:#e0cfbe;}.cls-3{fill:#dfcfc0;}.cls-4{fill:#7a5a24;}.cls-5{fill:#fdd552;}.cls-6{fill:#dccdb8;}.cls-7{fill:#e5e1e2;}.cls-14,.cls-15,.cls-8{fill:#231f20;}.cls-8{opacity:0.26;}.cls-14,.cls-17,.cls-18,.cls-8{isolation:isolate;}.cls-9{fill:#b17f61;}.cls-10{fill:#4f5158;}.cls-11,.cls-17,.cls-18{fill:#fff;}.cls-12{fill:#b6d7f1;}.cls-13{fill:#404249;}.cls-14{opacity:0.52;}.cls-16{opacity:0.63;}.cls-17{font-size:17px;}.cls-17,.cls-18{font-family:CenturyGothic, Century Gothic;}.cls-18{font-size:23px;}</style></defs><title>theme2-info</title><path class="cls-1" d="M94.3,276.29C120,256.44,138.58,242,140.72,240.41a6.36,6.36,0,0,0,2.74-5.67c-.1-16.47,0-33-.09-49.43,0-1.45.86-3.76-2-3.68-4.28.12-4.18-2.73-4.14-5.68.25-15-2-12.64,12.73-12.77,14-.13,28.08.11,42.12-.11,4.45-.06,6.15,1.49,5.73,5.88-.27,2.78,0,5.61-.06,8.42,0,1.52,0,3.74-1.66,3.75-5.79,0-4.4,4-4.45,7.31-.06,3.09,0,6.19,0,10.52l62.13-51c1.37-1,2.8-1.84,4.09-2.88,8.06-6.53,10.13-6.51,18.38.2L406,250.83a19,19,0,0,0,8.36,4.15c28.29,6.11,56.55,12.43,84.82,18.66a8.77,8.77,0,0,0,2.23-.07l15.27,3.6c5.87,1.39,8.92,5.28,8,10.24-.94,5.28-5.4,8.31-11.44,6.63-5.73-1.58-9.68-.21-14,3.76-8.78,8.14-18.06,15.74-27.28,23.4a9.37,9.37,0,0,0-3.87,8.06q.28,27.81,0,55.6c-.05,4.19.81,6.42,5.47,5.67,1.46-.24,3,.11,4.48-.07,4.5-.56,6.41,1.45,5.63,5.78-1,5.37,1.68,6.34,6.26,5.91,3.52-.32,7.13.2,10.66-.12,2.61-.24,4.45.13,5.56,1.25,1.49,1.5-.16,4.61,1.21,5.44.68.42,1,.07,2,.52,2,.84,2.67,3.27,3,4.5a10.66,10.66,0,0,1,.14,5.35c-41.44.44-103.42.94-179.24.94-20.3,0-34.15,0-46.14,0-26.43-.08-46.44-.19-54.28-.23h-2c-16.19-.1-45.65-.09-103.26.29q.22-74,.44-147.93L94,296.57c-1.3.07-7,.27-9-2.88C82.81,290,85.58,282.05,94.3,276.29Zm313.58,5.07q-.13,52.8-.32,105.56c0,3.19,1.43,3.63,4.09,3.61,11.6-.09,23.21-.15,34.81,0,3.4.06,4.51-.91,4.5-4.4-.12-33.69-.06-67.39-.11-101.08,0-1.65.93-4-2.12-4.27-10.85-2.35-21.68-4.76-32.55-7-9.06-1.89-9.08-1.82-8.3,7.58ZM215.3,349.9c-7.51-1.76-14.43,2.74-18.32,5.27,0,0-14.51,9.43-16.58,42.72-.13,2.06.54,2.92.89,3.27.64.64,1.69.87,3.29.85,15-.15,29.93-.21,44.89,0,1.87,0,3.07-.28,3.79-1,.52-.53,1.13-1.56,1-3.75C230.6,353.49,215.3,349.9,215.3,349.9ZM442.79,414h23c12.6,0,12.37,0,12.64-12.58.1-4.65-1.55-5.54-5.76-5.5-17.21.18-34.43,0-51.65,0-14.06,0-14,0-13.38,14,.13,3.18,1.1,4.17,4.25,4.13,10.29-.15,20.58,0,30.88,0ZM456,336.36v50c0,2.5.13,4.29,3.49,4.28,3.15,0,3.69-1.39,3.69-4.09q-.09-49.4,0-98.78c0-3.4-1.27-4.76-4.47-4.92-4.12-.21-2.63,2.92-2.65,4.73C456,303.78,456,320.06,456,336.36ZM207.43,407.68v-.06c-2.77-.06-24-.46-25.82.23a2,2,0,0,0-.89.61c-.44.59-.2,1.11-.29,2.33-.13,1.62-.69,2.23-.27,2.79a1.36,1.36,0,0,0,.94.45c6,.86,47.17-.09,52.08-.09,0,0,3,.14,3.26-.77.2-.68-1.33-1.31-1.27-2.53s1.43-1.62,1.28-2.22c-.22-.86-3.27-.74-3.27-.74C224.6,407.71,216,407.68,207.43,407.68Zm261.49-90.76c9.63-8.22,18.69-15.94,27.73-23.67a17,17,0,0,0,1.46-1.7c-4.74-2.56-8.37-1.89-12,1.8A113.79,113.79,0,0,1,472.57,305C468.49,308,467.45,311.44,468.92,316.92Zm-1.81-14.6c3.1-2.45,6.26-5,9.45-7.7q3.75-3.15,7.25-6.27c-5.79-3.52-11.63-4.34-14.37-1.82-1.41,1.29-1.88,3.35-2.42,5.76a23.11,23.11,0,0,0-.21,8.29c.1.72.21,1.32.3,1.74Zm25.81,105.26c-1.86,0-3.73.06-5.58,0-2.16-.09-3.47.36-3.51,3,0,2.8,1.15,3.53,3.68,3.45,3.71-.13,7.44-.12,11.16,0,2.45.07,3.19-1,3.21-3.33,0-2.51-1.1-3.25-3.38-3.12C496.64,407.66,494.78,407.58,492.92,407.58Z" transform="translate(-84.3 -140.21)"/><path class="cls-2" d="M322.37,414.11c-24.71,0-49.42-.11-74.13.09-4.43,0-5.36-1-6.2-5.67-6-32.91-1-66-2.62-99-.16-3.27-1.13-4.69-4.58-4.67-18.35.1-36.69.15-55,0-4.79,0-4.89,2.6-4.88,6.12.06,28.26-.1,56.53.13,84.79,0,6-4.94,10.69-3.42,16.91.31,1.31-1.38,1.51-2.52,1.4a2.6,2.6,0,0,1-1.19-.43l-.08-.06c-.34-.24-9.59-.34-34-.16q-.3-71.9-.61-143.77l2.71-3.12c72.94-59,125.22-101.45,127.65-103.78a5,5,0,0,1,3.3-1.59,5.17,5.17,0,0,1,3.24,1.53q64.62,52.67,129.4,105.18a7.15,7.15,0,0,1,3,6.18q-.19,67.67-.09,135.3c0,1.92-.36,3.07-1.08,3.76-1.4,1.33-3.7,1-4.3,1C392.94,413.68,364,413.77,322.37,414.11ZM266.3,278.71a36.63,36.63,0,0,0,36.94-36.33h0v-.71a37.09,37.09,0,1,0-37.13,37Zm49.12,56.49c-12.91,0-25.82.11-38.73-.06-4.09-.06-5.58,1.24-5.53,5.47q.3,25,0,50c0,3.89,1.29,5.31,5.17,5.3q38.75-.15,77.47,0c3.82,0,5.3-1.29,5.26-5.24-.15-16.66-.18-33.31,0-50,0-4.19-1.38-5.58-5.5-5.53-12.65.17-25.37.06-38.1.06Zm-.44-4.33c12.9,0,25.8-.07,38.7,0,3.69,0,5.57-1,5.39-5.11-.23-5.41-.18-10.85,0-16.26.11-3.36-1.16-4.69-4.55-4.68q-39.25.09-78.52,0c-3.72,0-4.94,1.43-4.8,5a131.67,131.67,0,0,1,0,15.13c-.35,4.9,1.8,6,6.24,6,12.53-.21,25.05-.08,37.58-.08Z" transform="translate(-84.3 -140.21)"/><path class="cls-3" d="M442.45,415.91c-10.61,0-21.2-.12-31.79.08-3.24,0-4.24-1.19-4.37-4.92-.59-16.69-.7-16.69,13.77-16.69,17.72,0,35.45.2,53.16,0,4.34,0,6,1,5.93,6.55-.28,15,0,15-13,15Z" transform="translate(-84.3 -140.21)"/><path class="cls-4" d="M450.92,325c0-10.16-.06-24.87-.26-44l21.95,4.33a7.22,7.22,0,0,0-3.77,3.55,6.32,6.32,0,0,0-.47,3.35c.58,63.06.77,89.79.69,91a17.65,17.65,0,0,0,0,2.3,13.33,13.33,0,0,0,.15,1.55,6.35,6.35,0,0,0,1.56,3.15,105.36,105.36,0,0,1-10.81.41,93.62,93.62,0,0,1-10.18-.6,24.2,24.2,0,0,0,1.22-5.39,37,37,0,0,0,0-6.14V354.65C450.92,343.83,450.92,330,450.92,325Z" transform="translate(-84.3 -140.21)"/><path class="cls-5" d="M468.92,316.92c-1.47-5.48-.43-8.95,3.61-11.92a113.71,113.71,0,0,0,13.54-11.64c3.67-3.69,7.3-4.36,12-1.8a17,17,0,0,1-1.46,1.7C487.61,301,478.55,308.7,468.92,316.92Z" transform="translate(-84.3 -140.21)"/><path class="cls-6" d="M493.15,406.57c2.07,0,4.13.11,6.2,0,2.54-.17,3.78.82,3.76,4.17,0,3.13-.84,4.55-3.57,4.45-4.14-.14-8.28-.16-12.41,0-2.81.11-4.14-.87-4.09-4.61s1.5-4.14,3.9-4C489,406.65,491.08,406.57,493.15,406.57Z" transform="translate(-84.3 -140.21)"/><path class="cls-7" d="M266.3,278.71a37.07,37.07,0,0,1-37.24-36.9h0a37.09,37.09,0,1,1,74.18-.12A36.63,36.63,0,0,1,267,278.74h0Zm-26.46-36.82a26.46,26.46,0,1,0,26.55-26.41,26.45,26.45,0,0,0-26.55,26.41v0Z" transform="translate(-84.3 -140.21)"/><path class="cls-8" d="M315.46,335.2c12.73,0,25.45.11,38.18-.07,4.12,0,5.54,1.34,5.5,5.53-.2,16.66-.17,33.31,0,50,0,4-1.44,5.26-5.26,5.24q-38.73-.12-77.47,0c-3.88,0-5.21-1.41-5.17-5.3q.24-25,0-50c0-4.23,1.44-5.53,5.53-5.47C289.64,335.3,302.55,335.2,315.46,335.2Zm-2.94,30.23h-.15c0-6.92-.1-13.83,0-20.74.06-2.94-.54-4.41-4-4.33q-14,.31-28,0c-3.36-.07-4,1.29-4,4.29q.11,21-.1,42.05c0,2.86.82,3.93,3.82,3.88q14.3-.24,28.59,0c3,0,3.91-1,3.85-3.85-.11-7.13,0-14.23,0-21.33Zm5.27-.07h-.09c0,7.11.1,14.21-.06,21.32-.06,2.87.8,4,3.81,3.9,9.53-.18,19.07-.19,28.61-.1,2.65,0,3.6-.84,3.58-3.53q-.13-21.31,0-42.64c0-2.84-.78-4-3.79-3.93-9.35.15-18.71.17-28.05,0-3.29-.06-4.16,1.15-4.08,4.24.2,6.89.07,13.82.07,20.75Z" transform="translate(-84.3 -140.21)"/><path class="cls-8" d="M315,330.86c-12.53,0-25-.13-37.58.07-4.44.08-6.59-1.07-6.24-6a131.67,131.67,0,0,0,0-15.13c-.14-3.57,1.08-5,4.8-5q39.25.15,78.52,0c3.39,0,4.66,1.32,4.55,4.68-.17,5.41-.22,10.85,0,16.26.18,4.07-1.7,5.15-5.39,5.11C340.82,330.79,327.92,330.86,315,330.86Zm.26-20.83V310H280.51c-1.72,0-4-.71-4.14,2.29s1.84,2.74,3.78,2.73q34.77,0,69.53-.11c1.77,0,4,.51,3.91-2.52s-2.43-2.29-4.11-2.3h-34.2Zm-.58,15.46v-.06c11.4,0,22.81.06,34.22-.06,1.68,0,4.57,1.32,4.6-2.23s-2.86-2.3-4.55-2.31q-34.22-.18-68.44-.12c-1.71,0-4-.67-4,2.38s2.29,2.37,4,2.37h34.22Z" transform="translate(-84.3 -140.21)"/><path class="cls-9" d="M237.1,373.05c0,14-.12,28,.08,42,0,3.74-1.08,4.94-5.13,4.9-16.21-.19-32.42-.12-48.63,0-3.4,0-4.54-.94-4.53-4.23q.21-42.87.06-85.74c0-3.78,1.57-4.4,5-4.37,16,.13,32,.17,48,0,4,0,5.25,1,5.2,4.84C237,344.65,237.1,358.85,237.1,373.05ZM226,390v3.4c.08,1.79.4,3.62,2.76,3.7,2.78.1,3-1.91,3.06-3.91s0-4.17,0-6.25c0-1.88-.67-3.56-3-3.45s-2.82,1.8-2.84,3.67V390Z" transform="translate(-84.3 -140.21)"/><path class="cls-10" d="M225.85,389.92v-3.18c0-2.09.65-4,3-4.12s3.13,1.77,3.17,3.88v7c0,2.34-.3,4.51-3.25,4.4-2.51-.1-2.84-2.15-2.92-4.15C225.81,392.47,225.86,391.2,225.85,389.92Z" transform="translate(-84.3 -140.21)"/><path class="cls-11" d="M239.82,241.89a26.46,26.46,0,1,1,26.61,26.31h-.26A26.51,26.51,0,0,1,239.82,241.89Zm14.8,2.65c-1.49,0-3,.11-4.48,0-4.8-.43-4.9,1.68-3.19,5.3,2.14,4.53,5,8.25,9.63,10.48,6.39,3.07,7,2.69,7-4.48a57.53,57.53,0,0,1,0-6.16c.39-3.87-1.11-5.61-5.07-5.14A31.56,31.56,0,0,1,254.62,244.54Zm9-15.24c-.56-2.22,1.5-6.1-1.07-7.32-2.79-1.33-5.92,1.18-8.43,3.1a18.72,18.72,0,0,0-4.46,4.1c-1.67,2.59-4.64,5.59-3.38,8.41s5.34,1.28,8.14,1.3c10.32.08,9,1.2,9.16-9.59Zm5.51,24.44v5.59c0,2,.51,3,3,2.53,5.14-1,12.57-7.73,13.8-12.8.72-3,0-4.76-3.5-4.52-1.3.08-2.61,0-3.91,0-10.54.09-9.27-1.07-9.43,9.2ZM278.37,239a31.88,31.88,0,0,1,3.91,0c4.65.55,5-1.55,3.4-5.16-1.46-3.39-4.14-5.69-6.65-8.17s-5.73-4.91-8.73-3.68c-2.59,1-1,5-1.06,7.7C269.15,240.09,268,238.87,278.37,239Z" transform="translate(-84.3 -140.21)"/><path class="cls-12" d="M312.52,365.42c0,7.1-.1,14.2,0,21.3.06,2.89-.89,3.9-3.85,3.85q-14.3-.24-28.59,0c-3,0-3.85-1-3.82-3.88q.19-21,.1-42.05c0-3,.67-4.36,4-4.29q14,.3,28,0c3.44-.08,4,1.39,4,4.33-.14,6.91,0,13.82,0,20.74Z" transform="translate(-84.3 -140.21)"/><path class="cls-12" d="M317.79,365.36c0-6.92.13-13.85-.06-20.76-.08-3.09.79-4.3,4.08-4.24,9.34.19,18.7.17,28.05,0,3,0,3.81,1.09,3.79,3.93q-.16,21.33,0,42.64c0,2.69-.93,3.56-3.58,3.53-9.54-.09-19.08-.08-28.61.1-3,.06-3.87-1-3.81-3.9.16-7.11.06-14.21.06-21.32Z" transform="translate(-84.3 -140.21)"/><path class="cls-12" d="M315.3,310h34.2c1.68,0,4-.76,4.11,2.3s-2.14,2.52-3.91,2.52q-34.77.09-69.53.11c-1.94,0-3.91.12-3.78-2.73s2.42-2.29,4.14-2.29H315.3Z" transform="translate(-84.3 -140.21)"/><path class="cls-12" d="M314.7,325.49H280.48c-1.71,0-4,.72-4-2.37s2.34-2.38,4-2.38q34.22,0,68.44.12c1.69,0,4.58-1.24,4.55,2.31s-2.92,2.21-4.6,2.23c-11.41.12-22.82.06-34.22.06Z" transform="translate(-84.3 -140.21)"/><path class="cls-12" d="M254.62,244.54a28.49,28.49,0,0,0,3.92,0c4-.47,5.46,1.27,5.07,5.14a57.53,57.53,0,0,0,0,6.16c0,7.17-.61,7.55-7,4.48-4.63-2.23-7.49-6-9.63-10.48-1.71-3.62-1.61-5.73,3.19-5.3C251.62,244.65,253.13,244.54,254.62,244.54Z" transform="translate(-84.3 -140.21)"/><path class="cls-12" d="M263.58,229.3c-.11,10.79,1.16,9.67-9.2,9.59-2.8,0-6.83,1.65-8.14-1.3s1.71-5.82,3.38-8.41a18.72,18.72,0,0,1,4.46-4.1c2.51-1.92,5.64-4.43,8.43-3.1C265.08,223.2,263,227.08,263.58,229.3Z" transform="translate(-84.3 -140.21)"/><path class="cls-12" d="M269.09,253.74c.16-10.27-1.11-9.11,9.38-9.19,1.3,0,2.61.07,3.91,0,3.46-.24,4.22,1.54,3.5,4.52-1.23,5.07-8.66,11.75-13.8,12.8-2.48.5-3-.49-3-2.53C269.1,257.46,269.09,255.6,269.09,253.74Z" transform="translate(-84.3 -140.21)"/><path class="cls-12" d="M278.37,239c-10.36-.09-9.21,1.13-9.15-9.28,0-2.65-1.53-6.66,1.06-7.7,3-1.23,6.3,1.26,8.75,3.68s5.19,4.78,6.65,8.17c1.55,3.61,1.25,5.71-3.4,5.16A31.88,31.88,0,0,0,278.37,239Z" transform="translate(-84.3 -140.21)"/><path class="cls-13" d="M143.07,237.46l.3-56.08a4.87,4.87,0,0,1-4.88-1.18,4.09,4.09,0,0,1-1-2V166.58a3.91,3.91,0,0,1,1.06-3.07,3,3,0,0,1,1.82-.71c2.14-.16,24-.27,53.7-.31a4.73,4.73,0,0,1,3.43,2.11,4.45,4.45,0,0,1,.6,2.54c0,.56.44,9.09-.22,11.79a2.35,2.35,0,0,1-1,1.59c-.54.3-1,.07-2,.24a5,5,0,0,0-1.53.53,4,4,0,0,0-1.53,2.91c-.63,3.42-.2,6.62-.06,9.77,0,1.15.1,2.85,0,4.94Z" transform="translate(-84.3 -140.21)"/><path class="cls-14" d="M128.19,272.12l-34,24.46c-3.81.74-7.42-.38-9-2.88-1.79-2.87-.21-6.5.55-8.25a18.34,18.34,0,0,1,6.63-7.7c6.49-4.34,25-19.17,50.47-39.82l.3-56.08-4-.54a3.57,3.57,0,0,1-1.37-1.19,3.78,3.78,0,0,1-.53-2.13v-6.13c0-1.75-.1-2.1,0-3.68.06-1.16.17-2.11.25-2.74a2.85,2.85,0,0,1,1-1.68,2.61,2.61,0,0,1,1.62-.49c1.56,0,23.14-.15,52.75-.3a4.76,4.76,0,0,1,3.71,1.23,4.83,4.83,0,0,1,1.29,4.17c0,.43-.09,1.12-.12,2-.09,2.81.16,4,.08,6.47a27.17,27.17,0,0,1-.25,3,1.55,1.55,0,0,1-.43,1,1.57,1.57,0,0,1-.77.36,4.92,4.92,0,0,1-.94,0,6.85,6.85,0,0,0-1,.13,4.16,4.16,0,0,0-1.79.84,3.78,3.78,0,0,0-1,2.45,15.84,15.84,0,0,0,.07,3.08v2.35c0,2.94.08,5.89.11,8.83,1-.9,2.41-2.13,4.12-3.56,1.2-1,2.12-1.74,2.44-2,4.19-3.35,15.28-12.36,21.5-17.47,4.55-3.74,7.41-6.09,11.34-9.4,1.71-1.44,5.3-4.48,8.72-7.27,2.68-2.2,2.82-2.25,4.4-3.58.43-.37,1.33-1.13,2.6-2.09.76-.58,1.13-.84,1.63-1.2,2.62-1.92,3.13-2.86,5.58-4.62,1.28-.92,1.08-.69,2.45-1.67,4.37-3.11,5.42-4.73,8.16-5.41a10.58,10.58,0,0,1,2.31-.28l-5.9,17.27,4.32,3.38Z" transform="translate(-84.3 -140.21)"/><path class="cls-14" d="M267.07,140.35a7.46,7.46,0,0,1,1.76.18,8.77,8.77,0,0,1,3.89,2.05c5,4.39,11,7.66,15.68,12.35,1.1,1.09-.84-.87,19.41,15.71,15.74,12.89,27.9,23.08,28.85,23.88,11.64,9.68,32.55,26.83,73.64,59.18,25.22,5.15,40.81,8.82,50.6,11.29,6.6,1.67,13.91,3.64,24.74,5.65,5.95,1.1,9.43,1.56,15.81,2.93,8.09,1.74,14.56,3.59,18.7,4.85,4.15,2.51,5.67,7.54,3.86,11.33a8.77,8.77,0,0,1-8.28,4.72L407.49,272.05,261.17,157.62Z" transform="translate(-84.3 -140.21)"/><path class="cls-4" d="M488.74,307.2c7.91-7.54,5.21-4.2,9.35-8.28a19.86,19.86,0,0,1,5-3.83,18.14,18.14,0,0,1,6.09-1.93l-26.67-5.52.71,1.32c-13,11-18.7,15.73-18.83,15.89h0a1.81,1.81,0,0,1-.46.41,1.2,1.2,0,0,1-.39.2,2.19,2.19,0,0,1-1.43-.33c.76,1.91,1.5,3.94,2.17,6.08a86.67,86.67,0,0,1,3.55,17C469.08,326.81,480.14,315.35,488.74,307.2Z" transform="translate(-84.3 -140.21)"/><path class="cls-15" d="M502.11,274.36" transform="translate(-84.3 -140.21)"/><g class="cls-16"><path class="cls-15" d="M94.3,276.29C120,256.44,138.58,242,140.72,240.41a6.36,6.36,0,0,0,2.74-5.67c-.1-16.47,0-33-.09-49.43,0-1.45.86-3.76-2-3.68-4.28.12-4.18-2.73-4.14-5.68.25-15-2-12.64,12.73-12.77,14-.13,28.08.11,42.12-.11,4.45-.06,6.15,1.49,5.73,5.88-.27,2.78,0,5.61-.06,8.42,0,1.52,0,3.74-1.66,3.75-5.79,0-4.4,4-4.45,7.31-.06,3.09,0,6.19,0,10.52l62.13-51c1.37-1,2.8-1.84,4.09-2.88,8.06-6.53,10.13-6.51,18.38.2L406,250.83a19,19,0,0,0,8.36,4.15c28.29,6.11,56.55,12.43,84.82,18.66a8.77,8.77,0,0,0,2.23-.07l15.27,3.6c5.87,1.39,8.92,5.28,8,10.24-.94,5.28-5.4,8.31-11.44,6.63-5.73-1.58-9.68-.21-14,3.76-8.78,8.14-18.06,15.74-27.28,23.4a9.37,9.37,0,0,0-3.87,8.06q.28,27.81,0,55.6c-.05,4.19.81,6.42,5.47,5.67,1.46-.24,3,.11,4.48-.07,4.5-.56,6.41,1.45,5.63,5.78-1,5.37,1.68,6.34,6.26,5.91,3.52-.32,7.13.2,10.66-.12,2.61-.24,4.45.13,5.56,1.25,1.49,1.5-.16,4.61,1.21,5.44.68.42,1,.07,2,.52,2,.84,2.67,3.27,3,4.5a10.66,10.66,0,0,1,.14,5.35c-41.44.44-103.42.94-179.24.94-20.3,0-34.15,0-46.14,0-26.43-.08-46.44-.19-54.28-.23h-2c-16.19-.1-45.65-.09-103.26.29q.22-74,.44-147.93L94,296.57c-1.3.07-7,.27-9-2.88C82.81,290,85.58,282.05,94.3,276.29Zm313.58,5.07q-.13,52.8-.32,105.56c0,3.19,1.43,3.63,4.09,3.61,11.6-.09,23.21-.15,34.81,0,3.4.06,4.51-.91,4.5-4.4-.12-33.69-.06-67.39-.11-101.08,0-1.65.93-4-2.12-4.27-10.85-2.35-21.68-4.76-32.55-7-9.06-1.89-9.08-1.82-8.3,7.58ZM215.3,349.9c-7.51-1.76-14.43,2.74-18.32,5.27,0,0-14.51,9.43-16.58,42.72-.13,2.06.54,2.92.89,3.27.64.64,1.69.87,3.29.85,15-.15,29.93-.21,44.89,0,1.87,0,3.07-.28,3.79-1,.52-.53,1.13-1.56,1-3.75C230.6,353.49,215.3,349.9,215.3,349.9ZM442.79,414h23c12.6,0,12.37,0,12.64-12.58.1-4.65-1.55-5.54-5.76-5.5-17.21.18-34.43,0-51.65,0-14.06,0-14,0-13.38,14,.13,3.18,1.1,4.17,4.25,4.13,10.29-.15,20.58,0,30.88,0ZM456,336.36v50c0,2.5.13,4.29,3.49,4.28,3.15,0,3.69-1.39,3.69-4.09q-.09-49.4,0-98.78c0-3.4-1.27-4.76-4.47-4.92-4.12-.21-2.63,2.92-2.65,4.73C456,303.78,456,320.06,456,336.36ZM207.43,407.68v-.06c-2.77-.06-24-.46-25.82.23a2,2,0,0,0-.89.61c-.44.59-.2,1.11-.29,2.33-.13,1.62-.69,2.23-.27,2.79a1.36,1.36,0,0,0,.94.45c6,.86,47.17-.09,52.08-.09,0,0,3,.14,3.26-.77.2-.68-1.33-1.31-1.27-2.53s1.43-1.62,1.28-2.22c-.22-.86-3.27-.74-3.27-.74C224.6,407.71,216,407.68,207.43,407.68Zm261.49-90.76c9.63-8.22,18.69-15.94,27.73-23.67a17,17,0,0,0,1.46-1.7c-4.74-2.56-8.37-1.89-12,1.8A113.79,113.79,0,0,1,472.57,305C468.49,308,467.45,311.44,468.92,316.92Zm-1.81-14.6c3.1-2.45,6.26-5,9.45-7.7q3.75-3.15,7.25-6.27c-5.79-3.52-11.63-4.34-14.37-1.82-1.41,1.29-1.88,3.35-2.42,5.76a23.11,23.11,0,0,0-.21,8.29c.1.72.21,1.32.3,1.74Zm25.81,105.26c-1.86,0-3.73.06-5.58,0-2.16-.09-3.47.36-3.51,3,0,2.8,1.15,3.53,3.68,3.45,3.71-.13,7.44-.12,11.16,0,2.45.07,3.19-1,3.21-3.33,0-2.51-1.1-3.25-3.38-3.12C496.64,407.66,494.78,407.58,492.92,407.58Z" transform="translate(-84.3 -140.21)"/><path class="cls-15" d="M322.37,414.11c-24.71,0-49.42-.11-74.13.09-4.43,0-5.36-1-6.2-5.67-6-32.91-1-66-2.62-99-.16-3.27-1.13-4.69-4.58-4.67-18.35.1-36.69.15-55,0-4.79,0-4.89,2.6-4.88,6.12.06,28.26-.1,56.53.13,84.79,0,6-4.94,10.69-3.42,16.91.31,1.31-1.38,1.51-2.52,1.4a2.6,2.6,0,0,1-1.19-.43l-.08-.06c-.34-.24-9.59-.34-34-.16q-.3-71.9-.61-143.77l2.71-3.12c72.94-59,125.22-101.45,127.65-103.78a5,5,0,0,1,3.3-1.59,5.17,5.17,0,0,1,3.24,1.53q64.62,52.67,129.4,105.18a7.15,7.15,0,0,1,3,6.18q-.19,67.67-.09,135.3c0,1.92-.36,3.07-1.08,3.76-1.4,1.33-3.7,1-4.3,1C392.94,413.68,364,413.77,322.37,414.11ZM266.3,278.71a36.63,36.63,0,0,0,36.94-36.33h0v-.71a37.09,37.09,0,1,0-37.13,37Zm49.12,56.49c-12.91,0-25.82.11-38.73-.06-4.09-.06-5.58,1.24-5.53,5.47q.3,25,0,50c0,3.89,1.29,5.31,5.17,5.3q38.75-.15,77.47,0c3.82,0,5.3-1.29,5.26-5.24-.15-16.66-.18-33.31,0-50,0-4.19-1.38-5.58-5.5-5.53-12.65.17-25.37.06-38.1.06Zm-.44-4.33c12.9,0,25.8-.07,38.7,0,3.69,0,5.57-1,5.39-5.11-.23-5.41-.18-10.85,0-16.26.11-3.36-1.16-4.69-4.55-4.68q-39.25.09-78.52,0c-3.72,0-4.94,1.43-4.8,5a131.67,131.67,0,0,1,0,15.13c-.35,4.9,1.8,6,6.24,6,12.53-.21,25.05-.08,37.58-.08Z" transform="translate(-84.3 -140.21)"/><path class="cls-15" d="M442.84,416.23c-10.78,0-21.55-.12-32.32.09-3.3,0-4.31-1.21-4.45-5-.6-16.86-.71-16.86,14-16.86,18,0,36,.21,54.06,0,4.41,0,6.13,1,6,6.62-.28,15.15,0,15.15-13.23,15.15Z" transform="translate(-84.3 -140.21)"/><path class="cls-15" d="M450.92,325c0-10.16-.06-24.87-.26-44l21.95,4.33a7.22,7.22,0,0,0-3.77,3.55,6.32,6.32,0,0,0-.47,3.35c.58,63.06.77,89.79.69,91a17.65,17.65,0,0,0,0,2.3,13.33,13.33,0,0,0,.15,1.55,6.35,6.35,0,0,0,1.56,3.15,105.36,105.36,0,0,1-10.81.41,93.62,93.62,0,0,1-10.18-.6,24.2,24.2,0,0,0,1.22-5.39,37,37,0,0,0,0-6.14V354.65C450.92,343.83,450.92,330,450.92,325Z" transform="translate(-84.3 -140.21)"/><path class="cls-15" d="M468.92,316.92c-1.47-5.48-.43-8.95,3.61-11.92a113.71,113.71,0,0,0,13.54-11.64c3.67-3.69,7.3-4.36,12-1.8a17,17,0,0,1-1.46,1.7C487.61,301,478.55,308.7,468.92,316.92Z" transform="translate(-84.3 -140.21)"/><path class="cls-15" d="M492.37,406.11c2.25,0,4.51.12,6.76,0,2.77-.21,4.12,1,4.1,4.93,0,3.7-.92,5.38-3.89,5.27-4.51-.18-9-.19-13.53,0-3.07.13-4.51-1-4.46-5.46s1.64-4.9,4.25-4.74C487.85,406.2,490.11,406.11,492.37,406.11Z" transform="translate(-84.3 -140.21)"/><path class="cls-15" d="M266.3,278.71a37.07,37.07,0,0,1-37.24-36.9h0a37.09,37.09,0,1,1,74.18-.12A36.63,36.63,0,0,1,267,278.74h0Zm-26.46-36.82a26.46,26.46,0,1,0,26.55-26.41,26.45,26.45,0,0,0-26.55,26.41v0Z" transform="translate(-84.3 -140.21)"/><path class="cls-8" d="M315.46,335.2c12.73,0,25.45.11,38.18-.07,4.12,0,5.54,1.34,5.5,5.53-.2,16.66-.17,33.31,0,50,0,4-1.44,5.26-5.26,5.24q-38.73-.12-77.47,0c-3.88,0-5.21-1.41-5.17-5.3q.24-25,0-50c0-4.23,1.44-5.53,5.53-5.47C289.64,335.3,302.55,335.2,315.46,335.2Zm-2.94,30.23h-.15c0-6.92-.1-13.83,0-20.74.06-2.94-.54-4.41-4-4.33q-14,.31-28,0c-3.36-.07-4,1.29-4,4.29q.11,21-.1,42.05c0,2.86.82,3.93,3.82,3.88q14.3-.24,28.59,0c3,0,3.91-1,3.85-3.85-.11-7.13,0-14.23,0-21.33Zm5.27-.07h-.09c0,7.11.1,14.21-.06,21.32-.06,2.87.8,4,3.81,3.9,9.53-.18,19.07-.19,28.61-.1,2.65,0,3.6-.84,3.58-3.53q-.13-21.31,0-42.64c0-2.84-.78-4-3.79-3.93-9.35.15-18.71.17-28.05,0-3.29-.06-4.16,1.15-4.08,4.24.2,6.89.07,13.82.07,20.75Z" transform="translate(-84.3 -140.21)"/><path class="cls-8" d="M315,330.86c-12.53,0-25-.13-37.58.07-4.44.08-6.59-1.07-6.24-6a131.67,131.67,0,0,0,0-15.13c-.14-3.57,1.08-5,4.8-5q39.25.15,78.52,0c3.39,0,4.66,1.32,4.55,4.68-.17,5.41-.22,10.85,0,16.26.18,4.07-1.7,5.15-5.39,5.11C340.82,330.79,327.92,330.86,315,330.86Zm.26-20.83V310H280.51c-1.72,0-4-.71-4.14,2.29s1.84,2.74,3.78,2.73q34.77,0,69.53-.11c1.77,0,4,.51,3.91-2.52s-2.43-2.29-4.11-2.3h-34.2Zm-.58,15.46v-.06c11.4,0,22.81.06,34.22-.06,1.68,0,4.57,1.32,4.6-2.23s-2.86-2.3-4.55-2.31q-34.22-.18-68.44-.12c-1.71,0-4-.67-4,2.38s2.29,2.37,4,2.37h34.22Z" transform="translate(-84.3 -140.21)"/><path class="cls-15" d="M237.1,373.05c0,14-.12,28,.08,42,0,3.74-1.08,4.94-5.13,4.9-16.21-.19-32.42-.12-48.63,0-3.4,0-4.54-.94-4.53-4.23q.21-42.87.06-85.74c0-3.78,1.57-4.4,5-4.37,16,.13,32,.17,48,0,4,0,5.25,1,5.2,4.84C237,344.65,237.1,358.85,237.1,373.05ZM226,390v3.4c.08,1.79.4,3.62,2.76,3.7,2.78.1,3-1.91,3.06-3.91s0-4.17,0-6.25c0-1.88-.67-3.56-3-3.45s-2.82,1.8-2.84,3.67V390Z" transform="translate(-84.3 -140.21)"/><path class="cls-15" d="M225.85,389.92v-3.18c0-2.09.65-4,3-4.12s3.13,1.77,3.17,3.88v7c0,2.34-.3,4.51-3.25,4.4-2.51-.1-2.84-2.15-2.92-4.15C225.81,392.47,225.86,391.2,225.85,389.92Z" transform="translate(-84.3 -140.21)"/><path class="cls-15" d="M239.82,241.89a26.46,26.46,0,1,1,26.61,26.31h-.26A26.51,26.51,0,0,1,239.82,241.89Zm14.8,2.65c-1.49,0-3,.11-4.48,0-4.8-.43-4.9,1.68-3.19,5.3,2.14,4.53,5,8.25,9.63,10.48,6.39,3.07,7,2.69,7-4.48a57.53,57.53,0,0,1,0-6.16c.39-3.87-1.11-5.61-5.07-5.14A31.56,31.56,0,0,1,254.62,244.54Zm9-15.24c-.56-2.22,1.5-6.1-1.07-7.32-2.79-1.33-5.92,1.18-8.43,3.1a18.72,18.72,0,0,0-4.46,4.1c-1.67,2.59-4.64,5.59-3.38,8.41s5.34,1.28,8.14,1.3c10.32.08,9,1.2,9.16-9.59Zm5.51,24.44v5.59c0,2,.51,3,3,2.53,5.14-1,12.57-7.73,13.8-12.8.72-3,0-4.76-3.5-4.52-1.3.08-2.61,0-3.91,0-10.54.09-9.27-1.07-9.43,9.2ZM278.37,239a31.88,31.88,0,0,1,3.91,0c4.65.55,5-1.55,3.4-5.16-1.46-3.39-4.14-5.69-6.65-8.17s-5.73-4.91-8.73-3.68c-2.59,1-1,5-1.06,7.7C269.15,240.09,268,238.87,278.37,239Z" transform="translate(-84.3 -140.21)"/><path class="cls-15" d="M312.52,365.42c0,7.1-.1,14.2,0,21.3.06,2.89-.89,3.9-3.85,3.85q-14.3-.24-28.59,0c-3,0-3.85-1-3.82-3.88q.19-21,.1-42.05c0-3,.67-4.36,4-4.29q14,.3,28,0c3.44-.08,4,1.39,4,4.33-.14,6.91,0,13.82,0,20.74Z" transform="translate(-84.3 -140.21)"/><path class="cls-15" d="M317.79,365.36c0-6.92.13-13.85-.06-20.76-.08-3.09.79-4.3,4.08-4.24,9.34.19,18.7.17,28.05,0,3,0,3.81,1.09,3.79,3.93q-.16,21.33,0,42.64c0,2.69-.93,3.56-3.58,3.53-9.54-.09-19.08-.08-28.61.1-3,.06-3.87-1-3.81-3.9.16-7.11.06-14.21.06-21.32Z" transform="translate(-84.3 -140.21)"/><path class="cls-15" d="M315.3,310h34.2c1.68,0,4-.76,4.11,2.3s-2.14,2.52-3.91,2.52q-34.77.09-69.53.11c-1.94,0-3.91.12-3.78-2.73s2.42-2.29,4.14-2.29H315.3Z" transform="translate(-84.3 -140.21)"/><path class="cls-15" d="M314.7,325.49H280.48c-1.71,0-4,.72-4-2.37s2.34-2.38,4-2.38q34.22,0,68.44.12c1.69,0,4.58-1.24,4.55,2.31s-2.92,2.21-4.6,2.23c-11.41.12-22.82.06-34.22.06Z" transform="translate(-84.3 -140.21)"/><path class="cls-15" d="M254.62,244.54a28.49,28.49,0,0,0,3.92,0c4-.47,5.46,1.27,5.07,5.14a57.53,57.53,0,0,0,0,6.16c0,7.17-.61,7.55-7,4.48-4.63-2.23-7.49-6-9.63-10.48-1.71-3.62-1.61-5.73,3.19-5.3C251.62,244.65,253.13,244.54,254.62,244.54Z" transform="translate(-84.3 -140.21)"/><path class="cls-15" d="M263.58,229.3c-.11,10.79,1.16,9.67-9.2,9.59-2.8,0-6.83,1.65-8.14-1.3s1.71-5.82,3.38-8.41a18.72,18.72,0,0,1,4.46-4.1c2.51-1.92,5.64-4.43,8.43-3.1C265.08,223.2,263,227.08,263.58,229.3Z" transform="translate(-84.3 -140.21)"/><path class="cls-15" d="M269.09,253.74c.16-10.27-1.11-9.11,9.38-9.19,1.3,0,2.61.07,3.91,0,3.46-.24,4.22,1.54,3.5,4.52-1.23,5.07-8.66,11.75-13.8,12.8-2.48.5-3-.49-3-2.53C269.1,257.46,269.09,255.6,269.09,253.74Z" transform="translate(-84.3 -140.21)"/><path class="cls-15" d="M278.37,239c-10.36-.09-9.21,1.13-9.15-9.28,0-2.65-1.53-6.66,1.06-7.7,3-1.23,6.3,1.26,8.75,3.68s5.19,4.78,6.65,8.17c1.55,3.61,1.25,5.71-3.4,5.16A31.88,31.88,0,0,0,278.37,239Z" transform="translate(-84.3 -140.21)"/><path class="cls-15" d="M143.07,237.46l.3-56.08a4.87,4.87,0,0,1-4.88-1.18,4.09,4.09,0,0,1-1-2V166.58a3.91,3.91,0,0,1,1.06-3.07,3,3,0,0,1,1.82-.71c2.14-.16,24-.27,53.7-.31a4.73,4.73,0,0,1,3.43,2.11,4.45,4.45,0,0,1,.6,2.54c0,.56.44,9.09-.22,11.79a2.35,2.35,0,0,1-1,1.59c-.54.3-1,.07-2,.24a5,5,0,0,0-1.53.53,4,4,0,0,0-1.53,2.91c-.63,3.42-.2,6.62-.06,9.77,0,1.15.1,2.85,0,4.94Z" transform="translate(-84.3 -140.21)"/><path class="cls-14" d="M229.13,419.43,127.59,420q-.09-50.19.22-100.4.15-23.76.38-47.52l-34,24.46c-3.81.74-7.42-.38-9-2.88-1.79-2.87-.21-6.5.55-8.25a18.34,18.34,0,0,1,6.63-7.7c6.49-4.34,25-19.17,50.47-39.82l.3-56.08-4-.54a3.57,3.57,0,0,1-1.37-1.19,3.78,3.78,0,0,1-.53-2.13v-6.13c0-1.75-.1-2.1,0-3.68.06-1.16.17-2.11.25-2.74a2.85,2.85,0,0,1,1-1.68,2.61,2.61,0,0,1,1.62-.49c1.56,0,23.14-.15,52.75-.3a4.76,4.76,0,0,1,3.71,1.23,4.83,4.83,0,0,1,1.29,4.17c0,.43-.09,1.12-.12,2-.09,2.81.16,4,.08,6.47a27.17,27.17,0,0,1-.25,3,1.55,1.55,0,0,1-.43,1,1.57,1.57,0,0,1-.77.36,4.92,4.92,0,0,1-.94,0,6.85,6.85,0,0,0-1,.13,4.16,4.16,0,0,0-1.79.84,3.78,3.78,0,0,0-1,2.45,15.84,15.84,0,0,0,.07,3.08v2.35c0,2.94.08,5.89.11,8.83,1-.9,2.41-2.13,4.12-3.56,1.2-1,2.12-1.74,2.44-2,4.19-3.35,15.28-12.36,21.5-17.47,4.55-3.74,7.41-6.09,11.34-9.4,1.71-1.44,5.3-4.48,8.72-7.27,2.68-2.2,2.82-2.25,4.4-3.58.43-.37,1.33-1.13,2.6-2.09.76-.58,1.13-.84,1.63-1.2,2.62-1.92,3.13-2.86,5.58-4.62,1.28-.92,1.08-.69,2.45-1.67,4.37-3.11,5.42-4.73,8.16-5.41a10.58,10.58,0,0,1,2.31-.28l-8,23.29-14.46,48a37.83,37.83,0,0,0-9.49,9.93c-7.63,11.74-6.17,24.28-5.55,28.21q-.39,37.86-.77,75.7Q229,372.5,229.13,419.43Z" transform="translate(-84.3 -140.21)"/><path class="cls-14" d="M267.07,140.35a7.46,7.46,0,0,1,1.76.18,8.77,8.77,0,0,1,3.89,2.05c5,4.39,11,7.66,15.68,12.35,1.1,1.09-.84-.87,19.41,15.71,15.74,12.89,27.9,23.08,28.85,23.88,11.64,9.68,32.55,26.83,73.64,59.18,25.22,5.15,40.81,8.82,50.6,11.29,6.6,1.67,13.91,3.64,24.74,5.65,5.95,1.1,9.43,1.56,15.81,2.93,8.09,1.74,14.56,3.59,18.7,4.85,4.15,2.51,5.67,7.54,3.86,11.33a8.77,8.77,0,0,1-8.28,4.72L407.49,272.05,261.17,157.62Z" transform="translate(-84.3 -140.21)"/><path class="cls-15" d="M488.74,307.2c7.91-7.54,5.21-4.2,9.35-8.28a19.86,19.86,0,0,1,5-3.83,18.14,18.14,0,0,1,6.09-1.93l-26.67-5.52.71,1.32c-13,11-18.7,15.73-18.83,15.89h0a1.81,1.81,0,0,1-.46.41,1.2,1.2,0,0,1-.39.2,2.19,2.19,0,0,1-1.43-.33c.76,1.91,1.5,3.94,2.17,6.08a86.67,86.67,0,0,1,3.55,17C469.08,326.81,480.14,315.35,488.74,307.2Z" transform="translate(-84.3 -140.21)"/><path class="cls-15" d="M502.11,274.36" transform="translate(-84.3 -140.21)"/></g><text class="cls-17" transform="translate(64.17 135.22)">For Theme 2 we had to make</text><text class="cls-17" transform="translate(77.44 158.22)">an interactive infographic</text><text class="cls-17" transform="translate(80.81 181.22)">experience and I feel like</text><text class="cls-17" transform="translate(76.77 204.22)">this theme was the turning</text><text class="cls-17" transform="translate(71.3 227.22)">point for me and how I look</text><text class="cls-17" transform="translate(104.94 250.22)">at design in general</text><text class="cls-18" transform="translate(122.14 86.92)">PROJECT 2</text></svg>