<svg id="Layer_1" data-name="Layer 1" xmlns="http://www.w3.org/2000/svg" viewBox="0 0 578.42 578.54"><defs><style>.cls-1{fill:#f15e6b;}.cls-2{fill:#e84856;}.cls-3{fill:#df414b;}.cls-4{fill:#ee4c5a;}.cls-5{fill:#e63b49;}.cls-6{fill:#231f20;opacity:0.14;}.cls-6,.cls-7,.cls-8,.cls-9{isolation:isolate;}.cls-10,.cls-7,.cls-9{fill:#fff;}.cls-7{opacity:0.17;}.cls-10,.cls-9{font-size:28px;font-family:CenturyGothic, Century Gothic;}</style></defs><title>theme1-info</title><path class="cls-1" d="M578.37,290c-.16,158.54-131.15,288.45-289.32,288.45S.16,448.42,0,290C-.15,131.31,130.81,1,289.19,1S578.52,131.28,578.37,290Z" transform="translate(0.01 0)"/><path class="cls-2" d="M5,342.42C61.39,383.19,126,378,189.05,371.3c64.06-6.81,106.87-5.51,166.16,18.32,37.32,15,62.81,32.37,79.18,43.82a443,443,0,0,1,64.05,54.67,211.53,211.53,0,0,1-39.65,36l-90.9-27c-96.07-9.72-192.46-9.18-288.84-8.7C38.58,447.71,14.21,398.88,5,342.42Z" transform="translate(0.01 0)"/><path class="cls-3" d="M79,488.34c96.38-.48,192.77-1,288.84,8.69l91,27A288.18,288.18,0,0,1,333,576.14c-4.81.73-81.84,11.63-156.53-20a308.41,308.41,0,0,1-43-22.69A289,289,0,0,1,79,488.34Z" transform="translate(0.01 0)"/><path class="cls-4" d="M572.67,347.31c-66.42,3.9-118.49,4.28-148.28,3.44-13.2-.37-33.17-1.29-56.22-10.56A142,142,0,0,1,346,328.88c-51.68-32.23-107.79-54.11-167.1-66.67-56.68-12-109.22-31.69-153.51-70.19-1.88-1.64-4.71-2.2-7.09-3.27a288.83,288.83,0,0,1,63.2-99.86c35.56-11.54,81.64-19.47,117.31,3,31,19.57,25.76,44.21,58.24,64.59,42.76,26.84,69.53-4.78,132,16.69,45.35,15.59,46.62,37.55,93.56,51.08,35.09,10.11,67.07,7.25,89,3.08a291.14,291.14,0,0,1,1.11,119.94Z" transform="translate(0.01 0)"/><path class="cls-5" d="M571.56,227.42c-76.31,7.72-110.83-6.19-128.17-21-5.27-4.49-22.25-20.39-48.8-31a142.5,142.5,0,0,0-32.77-8.85c-14.43-2-27-1.2-35.1-.68-13.59.88-16.23,2.36-27.32,2.1-3.21-.07-14.58-.33-24.81-3.19-14.49-4.05-24.09-12.59-36.55-24.88-40.5-40-40-49.34-58.51-57-13.37-5.57-25.29-5.39-41.43-5.15A162.37,162.37,0,0,0,81.49,88.89c18.72-20,65.2-63.92,139.28-81.52A276.31,276.31,0,0,1,331.06,4C398.5,15.49,444.28,45.5,457.57,55c18.53,13.25,64.82,49.67,94.53,114.23A284.9,284.9,0,0,1,571.56,227.42Z" transform="translate(0.01 0)"/><path class="cls-6" d="M382,14.64C400.09,21.07,504,59.93,553.78,173c6.48,14.72,44.1,103.85,10.81,205.41-4,12.15-20.75,60.39-63.94,107.39a296.3,296.3,0,0,1-69.07,55.83c-13.09,7.48-66.82,36.69-142.52,36.8a297,297,0,0,1-101.21-17.72C329.24,559.42,452,466,487.86,335.42,519.65,219.7,478,93.29,382,14.64Z" transform="translate(0.01 0)"/><ellipse class="cls-7" cx="289.2" cy="289.4" rx="289.18" ry="288.98"/><g class="cls-8"><text class="cls-9" transform="translate(72.39 195.86)">A simple task was given to us for </text><text class="cls-9" transform="translate(67.72 229.46)">theme 1, and that was to tell the </text><text class="cls-9" transform="translate(62.53 263.06)">story of a logo. But I soon realised </text><text class="cls-9" transform="translate(53.71 296.66)">that a simple logo, was the start of </text><text class="cls-9" transform="translate(112.73 330.26)">something greater for me</text></g><text class="cls-10" transform="translate(215.31 108.42)">PROJECT 1</text></svg>