<?xml version="1.0" encoding="utf-8"?>
<!-- Generator: Adobe Illustrator 23.0.1, SVG Export Plug-In . SVG Version: 6.00 Build 0)  -->
<svg version="1.1" id="Layer_1" xmlns="http://www.w3.org/2000/svg" xmlns:xlink="http://www.w3.org/1999/xlink" x="0px" y="0px"
	 viewBox="0 0 560.4 836.2" style="enable-background:new 0 0 560.4 836.2;" xml:space="preserve">
<style type="text/css">
	.st0{fill:#663815;}
	.st1{fill:#8E9838;}
	.st2{fill:#879135;}
</style>
<title>tree</title>
<path class="st0" d="M298.8,829.2c-7-178-14-356-20.9-534c-4.3-7.5-8.7-14.9-13-22.4c-8.1,185.2-16.3,370.5-24.4,555.7
	c4.9,2.7,14.5,7.2,27.5,7.7C282.8,836.7,293.8,831.8,298.8,829.2z"/>
<path class="st1" d="M560.4,666.5H0l145-206.8l-67.2,2.6l133.5-213.9l-66.3,1.8C190.4,166.8,235.7,83.4,281.1,0l136.1,250.1
	l-69.8,0.9l137,215.4l-73.3,1.1C460.9,533.9,510.6,600.2,560.4,666.5z"/>
<path class="st2" d="M281.1,0c-22.4,41.1-44.7,82.3-67.1,123.4c-22.9,42.2-45.9,84.3-68.8,126.5c24.4-0.5,48.7-1,73.1-1.6
	c-44.5,71.3-89,142.6-133.5,213.9c22.4-0.9,44.8-1.8,67.2-2.6C103.7,528.5,55.3,597.5,7,666.4c84.7,0,169.4,0,254.1,0l27.2-209.6
	l-48.3-0.1l34.4-198.9l-29.6,0.9c8-40.9,15.4-84,21.7-129.4C272.8,84.4,277.6,41.2,281.1,0z"/>
</svg>
