<?xml version="1.0" encoding="utf-8"?>
<!-- Generator: Adobe Illustrator 23.0.1, SVG Export Plug-In . SVG Version: 6.00 Build 0)  -->
<svg version="1.1" id="Layer_1" xmlns="http://www.w3.org/2000/svg" xmlns:xlink="http://www.w3.org/1999/xlink" x="0px" y="0px"
	 viewBox="0 0 475.9 252.2" style="enable-background:new 0 0 475.9 252.2;" xml:space="preserve">
<style type="text/css">
	.st0{fill:#6A56A4;}
	.st1{fill:#4D1F53;}
	.st2{fill:#534183;}
	.st3{fill:#54160A;}
	.st4{fill:#59CBF5;}
	.st5{fill:#B4E3F6;}
	.st6{opacity:0.49;fill:#10182A;}
</style>
<title>UFO</title>
<path class="st0" d="M363.4,85.9c6.8,1.1,16.5,3,28,6c20.3,5.3,32.9,9.4,52,19.1c9.9,5.1,19.7,10.6,27.6,18.8
	c4.4,4.5,4.8,9.9,4.9,15.6c0.1,3.8-3.1,5.3-5.4,7.5c-5.3,5.2-11.2,9.9-17.5,14c-12.8,8-26.7,13.4-41.1,17.9
	c-15.9,4.9-31.8,10.1-48,13.8c-12.5,2.9-25.1,5.6-37.9,7.4c-14.1,2-28.2,4.1-42.5,5c-17.2,1-34.3,2.2-51.5,1.8
	c-14.7-0.3-29.4-0.8-44-2.1c-15.4-1.4-30.8-3.4-46-6c-18.1-3.1-35.9-7.2-53.6-12.3c-18.8-5.2-37.2-12-54.9-20.2
	c-9.6-4.6-19.1-9.9-26.6-17.9c-2.5-2.6-6.1-3.9-6.7-8.5c-1-7.9,1.3-13.7,7.1-19.1c9.4-8.8,20.8-14.1,32.1-19.3
	c13.7-6.4,27.9-11.6,42.4-15.7c7.8-2.3,14.4-3.8,19-4.9c8.2,5,16.7,9.5,25.5,13.4c100,45,198.6,4.6,206.1,1.4
	C343.2,97.2,353.5,91.9,363.4,85.9z"/>
<path class="st1" d="M2.4,150.5c0.5,3.3,1.5,6.5,3,9.4c5.6,10.4,16.7,13.6,23,17.1c18.7,10.2,38.7,17,59,22.9
	c11.4,3.3,23,6.2,34.5,8.9c1.3,0.3,2.4,0.9,3.4,1.7c23,22.3,51.1,34,82.1,39.3c27.6,4.8,56,2.4,82.5-7c18.3-6.5,35-15.9,49-29.5
	c3.5-3.4,8-3.4,12.1-4.3c24.4-5.3,48.4-12.1,71.9-20.2c33.5-11.7,42.3-20.4,47-28c2.6-4.3,4.6-9,5.8-13.9
	c-6.2,7.1-13.2,13.4-20.8,18.8c-10.6,7.5-22,12.9-55,22.7c-21.2,6.3-31.8,9.4-48.3,13c-16.4,3.1-38.2,6.6-64.3,9
	c-8.2,0.7-21.8,2-38.7,2.4c-31.7,0.6-63.3-1.6-94.6-6.6c-31.9-5-53.9-11.2-76.8-17.6c-13.6-3.7-26.9-8.6-39.6-14.7
	c-11.3-5.4-21.8-12.1-31.4-20.1C4.5,152.4,3.3,151.2,2.4,150.5z"/>
<path class="st2" d="M342.2,211.1c-5,0.9-12.3,2.2-21.3,3.5c-22.5,3.6-45.2,5.4-68,5.3c-7.6,0-18,0.3-32,0
	c-20.3-0.5-49.5-1.4-85.4-8.2c-5.4-1-9.9-2-12.8-2.7c11.2,10.4,23.8,19.1,37.4,26c23.4,11.6,49.3,17.5,75.4,17.3
	c22.5-0.1,44.7-4.7,65.4-13.7C316,231.7,330,222.4,342.2,211.1z"/>
<path class="st3" d="M41.9,126.9c-2.5,0.1-4.8,1.2-6.5,3c-3.3,3.7-1.8,9.1-1.5,9.5c3.5,7.3,16.9,12.2,24.6,8.5c5.9-2.8,7.9-8,3.9-13
	c-1.8-2.3-4-4.1-6.5-5.5c-4.2-2.1-8.8-3-13.5-2.5H41.9z"/>
<path class="st4" d="M94.3,97c47.1,21.4,98.5,31.5,150.1,29.5c43.6-1.8,86.5-12.1,126.1-30.5C347.8,36.5,289.9-2.2,227.3,0.1
	C168,2.2,115.3,40.6,94.3,97z"/>
<path class="st5" d="M187.6,20.2c-8.4,9.5-15,17.9-19.9,24.4C147,71.7,137.4,90.6,134.7,96c-0.8,1.6-1.4,2.9-1.8,3.7l-15.8-6.5
	c5.9-15.7,20.4-46.9,52.9-65.2C175.7,24.9,181.5,22.2,187.6,20.2z"/>
<path class="st3" d="M107.6,156.2c-2.4,0.7-4.3,2.4-5.5,4.5c-2.2,4.5,0.6,9.2,0.9,9.6c5.3,6.2,19.4,7.6,25.9,2.1
	c5-4.3,5.6-9.8,0.5-13.6c-2.3-1.7-4.9-3-7.6-3.7c-4.6-1-9.3-0.6-13.7,1L107.6,156.2z"/>
<path class="st3" d="M222.7,173.8c-2.3,0.8-4.3,2.5-5.4,4.7c-2.1,4.5,0.9,9.2,1.2,9.6c5.4,6,19.6,7,26,1.4c4.9-4.4,5.3-9.9,0.1-13.6
	c-2.3-1.7-5-2.9-7.8-3.5c-4.6-0.9-9.3-0.4-13.6,1.4L222.7,173.8z"/>
<path class="st3" d="M419.2,126.9c2.5,0.1,4.8,1.2,6.5,3c3.3,3.7,1.8,9.1,1.5,9.5c-3.5,7.3-16.9,12.2-24.6,8.5
	c-5.9-2.8-7.9-8-3.9-13c1.8-2.3,4-4.1,6.5-5.5c4.2-2.1,8.8-3,13.5-2.5H419.2z"/>
<path class="st3" d="M350,156.2c2.4,0.8,4.3,2.4,5.5,4.5c2.2,4.5-0.6,9.2-0.9,9.6c-5.3,6.2-19.4,7.6-25.9,2.1
	c-5-4.3-5.6-9.8-0.5-13.6c2.3-1.7,4.9-3,7.6-3.7c4.6-1,9.3-0.6,13.7,1L350,156.2z"/>
<path class="st6" d="M227.3,0.1c-43.6,1.6-73.8,22.4-85.8,31.9c-25.4,20.1-38,43.8-43.6,56.3c-3.3,1-37.9,11.3-65.2,22.4
	c0,0-12.7,5.2-26.2,17.3c-1.4,1.2-3.2,3.1-4.5,5.9c-1.6,3.3-1.8,6.2-1.9,8.7c0,0-0.2,3,0.6,5.1c0.3,0.8,0.5,1.3,0.9,1.8
	c0.4,0.4,0.6,0.5,0.8,1c0.2,0.5,0.1,0.9,0.2,1.5c0,0.3,0.1,0.6,0.5,1.9c0.4,1.2,1.2,3.4,1.8,4.7c2.2,4.8,7.1,9.1,7.1,9.1
	c3,2.8,4.7,3.1,16.4,9.1c5.5,2.8,4.6,2.4,7.2,3.8c3,1.5,10.1,4.9,21.8,9.3c7.7,2.9,14.6,5.2,23,7.7c10.6,3.2,24.9,7.3,42.4,11.3
	c9.5,8.8,25.4,21.4,48,30.8c8.4,3.5,29.6,11.5,58.2,12.4c35.4,1.2,61.4-9.2,67.6-11.8c21.5-9,36.7-21,45.7-29.4
	c16.7-3.9,30.9-7.1,41.5-10.2c0,0,27.6-7.1,61-20.8c2.8-1.2,15.1-6.3,22.4-15.6c5.3-6.6,7.8-15,8-15.6c0.4-1.4,0.6-2.4,0.7-3.5
	c0,0,0.6-6.1-3.4-12.9c-8.3-13.9-41.1-27.2-41.1-27.2c-3.1-1.2-13.8-5.5-30.2-10.3c-14-4.1-26-6.7-34.6-8.4
	c-5.6-12.1-21.2-41.8-55.7-63.6C297.6,14.5,267.7-1.4,227.3,0.1z"/>
</svg>
