<svg id="Layer_1" data-name="Layer 1" xmlns="http://www.w3.org/2000/svg" viewBox="0 0 396.46 302.89"><defs><style>.cls-1{fill:#feef7e;}.cls-2{fill:#e49a41;}.cls-3{fill:#fbee42;}.cls-4{fill:#673514;}.cls-5{fill:#231f20;opacity:0.19;}</style></defs><title>umbrella</title><path class="cls-1" d="M120,395.53C149.1,315.9,219.82,258.65,303.4,247.1c81.38-11.25,162.93,22.5,213,88.06a138.86,138.86,0,0,0-66.14,13.07,137.35,137.35,0,0,0-40,28.84,172.58,172.58,0,0,0-180.74,28.07A126.56,126.56,0,0,0,120,395.53Z" transform="translate(-119.98 -244.26)"/><path class="cls-2" d="M229.57,405.14c-3.2-10.87-14-52.47,6.92-97.28a137.61,137.61,0,0,1,52.05-58.2c-20.87,3.94-75.26,17.15-120.49,65.12A218.2,218.2,0,0,0,120,395.53a126.54,126.54,0,0,1,109.59,9.61Z" transform="translate(-119.98 -244.26)"/><path class="cls-2" d="M291.64,249c20.34-4.09,80.28-13.38,144.05,18a222.71,222.71,0,0,1,80.75,68.07,137,137,0,0,0-106.13,41.91c-2.75-14.65-12-53.47-46.15-86.9A163.79,163.79,0,0,0,291.64,249Z" transform="translate(-119.98 -244.26)"/><path class="cls-3" d="M291.64,249c-42.23,7.62-60.76,69-62.79,75.78-10.76,35.69-3.45,66.63.72,80.32a172.57,172.57,0,0,1,180.74-28.07A167.57,167.57,0,0,0,401,345.32C383.89,303.24,338.29,240.62,291.64,249Z" transform="translate(-119.98 -244.26)"/><path class="cls-4" d="M289,371.88a21.55,21.55,0,0,0,40.38-8.27A90.3,90.3,0,0,0,289,371.88Z" transform="translate(-119.98 -244.26)"/><path class="cls-4" d="M306.72,376.7l11.55-.38L346,538c.87,5-2.37,9-5.5,9.12-2.15.11-4.38-1.55-5.65-4Q320.8,459.94,306.72,376.7Z" transform="translate(-119.98 -244.26)"/><path class="cls-5" d="M287.07,249.87a227.07,227.07,0,0,1,80.55-3.54,223.81,223.81,0,0,1,57.63,16,220.49,220.49,0,0,1,31.89,16.94,225.15,225.15,0,0,1,59.3,55.93,137.13,137.13,0,0,0-106.13,41.91A183.81,183.81,0,0,0,347,363.23a110.34,110.34,0,0,0-5.49-52.3C327.46,272.41,295.82,254.46,287.07,249.87Z" transform="translate(-119.98 -244.26)"/></svg>