<svg id="Layer_1" data-name="Layer 1" xmlns="http://www.w3.org/2000/svg" viewBox="0 0 477.19 81.2"><defs><style>.cls-1{fill:#70caea;}</style></defs><title>wave</title><path class="cls-1" d="M536.22,499.57a2.81,2.81,0,0,1-.6,2.18,2.48,2.48,0,0,1-2,.35,13.33,13.33,0,0,0-1.79,0H63.61c-2.44,0-3.51.14-4-.33-1.09-1.09-.31-3.64-.33-3.64s-.07.38-.27,2.15c3.25-35.62,13.55-61.85,23.91-70.21a45.08,45.08,0,0,1,13.23-7.36c7.71-2.42,14.74-1.75,19-1.34a56.82,56.82,0,0,1,9.44,1.72c8,2.17,16.09,3.86,24.09,5.93,13.05,3.37,26.18,4.9,39.53,1.82,10.17-2.36,20.27-5,30.41-7.44,9.48-2.31,18.9-3.24,28.69-.95s19.29,4.83,29,7.13c12.64,3,25.19,3.93,38.08,1,9.89-2.26,19.61-5.05,29.52-7.19,8.28-1.78,16.48-3.25,25.16-1.56,10.94,2.14,21.59,5.2,32.4,7.73,12.11,2.85,24.21,4.09,36.59,1.4,10.4-2.25,20.61-5.14,31-7.52,8-1.84,13.43-2.73,20.49-2.32,1.13.06,10.17.63,17.73,3.81C507.21,424.91,532.33,435.45,536.22,499.57Z" transform="translate(-59.04 -420.94)"/></svg>