<?xml version="1.0" encoding="utf-8"?>
<!-- Generator: Adobe Illustrator 23.0.1, SVG Export Plug-In . SVG Version: 6.00 Build 0)  -->
<svg version="1.1" id="Layer_1" xmlns="http://www.w3.org/2000/svg" xmlns:xlink="http://www.w3.org/1999/xlink" x="0px" y="0px"
	 viewBox="0 0 595.4 842" style="enable-background:new 0 0 595.4 842;" xml:space="preserve">
<style type="text/css">
	.st0{fill:#5875A7;}
	.st1{fill:#8BB3DF;}
	.st2{fill:#B5DFF7;}
</style>
<title>world2</title>
<g>
	<path class="st0" d="M595.4,421.5c-65.2,4.1-116.4-36.2-151.2-74.3c-61-66.7-90.7-146.7-144-121.6c-39.5,18.7-57.3,78.8-91,135.6
		C164.4,436.7,96.6,496.9,0.1,408v1.8c0,27.5-0.1,48-0.1,52.4c-0.1,27,0,62.1,0,145.7C0,686,0,764,0,842c198.5,0,397,0,595.4,0
		V421.5z"/>
	<path class="st1" d="M0.1,209.6v55.8c8.3-2.5,19.8-4.7,32.7-2.6c6.1,1,7.7,2.2,19.8,5.7c16.8,4.8,25.2,7.2,32.5,7.5
		c18.1,0.6,27.3-6.8,37.6-1c3,1.7,2,2.2,5.2,4.3c11.1,7.2,25,1.8,45.6,1.6c15.3-0.1,14.6,3,27.5,2.9c60.3-0.4,66.9-35.6,117.5-27.2
		c25.4,4.2,27.4,10.9,77.3,20.7c34,6.7,51.4,9.9,69.2,5.1c33.4-9,33.4-33.8,66.4-44.3c23-7.3,47-2.3,64.3,3.6V52.6H0L0.1,209.6z"/>
	<path class="st0" d="M0,90.4c21.6,9.4,55.1,21.7,101.2,30.1c0,0,2.7,0.5,5.3,0.9c23.7,4,91.3,13.1,183.1-2
		c117.8-19.3,122.1-41,196.9-42.4c46.5-0.9,84.6,6.9,108.8,13.3c0-30.1,0-60.2-0.1-90.2L0,0V90.4z"/>
	<path class="st2" d="M0.1,368.3c37.6,39.8,65.7,47.3,84.8,46.3c32.8-1.7,51.4-30.1,81.4-24.1c17.6,3.5,39.1,16.1,40,16.7
		c18.7,11.1,17.2,15.6,25.9,18c27.5,7.4,44.7-36.7,76.3-33.7c21.3,2,23.2,23.1,51,29c7.1,1.5,21,3.1,48.8-7.8
		c60.6-23.8,69-60.4,105.9-67.9c16.8-3.4,43.3-1.5,81.2,28.7c0-46.1,0-92.1,0-138.2c-23.8-10.8-61.6-25-103.1-28.1
		c-23.5-1.7-51.6-0.1-54.4,0c-56.9,3.1-86.4,14.9-132.8,25.3L303,233c-1.9,0.4-4.9,1.1-8.8,2c-91,19.9-139.9,23.7-139.9,23.7
		C129,260.5,74.7,261.3,0,235.3C0.1,235.4,0.1,368.3,0.1,368.3z"/>
	<path class="st1" d="M0.1,496.8c70.6,40.5,134.3,48.1,164.7,49.9c74.4,4.4,136.3-13.1,166.2-22.2c70.9-21.5,85.3-42.2,139-47.9
		c51.7-5.4,95.9,7.8,125.4,20.1c0-52.9,0-105.7,0-158.6c-52.5-10.3-106.2-13.4-159.6-9.1c-113.2,9.3-156.7,47.9-252,50.1
		c-41.8,1-104.8-4.7-183.7-41c0,14.3-0.1,35.4-0.1,49.7C0,424.2,0,460.5,0.1,496.8z"/>
</g>
</svg>
